<svg id="collar_options" xmlns="http://www.w3.org/2000/svg" viewBox="0 0 80 80"><defs><style>.cls-1{fill:#e6e7e8;}.cls-1,.cls-2,.cls-3,.cls-7,.cls-8,.cls-9{stroke:#231f20;}.cls-1,.cls-3,.cls-4,.cls-7,.cls-8,.cls-9{stroke-miterlimit:10;}.cls-1,.cls-2,.cls-3,.cls-4,.cls-7,.cls-8,.cls-9{stroke-width:0.5px;}.cls-2,.cls-3,.cls-6{fill:#fff;}.cls-2{stroke-linejoin:round;}.cls-4,.cls-5,.cls-7,.cls-8,.cls-9{fill:none;}.cls-4{stroke:#939598;}.cls-8{stroke-dasharray:0.94 0.94;}.cls-9{stroke-dasharray:0.7 0.7;}</style></defs><title>inserts</title><path class="cls-1" d="M12.55,18.27C18,14.67,26.6,14.33,39.9,14.33s28,.95,30.16,5.71c0,0,2.14,17.58-12.24,11.53-1.08-.45-12.18-1.24-17.65-1.15-8.19.13-16.21.23-17.62,1.84-2.81,3.24-7.28-1.57-8.27-3.28l-3-7,1.23-3.69"/><path class="cls-2" d="M30,47.79a25.72,25.72,0,0,0,9.14,1.59c-1.34-8-1-9.8-1.93-14.92-3.8,6.29-6.51,11.39-6.51,11.39L30,47.79"/><path class="cls-3" d="M64.8,43.19c-5,3.62-17.48,6.43-22.65,6.19,0,0,.85-8.93,1.25-14.59l21.4,8.4"/><path class="cls-4" d="M19.07,28S22.35,26.23,41,26.23s21.11,1.85,21.11,1.85"/><path class="cls-3" d="M37.25,34.46s.07.55-2.4,4.73S20.56,63.87,20.56,63.87,1.22,49,3.19,42.39s6.4-22.16,9.36-24.12c0,0-1.72,6.15,5.42,9.23C25.32,30.67,26.14,30.48,37.25,34.46Z"/><path class="cls-4" d="M3.71,40.28s3.48,7.22,16.06,18.9c6.93-13.06,12.89-24.1,14-25.67"/><rect class="cls-5" width="80" height="80"/><path class="cls-2" d="M47,36.05l28.7,11.49s2.76-4.21,2.48-6.65c0-1.23-5.33-16.17-7.69-20.65a8.77,8.77,0,0,0-2.24-2.13l-.82-.42s4.09,3.06-1.92,7c-9.05,6-22.08,9.72-22.08,9.72A30.27,30.27,0,0,0,47,36.05Z"/><line class="cls-4" x1="48.45" y1="33.18" x2="59.01" y2="38.66"/><path class="cls-4" d="M72.33,46.35c.58-.37,3.06-3.43,4.63-8.92"/><path class="cls-2" d="M47,36.05c4.22,2.48,13.49-.68,23.2-12.21,1.16,9.6,2.9,21.84,5.5,23.7Z"/><path class="cls-6" d="M69.69,30.11l-.51-2.81-2.24,1.77L62.61,40.49a3.29,3.29,0,0,0,1.25,1,2.87,2.87,0,0,0,1.5.08Z"/><polyline class="cls-7" points="69.27 27.79 69.18 27.3 68.78 27.61"/><polyline class="cls-8" points="68.05 28.19 66.94 29.07 62.96 39.58"/><path class="cls-7" d="M62.79,40l-.18.47a4.31,4.31,0,0,0,.34.36"/><path class="cls-9" d="M63.51,41.28l.35.17a2.71,2.71,0,0,0,.65.14"/><path class="cls-7" d="M64.86,41.59a2.63,2.63,0,0,0,.5-.06l.18-.47"/><polyline class="cls-8" points="65.87 40.18 69.69 30.11 69.35 28.25"/></svg>