<?xml version="1.0" encoding="iso-8859-1"?>
<!-- Generator: Adobe Illustrator 16.0.4, SVG Export Plug-In . SVG Version: 6.00 Build 0)  -->
<!DOCTYPE svg PUBLIC "-//W3C//DTD SVG 1.1//EN" "http://www.w3.org/Graphics/SVG/1.1/DTD/svg11.dtd">
<svg version="1.1" id="Layer_1" xmlns="http://www.w3.org/2000/svg" xmlns:xlink="http://www.w3.org/1999/xlink" x="0px" y="0px"
	 width="80.152px" height="80.148px" viewBox="0 0 80.152 80.148" style="enable-background:new 0 0 80.152 80.148;"
	 xml:space="preserve">
<g>
	<path style="opacity:0.35;" d="M4.944,8.583c0.606-0.455,1.373-0.71,3.873-0.938c2.498-0.227,7.84-0.92,30.869-0.3
		c8.786,0.235,28.549,1.126,31.815,2.983c0,0,0.998,6.161,1.113,7.468c0.111,1.307,1.305,6.136,2.102,7.101
		c0.795,0.966,1.533,11.589,1.021,13.69c-0.512,2.103-1.021,7.841-1.193,9.715c-0.17,1.875-0.625,18.064-0.852,21.473
		c-0.227,3.41-0.852,10.738-1.875,9.145H38.245c0,0-2.955-14.256-3.238-12.326c-0.285,1.932-5.967,12.214-5.967,12.214H0.863
		L0.296,63.81c0,0,2.783-45.901,3.012-46.979c0.227-1.079,0.396-1.705,0.453-1.875c0.057-0.171,0-1.591,0.228-2.216
		C4.215,12.114,4.944,8.583,4.944,8.583z"/>
	<path style="fill:#FFFFFF;" d="M7.945,5.655c0.605-0.454,1.372-0.71,3.872-0.938c2.499-0.228,7.841-0.92,30.87-0.301
		C51.472,4.653,71.236,5.544,74.5,7.401c0,0,1,6.16,1.113,7.468c0.113,1.306,1.307,6.136,2.102,7.1
		c0.795,0.966,1.535,11.59,1.023,13.691c-0.512,2.103-1.023,7.84-1.193,9.715s-0.625,18.063-0.852,21.473
		c-0.229,3.409-0.852,10.737-1.875,12.157H41.244c0,0-2.955-17.27-3.238-15.339s-5.965,15.226-5.965,15.226H3.863l-0.567-18.01
		c0,0,2.784-45.9,3.011-46.979c0.229-1.079,0.396-1.704,0.455-1.874c0.056-0.171,0-1.592,0.227-2.216
		C7.215,9.188,7.945,5.655,7.945,5.655z"/>
	<path style="fill:none;stroke:#000000;stroke-width:0.624;stroke-miterlimit:10;" d="M41.244,79.005c0,0-2.955-17.27-3.238-15.339
		s-5.965,15.226-5.965,15.226"/>
	<path style="fill:none;stroke:#000000;stroke-width:0.624;stroke-miterlimit:10;" d="M3.863,78.892l-0.567-18.01
		c0,0,2.784-45.9,3.011-46.979c0.229-1.079,0.396-1.704,0.455-1.874c0.056-0.171,0-1.592,0.227-2.216
		c0.227-0.625,0.957-4.157,0.957-4.157c0.605-0.454,1.372-0.71,3.872-0.938c2.499-0.228,7.841-0.92,30.87-0.301
		C51.472,4.653,71.236,5.544,74.5,7.401c0,0,1,6.16,1.113,7.468c0.113,1.306,1.307,6.136,2.102,7.1
		c0.795,0.966,1.535,11.59,1.023,13.691c-0.512,2.103-1.023,7.84-1.193,9.715s-0.625,18.063-0.852,21.473
		c-0.229,3.409-0.852,10.737-1.875,12.157"/>
	<path style="fill:#DADADA;" d="M8.011,6.12c0,0-0.249-0.585,0.744-0.844c1.866-0.488,9.864-1.388,33.754-0.793
		c1.039,0.026,20.783,0.565,29.039,2.14c1.223,0.232,2.771,0.595,2.814,1.03c0,0.057,1.137,2.5-34.879,1.362
		C36.133,8.911,9.203,7.312,8.011,6.12z"/>
	<rect style="fill:none;" width="80.152" height="80.148"/>
	<path style="fill:none;stroke:#000000;stroke-width:0.624;stroke-miterlimit:10;" d="M6.762,12.028c0,0,4.828,1.193,14.371,1.817
		c9.545,0.625,24.826,1.307,31.472,1.363S71.58,15.948,75.5,14.016"/>
	<path style="fill:none;stroke:#000000;stroke-width:0.624;stroke-miterlimit:10;" d="M74.363,7.653c0,0.057,1.137,2.5-34.879,1.362
		c-3.351-0.104-30.388-1.776-31.58-2.97"/>
	<path style="fill:#DADADA;" d="M74.914,16.572c0,0,0.281,10.21,0.697,11.877c0.416,1.666,0.289,6.549,0.25,7.875
		c-0.037,1.325,0.945,6.267,0.945,6.267s0.303,0.039,0.34-0.265c0.039-0.303,0.152-6.212,0.531-7.12
		c0.379-0.909,0.15-9.693-1.066-11.882c-1.25-2.25-1.32-5.653-1.396-6.259C75.138,16.459,74.951,16.308,74.914,16.572z"/>
	<path style="fill:#808080;stroke:#000000;stroke-width:0.624;stroke-miterlimit:10;" d="M45.732,25.038
		c0,0,7.613,0.453,12.555,0.34c4.941-0.114,10.34-0.625,10.34-0.625l0.057,1.648c0,0-6.648,0.567-10.396,0.567
		c-3.75,0-12.668-0.398-12.668-0.398L45.732,25.038z"/>
	<path style="fill:#808080;stroke:#000000;stroke-width:0.624;stroke-miterlimit:10;" d="M7.33,21.686l-0.228,1.875
		c0,0,4.772,1.078,8.975,1.362c4.204,0.284,8.806,0.568,8.806,0.568l-0.057-1.761c0,0-4.317-0.228-8.977-0.682
		C11.191,22.595,7.33,21.686,7.33,21.686z"/>
	<path style="fill:none;stroke:#9D9D9C;stroke-width:0.6239;stroke-miterlimit:10;" d="M33.611,26.699c0,0-2.625,19.5,4.389,36.562"
		/>
	<path style="opacity:0.35;" d="M13.963,7.164c0,0-0.135,3.371-0.305,3.975s-0.562,2.424-0.486,2.951
		c0.076,0.527-1.544,0.291-2.055-0.486C10.605,12.828,13.963,7.164,13.963,7.164z"/>
	<path style="opacity:0.35;" d="M61.587,9.532c0,0,0,3.523,0.037,4.333c0.037,0.812-0.1,2.611,0.523,2.951
		c0.621,0.339,1.941-0.336,1.941-0.336L61.587,9.532z"/>
	<polygon style="fill:#FFFFFF;stroke:#000000;stroke-width:0.624;stroke-miterlimit:10;" points="27.609,8.165 27.098,15.38 
		28.575,15.493 29.03,8.278 	"/>
	<path style="fill:#FFFFFF;stroke:#000000;stroke-width:0.624;stroke-miterlimit:10;" d="M13.834,7.028
		c0,0.085-0.341,3.466-0.767,4.29c-0.427,0.823-0.853,1.42-0.739,2.016c0.113,0.597-1.022,0-1.022,0s-0.085-1.192,0.228-1.789
		s0.795-1.505,0.938-2.499c0.142-0.995,0.312-2.158,0.312-2.158L13.834,7.028z"/>
	<polygon style="fill:#FFFFFF;stroke:#000000;stroke-width:0.624;stroke-miterlimit:10;" points="42.55,8.932 42.324,16.091 
		43.798,16.118 44.056,8.932 	"/>
	<path style="fill:#FFFFFF;stroke:#000000;stroke-width:0.624;stroke-miterlimit:10;" d="M61.835,9.103c0,0,0.115,3.124,0.342,4.345
		c0.227,1.222,0.312,1.816,0.312,2.557c0,0.342,1.393,0.37,1.42,0.199c0.029-0.171-0.027-2.159-0.197-2.727
		c-0.172-0.568-0.455-4.431-0.455-4.431L61.835,9.103z"/>
</g>
<g>
</g>
<g>
</g>
<g>
</g>
<g>
</g>
<g>
</g>
<g>
</g>
<g>
</g>
<g>
</g>
<g>
</g>
<g>
</g>
<g>
</g>
<g>
</g>
<g>
</g>
<g>
</g>
<g>
</g>
</svg>
