<svg id="backDetails_yoke" data-name="backDetails/yoke" xmlns="http://www.w3.org/2000/svg" viewBox="0 0 77.24 64.59"><defs><style>.cls-1{fill:#fff;}.cls-1,.cls-2,.cls-3{stroke:#231f20;stroke-miterlimit:10;}.cls-1,.cls-2{stroke-width:0.79px;}.cls-2,.cls-3{fill:none;}</style></defs><title>normal_yoke</title><path class="cls-1" d="M70,74.52" transform="translate(-1.82 -12.89)"/><path class="cls-1" d="M69.69,30.05c-1-1.85-19.83-8.6-19.83-8.6l-20.27-.18S11.49,29,10.71,29.77" transform="translate(-1.82 -12.89)"/><path class="cls-1" d="M25.62,22.86l2-7c3.11-3.11,13-2.49,14.11-2.49s9.24.15,10.06,2.44S53.26,20.34,54,23A66,66,0,0,0,25.62,22.86Z" transform="translate(-1.82 -12.89)"/><path class="cls-2" d="M67.85,37.48c-19.19-7-41-7-55.78-.37" transform="translate(-1.82 -12.89)"/><path class="cls-3" d="M39.81,32.18" transform="translate(-1.82 -12.89)"/><path class="cls-3" d="M39.81,21.46" transform="translate(-1.82 -12.89)"/><path class="cls-2" d="M64.62,77.45a128.44,128.44,0,0,1,2.25-17.1" transform="translate(-1.82 -12.89)"/><path class="cls-2" d="M64.62,77.45" transform="translate(-1.82 -12.89)"/><path class="cls-2" d="M13.7,77.45" transform="translate(-1.82 -12.89)"/><path class="cls-2" d="M12.07,59.21c1.09,6.54,1.13,12.86,1.63,18.24" transform="translate(-1.82 -12.89)"/><path class="cls-2" d="M11.36,59.61" transform="translate(-1.82 -12.89)"/><path class="cls-2" d="M67.12,60.35" transform="translate(-1.82 -12.89)"/><path class="cls-2" d="M78.8,38.51" transform="translate(-1.82 -12.89)"/><path class="cls-2" d="M78.8,69.92" transform="translate(-1.82 -12.89)"/><path class="cls-2" d="M78.8,38.51c-5.11-4.73-9.89-9.11-9.89-9.11s-3.28,16.51-2,31.51c5.39,4.37,9.56,7.43,11.88,9" transform="translate(-1.82 -12.89)"/><path class="cls-2" d="M2.09,68.4l10-9.19c2.62-8.77-1.13-29.53-1.13-29.53-1.44,1.49-5.17,5-8.85,8.46" transform="translate(-1.82 -12.89)"/><path class="cls-2" d="M2.09,68.4" transform="translate(-1.82 -12.89)"/><path class="cls-2" d="M2.09,38.14" transform="translate(-1.82 -12.89)"/></svg>