<?xml version="1.0" encoding="iso-8859-1"?>
<!-- Generator: Adobe Illustrator 16.0.4, SVG Export Plug-In . SVG Version: 6.00 Build 0)  -->
<!DOCTYPE svg PUBLIC "-//W3C//DTD SVG 1.1//EN" "http://www.w3.org/Graphics/SVG/1.1/DTD/svg11.dtd">
<svg version="1.1" id="Layer_1" xmlns="http://www.w3.org/2000/svg" xmlns:xlink="http://www.w3.org/1999/xlink" x="0px" y="0px"
	 width="80px" height="80px" viewBox="0 0 80 80" style="enable-background:new 0 0 80 80;" xml:space="preserve">
<rect style="fill:none;" width="80" height="80"/>
<path style="opacity:0.35;" d="M74.576,38.426c0-1.154-4.99-15.157-7.206-19.361c-0.471-0.893-1.35-1.598-2.097-2.002
	c-0.443-0.239-0.774-0.384-0.774-0.384s3.797,3.893-0.548,6.979c-7.634,5.422-20.968,8.577-23.068,9.05l-0.004,0
	c-0.009,0.002-0.018,0.004-0.028,0.008c-0.163,0.037-0.26,0.057-0.26,0.057c0.005,0.003,0.008,0.008,0.012,0.011
	c-1.146,0.304-2.142,0.722-3.01,1.222l-2.758-1.45l-4.452,7.629c0.811-1.493,1.468-2.68,1.865-3.352
	c2.31-3.923,2.247-4.433,2.247-4.433c-10.419-3.733-9.446-3.561-16.338-6.528c-6.699-2.884-5.082-8.652-5.082-8.652
	c-2.779,1.835-6.93,16.382-8.778,22.612c-1.848,6.229,14.553,22.151,14.553,22.151s5.473-10.478,9.528-18.07l3.409,1.006
	c0.022,0.212,0.088,0.423,0.259,0.423c5.711,1.292,14.364,0.112,16.374-0.192l9.758,16.582
	C61.642,58.731,75.039,42.35,74.576,38.426z"/>
<linearGradient id="SVGID_1_" gradientUnits="userSpaceOnUse" x1="11.792" y1="21.9043" x2="66.8926" y2="21.9043">
	<stop  offset="0" style="stop-color:#D5D7D8"/>
	<stop  offset="0.1822" style="stop-color:#FFFFFF"/>
	<stop  offset="0.8283" style="stop-color:#EFF0F0"/>
	<stop  offset="1" style="stop-color:#C2C2C2"/>
</linearGradient>
<path style="fill:url(#SVGID_1_);stroke:#000000;stroke-width:0.935;stroke-miterlimit:10;" d="M12.946,14.69
	c5.111-3.375,13.167-3.692,25.642-3.692c12.474,0,26.212,0.89,28.279,5.351c0,0,1.867,15.993-26.2,16.454
	c-13.281,0.219-23.908-4.269-26.103-8.076l-2.772-6.576L12.946,14.69"/>
<path style="fill:#939598;stroke:#000000;stroke-width:0.935;stroke-miterlimit:10;" d="M25.735,26.485
	c0,0,7.872-0.468,12.556-0.468c4.685,0,15.37,0.354,15.37,0.354l-0.753,0.957l-12.087,4.4l-6.3,0.754l-4.664-2.439L25.735,26.485z"
	/>
<polygon style="fill:#FFFFFF;stroke:#000000;stroke-width:0.935;stroke-miterlimit:10;" points="37.665,31.58 31.918,42.466 
	28.106,41.34 34.708,30.026 "/>
<path style="fill:#FFFFFF;stroke:#000000;stroke-width:0.935;stroke-miterlimit:10;" d="M48.724,42.552c0,0-10.309,1.73-16.806,0.26
	c-0.347,0-0.26-0.865-0.26-0.865s-0.086-9.536,9.095-11.768l9.926,3.94L48.724,42.552"/>
<circle style="fill:none;stroke:#000000;stroke-width:0.935;stroke-miterlimit:10;" cx="39.151" cy="37.886" r="2.599"/>
<circle style="fill:none;stroke:#000000;stroke-width:0.935;stroke-miterlimit:10;" cx="39.151" cy="37.886" r="1.169"/>
<path style="fill:#FFFFFF;stroke:#000000;stroke-width:0.935;stroke-miterlimit:10;" d="M67.243,16.537
	c2.215,4.204,7.207,18.207,7.207,19.361c0.462,3.922-12.937,20.305-16.401,23.305L43.149,33.877c0,0-1.819-2.941-2.686-3.634
	c0,0,15.059-3.217,23.359-9.115c4.347-3.087,0.55-6.98,0.55-6.98s0.331,0.147,0.772,0.385
	C65.896,14.938,66.773,15.644,67.243,16.537z"/>
<path style="fill:#FFFFFF;stroke:#000000;stroke-width:0.935;stroke-miterlimit:10;" d="M34.366,29.871c0,0,0.063,0.51-2.247,4.433
	c-2.311,3.922-13.398,25.152-13.398,25.152S2.32,43.533,4.168,37.303c1.848-6.23,5.999-20.777,8.778-22.613
	c0,0-1.617,5.768,5.083,8.652C24.92,26.31,23.948,26.138,34.366,29.871z"/>
<path style="fill:none;stroke:#939598;stroke-width:0.7254;stroke-miterlimit:10;" d="M4.657,35.325c0,0,1.528,8.784,13.32,19.731
	C24.476,42.81,30.063,30.456,31.098,28.98"/>
<path style="fill:none;stroke:#939598;stroke-width:0.7254;stroke-miterlimit:10;" d="M43.654,29.624L58.93,55.164
	c0,0,6.935-7.469,9.534-11.363c2.601-3.896,4.659-7.684,4.875-11.147"/>
<path style="fill:none;stroke:#939598;stroke-width:0.7254;stroke-miterlimit:10;" d="M19.06,23.778c0,0,3.072-1.625,20.515-1.625
	c17.443,0,19.789,1.732,19.789,1.732"/>
<rect style="fill:none;" width="80" height="80"/>
<g>
</g>
<g>
</g>
<g>
</g>
<g>
</g>
<g>
</g>
<g>
</g>
<g>
</g>
<g>
</g>
<g>
</g>
<g>
</g>
<g>
</g>
<g>
</g>
<g>
</g>
<g>
</g>
<g>
</g>
</svg>
