<?xml version="1.0" encoding="iso-8859-1"?>
<!-- Generator: Adobe Illustrator 16.0.4, SVG Export Plug-In . SVG Version: 6.00 Build 0)  -->
<!DOCTYPE svg PUBLIC "-//W3C//DTD SVG 1.1//EN" "http://www.w3.org/Graphics/SVG/1.1/DTD/svg11.dtd">
<svg version="1.1" id="Layer_1" xmlns="http://www.w3.org/2000/svg" xmlns:xlink="http://www.w3.org/1999/xlink" x="0px" y="0px"
	 width="80px" height="80px" viewBox="0 0 80 80" style="enable-background:new 0 0 80 80;" xml:space="preserve">
<rect style="fill:none;" width="80" height="80"/>
<path style="opacity:0.35;" d="M66.468,22.217c0-0.864-3.742-11.36-5.403-14.514c-0.353-0.668-1.011-1.197-1.572-1.5
	c-0.331-0.178-0.579-0.288-0.579-0.288s2.846,2.918-0.411,5.231c-5.723,4.065-15.721,6.429-17.294,6.785l-0.002-0.002
	c-0.007,0.003-0.015,0.006-0.022,0.007c-0.122,0.029-0.193,0.043-0.193,0.043c0.002,0.003,0.005,0.006,0.007,0.009
	c-0.857,0.227-1.606,0.541-2.255,0.916l-2.067-1.086l-3.338,5.719c0.608-1.121,1.1-2.009,1.398-2.513
	c1.731-2.94,1.683-3.323,1.683-3.323c-7.809-2.797-7.081-2.67-12.248-4.895c-5.022-2.161-3.811-6.487-3.811-6.487
	c-2.081,1.376-5.194,12.283-6.579,16.953c-1.386,4.67,10.909,15.099,10.909,15.099s4.104-6.347,7.146-12.039l-0.185,4.893
	c0.016,0.161,0.173,46.253,0.301,46.253c0.874,0.197,3.633-0.3,3.633-0.3c2.339-7.79,2.625-37.431,5.146-49.583
	c1.393-6.72,5.7-0.271,6.128-0.335l7.315,10.923C56.771,35.934,66.813,25.159,66.468,22.217z"/>
<polyline style="fill:#FFFFFF;stroke:#000000;stroke-width:0.8229;stroke-miterlimit:10;" points="33.016,78.346 33.016,24.354 
	45.419,24.354 45.419,78.346 "/>
<linearGradient id="SVGID_1_" gradientUnits="userSpaceOnUse" x1="19.3994" y1="9.832" x2="60.707" y2="9.832">
	<stop  offset="0" style="stop-color:#D5D7D8"/>
	<stop  offset="0.1822" style="stop-color:#FFFFFF"/>
	<stop  offset="0.8283" style="stop-color:#EFF0F0"/>
	<stop  offset="1" style="stop-color:#C2C2C2"/>
</linearGradient>
<path style="fill:url(#SVGID_1_);stroke:#000000;stroke-width:0.8229;stroke-miterlimit:10;" d="M20.266,4.424
	c3.831-2.532,9.871-2.769,19.222-2.769c9.35,0,19.651,0.667,21.2,4.013c0,0,1.401,11.988-19.64,12.335
	c-9.958,0.162-17.925-3.201-19.57-6.054l-2.078-4.931L20.266,4.424"/>
<path style="fill:#FFFFFF;stroke:#000000;stroke-width:0.8229;stroke-miterlimit:10;" d="M29.853,13.265
	c0,0,5.901-0.349,9.413-0.349c3.512,0,11.521,0.264,11.521,0.264l-0.562,0.718l-9.063,3.299l-4.722,0.565l-3.496-1.829
	L29.853,13.265z"/>
<polygon style="fill:#FFFFFF;stroke:#000000;stroke-width:0.8229;stroke-miterlimit:10;" points="38.795,17.085 34.487,25.248 
	31.629,24.402 36.579,15.921 "/>
<path style="fill:#FFFFFF;stroke:#000000;stroke-width:0.8229;stroke-miterlimit:10;" d="M47.085,25.312
	c0,0-7.728,1.295-12.598,0.195c-0.261,0-0.194-0.649-0.194-0.649s-0.066-7.148,6.818-8.823l7.44,2.956L47.085,25.312"/>
<g>
	<circle style="fill:none;stroke:#000000;stroke-width:0.8229;stroke-miterlimit:10;" cx="39.91" cy="21.813" r="1.947"/>
	<circle style="fill:none;stroke:#000000;stroke-width:0.8229;stroke-miterlimit:10;" cx="39.909" cy="21.813" r="0.877"/>
</g>
<g>
	<circle style="fill:none;stroke:#000000;stroke-width:0.8229;stroke-miterlimit:10;" cx="39.218" cy="38.946" r="1.947"/>
	<circle style="fill:none;stroke:#000000;stroke-width:0.8229;stroke-miterlimit:10;" cx="39.218" cy="38.946" r="0.878"/>
</g>
<g>
	<circle style="fill:none;stroke:#000000;stroke-width:0.8229;stroke-miterlimit:10;" cx="39.218" cy="66.517" r="1.947"/>
	<path style="fill:none;stroke:#000000;stroke-width:0.8229;stroke-miterlimit:10;" d="M40.096,66.517
		c0,0.485-0.392,0.879-0.879,0.879c-0.484,0-0.876-0.394-0.876-0.879c0-0.481,0.393-0.874,0.876-0.874
		C39.704,65.643,40.096,66.035,40.096,66.517z"/>
</g>
<path style="fill:#FFFFFF;stroke:#000000;stroke-width:0.8229;stroke-miterlimit:10;" d="M60.971,5.807
	c1.66,3.153,5.403,13.65,5.403,14.516c0.345,2.94-9.698,13.714-12.297,15.964l-11.17-17.479c0,0-1.363-2.206-2.013-2.726
	c0,0,11.288-2.411,17.514-6.831c3.257-2.315,0.41-5.233,0.41-5.233s0.248,0.109,0.579,0.29C59.96,4.61,60.618,5.138,60.971,5.807z"
	/>
<path style="fill:#FFFFFF;stroke:#000000;stroke-width:0.8229;stroke-miterlimit:10;" d="M36.323,15.804
	c0,0,0.048,0.382-1.683,3.324c-1.734,2.941-10.047,17.348-10.047,17.348S12.298,26.044,13.683,21.375
	c1.387-4.67,4.498-15.574,6.583-16.951c0,0-1.212,4.324,3.809,6.485C29.242,13.136,28.512,13.006,36.323,15.804z"/>
<path style="fill:none;stroke:#939598;stroke-width:0.8229;stroke-miterlimit:10;" d="M14.05,19.894c0,0,1.145,5.078,9.985,13.284
	c4.873-9.182,9.063-16.936,9.836-18.04"/>
<path style="fill:none;stroke:#939598;stroke-width:0.8229;stroke-miterlimit:10;" d="M43.285,15.62l11.453,17.639
	c0,0,8.993-9.065,10.803-15.367"/>
<path style="fill:none;stroke:#939598;stroke-width:0.8229;stroke-miterlimit:10;" d="M24.848,11.236c0,0,2.303-1.218,15.38-1.218
	s14.834,1.301,14.834,1.301"/>
<g>
</g>
<g>
</g>
<g>
</g>
<g>
</g>
<g>
</g>
<g>
</g>
<g>
</g>
<g>
</g>
<g>
</g>
<g>
</g>
<g>
</g>
<g>
</g>
<g>
</g>
<g>
</g>
<g>
</g>
</svg>
