<?xml version="1.0" encoding="iso-8859-1"?>
<!-- Generator: Adobe Illustrator 16.0.4, SVG Export Plug-In . SVG Version: 6.00 Build 0)  -->
<!DOCTYPE svg PUBLIC "-//W3C//DTD SVG 1.1//EN" "http://www.w3.org/Graphics/SVG/1.1/DTD/svg11.dtd">
<svg version="1.1" id="Layer_1" xmlns="http://www.w3.org/2000/svg" xmlns:xlink="http://www.w3.org/1999/xlink" x="0px" y="0px"
	 width="80px" height="80px" viewBox="0 0 80 80" style="enable-background:new 0 0 80 80;" xml:space="preserve">
<g>
	<g>
		<path style="opacity:0.35;" d="M71.274,58.605c0,3.812-23.829,13.415-27.421,13.415h-0.215c-4.04,0-30.607-10.051-30.607-12.967
			l0.058-37.672c0-10.027,1.797-9.131,7.186-9.131h44.001c5.611,0,6.998,0.001,6.998,10.029V58.605z"/>
		<path style="fill:#FFFFFF;stroke:#000000;stroke-width:0.8808;stroke-miterlimit:10;" d="M67.02,54.356
			c0,3.812-23.829,13.416-27.42,13.416h-0.213c-4.04,0-30.608-10.051-30.608-12.968l0.059-37.673C8.836,7.105,10.632,8,16.021,8
			h44.001c5.61,0,6.997,0.002,6.997,10.027V54.356z"/>
		
			<line style="fill:none;stroke:#000000;stroke-width:0.8808;stroke-miterlimit:10;" x1="12.877" y1="18.027" x2="62.94" y2="18.027"/>
	</g>
</g>
<rect style="fill:none;" width="80" height="80"/>
<g>
</g>
<g>
</g>
<g>
</g>
<g>
</g>
<g>
</g>
<g>
</g>
<g>
</g>
<g>
</g>
<g>
</g>
<g>
</g>
<g>
</g>
<g>
</g>
<g>
</g>
<g>
</g>
<g>
</g>
</svg>
