<?xml version="1.0" encoding="iso-8859-1"?>
<!-- Generator: Adobe Illustrator 16.0.4, SVG Export Plug-In . SVG Version: 6.00 Build 0)  -->
<!DOCTYPE svg PUBLIC "-//W3C//DTD SVG 1.1//EN" "http://www.w3.org/Graphics/SVG/1.1/DTD/svg11.dtd">
<svg version="1.1" id="Layer_1" xmlns="http://www.w3.org/2000/svg" xmlns:xlink="http://www.w3.org/1999/xlink" x="0px" y="0px"
	 width="80.04px" height="80.039px" viewBox="0 0 80.04 80.039" style="enable-background:new 0 0 80.04 80.039;"
	 xml:space="preserve">
<g>
	<path style="fill:#FFFFFF;" d="M62.311,78.343c-0.549-5.871-1.412-22.944-1.314-26.097c0.104-3.46-1.258-6.815-1.258-9.124
		c0-2.305,0.104-4.402-0.945-6.289c-1.049-1.889-1.676-10.697-1.887-13.005c-0.211-2.307-1.154-6.396-2.098-10.59
		C53.868,9.044,50.09,6.632,11.817,4.85c-3.427-0.16-6.66-0.238-9.707-0.248V78.57L62.311,78.343z"/>
	<path style="fill:none;stroke:#000000;stroke-width:0.624;stroke-miterlimit:10;" d="M2.11,4.602
		c3.047,0.01,6.28,0.088,9.707,0.248c38.273,1.782,42.05,4.194,42.992,8.389c0.943,4.194,1.887,8.283,2.098,10.59
		c0.211,2.308,0.838,11.116,1.887,13.005c1.049,1.887,0.945,3.984,0.945,6.289c0,2.309,1.361,5.664,1.258,9.124
		c-0.098,3.152,0.766,20.226,1.314,26.097"/>
	<path style="fill:none;stroke:#000000;stroke-width:0.624;stroke-miterlimit:10;" d="M2.339,29.942
		c8.956-0.254,24.214-0.689,28.038-0.766c5.243-0.105,24.538,0,26.217-7.55l-1.785-8.389c0,0-1.363,4.613-11.221,5.662
		c-9.856,1.048-32.853,1.887-36.822,2.097c-1.246,0.066-2.792,0.09-4.429,0.083"/>
	<path style="fill:#DADADA;" d="M2.112,11.699c0.877,0.017,1.77,0.04,2.678,0.07c28,0.944,35.34,1.782,45.615,5.243
		c0,0,2.936-1.389,3.959-2.884c1.023-1.494-1.809-5.662-19.267-7.157C22.987,5.937,10.312,5.316,2.263,5.139"/>
	<path style="fill:none;stroke:#000000;stroke-width:0.624;stroke-miterlimit:10;" d="M2.112,11.699
		c0.877,0.017,1.77,0.04,2.678,0.07c28,0.944,35.34,1.782,45.615,5.243"/>
	<path style="fill:none;stroke:#9D9D9C;stroke-width:0.6239;stroke-miterlimit:10;" d="M20.048,59.663c0,0,2.172,14.163,2.735,18.91
		"/>
	<polygon style="fill:#808080;stroke:#000000;stroke-width:0.624;stroke-miterlimit:10;" points="61.249,61.198 43.997,28.366 
		41.668,28.662 61.547,66.19 	"/>
	<path style="opacity:0.35;" d="M14.452,20.831c0,0-0.234,10.357,0.117,10.65c0.351,0.293,2.164,0.117,2.633-0.234
		c0.469-0.351-0.702-10.533-0.702-10.533L14.452,20.831z"/>
	<path style="fill:#FFFFFF;stroke:#000000;stroke-width:0.624;stroke-miterlimit:10;" d="M15.33,20.617v10.499
		c0,0,1.78,0.263,2.201,0c0.419-0.262-0.258-10.389,0-10.499C17.788,20.508,15.33,20.617,15.33,20.617z"/>
	<path style="opacity:0.35;" d="M53.811,14.805c0,0,0.023,3.687,0.375,5.5c0.352,1.814,1.229,5.384,1.814,5.325
		c0.584-0.059,0.818-0.937,0.818-0.937l-2.516-10.299L53.811,14.805z"/>
	<path style="fill:#FFFFFF;stroke:#000000;stroke-width:0.624;stroke-miterlimit:10;" d="M53.811,14.805
		c-0.059,0.057,1.838,5.249,2.152,10.356c0.01,0.16,0.994-0.752,0.994-0.752s0.164-2.468-0.363-5.562s-1.785-5.609-1.785-5.609
		S54.424,14.189,53.811,14.805z"/>
	<rect style="fill:none;" width="80.04" height="80.039"/>
</g>
<g>
</g>
<g>
</g>
<g>
</g>
<g>
</g>
<g>
</g>
<g>
</g>
<g>
</g>
<g>
</g>
<g>
</g>
<g>
</g>
<g>
</g>
<g>
</g>
<g>
</g>
<g>
</g>
<g>
</g>
</svg>
