<?xml version="1.0" encoding="iso-8859-1"?>
<!-- Generator: Adobe Illustrator 16.0.4, SVG Export Plug-In . SVG Version: 6.00 Build 0)  -->
<!DOCTYPE svg PUBLIC "-//W3C//DTD SVG 1.1//EN" "http://www.w3.org/Graphics/SVG/1.1/DTD/svg11.dtd">
<svg version="1.1" id="Layer_1" xmlns="http://www.w3.org/2000/svg" xmlns:xlink="http://www.w3.org/1999/xlink" x="0px" y="0px"
	 width="80px" height="80px" viewBox="0 0 80 80" style="enable-background:new 0 0 80 80;" xml:space="preserve">
<rect style="fill:none;" width="80" height="80"/>
<path style="opacity:0.35;" d="M74.424,39.871c0-1.153-4.992-15.156-7.208-19.361c-0.469-0.892-1.349-1.597-2.098-2.002
	c-0.441-0.239-0.772-0.385-0.772-0.385s3.798,3.893-0.55,6.98c-7.633,5.422-20.966,8.576-23.066,9.05l-0.002,0
	c-0.012,0.002-0.021,0.005-0.031,0.008c-0.163,0.037-0.26,0.058-0.26,0.058c0.005,0.003,0.008,0.007,0.012,0.01
	c-1.144,0.304-2.142,1.775-3.008,2.275L34.682,34l-4.452,8.681c0.811-1.492,1.467-2.679,1.862-3.351
	c2.311-3.922,2.247-5.486,2.247-5.486c-10.418-3.733-9.446-3.561-16.337-6.528c-6.699-2.885-5.083-8.652-5.083-8.652
	C10.14,20.499,7.264,32.75,5.416,38.981c-1.848,6.231,12.119,21.537,12.119,21.537s4.451-8.307,9.371-14.975
	c0,0,7.027,4.798,23.66,1.054l11.712,13.921C65.742,57.52,74.885,43.794,74.424,39.871z"/>
<linearGradient id="SVGID_1_" gradientUnits="userSpaceOnUse" x1="11.6382" y1="23.3496" x2="66.7383" y2="23.3496">
	<stop  offset="0" style="stop-color:#D5D7D8"/>
	<stop  offset="0.1822" style="stop-color:#FFFFFF"/>
	<stop  offset="0.8283" style="stop-color:#EFF0F0"/>
	<stop  offset="1" style="stop-color:#C2C2C2"/>
</linearGradient>
<path style="fill:url(#SVGID_1_);stroke:#000000;stroke-width:0.935;stroke-miterlimit:10;" d="M12.793,16.136
	c5.111-3.375,13.167-3.693,25.641-3.693c12.473,0,26.213,0.891,28.279,5.351c0,0,1.868,15.993-26.199,16.455
	c-13.282,0.218-23.909-4.269-26.104-8.076l-2.772-6.577L12.793,16.136"/>
<path style="fill:#939598;stroke:#000000;stroke-width:0.935;stroke-miterlimit:10;" d="M25.581,27.931
	c0,0,7.872-0.468,12.557-0.468c4.685,0,15.368,0.354,15.368,0.354l-0.752,0.957l-12.087,4.399l-6.298,0.755l-4.666-2.439
	L25.581,27.931z"/>
<polygon style="fill:#FFFFFF;stroke:#000000;stroke-width:0.935;stroke-miterlimit:10;" points="37.51,33.026 31.763,44.964 
	24.569,42.764 33.992,31.292 "/>
<path style="fill:#FFFFFF;stroke:#000000;stroke-width:0.935;stroke-miterlimit:10;" d="M52.888,43.879
	c0,0-13.997,4.312-21.125,1.43c-0.347,0-0.259-0.863-0.259-0.863s-0.087-10.589,9.095-12.822l9.926,4.994l3.062,6.797"/>
<g>
	<circle style="fill:none;stroke:#000000;stroke-width:0.935;stroke-miterlimit:10;" cx="38.149" cy="37.12" r="2.091"/>
	<circle style="fill:none;stroke:#000000;stroke-width:0.935;stroke-miterlimit:10;" cx="38.149" cy="37.12" r="0.941"/>
</g>
<g>
	<circle style="fill:none;stroke:#000000;stroke-width:0.935;stroke-miterlimit:10;" cx="38.149" cy="42.891" r="2.091"/>
	<circle style="fill:none;stroke:#000000;stroke-width:0.935;stroke-miterlimit:10;" cx="38.149" cy="42.891" r="0.941"/>
</g>
<path style="fill:#FFFFFF;stroke:#000000;stroke-width:0.935;stroke-miterlimit:10;" d="M67.089,17.981
	c2.128,4.572,6.561,18.914,6.561,20.067c0.462,3.923-7.907,16.557-11.372,19.558c0,0-21.101-25.225-21.966-25.917
	c0,0,15.057-3.217,23.36-9.115c4.344-3.086,0.547-6.979,0.547-6.979s0.33,0.146,0.773,0.385
	C65.741,16.385,66.664,17.066,67.089,17.981z"/>
<path style="fill:#FFFFFF;stroke:#000000;stroke-width:0.935;stroke-miterlimit:10;" d="M34.213,31.316L17.227,56.787
	c0,0-12.61-14.372-10.761-20.602c1.848-6.23,3.548-18.215,6.327-20.05c0,0-1.584,5.582,4.754,8.747
	C22.446,27.331,24.311,28.029,34.213,31.316z"/>
<path style="fill:none;stroke:#939598;stroke-width:0.7254;stroke-miterlimit:10;" d="M7.083,34.806c0,0,2.027,9.966,10.055,17.832
	c8.652-13.003,13.23-20.483,14.265-21.958"/>
<path style="fill:none;stroke:#939598;stroke-width:0.7254;stroke-miterlimit:10;" d="M43.564,31.303L62.74,53.806
	c0,0,5.238-6.026,7.795-11.136c2.572-5.138,2.338-6.541,2.338-6.541"/>
<path style="fill:none;stroke:#939598;stroke-width:0.7254;stroke-miterlimit:10;" d="M18.58,24.938c0,0,3.072-1.625,20.515-1.625
	s19.789,1.733,19.789,1.733"/>
<g>
</g>
<g>
</g>
<g>
</g>
<g>
</g>
<g>
</g>
<g>
</g>
<g>
</g>
<g>
</g>
<g>
</g>
<g>
</g>
<g>
</g>
<g>
</g>
<g>
</g>
<g>
</g>
<g>
</g>
</svg>
