<svg id="thin" xmlns="http://www.w3.org/2000/svg" viewBox="0 0 1000 1000"><defs><style>.cls-1{fill:#fff;}.cls-1,.cls-2,.cls-3,.cls-4{stroke:#000;stroke-linecap:round;stroke-miterlimit:10;stroke-width:3px;}.cls-2{fill:#bbb9b7;}.cls-3,.cls-4{fill:none;}.cls-4{stroke-dasharray:10.11 10.11;}</style></defs><title>stiffness_icons</title><polygon class="cls-1" points="97.82 370.63 720.37 785.2 839.88 663.75 285.58 306.91 97.82 370.63"/><path class="cls-2" d="M807.34,496,686.05,593s-80.43,59-181.77.93c-52.37-30-280.08-169.07-280.08-169.07L356.47,369S580.21,493.39,620.35,514.14C716.9,564,807.34,496,807.34,496Z"/><path class="cls-1" d="M550.19,414.66c-51-13.73-160.87-70.31-160.87-70.31l-101.1-59L97.69,350.42l98.38,62.27C292.69,472.23,322.41,494,359,507.57c37.78,14,82.45,15.71,96.17,7.63L619.76,421C602.93,423.16,587.69,424.76,550.19,414.66Z"/><line class="cls-3" x1="143.99" y1="334.6" x2="148.25" y2="337.23"/><path class="cls-4" d="M156.85,342.54l172,106.21s93.06,65.51,166.64,41.41"/><path class="cls-3" d="M500.22,488.46q2.32-.9,4.62-1.92"/><path class="cls-1" d="M455.12,515.2c39.67-21.13,58.48-66.73,56.73-135.56-2-78.66-54.16-164.83-54.16-164.83L640,162.22s18.79,29,29.77,103.92c8.56,58.43-.08,116.65-30.69,144Z"/></svg>