<svg xmlns="http://www.w3.org/2000/svg" viewBox="0 0 1000 1000"><defs><style>.cls-1{fill:#fff;}.cls-1,.cls-3,.cls-4,.cls-5,.cls-6{stroke:#000;stroke-linecap:round;stroke-width:3px;}.cls-1,.cls-4,.cls-5,.cls-6{stroke-miterlimit:10;}.cls-2,.cls-3,.cls-4{fill:#bbb9b7;}.cls-3{stroke-linejoin:bevel;}.cls-5,.cls-6{fill:none;}.cls-6{stroke-dasharray:10.11 10.11;}</style></defs><title>stiffness_icons</title><g id="heavy"><polygon class="cls-1" points="99.69 415.65 719.58 834.19 839.86 713.51 287.86 353.13 99.69 415.65"/><path class="cls-2" d="M692.74,705.89c-22.69,0-103.44-3.89-189.63-54C454.49,623.61,251.52,498,226.64,482.59L355.88,429c13.24,7.47,223.84,126.29,262.36,146.51,64.31,33.76,132.87,38.8,168,38.8,12.88,0,22.76-.65,28.36-1.14L697.13,705.83C696.42,705.85,694.93,705.89,692.74,705.89Z"/><path d="M355.78,430.65C374,440.93,579.52,556.87,617.54,576.83c64.6,33.9,133.43,39,168.71,39,9.81,0,17.81-.37,23.55-.76l-113.21,89.3c-.8,0-2.1,0-3.85,0-9.53,0-35.4-.78-69.56-8a402.08,402.08,0,0,1-119.31-45.8c-47.26-27.48-240.38-147-274-167.74l125.87-52.2m.2-3.33-132.62,55s226.82,140.53,279,170.86C589.7,704,672.1,707.39,692.74,707.39c3.22,0,4.94-.08,4.94-.08l121.9-96.16a286.17,286.17,0,0,1-33.33,1.65c-38.51,0-104.65-5.74-167.31-38.63-40-21-263-146.85-263-146.85Zm463.6,183.83h0Z"/><path class="cls-3" d="M819.58,603.87,697.68,700s-94.36,4.58-195.32-54.12c-52.18-30.34-279-170.86-279-170.86L356,420s222.95,125.85,263,146.85C715.16,617.4,819.58,603.87,819.58,603.87Z"/><path class="cls-4" d="M808.33,504.42,685.15,603.17s-81.83,87.19-182.79,28.49c-52.18-30.34-279-170.86-279-170.86L356,405.8s222.94,125.86,263,146.85C711.74,601.32,803.38,501.76,808.33,504.42Z"/><path class="cls-3" d="M803.83,500,681.12,597.54s-77.8,85.8-178.76,27.1c-52.18-30.34-279-170.86-279-170.86l132.62-55s222.95,125.85,263,146.85C715.16,596.14,803.83,500,803.83,500Z"/><polygon class="cls-3" points="697.68 700.11 697.68 707.39 819.58 611.23 819.58 603.95 697.68 700.11"/><path class="cls-1" d="M546.91,467.42C496,453.37,386.49,396.09,386.49,396.09L285.77,336.43,94.83,400.3l98,62.89c96.24,60.16,125.82,82.16,162.27,95.92,37.69,14.24,82.36,16.24,96.12,8.24l165.24-93.11C599.6,476.27,584.35,477.77,546.91,467.42Z"/><line class="cls-5" x1="141.24" y1="384.78" x2="145.48" y2="387.43"/><path class="cls-6" d="M154.05,392.8,325.32,500.11S418,566.2,491.7,542.58"/><path class="cls-5" d="M496.48,540.91q2.32-.88,4.62-1.89"/><path class="cls-1" d="M451.2,567.35C491,546.48,510.11,501,508.8,432.17,507.3,353.49,455.69,267,455.69,267l182.63-51.42s18.6,29.11,29.1,104.1c8.19,58.49-.82,116.65-31.61,143.82Z"/><polygon class="cls-4" points="685.15 603.17 681.13 597.54 803.83 500 808.33 504.42 685.15 603.17"/></g></svg>