<svg xmlns="http://www.w3.org/2000/svg" viewBox="0 0 1000 1000"><defs><style>.cls-1{fill:#fff;}.cls-1,.cls-2,.cls-3,.cls-4{stroke:#000;stroke-linecap:round;stroke-miterlimit:10;stroke-width:3px;}.cls-2{fill:#bbb9b7;}.cls-3,.cls-4{fill:none;}.cls-4{stroke-dasharray:10.11 10.11;}</style></defs><title>stiffness_icons</title><g id="medium"><polygon class="cls-1" points="97.37 415.65 717.27 834.19 837.55 713.51 285.55 353.13 97.37 415.65"/><path class="cls-2" d="M821.27,611.15l-121.9,96.16S605,711.88,504,653.18c-52.17-30.33-279-170.86-279-170.86l132.62-55s222.94,125.85,263,146.85C716.85,624.68,821.27,611.15,821.27,611.15Z"/><path class="cls-2" d="M804.74,499.6,682.83,595.76S601,694.31,500,635.6c-52.17-30.33-279-170.86-279-170.86l132.62-55s222.94,125.85,263,146.85C706.5,601.5,804.74,499.6,804.74,499.6Z"/><path class="cls-1" d="M544.6,467.42c-50.88-14.05-160.42-71.33-160.42-71.33L283.46,336.43,92.52,400.3l98,62.89c96.24,60.16,125.82,82.16,162.27,95.92,37.69,14.24,82.36,16.24,96.12,8.24l165.24-93.11C597.29,476.27,582,477.77,544.6,467.42Z"/><line class="cls-3" x1="138.93" y1="384.78" x2="143.17" y2="387.43"/><path class="cls-4" d="M151.73,392.8,323,500.11s92.64,66.09,166.38,42.47"/><path class="cls-3" d="M494.16,540.91q2.34-.88,4.63-1.89"/><path class="cls-1" d="M448.89,567.35c39.8-20.87,58.91-66.34,57.6-135.18C505,353.49,453.38,267,453.38,267L636,215.57s18.61,29.11,29.11,104.1c8.18,58.49-.82,116.65-31.61,143.82Z"/></g></svg>