<?xml version="1.0" encoding="iso-8859-1"?>
<!-- Generator: Adobe Illustrator 16.0.4, SVG Export Plug-In . SVG Version: 6.00 Build 0)  -->
<!DOCTYPE svg PUBLIC "-//W3C//DTD SVG 1.1//EN" "http://www.w3.org/Graphics/SVG/1.1/DTD/svg11.dtd">
<svg version="1.1" id="Layer_1" xmlns="http://www.w3.org/2000/svg" xmlns:xlink="http://www.w3.org/1999/xlink" x="0px" y="0px"
	 width="80px" height="80px" viewBox="0 0 80 80" style="enable-background:new 0 0 80 80;" xml:space="preserve">
<path style="opacity:0.35;" d="M70.16,38.045c0.048,0.025,0.097,0.046,0.142,0.073c-0.061-0.04-0.129-0.084-0.192-0.125
	c-0.137-0.143-0.308-0.256-0.511-0.331c-6.219-4.024-13.353-9.221-13.353-9.221s-0.851-0.701-2.243-1.31
	c-0.961-0.812-3.862-3.135-8.508-5.734c-5.779-3.233-12.021-6.928-12.021-6.928L3.187,29.48c0,0,3.237,3.695,7.86,6.467
	c4.39,2.631,10.446,9.216,12.432,11.852c0.107,0.231,0.262,0.401,0.375,0.505c0.155,0.194,0.318,0.336,0.489,0.434L38.478,64.13
	c0,0,0.617,0.27,3.314-1.425c9.363-5.461,25.508-19.398,27.589-21.707C70.578,39.668,70.65,38.623,70.16,38.045z"/>
<path style="fill:#FFFFFF;stroke:#000000;stroke-width:0.6239;stroke-miterlimit:10;" d="M3.051,27.295c0,0,3.236,3.694,7.86,6.466
	c4.624,2.771,11.098,9.93,12.716,12.241c1.618,2.309,4.393-1.617,4.393-1.617l16.415-13.856l9.79-5.273c0,0-3.085-2.81-8.865-6.043
	c-5.779-3.233-12.022-6.928-12.022-6.928"/>
<line style="fill:none;stroke:#939598;stroke-width:0.6239;stroke-miterlimit:10;" x1="34.262" y1="30.99" x2="17.847" y2="19.905"/>
<line style="fill:none;stroke:#939598;stroke-width:0.6239;stroke-miterlimit:10;" x1="40.042" y1="27.295" x2="24.321" y2="16.21"/>
<line style="fill:none;stroke:#939598;stroke-width:0.6239;stroke-miterlimit:10;" x1="45.821" y1="26.14" x2="37.267" y2="19.674"/>
<linearGradient id="SVGID_1_" gradientUnits="userSpaceOnUse" x1="36.1831" y1="48.5381" x2="70.3105" y2="48.5381">
	<stop  offset="0" style="stop-color:#D5D7D8"/>
	<stop  offset="0.1822" style="stop-color:#FFFFFF"/>
	<stop  offset="0.8283" style="stop-color:#EFF0F0"/>
	<stop  offset="1" style="stop-color:#C2C2C2"/>
</linearGradient>
<path style="fill:url(#SVGID_1_);stroke:#000000;stroke-width:0.6239;stroke-miterlimit:10;" d="M38.341,61.944
	c0,0,0.617,0.27,3.314-1.425c9.363-5.461,25.509-19.398,27.59-21.708c2.08-2.31,0.771-3.772-1.002-3.387
	c-1.387-0.308-2.774-0.308-2.774-0.308l-9.71,3.772l-5.549,1.155l-2.853,3.925L36.183,55.901
	C36.183,55.901,37.107,60.904,38.341,61.944z"/>
<path style="fill:none;stroke:#939598;stroke-width:0.6239;stroke-miterlimit:10;" d="M38.496,59.597c0,0,2.619-1.231,6.318-3.772
	c3.699-2.54,13.179-9.853,16.031-12.239c2.851-2.387,8.399-6.76,7.397-8.161c-0.771-1.078-1.927-1.001-1.927-1.001"/>
<path style="fill:#FFFFFF;stroke:#000000;stroke-width:0.6239;stroke-miterlimit:10;" d="M23.857,46.231l14.484,15.713
	c0,0-1.041-1.04,1.041-3.927c2.08-2.886,7.514-9.583,12.6-13.51c0.463-0.347,0-4.503,0-4.503L40.62,27.873
	c0,0-13.063,7.044-17.224,16.512C22.818,45.539,23.857,46.231,23.857,46.231z"/>
<g>
	<defs>
		<path id="SVGID_2_" d="M24.259,46.198l12.782,14.216l8.139-10.997l5.17-5.834l2.776-3.729l-6.894-0.957l-0.146-0.922
			c0,0-6.606-6.312-8.807-6.121c-2.204,0.191-8.33,6.885-8.33,6.885S24.259,45.433,24.259,46.198z"/>
	</defs>
	<clipPath id="SVGID_3_">
		<use xlink:href="#SVGID_2_"  style="overflow:visible;"/>
	</clipPath>
	<g style="clip-path:url(#SVGID_3_);">
		<path style="fill:none;stroke:#939598;stroke-width:0.6239;stroke-miterlimit:10;" d="M25.323,47.618c0,0,0.155-1.616,2.081-4.618
			c2.927-5.005,10.018-9.854,10.018-9.854"/>
		<path style="fill:none;stroke:#939598;stroke-width:0.6239;stroke-miterlimit:10;" d="M35.953,59.904c0,0-0.31-1.309,1.618-4.08
			c2.929-4.156,7.167-8.776,10.943-11.701c1.002-0.77,1.232-1.463,1.079-2.386c-0.153-0.925-0.385-1.925-0.385-1.925"/>
	</g>
</g>
<path style="fill:#FFFFFF;stroke:#000000;stroke-width:0.6239;stroke-miterlimit:10;" d="M34.031,31.145l9.975,8.398
	c0,0,1.04,0.809,2.196,0.809c1.155,0,9.595,0.461,9.595,0.461s0.692-0.114,1.733-0.692c1.041-0.578,8.937-6.381,12.636-4.188
	c-5.818-3.772-14.056-9.677-14.056-9.677s-2.659-2.193-6.281-2.193C46.208,24.062,40.621,26.564,34.031,31.145z"/>
<g>
	<defs>
		<polygon id="SVGID_4_" points="67.868,34.785 54.225,25.255 51.544,24.777 40.82,29.081 37.375,31.471 41.778,35.201 
			44.797,38.418 50.21,40.043 55.806,39.471 61.742,36.028 		"/>
	</defs>
	<clipPath id="SVGID_5_">
		<use xlink:href="#SVGID_4_"  style="overflow:visible;"/>
	</clipPath>
	<path style="clip-path:url(#SVGID_5_);fill:none;stroke:#939598;stroke-width:0.6239;stroke-miterlimit:10;" d="M55.687,25.987
		c0,0-2.851-1-6.088,0.154c-3.925,1.4-10.944,5.851-10.944,5.851l6.854,5.896c0,0,1.156,0.693,2.235,0.693s6.397,0.308,6.397,0.308
		s0.923-0.154,2.157-1c1.232-0.846,7.477-5.081,11.252-3.695"/>
</g>
<path style="fill:none;stroke:#000000;stroke-width:0.6239;stroke-miterlimit:10;" d="M51.979,30.873
	c0.093,0.166,0.069,0.355-0.051,0.423l-3.662,2.041c-0.119,0.067-0.293-0.012-0.386-0.179l0,0c-0.092-0.166-0.07-0.354,0.05-0.422
	l3.662-2.042C51.713,30.627,51.886,30.707,51.979,30.873L51.979,30.873z"/>
<g>
	
		<ellipse style="fill:#FFFFFF;stroke:#000000;stroke-width:0.6239;stroke-miterlimit:10;" cx="48.33" cy="33.495" rx="2.504" ry="1.578"/>
	
		<ellipse style="fill:#FFFFFF;stroke:#000000;stroke-width:0.6239;stroke-miterlimit:10;" cx="48.33" cy="33.11" rx="2.504" ry="1.578"/>
	
		<ellipse style="fill:#FFFFFF;stroke:#000000;stroke-width:0.6239;stroke-miterlimit:10;" cx="48.33" cy="32.725" rx="2.504" ry="1.579"/>
	
		<ellipse style="fill:none;stroke:#000000;stroke-width:0.6239;stroke-miterlimit:10;" cx="48.33" cy="32.687" rx="1.388" ry="0.73"/>
</g>
<rect style="fill:none;" width="80" height="80"/>
<g>
</g>
<g>
</g>
<g>
</g>
<g>
</g>
<g>
</g>
<g>
</g>
<g>
</g>
<g>
</g>
<g>
</g>
<g>
</g>
<g>
</g>
<g>
</g>
<g>
</g>
<g>
</g>
<g>
</g>
</svg>
