<?xml version="1.0" encoding="iso-8859-1"?>
<!-- Generator: Adobe Illustrator 16.0.4, SVG Export Plug-In . SVG Version: 6.00 Build 0)  -->
<!DOCTYPE svg PUBLIC "-//W3C//DTD SVG 1.1//EN" "http://www.w3.org/Graphics/SVG/1.1/DTD/svg11.dtd">
<svg version="1.1" id="Layer_1" xmlns="http://www.w3.org/2000/svg" xmlns:xlink="http://www.w3.org/1999/xlink" x="0px" y="0px"
	 width="80px" height="80px" viewBox="0 0 80 80" style="enable-background:new 0 0 80 80;" xml:space="preserve">
<rect style="fill:none;" width="80" height="80"/>
<path style="opacity:0.35;" d="M73.735,41.148c0-1.051-3.398-13.883-5.615-17.712c-0.471-0.813-1.349-1.455-2.098-1.824
	c-0.442-0.216-0.772-0.35-0.772-0.35s3.797,3.545-0.549,6.357c-7.633,4.938-20.969,7.811-23.068,8.242H41.63
	c-0.01,0.003-0.019,0.005-0.028,0.007c-0.164,0.033-0.26,0.051-0.26,0.051c0.004,0.005,0.007,0.008,0.012,0.011
	c-1.146,0.276-2.143,0.658-3.01,1.113l-2.758-1.32l-4.452,6.946c0.811-1.359,1.467-2.439,1.864-3.051
	c2.311-3.573,2.247-4.037,2.247-4.037c-10.419-3.401-9.446-3.244-16.338-5.945c-6.699-2.628-5.083-7.881-5.083-7.881
	c-2.779,1.671-5.896,13.872-7.745,19.546C4.23,46.975,21.356,62.317,21.356,62.317s7.125-7.245,7.702-17.334l3.119,1.472
	c0.023,0.193,2.602,0.631,2.772,0.631c9.057,0.861,9.78,0.041,12.359-0.315c0,0,1.476,2.789,2.656,5.701
	c1.945,4.806,7.654,9.541,7.654,9.541C62.486,58.499,74.196,44.722,73.735,41.148z"/>
<linearGradient id="SVGID_1_" gradientUnits="userSpaceOnUse" x1="12.5425" y1="26.0215" x2="67.6436" y2="26.0215">
	<stop  offset="0" style="stop-color:#D5D7D8"/>
	<stop  offset="0.1822" style="stop-color:#FFFFFF"/>
	<stop  offset="0.8283" style="stop-color:#EFF0F0"/>
	<stop  offset="1" style="stop-color:#C2C2C2"/>
</linearGradient>
<path style="fill:url(#SVGID_1_);stroke:#000000;stroke-width:0.935;stroke-miterlimit:10;" d="M13.696,19.452
	c5.111-3.074,13.168-3.363,25.642-3.363s26.212,0.812,28.28,4.874c0,0,1.865,14.566-26.2,14.986
	c-13.282,0.2-23.909-3.888-26.104-7.355l-2.772-5.99L13.696,19.452"/>
<path style="fill:#939598;stroke:#000000;stroke-width:0.935;stroke-miterlimit:10;" d="M26.486,30.195
	c0,0,7.872-0.427,12.556-0.427c4.684,0,15.371,0.322,15.371,0.322l-0.754,0.871l-12.086,4.007l-6.3,0.687l-4.664-2.221
	L26.486,30.195z"/>
<polygon style="fill:#FFFFFF;stroke:#000000;stroke-width:0.935;stroke-miterlimit:10;" points="38.992,34.583 32.668,44.748 
	24.785,42.253 31.253,31.957 "/>
<path style="fill:#FFFFFF;stroke:#000000;stroke-width:0.935;stroke-miterlimit:10;" d="M49.474,44.827
	c0,0-10.309,1.576-16.806,0.235c-0.346,0-0.26-0.787-0.26-0.787s-0.086-8.685,9.095-10.718l9.927,3.588L49.474,44.827"/>
<path style="fill:#FFFFFF;stroke:#000000;stroke-width:0.935;stroke-miterlimit:10;" d="M67.994,21.133
	c2.215,3.829,5.405,14.403,5.405,15.455c0.839,5.02-12.653,19.029-16.117,21.759c0,0-3.793-2.517-6.048-8.396
	c-2.105-5.497-2.177-7.309-4.309-11.101c-1.723-3.063-4.845-4.602-5.712-5.233c0,0,15.058-2.929,23.36-8.301
	c4.347-2.811,0.549-6.358,0.549-6.358s0.332,0.134,0.773,0.352C66.646,19.678,67.523,20.32,67.994,21.133z"/>
<path style="fill:#FFFFFF;stroke:#000000;stroke-width:0.935;stroke-miterlimit:10;" d="M35.117,33.277c0,0-4.848,2.442-6.867,6.875
	c-1.524,3.343-1.298,4.996-2.772,10.114c-1.386,4.807-4.626,8.081-4.626,8.081S5.238,45.731,6.824,36.106
	c0.964-5.853,4.093-14.982,6.872-16.654c0,0-1.616,5.252,5.083,7.879C25.671,30.035,24.699,29.878,35.117,33.277z"/>
<ellipse style="fill:none;stroke:#000000;stroke-width:0.8946;stroke-miterlimit:10;" cx="19.599" cy="49.971" rx="1.639" ry="1.629"/>
<ellipse style="fill:none;stroke:#000000;stroke-width:0.9094;stroke-miterlimit:10;" cx="57.593" cy="50.787" rx="1.693" ry="1.627"/>
<g>
	<circle style="fill:none;stroke:#000000;stroke-width:0.935;stroke-miterlimit:10;" cx="39.275" cy="40.763" r="2.599"/>
	<circle style="fill:none;stroke:#000000;stroke-width:0.935;stroke-miterlimit:10;" cx="39.275" cy="40.763" r="1.169"/>
</g>
<path style="fill:none;stroke:#939598;stroke-width:0.7254;stroke-miterlimit:10;" d="M7.417,34.539c0,0-1.268,6.874,13.129,20.712
	c4.905-5.752,2.083-17.003,11.5-22.521"/>
<path style="fill:none;stroke:#939598;stroke-width:0.7254;stroke-miterlimit:10;" d="M20.094,27.664c0,0,3.419-1.667,20.862-1.667
	c17.442,0,18.979,1.487,18.979,1.487"/>
<path style="fill:none;stroke:#939598;stroke-width:0.7254;stroke-miterlimit:10;" d="M72.884,35.624c0,0,0.452,3.799-15.484,19.809
	c-5.976-3.89-3.895-15.919-13.128-21.979"/>
<g>
</g>
<g>
</g>
<g>
</g>
<g>
</g>
<g>
</g>
<g>
</g>
<g>
</g>
<g>
</g>
<g>
</g>
<g>
</g>
<g>
</g>
<g>
</g>
<g>
</g>
<g>
</g>
<g>
</g>
</svg>
