<?xml version="1.0" encoding="iso-8859-1"?>
<!-- Generator: Adobe Illustrator 19.1.1, SVG Export Plug-In . SVG Version: 6.00 Build 0)  -->
<svg version="1.1" id="Lager_1" xmlns="http://www.w3.org/2000/svg" xmlns:xlink="http://www.w3.org/1999/xlink" x="0px" y="0px"
	 viewBox="0 0 80 80.947" style="enable-background:new 0 0 80 80.947;" xml:space="preserve">
<path style="opacity:0.35;" d="M51.026,50.173c1.387,4.847,6.063,8.481,13.804,2.596c3.227-2.454,12.402-9.052,10.875-12.937
	C73.328,33.783,69.706,20,66.928,18.166c0,0,1.615,5.767-5.083,8.652c-6.892,2.967-5.919,2.795-16.339,6.528
	c0,0-0.063,0.509,2.247,4.433c0.397,0.671,1.054,1.858,1.864,3.352l-4.451-7.629l-2.759,1.45c-0.868-0.5-1.864-0.918-3.01-1.221
	c0.004-0.003,0.007-0.007,0.012-0.011c0,0-0.097-0.021-0.26-0.057c-0.011-0.003-0.019-0.006-0.028-0.009l-0.004,0.002
	c-2.101-0.474-15.435-3.627-23.068-9.05c-4.345-3.086-0.548-6.979-0.548-6.979s-0.331,0.146-0.774,0.385
	c-0.747,0.405-1.626,1.11-2.097,2.001c-2.216,4.205-7.206,17.054-7.206,18.208C4.961,42.143,21.133,54.7,26.599,55.192
	c6.907,0.621,8.741-6.56,9.269-9.169c0,0,2.31,0.041,6.468,0.041c0.17,0,4.15-0.392,4.78-0.594c0.553-0.177,2.223-0.573,2.223-0.573
	C50.272,46.644,50.514,48.379,51.026,50.173z"/>
<polygon style="fill:none;" points="0,80.947 80,80 80,0 0,0.947 "/>
<linearGradient id="SVGID_1_" gradientUnits="userSpaceOnUse" x1="11.793" y1="22.8503" x2="66.8931" y2="22.8503" gradientTransform="matrix(-1 0 0 1 80.0001 0)">
	<stop  offset="0" style="stop-color:#DEDEDE"/>
	<stop  offset="0.1822" style="stop-color:#FFFFFF"/>
	<stop  offset="0.8283" style="stop-color:#F4F4F4"/>
	<stop  offset="1" style="stop-color:#C2C2C2"/>
</linearGradient>
<path style="fill:url(#SVGID_1_);stroke:#000000;stroke-width:0.935;stroke-miterlimit:10;" d="M67.053,15.636
	c-5.11-3.375-13.166-3.692-25.641-3.692c-12.474,0-26.212,0.891-28.279,5.351c0,0-1.867,15.993,26.2,16.454
	c13.28,0.219,23.908-4.268,26.103-8.076l2.771-6.576L67.053,15.636"/>
<path style="fill:#9D9D9C;stroke:#000000;stroke-width:0.935;stroke-miterlimit:10;" d="M54.265,27.432
	c0,0-7.872-0.468-12.556-0.468c-4.685,0-15.37,0.353-15.37,0.353l0.753,0.957l12.087,4.4l6.3,0.754l4.664-2.439L54.265,27.432z"/>
<path style="fill:none;stroke:#9D9D9C;stroke-width:0.7254;stroke-miterlimit:10;" d="M60.941,24.725c0,0-3.073-1.625-20.516-1.625
	c-17.443,0-19.789,1.733-19.789,1.733"/>
<polygon style="fill:#FFFFFF;stroke:#000000;stroke-width:0.935;stroke-miterlimit:10;" points="42.335,32.527 48.082,43.413 
	51.895,42.287 48.991,29.667 "/>
<path style="fill:#FFFFFF;stroke:#000000;stroke-width:0.935;stroke-miterlimit:10;" d="M31.276,43.499c0,0,10.31,1.73,16.806,0.26
	c0.347,0,0.26-0.865,0.26-0.865s0.087-9.536-9.095-11.769l-9.926,3.94L31.276,43.499"/>
<circle style="fill:none;stroke:#000000;stroke-width:0.935;stroke-miterlimit:10;" cx="40.849" cy="38.833" r="2.599"/>
<circle style="fill:none;stroke:#000000;stroke-width:0.935;stroke-miterlimit:10;" cx="40.849" cy="38.833" r="1.169"/>
<path style="fill:#FFFFFF;" d="M12.757,17.483C10.542,21.688,5.55,35.69,5.55,36.844c-0.355,3.02,6.322,10.042,15.679,14.887
	C36.3,58.48,33.053,41.088,36.851,34.824c1.399-2.388,1.819-2.941,2.686-3.634c0,0-15.059-3.218-23.359-9.115
	c-4.347-3.086-0.55-6.979-0.55-6.979s-0.331,0.147-0.773,0.384C14.104,15.885,13.227,16.59,12.757,17.483z"/>
<path style="fill:#FFFFFF;" d="M45.634,30.817C54.734,40,48.351,59.064,60.941,51.98c8.49-5.563,15.795-11.627,14.891-14.679
	c-1.85-6.229-5.998-19.83-8.779-21.666c0,0,1.617,5.768-5.082,8.652C55.08,27.256,47.645,29.891,45.634,30.817z"/>
<path style="fill:none;stroke:#9D9D9C;stroke-width:0.7254;stroke-miterlimit:10;" d="M75.535,36.3
	c-2.676,3.705-2.951,6.23-12.239,12.264c-14.913,9.688-5.898-10.639-16.178-18.368"/>
<path style="fill:none;stroke:#9D9D9C;stroke-width:0.7254;stroke-miterlimit:10;" d="M37.846,30.794
	c-6.82,4.616-3.356,21.833-12.474,20.219c-5.366-0.95-16.45-9.116-19.351-16.01"/>
<path style="fill:none;stroke:#000000;stroke-width:0.935;stroke-miterlimit:10;" d="M12.757,17.483
	C10.542,21.688,5.55,35.69,5.55,36.844c-0.355,3.02,6.322,10.042,15.679,14.887C36.3,58.48,33.053,41.088,36.851,34.824
	c1.399-2.388,1.819-2.941,2.686-3.634c0,0-15.059-3.218-23.359-9.115c-4.347-3.086-0.55-6.979-0.55-6.979s-0.331,0.147-0.773,0.384
	C14.104,15.885,13.227,16.59,12.757,17.483z"/>
<path style="fill:none;stroke:#000000;stroke-width:0.935;stroke-miterlimit:10;" d="M45.634,30.817
	c8.631,8.372,2.43,28.093,15.788,20.914c6.125-3.292,15.314-11.377,14.41-14.429c-1.85-6.229-5.998-19.83-8.779-21.666
	c0,0,1.617,5.768-5.082,8.652C55.08,27.256,47.645,29.891,45.634,30.817z"/>
<g>
</g>
<g>
</g>
<g>
</g>
<g>
</g>
<g>
</g>
<g>
</g>
<g>
</g>
<g>
</g>
<g>
</g>
<g>
</g>
<g>
</g>
<g>
</g>
<g>
</g>
<g>
</g>
<g>
</g>
</svg>
