<svg id="collar_6" data-name="collar/6" xmlns="http://www.w3.org/2000/svg" xmlns:xlink="http://www.w3.org/1999/xlink" viewBox="0 0 80 80"><defs><style>.cls-1,.cls-6,.cls-7{fill:none;}.cls-2,.cls-3,.cls-4,.cls-6{stroke:#231f20;stroke-width:0.94px;}.cls-2,.cls-3,.cls-4,.cls-6,.cls-7{stroke-miterlimit:10;}.cls-2{fill:url(#linear-gradient);}.cls-3{fill:#939598;}.cls-4{fill:#fff;}.cls-5{fill:#231f20;opacity:0.35;}.cls-7{stroke:#939598;stroke-width:0.73px;}</style><linearGradient id="linear-gradient" x1="12.14" y1="23.31" x2="67.24" y2="23.31" gradientUnits="userSpaceOnUse"><stop offset="0" stop-color="#d5d7d8"/><stop offset="0.18" stop-color="#fff"/><stop offset="0.83" stop-color="#eff0f0"/><stop offset="1" stop-color="#c2c2c2"/></linearGradient></defs><title>collar_turndown_6</title><rect class="cls-1" width="80" height="80"/><path class="cls-2" d="M13.29,16.09c5.11-3.37,13.17-3.69,25.64-3.69s26.22.89,28.28,5.35c0,0,1.87,16-26.2,16.46-13.28.21-23.91-4.27-26.1-8.08l-2.77-6.58,1.15-3.46"/><path class="cls-3" d="M26.08,27.89s7.87-.47,12.56-.47S54,27.77,54,27.77l-.76,1-12.08,4.4-6.3.76L30.2,31.45Z"/><polygon class="cls-4" points="38.65 32.96 32.9 43.85 29.09 42.73 35.3 31.77 38.65 32.96"/><path class="cls-5" d="M72.5,34.85c0-1.15-2.57-10.18-4.78-14.38-.47-.89-1.28-1.56-.77-.89,1.07,1.39.27-.27.27-.27S68.64,22,64.3,25.06c-7.63,5.42-21,8.58-23.07,9.05h0l-.26.06h0a12.14,12.14,0,0,0-3,1.22L35.18,34l-4.45,7.63c.81-1.5,1.47-2.68,1.86-3.35,2.31-3.93,2.25-4.44,2.25-4.44A167,167,0,0,1,18.5,27.27c-6.7-2.88-5.08-8.65-5.08-8.65C10.64,20.46,8,32.68,6.13,38.91S29.55,64,29.55,64s2.5-9.67,4.22-17.16c0,0,8.45.46,10.46.16l3.28,16.85C51,60.87,73.75,45.3,72.5,34.85Z"/><path class="cls-4" d="M49.07,44s-10.31,1.73-16.81.25c-.34,0-.26-.86-.26-.86s-.08-9.54,9.1-11.77L51,35.52l-2,8.44"/><path class="cls-6" d="M42.1,39.29a2.6,2.6,0,1,1-2.6-2.6A2.6,2.6,0,0,1,42.1,39.29Z"/><path class="cls-6" d="M40.67,39.29a1.17,1.17,0,1,1-1.17-1.17A1.17,1.17,0,0,1,40.67,39.29Z"/><path class="cls-4" d="M67.59,17.94A58.87,58.87,0,0,1,72,32c.46,3.93-6.87,16.38-22.8,27.3,0,0-4.69-20-8.42-27.69,0,0,15.06-3.22,23.36-9.12,4.35-3.08.55-7,.55-7s.33.15.77.39A5.21,5.21,0,0,1,67.59,17.94Z"/><path class="cls-4" d="M35.64,31.58S34.24,35.32,33,40c-1.36,5.1-4.84,20-4.84,20S4.1,42.65,6.41,35.32c2-6.2,4.1-17.39,6.88-19.23,0,0-1.61,5.77,5.08,8.66C25.27,27.71,25.22,27.84,35.64,31.58Z"/><path class="cls-7" d="M7,33.9S6,41,26.23,54.67c4.5-15.41,5.54-19.39,7.45-23.89"/><path class="cls-7" d="M43.77,29.8l7.23,25s18-13,20.79-23.36"/><path class="cls-7" d="M18.08,24.55s3.59-1.79,21-1.79,22.11,1.62,22.11,1.62"/></svg>