<?xml version="1.0" encoding="iso-8859-1"?>
<!-- Generator: Adobe Illustrator 16.0.4, SVG Export Plug-In . SVG Version: 6.00 Build 0)  -->
<!DOCTYPE svg PUBLIC "-//W3C//DTD SVG 1.1//EN" "http://www.w3.org/Graphics/SVG/1.1/DTD/svg11.dtd">
<svg version="1.1" id="Layer_1" xmlns="http://www.w3.org/2000/svg" xmlns:xlink="http://www.w3.org/1999/xlink" x="0px" y="0px"
	 width="80px" height="80px" viewBox="0 0 80 80" style="enable-background:new 0 0 80 80;" xml:space="preserve">
<rect style="fill:none;" width="80" height="80"/>
<path style="opacity:0.35;" d="M74.446,41.657c0-1.154-4.991-15.158-7.207-19.361c-0.47-0.893-1.349-1.598-2.098-2.002
	c-0.442-0.239-0.774-0.384-0.774-0.384s3.799,3.893-0.547,6.979c-7.634,5.422-20.968,8.577-23.068,9.05l-0.003,0
	c-0.012,0.002-0.019,0.005-0.029,0.008c-0.163,0.037-0.261,0.057-0.261,0.057c0.005,0.003,0.009,0.008,0.013,0.012
	c-1.145,0.303-2.142,0.722-3.008,1.221l-2.758-1.45l-4.452,7.63c0.811-1.493,1.468-2.68,1.862-3.353
	c2.312-3.923,2.247-4.432,2.247-4.432c-10.418-3.733-9.446-3.561-16.337-6.528c-6.699-2.884-5.082-8.652-5.082-8.652
	c-2.779,1.835-5.656,14.087-7.504,20.317c-1.848,6.229,8.537,17.911,8.537,17.911s5.966-6.626,11.511-12.949
	c0,0,9.229,5.407,26.724,1.562l12.48,11.301C68.156,55.592,74.908,45.58,74.446,41.657z"/>
<linearGradient id="SVGID_1_" gradientUnits="userSpaceOnUse" x1="11.6616" y1="25.1348" x2="66.7617" y2="25.1348">
	<stop  offset="0" style="stop-color:#D5D7D8"/>
	<stop  offset="0.1822" style="stop-color:#FFFFFF"/>
	<stop  offset="0.8283" style="stop-color:#EFF0F0"/>
	<stop  offset="1" style="stop-color:#C2C2C2"/>
</linearGradient>
<path style="fill:url(#SVGID_1_);stroke:#000000;stroke-width:0.935;stroke-miterlimit:10;" d="M12.816,17.92
	c5.11-3.375,13.167-3.692,25.641-3.692s26.211,0.89,28.279,5.351c0,0,1.867,15.993-26.199,16.455
	c-13.282,0.218-23.908-4.269-26.104-8.076l-2.772-6.576L12.816,17.92"/>
<path style="fill:#939598;stroke:#000000;stroke-width:0.935;stroke-miterlimit:10;" d="M25.604,29.715
	c0,0,7.872-0.468,12.557-0.468c4.684,0,15.369,0.354,15.369,0.354l-0.751,0.956l-12.089,4.4l-6.297,0.754l-4.665-2.438
	L25.604,29.715z"/>
<polygon style="fill:#FFFFFF;stroke:#000000;stroke-width:0.935;stroke-miterlimit:10;" points="37.534,34.811 31.787,45.696 
	24.593,43.495 34.015,33.077 "/>
<path style="fill:#FFFFFF;stroke:#000000;stroke-width:0.935;stroke-miterlimit:10;" d="M52.911,44.612
	c0,0-13.997,4.311-21.125,1.43c-0.346,0-0.26-0.865-0.26-0.865s-0.086-9.535,9.096-11.768l9.924,3.941l3.063,6.796"/>
<circle style="fill:none;stroke:#000000;stroke-width:0.935;stroke-miterlimit:10;" cx="39.02" cy="41.116" r="2.599"/>
<circle style="fill:none;stroke:#000000;stroke-width:0.935;stroke-miterlimit:10;" cx="39.02" cy="41.116" r="1.169"/>
<path style="fill:#FFFFFF;stroke:#000000;stroke-width:0.935;stroke-miterlimit:10;" d="M67.113,19.767
	c2.125,4.572,6.56,18.913,6.56,20.067c0.46,3.924-5.518,12.847-8.982,15.846c0,0-23.49-21.513-24.356-22.205
	c0,0,15.058-3.218,23.359-9.115c4.346-3.087,0.55-6.979,0.55-6.979s0.329,0.146,0.771,0.384
	C65.763,18.169,66.687,18.853,67.113,19.767z"/>
<path style="fill:#FFFFFF;stroke:#000000;stroke-width:0.935;stroke-miterlimit:10;" d="M34.236,33.101L14.087,55.999
	c0,0-9.447-11.799-7.599-18.029c1.848-6.23,3.548-18.214,6.328-20.05c0,0-1.584,5.582,4.753,8.748
	C22.469,29.115,24.334,29.814,34.236,33.101z"/>
<path style="fill:none;stroke:#939598;stroke-width:0.7254;stroke-miterlimit:10;" d="M7.221,37.002c0,0,0.688,8.082,7.229,15.13
	c9.529-11.594,15.523-18.135,16.558-19.61"/>
<path style="fill:none;stroke:#939598;stroke-width:0.7254;stroke-miterlimit:10;" d="M43.369,33.048l21.516,18.913
	c0,0,3.271-3.095,5.508-7.393c1.606-3.089,2.41-6.878,2.41-6.878"/>
<path style="fill:none;stroke:#939598;stroke-width:0.7254;stroke-miterlimit:10;" d="M18.614,27.041c0,0,3.072-1.625,20.515-1.625
	c17.442,0,19.788,1.733,19.788,1.733"/>
<g>
</g>
<g>
</g>
<g>
</g>
<g>
</g>
<g>
</g>
<g>
</g>
<g>
</g>
<g>
</g>
<g>
</g>
<g>
</g>
<g>
</g>
<g>
</g>
<g>
</g>
<g>
</g>
<g>
</g>
</svg>
