<?xml version="1.0" encoding="iso-8859-1"?>
<!-- Generator: Adobe Illustrator 16.0.4, SVG Export Plug-In . SVG Version: 6.00 Build 0)  -->
<!DOCTYPE svg PUBLIC "-//W3C//DTD SVG 1.1//EN" "http://www.w3.org/Graphics/SVG/1.1/DTD/svg11.dtd">
<svg version="1.1" id="Layer_1" xmlns="http://www.w3.org/2000/svg" xmlns:xlink="http://www.w3.org/1999/xlink" x="0px" y="0px"
	 width="80px" height="80px" viewBox="0 0 80 80" style="enable-background:new 0 0 80 80;" xml:space="preserve">
<path id="WhiteBG_1_" style="fill:#FFFFFF;" d="M13.28,76.947h22.634c0,0-0.606-12.685,0.933-13.81c1.539-1.126,0.057-2.296,0-3.171
	c-0.057-0.875,1.01-14.592,1.213-16.438c0.203-1.848,1.866-3.346,1.866-3.346l1.153,9.57c0,0,1.474,4.782,0.817,6.354
	c-1.042,2.498,2.255,9.187,2.208,10.52c-0.177,5.021,2.678,10.321,2.678,10.321h20.896c0,0,0.524-7.355-0.204-8.184
	c-0.728-0.828,1.697-0.995,0.204-4.583c-1.492-3.588,1.71-24.701,0.855-27.871c-0.855-3.171-1.498-13.955-1.547-15.361
	c-0.05-1.406-0.303-11.065-1.484-13.039c-1.183-1.973,0.635-4.333-0.062-4.477s-50.836-1.62-53.165,1.333
	c-1.517,1.924-1.069,2.868-0.546,3.818c0.276,0.501-2.388,6.333-2.604,20.292c-0.207,13.308,2.244,30.214,3.3,31.76
	c1.913,2.796-0.156,5.947-0.079,7.155C12.424,68.997,13.28,76.947,13.28,76.947z"/>
<path id="BackShadow_2_" style="opacity:0.3;fill:#12100B;" d="M13.28,76.947h19.67c0,0-0.614-11.784,0.954-12.927
	c1.568-1.142,0.058-2.328,0-3.217c-0.058-0.888,3.969-13.336,4.176-15.209c0.207-1.876,1.689-5.771,1.689-5.771l1.31,9.929
	c0,0,1.635,4.828,0.817,6.354c-0.817,1.521,2.699,9.479,2.414,11.598c-0.286,2.116,2.472,9.243,2.472,9.243h18.532
	c0,0,0.533-6.376-0.209-7.218c-0.741-0.839,1.729-1.01,0.209-4.649c-1.521-3.642,1.741-25.064,0.87-28.282
	c-0.87-3.217-1.525-14.16-1.575-15.587c-0.051-1.428-0.309-11.229-1.513-13.231c-1.204-2.002,0.646-4.397-0.063-4.543
	C62.322,3.292,14.36,1.859,12.276,4.765c-2.084,2.906-0.297,2.987-0.564,4.257C11.593,9.59,9.42,19.253,9.345,30.195
	c-0.094,13.506,2.004,28.872,3.08,30.439c1.949,2.836-0.158,5.932-0.079,7.155C12.425,69.017,13.28,76.947,13.28,76.947z"/>
<path id="WhiteFill_2_" style="fill:#FFFFFF;" d="M16.603,76.947h19.311c0,0-0.606-12.685,0.933-13.81
	c1.539-1.126,0.057-2.296,0-3.171c-0.057-0.875,1.01-14.592,1.213-16.438c0.203-1.848,1.866-3.346,1.866-3.346l3.965,8.895
	c0,0,1.604,4.758,0.802,6.26c-0.802,1.501,2.649,9.343,2.369,11.43c-0.279,2.087,2.426,10.181,2.426,10.181h18.191
	c0,0,0.524-7.355-0.204-8.184c-0.728-0.828,1.697-0.995,0.204-4.583c-1.492-3.588,1.71-24.701,0.855-27.871
	c-0.855-3.171-1.498-13.955-1.547-15.361c-0.05-1.406-0.303-11.065-1.484-13.039c-1.183-1.973,0.635-4.333-0.062-4.477
	S17.796,1.957,15.618,4.741c-1.51,1.93-0.292,2.944-0.554,4.195c-0.117,0.56-2.25,10.083-2.324,20.867
	c-0.092,13.309,1.968,28.451,3.024,29.997c1.913,2.796-0.155,5.846-0.078,7.054C15.764,68.061,16.603,76.947,16.603,76.947z"/>
<g>
	<path id="IntShadow_2_" style="opacity:0.1;fill:#12100B;" d="M55.645,76.947c0,0-2.023-2.435-2.215-3.358
		c-0.153-0.738,2.414,0.418,2.215-0.126c-0.182-0.494-5-4.286-5.48-5.757c-0.679-2.082-1.772-6.182-1.796-8.532
		c-0.021-2.171,2.368-0.233,2.099-0.834c-0.221-0.495-3.032-4.737-3.555-6.268c-0.802-2.344-0.768-4.711-1.389-6.124
		c-0.291-0.66,5.025,3.279,5.203,2.836c0.157-0.395-3.753-3.529-5.482-6.049c-0.832-1.211-0.194-2.358-0.164-2.838
		c0.013-0.213,6.475,4.062,6.472,3.85c-0.011-0.767-6.921-5.704-7.241-6.008c-0.371-0.353-0.809-0.409-0.917-0.811
		c-0.146-0.547-0.431-0.167-0.146-0.547c0.205-0.275,8.624,2.648,8.624,2.304c0-0.693-8.236-4.069-8.812-4.298
		c-0.537-0.214-3.189,0.032-4.605,0.215c-0.879,0.113-3.622-0.072-4.128-0.063c-1.784,0.031-5.898,0.022-7.641-0.152
		c-0.979-0.098,5.674,1.26,8.333,1.292c0.819,0.009,1.048,0.273,0.419,1.024c-0.11,0.131-0.19,0.411-1.552,1.349
		c-2.972,2.048-8.024,4.964-8.046,5.143c-0.036,0.283,8.384-3.894,8.648-3.702c1.427,1.046,0.448,1.7,0.308,4.078
		c-0.058,0.994-2.778,6.704-2.379,6.842c0.304,0.104,2.165-3.21,1.75-0.417c-0.538,3.617-1.703,6.613-1.656,7.594
		c0.056,1.17,1.375,3.713,1.375,5.466c0,0.563-0.154,3.668-0.374,5.254c-0.142,1.019-3.517,7.138-3.517,7.7
		c0,1.094,3.079-2.707,2.982-1.878c-0.123,1.034-0.574,2.707-0.494,2.816c0.307,0.418,3.362-0.041,3.362-0.041
		S36.38,65.39,36.52,64.932c0.14-0.459,1.106-2.538,0.793-3.63c-0.513-1.788-1.399-10.307,0.233-12.705
		c0.602-0.884,1.106-5.999,1.455-7.34c0.309-1.187,0.918-1.242,1.246-0.516c0.112,0.248,3.247,7.647,3.41,8.294
		s1.154,5.553,1.035,6.302s2.192,11.014,2.491,11.744c0.298,0.729,1.441,7.658,1.773,8.213c0.333,0.555,0.53,1.653,0.53,1.653"/>
	<path id="IntShadow1_2_" style="opacity:0.1;fill:#12100B;" d="M22.271,76.51c2.169-2.503,6.017-5.007,7.486-5.508
		c1.469-0.5-4.338,4.256-5.387,4.944C23.32,76.635,22.271,76.51,22.271,76.51z"/>
	<path style="opacity:0.1;fill:#12100B;" d="M28.6,32.29c-2.281,1.135,16.226-2.389,18.85-2.063
		c2.619,0.326,6.551-0.716,7.862-0.032c1.31,0.684-20.099,3.508-23.499,3.291C28.414,33.268,29.037,32.073,28.6,32.29z"/>
	<path style="opacity:0.1;fill:#12100B;" d="M49.871,26.861c1.879,1.298-13.359-2.732-15.519-2.36
		c-2.157,0.373-5.703-0.622-6.473-0.037c-0.804,0.611,16.546,4.012,19.346,3.764C50.024,27.979,49.511,26.613,49.871,26.861z"/>
	<path style="opacity:0.1;fill:#12100B;" d="M47.845,15.579c-0.969,0.227-12.768-0.37-14.583-0.224
		c-1.876,0.152-4.297-0.086-4.729,0.353c-0.863,0.875,14.692,1.595,17.11,1.34C48.04,16.791,48.169,15.501,47.845,15.579z"/>
	<path style="opacity:0.1;fill:#12100B;" d="M50.895,22.193c-0.832,0.067-10.596-2.23-12.124-2.34
		c-1.58-0.114-4.041-0.688-4.278-0.253c-0.41,0.754,12.343,3.449,14.385,3.543C50.904,23.236,51.176,22.17,50.895,22.193z"/>
	<path style="opacity:0.1;fill:#12100B;" d="M14.851,11.652c0.329,0.07,12.885,2.223,25.162,2.192
		c12.055-0.03,24.414-2.335,25.428-4.057c0.989-1.681-0.373-1.299-0.373-1.299s-11.848,3.803-24.708,3.803
		c-12.484,0-25.087-1.854-25.295-2.086C14.644,9.739,14.851,11.652,14.851,11.652z"/>
	<path style="opacity:0.1;fill:#12100B;" d="M15.176,9.266c0.839,0.015,14.954,2.153,26.354,1.881
		c5.294-0.125,18.949-1.54,23.91-3.787c0.36-0.164,0.569,0.909,0.136,1.128c-3.867,1.951-15.295,3.803-25.474,4.001
		c-1.718,0.033-24.43-1.857-24.897-2.234C14.737,9.879,15.176,9.266,15.176,9.266z"/>
	<path style="opacity:0.2;fill:#12100B;" d="M47.975,7.077c-0.633,0.936-0.347,4.143,0,4.965s0.152,2.081,0.669,2.268
		c0.518,0.187,1.978,0.513,2.344,0s-0.039-0.511,0-1.398C51.027,12.025,47.975,7.077,47.975,7.077z"/>
	<path style="opacity:0.2;fill:#12100B;" d="M25.68,6.384c-0.807,0.791-1.164,3.991-0.988,4.866
		c0.176,0.875-0.265,2.069,0.205,2.355c0.469,0.286,1.836,0.896,2.297,0.466c0.461-0.429,0.064-0.508,0.279-1.37
		C27.687,11.84,25.68,6.384,25.68,6.384z"/>
	<path style="opacity:0.2;fill:#12100B;" d="M15.997,4.952c-0.675-0.965,18.789-1.706,27.376-1.849
		c8.588-0.143,20.996,0.152,21.741,0.386C65.86,3.722,53.875,7.213,40.3,7.077C26.726,6.941,17.116,6.554,15.997,4.952z"/>
</g>
<g>
	<path style="fill:none;stroke:#000000;stroke-miterlimit:10;" d="M15.064,10.206c-0.044,0.487,11.113,1.718,22.856,2.053
		c12.963,0.37,26.634-2.417,27.521-3.965c0.131-0.228-0.001-1.594,0-2.588c0.002-0.995,0.139-2.129,0-2.216
		c-0.77-0.482-12.087-0.764-25.261-0.282C28.215,3.644,15.984,3.559,15.309,5.285c-0.111,0.285,0.022,1.306,0,2.337
		C15.287,8.652,15.11,9.692,15.064,10.206z"/>
	<path style="fill:none;stroke:#000000;stroke-miterlimit:10;" d="M15.064,5.634c0.459,0.141,11.124,1.36,22.669,1.469
		C49.052,7.21,61.103,5.774,65.44,3.489"/>
	<path style="fill:none;stroke:#000000;stroke-miterlimit:10;" d="M16.603,76.947c0-4.964-0.42-6.008-0.839-8.887
		c-0.42-2.878,0.979-4.881,0-8.261s-5.038-36.18-0.7-50.359"/>
	<path style="fill:none;stroke:#000000;stroke-miterlimit:10;" d="M49.487,76.947c0-1.182-1.016-2.958-1.445-4.768
		c-0.524-2.213-0.518-4.448-0.98-5.413c-0.839-1.752-1.865-9.429-2.238-10.514c-0.374-1.086,0.187-2.419,0-4.089
		c-0.188-1.669-0.84-2.253-0.933-3.087s-3.778-9.753-3.965-9.253c-0.187,0.501-1.562,2.667-1.66,4.071
		c-0.094,1.352-0.393,3.262-0.765,4.555c-0.373,1.293-0.887,10.641-0.653,11.517s0.839,1.292,0,3.171
		c-0.84,1.877-0.933,9.93-0.933,13.81"/>
	<path style="fill:none;stroke:#000000;stroke-miterlimit:10;" d="M67.679,76.947c0-2.336,0.84-6.133,0-7.635
		c-0.839-1.502,1.12-0.626,0-5.132c-1.119-4.506,2.006-19.651,0.373-32.544C66.42,18.745,67.083,12.259,65.44,7.73"/>
	<path style="fill:none;stroke:#000000;stroke-miterlimit:10;" d="M39.926,39.824c-2.938-4.43-1.727-2.285-2.473-6.203
		c-0.746-3.918-0.279-19.523-0.652-21.33"/>
	<path style="fill:none;stroke:#000000;stroke-miterlimit:10;" d="M58.59,10.566c0.062,1.638,0,7.476,1.253,9.668
		c1.438,2.516,4.823,2.333,7.156,2.333"/>
	<path style="fill:none;stroke:#000000;stroke-miterlimit:10;" d="M36.801,12.292c-0.089-3.031-0.047-3.492,0-5.214"/>
	<path style="fill:#FFFFFF;" d="M50.572,12.726c-0.568,0.052-1.606,0.313-1.616,0.11c-0.008-0.202-0.338-5.739-0.312-5.928
		c0.027-0.189,1.608-0.467,1.698-0.214S50.572,12.726,50.572,12.726z"/>
	<path style="fill:#FFFFFF;" d="M27.053,12.49c-0.569-0.045-1.48,0.08-1.455-0.121c0.025-0.201,0.479-5.325,0.536-5.506
		c0.058-0.182,1.61-0.265,1.656,0S27.053,12.49,27.053,12.49z"/>
	<path style="fill:none;stroke:#000000;stroke-miterlimit:10;" d="M48.644,6.748c0.075-0.167,1.387-0.195,1.551-0.136
		c0.163,0.059,0.657,4.777,0.657,6.206c0,0.338-1.626,0.313-1.626,0.094C49.226,12.125,48.535,6.987,48.644,6.748z"/>
	<path style="fill:none;stroke:#000000;stroke-miterlimit:10;" d="M26.134,6.662c0.119-0.248,1.757-0.06,1.696,0.103
		c-0.452,1.202-0.619,4.627-0.545,6.147c0.014,0.282-1.682,0.014-1.726-0.229C25.419,11.909,25.597,7.78,26.134,6.662z"/>
	<path style="fill:#FFFFFF;stroke:#000000;stroke-width:0.624;stroke-miterlimit:10;" d="M42.365,9.696
		c0.002,0.108-0.083,0.194-0.191,0.195L40.066,9.91c-0.106,0-0.192-0.085-0.194-0.192l0,0c-0.001-0.108,0.085-0.194,0.193-0.195
		l2.107-0.019C42.277,9.503,42.365,9.589,42.365,9.696L42.365,9.696z"/>
	<circle style="fill:#FFFFFF;stroke:#000000;stroke-width:0.624;stroke-miterlimit:10;" cx="39.873" cy="9.639" r="1.15"/>
	<circle cx="39.667" cy="9.352" r="0.167"/>
	<circle cx="40.179" cy="9.434" r="0.167"/>
	<circle cx="40.102" cy="9.956" r="0.167"/>
	<circle cx="39.58" cy="9.874" r="0.167"/>
	<path style="fill:none;stroke:#000000;stroke-miterlimit:10;" d="M17.023,10.693c-0.368,2.648-0.7,7.932-1.397,10.274
		c-0.438,1.47-0.707,1.327-2.298,1.602"/>
</g>
<path style="fill:none;stroke:#000000;stroke-miterlimit:10;" d="M42.56,12.511c-0.021,3.974,0.371,16.763,0,17.872
	c-0.368,1.109-1.686,4.367-5.197,3.258"/>
<rect style="fill:none;" width="80" height="80"/>
<g>
</g>
<g>
</g>
<g>
</g>
<g>
</g>
<g>
</g>
<g>
</g>
<g>
</g>
<g>
</g>
<g>
</g>
<g>
</g>
<g>
</g>
<g>
</g>
<g>
</g>
<g>
</g>
<g>
</g>
</svg>
