<?xml version="1.0" encoding="iso-8859-1"?>
<!-- Generator: Adobe Illustrator 16.0.4, SVG Export Plug-In . SVG Version: 6.00 Build 0)  -->
<!DOCTYPE svg PUBLIC "-//W3C//DTD SVG 1.1//EN" "http://www.w3.org/Graphics/SVG/1.1/DTD/svg11.dtd">
<svg version="1.1" id="Layer_1" xmlns="http://www.w3.org/2000/svg" xmlns:xlink="http://www.w3.org/1999/xlink" x="0px" y="0px"
	 width="80px" height="80px" viewBox="0 0 80 80" style="enable-background:new 0 0 80 80;" xml:space="preserve">
<path style="fill:#FFFFFF;" d="M58.604,13.135h0.049C58.001,11.974,47.4,8.275,47.4,8.275L33.458,7.623c0,0-11.37,4.874-11.856,5.34
	l0.084,0c-2.119,2.177-11.205,10.554-11.205,10.554l2.868,16.318l8.681-7.992c4.601,27.7-0.318,38.251-0.318,38.251
	s2.891,5.126,18.874,5.126s18.311-5.126,18.311-5.126c0-5.623-6.651-14.656-1.94-37.534c5.285,4.286,8.703,6.561,8.703,6.383
	l3.908-15.66C66.162,20.082,60.254,14.649,58.604,13.135z M21.751,12.963v0.208l-0.009-0.208H21.751z"/>
<line style="fill:#D1D3D4;" x1="23.841" y1="38.624" x2="23.206" y2="35.186"/>
<path style="opacity:0.35;" d="M25.8,72.405l-0.931,1.073c0,0,2.89,5.126,18.875,5.126c15.98,0,18.804-7.013,18.804-7.013
	s-2.912-7.435-4.763-19.396c-0.837-5.403-1.434-14.776-1.527-15.85c-1.352,9.119-1.326,18.102-1.152,16.415
	c-0.62-1.161,3.437,16.678,3.437,16.678s-1.638,4.782-13.699,5.164c-12.062,0.384-16.887-0.955-16.887-0.955"/>
<path style="fill:#FFFFFF;stroke:#000000;stroke-width:0.7873;stroke-miterlimit:10;" d="M58.824,40.953"/>
<path style="fill:#FFFFFF;stroke:#000000;stroke-width:0.7873;stroke-miterlimit:10;" d="M58.653,13.016
	C58.001,11.855,47.4,8.157,47.4,8.157L33.458,7.504c0,0-11.37,4.874-11.856,5.34"/>
<path style="fill:none;stroke:#000000;stroke-width:0.7873;stroke-miterlimit:10;" d="M22.009,31.587
	c4.64,27.804-0.296,38.389-0.296,38.389s2.891,5.125,18.874,5.125s18.311-5.125,18.311-5.125c0-5.655-6.733-14.755-1.862-37.925"/>
<path style="fill:#FFFFFF;stroke:#000000;stroke-width:0.7873;stroke-miterlimit:10;" d="M30.963,8.817l1.275-4.421
	c1.957-1.953,8.145-1.562,8.87-1.562s5.805,0.094,6.317,1.533c0.53,1.487,0.905,2.864,1.375,4.51
	C43.385,7.524,36.381,7.583,30.963,8.817z"/>
<path style="fill:none;stroke:#000000;stroke-width:0.7873;stroke-miterlimit:10;" d="M57.499,17.686
	c-12.062-4.403-25.516-4.403-34.793-0.232"/>
<path style="fill:none;stroke:#000000;stroke-width:0.7873;stroke-miterlimit:10;" d="M10.481,23.399c0,0,9.241-8.52,11.26-10.611
	c0,0,2.356,13.039,0.713,18.547l-9.105,8.382"/>
<path style="fill:none;stroke:#000000;stroke-width:0.7873;stroke-miterlimit:10;" d="M69.568,23.165
	C65.582,19.418,58.161,12.61,58.161,12.61S56.1,22.982,56.912,32.405c5.312,4.31,8.748,6.599,8.748,6.42"/>
<rect style="fill:none;" width="80" height="80"/>
<g>
</g>
<g>
</g>
<g>
</g>
<g>
</g>
<g>
</g>
<g>
</g>
<g>
</g>
<g>
</g>
<g>
</g>
<g>
</g>
<g>
</g>
<g>
</g>
<g>
</g>
<g>
</g>
<g>
</g>
</svg>
