<?xml version="1.0" encoding="iso-8859-1"?>
<!-- Generator: Adobe Illustrator 16.0.4, SVG Export Plug-In . SVG Version: 6.00 Build 0)  -->
<!DOCTYPE svg PUBLIC "-//W3C//DTD SVG 1.1//EN" "http://www.w3.org/Graphics/SVG/1.1/DTD/svg11.dtd">
<svg version="1.1" id="Layer_1" xmlns="http://www.w3.org/2000/svg" xmlns:xlink="http://www.w3.org/1999/xlink" x="0px" y="0px"
	 width="80px" height="80px" viewBox="0 0 80 80" style="enable-background:new 0 0 80 80;" xml:space="preserve">
<path style="opacity:0.35;" d="M78.681,41.574c0.048,0.025,0.097,0.046,0.142,0.073c-0.061-0.04-0.129-0.084-0.191-0.125
	c-0.138-0.143-0.31-0.256-0.512-0.33c-6.22-4.024-19.908-12.793-19.908-12.793s-0.851-0.701-2.243-1.31
	c-0.961-0.812-3.862-3.135-8.508-5.734c-5.78-3.233-12.021-6.928-12.021-6.928L5.152,29.438c0,0-3.141,2.817-4.066,4.049
	c6.319,6.773,12.041,12.145,14.026,14.779c0.107,0.232,3.587,3.593,3.699,3.695c0.155,0.194,1.388,1.539,2.62,2.771l16.94,17.559
	c0,0,0.156,0,8.183-4.626c13.255-6.312,29.266-20.831,31.347-23.14C79.099,43.197,79.171,42.152,78.681,41.574z"/>
<path style="fill:#FFFFFF;stroke:#000000;stroke-width:0.6239;stroke-miterlimit:10;" d="M1.654,30.976c0,0,3.116,3.979,6.929,7.787
	c4.591,4.586,17.408,15.67,19.026,17.979c0,0,1.146-4.433,4.438-7.375c4.33-3.72,7.632-12.075,14.821-17.699
	c6.149-4.932,9.321-6.456,9.321-6.456s-3.086-2.81-8.865-6.043c-5.78-3.233-12.022-6.928-12.022-6.928"/>
<line style="fill:none;stroke:#9D9D9C;stroke-width:0.6239;stroke-miterlimit:10;" x1="37.152" y1="36.258" x2="21.739" y2="20.246"/>
<line style="fill:none;stroke:#9D9D9C;stroke-width:0.6239;stroke-miterlimit:10;" x1="32.759" y1="41.571" x2="10.641" y2="25.173"/>
<line style="fill:none;stroke:#9D9D9C;stroke-width:0.6239;stroke-miterlimit:10;" x1="27.904" y1="47.498" x2="14.032" y2="33.949"/>
<linearGradient id="SVGID_1_" gradientUnits="userSpaceOnUse" x1="44.7021" y1="52.2646" x2="78.8311" y2="52.2646">
	<stop  offset="0" style="stop-color:#DEDEDE"/>
	<stop  offset="0.1822" style="stop-color:#FFFFFF"/>
	<stop  offset="0.8283" style="stop-color:#F4F4F4"/>
	<stop  offset="1" style="stop-color:#C2C2C2"/>
</linearGradient>
<path style="fill:url(#SVGID_1_);stroke:#000000;stroke-width:0.6239;stroke-miterlimit:10;" d="M45.828,65.844
	c0,0,0.161,0.396,2.859-1.298c9.363-5.461,26.997-19.896,29.078-22.205c2.08-2.309,0.771-3.772-1.002-3.387
	c-1.388-0.308-2.774-0.308-2.774-0.308l-9.71,3.772l-5.549,1.154l-2.852,3.926L44.704,59.43
	C44.704,59.43,44.595,64.805,45.828,65.844z"/>
<path style="fill:#FFFFFF;stroke:#000000;stroke-width:0.6239;stroke-miterlimit:10;" d="M25.422,56.55l13.105,13.411l7.128-4.031
	c0,0,0.766-0.436,1.645-1.298c8.922-8.737,22.955-28.811,31.386-25.17c-5.818-3.772-20.473-13.761-20.473-13.761
	s-3.929-2.289-11.346,1.901c-10.99,6.208-11.038,13.078-20.8,21.131C25.797,52.617,25.422,56.55,25.422,56.55z"/>
<g>
	<defs>
		<polygon id="SVGID_2_" points="76.39,38.314 56.189,25.212 53.509,24.735 42.785,29.038 22.442,52.433 28.851,58.749 
			38.683,69.029 45.222,65.411 64.104,45.338 70.256,40.493 		"/>
	</defs>
	<clipPath id="SVGID_3_">
		<use xlink:href="#SVGID_2_"  style="overflow:visible;"/>
	</clipPath>
	<path style="clip-path:url(#SVGID_3_);fill:none;stroke:#9D9D9C;stroke-width:0.6239;stroke-miterlimit:10;" d="M57.651,25.944
		c0,0-6.018-0.705-12.256,4.339c-8.597,7.319-10.135,13.885-17.492,19.396c-0.336,2.824-0.233,3.928-0.357,6.239
		c4.561,4.546,11.447,11.556,11.447,11.556s0.466-0.154,6.222-3.262c0.949-0.514,9.708-11.52,9.708-11.52
		s12.905-16.267,21.146-14.972"/>
</g>
<path style="fill:none;stroke:#000000;stroke-width:0.6239;stroke-miterlimit:10;" d="M37.196,54.617
	c0.106,0.158,0.098,0.35-0.017,0.426l-3.489,2.324c-0.114,0.077-0.293,0.011-0.399-0.147l0,0c-0.106-0.158-0.098-0.348,0.017-0.426
	l3.49-2.323C36.911,54.394,37.09,54.459,37.196,54.617L37.196,54.617z"/>
<rect style="fill:none;" width="80" height="80"/>
<g>
</g>
<g>
</g>
<g>
</g>
<g>
</g>
<g>
</g>
<g>
</g>
<g>
</g>
<g>
</g>
<g>
</g>
<g>
</g>
<g>
</g>
<g>
</g>
<g>
</g>
<g>
</g>
<g>
</g>
</svg>
