<?xml version="1.0" encoding="iso-8859-1"?>
<!-- Generator: Adobe Illustrator 16.0.4, SVG Export Plug-In . SVG Version: 6.00 Build 0)  -->
<!DOCTYPE svg PUBLIC "-//W3C//DTD SVG 1.1//EN" "http://www.w3.org/Graphics/SVG/1.1/DTD/svg11.dtd">
<svg version="1.1" id="Layer_1" xmlns="http://www.w3.org/2000/svg" xmlns:xlink="http://www.w3.org/1999/xlink" x="0px" y="0px"
	 width="80px" height="80px" viewBox="0 0 80 80" style="enable-background:new 0 0 80 80;" xml:space="preserve">
<path style="opacity:0.35;" d="M67.37,19.064c-0.471-0.892-1.35-1.597-2.097-2.001c-0.443-0.239-0.774-0.385-0.774-0.385
	s3.797,3.893-0.548,6.979c-7.634,5.423-20.968,8.577-23.068,9.05l-0.004-0.002c-0.009,0.003-0.018,0.006-0.028,0.009
	c-0.163,0.036-0.26,0.057-0.26,0.057c0.005,0.003,0.008,0.007,0.012,0.011c-1.146,0.303-2.142,0.722-3.01,1.221l-2.758-1.45
	l-4.452,7.629c0.811-1.493,1.468-2.68,1.865-3.352c2.31-3.923,2.247-4.433,2.247-4.433c-10.419-3.733-9.446-3.561-16.338-6.528
	c-6.699-2.885-5.083-8.652-5.083-8.652c-2.778,1.834-6.4,16.564-8.777,22.612c-1.528,3.885,7.257,17.238,10.484,19.692
	c7.74,5.886,12.417,2.251,13.804-2.596c0.513-1.794,0.555-3.843,0.648-5.911H44.16c0.527,2.608,1.116,5.286,1.4,5.738
	c0.577,0.924,2.946,5.77,7.45,5.191c5.443-0.696,22.028-19.597,21.565-23.521C74.576,37.272,69.586,23.269,67.37,19.064z
	 M29.303,49.711c0.136-2.021,0.425-4.014,1.359-5.761l2.079,1.039c0.023,0.212,3.988,0.691,4.158,0.691c4.158,0,4.227,0.304,6.237,0
	c0,0,0.336,1.844,0.765,4.03H29.303z"/>
<rect style="fill:none;" width="80" height="80"/>
<linearGradient id="SVGID_1_" gradientUnits="userSpaceOnUse" x1="11.7925" y1="21.9033" x2="66.8926" y2="21.9033">
	<stop  offset="0" style="stop-color:#D5D7D8"/>
	<stop  offset="0.1822" style="stop-color:#FFFFFF"/>
	<stop  offset="0.8283" style="stop-color:#EFF0F0"/>
	<stop  offset="1" style="stop-color:#C2C2C2"/>
</linearGradient>
<path style="fill:url(#SVGID_1_);stroke:#000000;stroke-width:0.935;stroke-miterlimit:10;" d="M12.947,14.689
	c5.111-3.375,13.167-3.692,25.641-3.692c12.474,0,26.212,0.891,28.279,5.351c0,0,1.867,15.993-26.2,16.454
	c-13.281,0.219-23.908-4.268-26.103-8.076l-2.772-6.576L12.947,14.689"/>
<path style="fill:#939598;stroke:#000000;stroke-width:0.935;stroke-miterlimit:10;" d="M25.735,26.485
	c0,0,7.872-0.468,12.556-0.468c4.685,0,15.37,0.353,15.37,0.353l-0.753,0.957l-12.087,4.4l-6.3,0.754l-4.664-2.439L25.735,26.485z"
	/>
<polygon style="fill:#FFFFFF;stroke:#000000;stroke-width:0.935;stroke-miterlimit:10;" points="37.665,31.58 31.918,42.466 
	28.106,41.34 31.009,28.72 "/>
<path style="fill:#FFFFFF;stroke:#000000;stroke-width:0.935;stroke-miterlimit:10;" d="M48.724,42.552c0,0-10.309,1.73-16.806,0.26
	c-0.347,0-0.26-0.865-0.26-0.865s-0.086-9.536,9.095-11.769l9.926,3.94L48.724,42.552"/>
<circle style="fill:none;stroke:#000000;stroke-width:0.935;stroke-miterlimit:10;" cx="39.151" cy="37.886" r="2.599"/>
<circle style="fill:none;stroke:#000000;stroke-width:0.935;stroke-miterlimit:10;" cx="39.151" cy="37.886" r="1.169"/>
<path style="fill:#FFFFFF;stroke:#000000;stroke-width:0.935;stroke-miterlimit:10;" d="M67.243,16.536
	c2.215,4.205,7.207,18.207,7.207,19.361c0.355,3.02-6.713,17.744-16.069,22.588C43.31,65.234,46.947,40.142,43.149,33.877
	c-1.399-2.388-1.819-2.941-2.686-3.634c0,0,15.059-3.218,23.359-9.115c4.347-3.086,0.55-6.979,0.55-6.979s0.331,0.146,0.772,0.384
	C65.896,14.938,66.773,15.644,67.243,16.536z"/>
<path style="fill:#FFFFFF;stroke:#000000;stroke-width:0.935;stroke-miterlimit:10;" d="M34.366,29.87
	c-10.288,8.542-2.145,35.885-16.179,28.615C9.872,52.431,3.264,40.354,4.168,37.302c1.849-6.229,5.998-20.777,8.778-22.612
	c0,0-1.617,5.768,5.083,8.652C24.92,26.31,32.355,28.944,34.366,29.87z"/>
<path style="fill:none;stroke:#939598;stroke-width:0.7254;stroke-miterlimit:10;" d="M4.732,36.911c0,0,3.395,11.506,12.243,18.92
	c13.628,11.424,5.891-18.689,16.17-26.418"/>
<path style="fill:none;stroke:#939598;stroke-width:0.7254;stroke-miterlimit:10;" d="M42.154,30.335
	c6.812,4.615,2.194,28.381,12.589,28.035c7.738-1.384,18.134-16.267,19.058-24.112"/>
<path style="fill:none;stroke:#939598;stroke-width:0.7254;stroke-miterlimit:10;" d="M19.059,23.778c0,0,3.073-1.625,20.515-1.625
	c17.443,0,19.789,1.733,19.789,1.733"/>
<circle style="stroke:#000000;stroke-width:1.1196;stroke-miterlimit:10;" cx="22.013" cy="45.334" r="1.4"/>
<circle style="stroke:#000000;stroke-width:1.1196;stroke-miterlimit:10;" cx="52.332" cy="45.16" r="1.4"/>
<rect x="28.327" y="44.747" width="17.309" height="1.234"/>
<g>
</g>
<g>
</g>
<g>
</g>
<g>
</g>
<g>
</g>
<g>
</g>
<g>
</g>
<g>
</g>
<g>
</g>
<g>
</g>
<g>
</g>
<g>
</g>
<g>
</g>
<g>
</g>
<g>
</g>
</svg>
