<?xml version="1.0" encoding="iso-8859-1"?>
<!-- Generator: Adobe Illustrator 16.0.4, SVG Export Plug-In . SVG Version: 6.00 Build 0)  -->
<!DOCTYPE svg PUBLIC "-//W3C//DTD SVG 1.1//EN" "http://www.w3.org/Graphics/SVG/1.1/DTD/svg11.dtd">
<svg version="1.1" id="Layer_1" xmlns="http://www.w3.org/2000/svg" xmlns:xlink="http://www.w3.org/1999/xlink" x="0px" y="0px"
	 width="80px" height="80px" viewBox="0 0 80 80" style="enable-background:new 0 0 80 80;" xml:space="preserve">
<rect style="fill:none;" width="80" height="80"/>
<polyline style="fill:#FFFFFF;stroke:#000000;stroke-width:0.8229;stroke-miterlimit:10;" points="11.159,77.479 11.159,25.339 
	68.893,25.339 68.893,77.479 "/>
<line style="fill:none;stroke:#939598;stroke-width:0.8229;stroke-miterlimit:10;" x1="44.084" y1="22.448" x2="44.084" y2="76.769"/>
<line style="fill:none;stroke:#939598;stroke-width:0.8229;stroke-miterlimit:10;" x1="25.809" y1="76.958" x2="25.809" y2="21.926"/>
<line style="fill:none;stroke:#939598;stroke-width:0.8229;stroke-miterlimit:10;" x1="22.291" y1="76.958" x2="22.291" y2="21.926"/>
<line style="fill:none;stroke:#939598;stroke-width:0.8229;stroke-miterlimit:10;" x1="18.772" y1="76.958" x2="18.772" y2="21.926"/>
<line style="fill:none;stroke:#939598;stroke-width:0.8229;stroke-miterlimit:10;" x1="15.255" y1="76.958" x2="15.255" y2="21.926"/>
<line style="fill:none;stroke:#939598;stroke-width:0.8229;stroke-miterlimit:10;" x1="48.611" y1="22.448" x2="48.611" y2="76.769"/>
<line style="fill:none;stroke:#939598;stroke-width:0.8229;stroke-miterlimit:10;" x1="30.337" y1="76.958" x2="30.337" y2="21.926"/>
<path style="opacity:0.35;" d="M66.612,22.97c0-0.864-3.741-11.36-5.402-14.514c-0.353-0.668-1.012-1.197-1.573-1.5
	c-0.331-0.178-0.579-0.288-0.579-0.288s2.847,2.919-0.409,5.232c-5.726,4.064-15.722,6.429-17.297,6.784l-0.001-0.001
	c-0.006,0.002-0.014,0.006-0.022,0.007c-0.121,0.028-0.195,0.043-0.195,0.043c0.005,0.004,0.007,0.006,0.01,0.009
	c-0.859,0.227-1.606,0.541-2.257,0.916l-2.068-1.086l-3.336,5.718c0.608-1.12,1.1-2.009,1.398-2.513
	c1.731-2.94,1.683-3.323,1.683-3.323c-7.808-2.798-7.081-2.67-12.248-4.895c-5.021-2.161-3.809-6.487-3.809-6.487
	c-2.084,1.377-5.195,12.283-6.581,16.954c-1.385,4.669,10.909,15.099,10.909,15.099s5.613-7.855,8.654-13.547l-0.185,4.895
	c0.017,0.16,0.175,46.253,0.303,46.253c0.874,0.196,2.121-0.104,2.121-0.104c2.34-7.788,2.626-36.119,5.147-48.272
	c1.393-6.72,5.7-0.271,6.129-0.336l7.316,10.924C56.914,36.686,66.958,25.912,66.612,22.97z"/>
<polygon style="fill:#FFFFFF;" points="43.644,76.769 34.71,76.769 34.813,24.602 43.644,23.831 "/>
<line style="fill:none;stroke:#939598;stroke-width:0.8229;stroke-miterlimit:10;" x1="53.11" y1="23.6" x2="53.11" y2="76.881"/>
<line style="fill:none;stroke:#939598;stroke-width:0.8229;stroke-miterlimit:10;" x1="56.814" y1="23.6" x2="56.814" y2="76.881"/>
<line style="fill:none;stroke:#939598;stroke-width:0.8229;stroke-miterlimit:10;" x1="60.519" y1="23.6" x2="60.519" y2="76.881"/>
<line style="fill:none;stroke:#939598;stroke-width:0.8229;stroke-miterlimit:10;" x1="64.223" y1="23.6" x2="64.223" y2="76.881"/>
<line style="fill:#FFFFFF;stroke:#000000;stroke-width:0.8229;stroke-miterlimit:10;" x1="34.67" y1="77.592" x2="34.67" y2="23.6"/>
<linearGradient id="SVGID_1_" gradientUnits="userSpaceOnUse" x1="19.5444" y1="10.585" x2="60.8525" y2="10.585">
	<stop  offset="0" style="stop-color:#D5D7D8"/>
	<stop  offset="0.1822" style="stop-color:#FFFFFF"/>
	<stop  offset="0.8283" style="stop-color:#EFF0F0"/>
	<stop  offset="1" style="stop-color:#C2C2C2"/>
</linearGradient>
<path style="fill:url(#SVGID_1_);stroke:#000000;stroke-width:0.8229;stroke-miterlimit:10;" d="M20.41,5.176
	c3.831-2.531,9.873-2.768,19.222-2.768c9.352,0,19.652,0.667,21.202,4.012c0,0,1.401,11.988-19.642,12.335
	c-9.957,0.161-17.924-3.2-19.57-6.055L19.544,7.77L20.41,5.176"/>
<path style="fill:#FFFFFF;stroke:#000000;stroke-width:0.8229;stroke-miterlimit:10;" d="M29.996,14.018c0,0,5.902-0.35,9.413-0.35
	c3.513,0,11.522,0.265,11.522,0.265l-0.562,0.718l-9.062,3.299l-4.724,0.564l-3.496-1.828L29.996,14.018z"/>
<polygon style="fill:#FFFFFF;stroke:#000000;stroke-width:0.8229;stroke-miterlimit:10;" points="38.94,17.838 34.631,26 
	31.774,25.154 36.724,16.674 "/>
<path style="fill:#FFFFFF;stroke:#000000;stroke-width:0.8229;stroke-miterlimit:10;" d="M47.23,26.064c0,0-7.729,1.295-12.6,0.195
	c-0.26,0-0.195-0.65-0.195-0.65s-0.065-7.148,6.818-8.823l7.441,2.956L47.23,26.064"/>
<g>
	<circle style="fill:none;stroke:#000000;stroke-width:0.8229;stroke-miterlimit:10;" cx="40.055" cy="22.566" r="1.947"/>
	<circle style="fill:none;stroke:#000000;stroke-width:0.8229;stroke-miterlimit:10;" cx="40.053" cy="22.566" r="0.877"/>
</g>
<path style="fill:#FFFFFF;stroke:#000000;stroke-width:0.8229;stroke-miterlimit:10;" d="M61.115,6.56
	c1.66,3.152,5.401,13.65,5.401,14.516c0.348,2.94-9.696,13.715-12.296,15.964L43.052,19.561c0,0-1.364-2.206-2.013-2.725
	c0,0,11.288-2.411,17.515-6.832c3.257-2.315,0.41-5.233,0.41-5.233s0.248,0.109,0.577,0.289C60.105,5.362,60.762,5.891,61.115,6.56z
	"/>
<path style="fill:#FFFFFF;stroke:#000000;stroke-width:0.8229;stroke-miterlimit:10;" d="M36.467,16.557
	c0,0,0.047,0.382-1.684,3.324C33.05,22.822,24.74,37.229,24.74,37.229S12.443,26.797,13.828,22.127
	c1.387-4.67,4.498-15.574,6.582-16.952c0,0-1.211,4.325,3.811,6.486C29.386,13.888,28.657,13.759,36.467,16.557z"/>
<path style="fill:none;stroke:#939598;stroke-width:0.8229;stroke-miterlimit:10;" d="M14.195,20.646c0,0,1.145,5.078,9.985,13.284
	c4.873-9.181,9.063-16.935,9.836-18.039"/>
<path style="fill:none;stroke:#939598;stroke-width:0.8229;stroke-miterlimit:10;" d="M43.431,16.373l11.451,17.638
	c0,0,8.995-9.065,10.803-15.367"/>
<path style="fill:none;stroke:#939598;stroke-width:0.8229;stroke-miterlimit:10;" d="M24.993,11.989c0,0,2.303-1.217,15.38-1.217
	s14.835,1.301,14.835,1.301"/>
<g>
</g>
<g>
</g>
<g>
</g>
<g>
</g>
<g>
</g>
<g>
</g>
<g>
</g>
<g>
</g>
<g>
</g>
<g>
</g>
<g>
</g>
<g>
</g>
<g>
</g>
<g>
</g>
<g>
</g>
</svg>
