<?xml version="1.0" encoding="iso-8859-1"?>
<!-- Generator: Adobe Illustrator 16.0.4, SVG Export Plug-In . SVG Version: 6.00 Build 0)  -->
<!DOCTYPE svg PUBLIC "-//W3C//DTD SVG 1.1//EN" "http://www.w3.org/Graphics/SVG/1.1/DTD/svg11.dtd">
<svg version="1.1" id="Layer_1" xmlns="http://www.w3.org/2000/svg" xmlns:xlink="http://www.w3.org/1999/xlink" x="0px" y="0px"
	 width="80px" height="80px" viewBox="0 0 80 80" style="enable-background:new 0 0 80 80;" xml:space="preserve">
<rect style="fill:none;" width="80" height="80"/>
<path style="opacity:0.35;" d="M66.468,22.216c0-0.863-3.74-11.36-5.402-14.514c-0.353-0.669-1.011-1.197-1.571-1.5
	c-0.332-0.178-0.58-0.288-0.58-0.288s2.847,2.918-0.411,5.232c-5.723,4.064-15.721,6.429-17.295,6.786l-0.001-0.003
	c-0.008,0.003-0.015,0.006-0.022,0.007c-0.122,0.029-0.194,0.042-0.194,0.042c0.004,0.004,0.006,0.006,0.008,0.009
	c-0.858,0.227-1.605,0.541-2.255,0.917l-2.069-1.087l-3.337,5.719c0.607-1.121,1.1-2.009,1.398-2.514
	c1.73-2.94,1.683-3.324,1.683-3.324c-7.81-2.796-7.081-2.669-12.247-4.895c-5.022-2.161-3.811-6.487-3.811-6.487
	c-2.083,1.376-5.196,12.284-6.581,16.954c-1.384,4.669,10.91,15.098,10.91,15.098s4.104-6.347,7.145-12.039l-0.185,4.894
	c0.016,0.161,0.174,46.253,0.302,46.253c0.874,0.197,3.633-0.3,3.633-0.3c2.339-7.79,2.624-37.432,5.145-49.584
	c1.393-6.72,5.701-0.271,6.129-0.336l7.315,10.924C56.771,35.933,66.814,25.159,66.468,22.216z"/>
<rect x="33.059" y="24.586" style="fill:#FFFFFF;" width="11.949" height="53.647"/>
<line style="fill:#FFFFFF;stroke:#D1D3D4;stroke-width:0.8229;stroke-miterlimit:10;" x1="45.42" y1="24.354" x2="45.42" y2="78.346"/>
<line style="fill:#FFFFFF;stroke:#000000;stroke-width:0.8229;stroke-miterlimit:10;" x1="33.018" y1="78.346" x2="33.018" y2="24.354"/>
<linearGradient id="SVGID_1_" gradientUnits="userSpaceOnUse" x1="19.4009" y1="9.832" x2="60.707" y2="9.832">
	<stop  offset="0" style="stop-color:#D5D7D8"/>
	<stop  offset="0.1822" style="stop-color:#FFFFFF"/>
	<stop  offset="0.8283" style="stop-color:#EFF0F0"/>
	<stop  offset="1" style="stop-color:#C2C2C2"/>
</linearGradient>
<path style="fill:url(#SVGID_1_);stroke:#000000;stroke-width:0.8229;stroke-miterlimit:10;" d="M20.266,4.424
	c3.831-2.532,9.871-2.769,19.222-2.769c9.352,0,19.652,0.667,21.2,4.012c0,0,1.401,11.989-19.641,12.335
	c-9.956,0.162-17.923-3.2-19.569-6.053l-2.077-4.931L20.266,4.424"/>
<path style="fill:#FFFFFF;stroke:#000000;stroke-width:0.8229;stroke-miterlimit:10;" d="M29.853,13.264
	c0,0,5.902-0.349,9.413-0.349c3.513,0,11.521,0.264,11.521,0.264l-0.562,0.719l-9.063,3.298l-4.721,0.564l-3.497-1.829
	L29.853,13.264z"/>
<polygon style="fill:#FFFFFF;stroke:#000000;stroke-width:0.8229;stroke-miterlimit:10;" points="38.796,17.085 34.486,25.248 
	31.629,24.402 36.58,15.921 "/>
<path style="fill:#FFFFFF;stroke:#000000;stroke-width:0.8229;stroke-miterlimit:10;" d="M47.088,25.312
	c0,0-7.729,1.295-12.602,0.195c-0.258,0-0.193-0.65-0.193-0.65s-0.065-7.148,6.818-8.823l7.442,2.956L47.088,25.312"/>
<g>
	<path style="fill:none;stroke:#000000;stroke-width:0.8229;stroke-miterlimit:10;" d="M41.859,21.813
		c0,1.075-0.871,1.947-1.95,1.947c-1.076,0-1.946-0.872-1.946-1.947s0.871-1.946,1.946-1.946
		C40.988,19.867,41.859,20.738,41.859,21.813z"/>
	<circle style="fill:none;stroke:#000000;stroke-width:0.8229;stroke-miterlimit:10;" cx="39.91" cy="21.813" r="0.877"/>
</g>
<path style="fill:#FFFFFF;stroke:#000000;stroke-width:0.8229;stroke-miterlimit:10;" d="M60.972,5.807
	c1.66,3.152,5.402,13.65,5.402,14.516c0.347,2.939-9.697,13.714-12.297,15.964l-11.17-17.478c0,0-1.363-2.206-2.011-2.726
	c0,0,11.286-2.411,17.512-6.832c3.258-2.314,0.411-5.233,0.411-5.233s0.248,0.11,0.578,0.289C59.961,4.61,60.618,5.137,60.972,5.807
	z"/>
<path style="fill:#FFFFFF;stroke:#000000;stroke-width:0.8229;stroke-miterlimit:10;" d="M36.324,15.803
	c0,0,0.047,0.383-1.684,3.324c-1.734,2.941-10.046,17.348-10.046,17.348s-12.296-10.431-10.91-15.101
	c1.385-4.67,4.497-15.574,6.582-16.951c0,0-1.212,4.324,3.811,6.484C29.243,13.135,28.513,13.006,36.324,15.803z"/>
<path style="fill:none;stroke:#939598;stroke-width:0.8229;stroke-miterlimit:10;" d="M14.051,19.893c0,0,1.146,5.077,9.984,13.285
	c4.874-9.182,9.063-16.937,9.837-18.04"/>
<path style="fill:none;stroke:#939598;stroke-width:0.8229;stroke-miterlimit:10;" d="M43.285,15.62l11.453,17.639
	c0,0,8.995-9.066,10.803-15.368"/>
<path style="fill:none;stroke:#939598;stroke-width:0.8229;stroke-miterlimit:10;" d="M24.849,11.236c0,0,2.303-1.218,15.379-1.218
	c13.077,0,14.836,1.3,14.836,1.3"/>
<g>
</g>
<g>
</g>
<g>
</g>
<g>
</g>
<g>
</g>
<g>
</g>
<g>
</g>
<g>
</g>
<g>
</g>
<g>
</g>
<g>
</g>
<g>
</g>
<g>
</g>
<g>
</g>
<g>
</g>
</svg>
