<?xml version="1.0" encoding="iso-8859-1"?>
<!-- Generator: Adobe Illustrator 16.0.4, SVG Export Plug-In . SVG Version: 6.00 Build 0)  -->
<!DOCTYPE svg PUBLIC "-//W3C//DTD SVG 1.1//EN" "http://www.w3.org/Graphics/SVG/1.1/DTD/svg11.dtd">
<svg version="1.1" id="Layer_1" xmlns="http://www.w3.org/2000/svg" xmlns:xlink="http://www.w3.org/1999/xlink" x="0px" y="0px"
	 width="80px" height="80px" viewBox="0 0 80 80" style="enable-background:new 0 0 80 80;" xml:space="preserve">
<polyline style="fill:#FFFFFF;stroke:#000000;stroke-width:0.8229;stroke-miterlimit:10;" points="9.649,77.816 9.649,26.705 
	39.83,20.44 70.402,26.705 70.402,77.816 "/>
<path style="opacity:0.35;" d="M67.776,22.217c0-0.864-3.741-11.362-5.402-14.516c-0.353-0.667-1.011-1.195-1.572-1.499
	c-0.331-0.178-0.579-0.287-0.579-0.287s2.846,2.918-0.411,5.231c-5.723,4.064-15.72,6.429-17.295,6.785l-0.001-0.001
	c-0.008,0.002-0.015,0.005-0.022,0.007c-0.122,0.027-0.194,0.042-0.194,0.042c0.003,0.004,0.006,0.008,0.008,0.01
	c-0.858,0.227-1.605,0.54-2.255,0.915l-2.069-1.085l-3.336,5.718c0.606-1.12,1.099-2.009,1.398-2.514
	c1.73-2.94,1.683-3.324,1.683-3.324c-7.81-2.796-7.081-2.669-12.248-4.893c-5.021-2.161-3.811-6.487-3.811-6.487
	c-2.083,1.376-5.195,12.282-6.581,16.952c-1.384,4.671,10.911,15.1,10.911,15.1s4.103-6.347,7.144-12.04l-0.184,4.894
	c0.016,0.16,0.174,46.253,0.302,46.253c0.875,0.198,3.633-0.301,3.633-0.301c2.339-7.788,2.624-37.432,5.145-49.582
	c1.393-6.72,5.701-0.272,6.129-0.336l7.315,10.924C58.08,35.933,68.123,25.159,67.776,22.217z"/>
<rect x="34.367" y="24.586" style="fill:#FFFFFF;" width="11.949" height="53.648"/>
<line style="fill:#FFFFFF;stroke:#D1D3D4;stroke-width:0.8229;stroke-miterlimit:10;" x1="46.729" y1="24.354" x2="46.729" y2="78.346"/>
<line style="fill:#FFFFFF;stroke:#000000;stroke-width:0.8229;stroke-miterlimit:10;" x1="34.326" y1="78.346" x2="34.326" y2="24.354"/>
<linearGradient id="SVGID_1_" gradientUnits="userSpaceOnUse" x1="20.7095" y1="9.832" x2="62.0156" y2="9.832">
	<stop  offset="0" style="stop-color:#D5D7D8"/>
	<stop  offset="0.1822" style="stop-color:#FFFFFF"/>
	<stop  offset="0.8283" style="stop-color:#EFF0F0"/>
	<stop  offset="1" style="stop-color:#C2C2C2"/>
</linearGradient>
<path style="fill:url(#SVGID_1_);stroke:#000000;stroke-width:0.8229;stroke-miterlimit:10;" d="M21.575,4.422
	c3.83-2.53,9.871-2.767,19.222-2.767c9.351,0,19.651,0.666,21.199,4.013c0,0,1.401,11.987-19.642,12.334
	c-9.955,0.163-17.922-3.2-19.569-6.054l-2.076-4.931L21.575,4.422"/>
<path style="fill:#FFFFFF;stroke:#000000;stroke-width:0.8229;stroke-miterlimit:10;" d="M31.161,13.264
	c0,0,5.902-0.349,9.413-0.349c3.513,0,11.521,0.264,11.521,0.264l-0.563,0.719l-9.062,3.298l-4.72,0.567l-3.498-1.829L31.161,13.264
	z"/>
<polygon style="fill:#FFFFFF;stroke:#000000;stroke-width:0.8229;stroke-miterlimit:10;" points="40.105,17.085 35.794,25.247 
	32.938,24.402 37.888,15.921 "/>
<path style="fill:#FFFFFF;stroke:#000000;stroke-width:0.8229;stroke-miterlimit:10;" d="M48.396,25.312
	c0,0-7.729,1.295-12.603,0.194c-0.258,0-0.193-0.65-0.193-0.65s-0.065-7.147,6.818-8.822l7.441,2.955L48.396,25.312"/>
<g>
	<path style="fill:none;stroke:#000000;stroke-width:0.8229;stroke-miterlimit:10;" d="M43.168,21.814
		c0,1.075-0.872,1.946-1.951,1.946c-1.075,0-1.945-0.872-1.945-1.946c0-1.076,0.87-1.948,1.945-1.948
		C42.296,19.866,43.168,20.738,43.168,21.814z"/>
	<circle style="fill:none;stroke:#000000;stroke-width:0.8229;stroke-miterlimit:10;" cx="41.218" cy="21.814" r="0.877"/>
</g>
<path style="fill:#FFFFFF;stroke:#000000;stroke-width:0.8229;stroke-miterlimit:10;" d="M62.28,5.808
	c1.66,3.151,5.402,13.65,5.402,14.515c0.347,2.939-9.697,13.715-12.297,15.965l-11.17-17.48c0,0-1.362-2.204-2.012-2.726
	c0,0,11.287-2.411,17.513-6.831c3.258-2.313,0.411-5.233,0.411-5.233s0.248,0.109,0.578,0.289C61.27,4.61,61.926,5.137,62.28,5.808z
	"/>
<path style="fill:#FFFFFF;stroke:#000000;stroke-width:0.8229;stroke-miterlimit:10;" d="M37.632,15.803
	c0,0,0.046,0.383-1.684,3.326c-1.734,2.939-10.045,17.347-10.045,17.347s-12.296-10.43-10.911-15.1
	c1.386-4.671,4.497-15.576,6.583-16.954c0,0-1.213,4.327,3.81,6.487C30.551,13.135,29.822,13.006,37.632,15.803z"/>
<path style="fill:none;stroke:#939598;stroke-width:0.8229;stroke-miterlimit:10;" d="M15.36,19.894c0,0,1.146,5.077,9.984,13.284
	c4.874-9.182,9.064-16.935,9.837-18.041"/>
<path style="fill:none;stroke:#939598;stroke-width:0.8229;stroke-miterlimit:10;" d="M44.594,15.619l11.452,17.64
	c0,0,8.995-9.065,10.804-15.368"/>
<path style="fill:none;stroke:#939598;stroke-width:0.8229;stroke-miterlimit:10;" d="M26.158,11.236c0,0,2.303-1.218,15.378-1.218
	c13.077,0,14.836,1.3,14.836,1.3"/>
<g>
	<circle style="fill:none;stroke:#000000;stroke-width:0.8229;stroke-miterlimit:10;" cx="41.034" cy="38.945" r="1.947"/>
	<circle style="fill:none;stroke:#000000;stroke-width:0.8229;stroke-miterlimit:10;" cx="41.033" cy="38.945" r="0.877"/>
</g>
<g>
	<circle style="fill:none;stroke:#000000;stroke-width:0.8229;stroke-miterlimit:10;" cx="41.034" cy="66.518" r="1.947"/>
	<circle style="fill:none;stroke:#000000;stroke-width:0.8229;stroke-miterlimit:10;" cx="41.033" cy="66.518" r="0.877"/>
</g>
<rect style="fill:none;" width="80" height="80"/>
<g>
</g>
<g>
</g>
<g>
</g>
<g>
</g>
<g>
</g>
<g>
</g>
<g>
</g>
<g>
</g>
<g>
</g>
<g>
</g>
<g>
</g>
<g>
</g>
<g>
</g>
<g>
</g>
<g>
</g>
</svg>
