<?xml version="1.0" encoding="iso-8859-1"?>
<!-- Generator: Adobe Illustrator 16.0.4, SVG Export Plug-In . SVG Version: 6.00 Build 0)  -->
<!DOCTYPE svg PUBLIC "-//W3C//DTD SVG 1.1//EN" "http://www.w3.org/Graphics/SVG/1.1/DTD/svg11.dtd">
<svg version="1.1" id="Layer_1" xmlns="http://www.w3.org/2000/svg" xmlns:xlink="http://www.w3.org/1999/xlink" x="0px" y="0px"
	 width="80px" height="80px" viewBox="0 0 80 80" style="enable-background:new 0 0 80 80;" xml:space="preserve">
<path style="opacity:0.35;" d="M78.681,41.574c0.048,0.024,0.097,0.046,0.143,0.073c-0.062-0.04-0.13-0.085-0.192-0.125
	c-0.138-0.144-0.309-0.257-0.512-0.331C71.9,37.167,58.211,28.398,58.211,28.398s-0.851-0.701-2.243-1.31
	c-0.96-0.812-3.862-3.134-8.508-5.734c-5.779-3.233-12.021-6.928-12.021-6.928L5.152,29.438c0,0-3.141,2.817-4.065,4.048
	c6.318,6.774,12.04,12.145,14.025,14.78c0.107,0.231,3.587,3.592,3.699,3.695c0.155,0.194,1.388,1.539,2.62,2.771L31.45,66.741
	c0,0,9.094,1.386,15.104,0.925c13.256-6.312,29.266-20.831,31.347-23.14C79.099,43.197,79.171,42.151,78.681,41.574z"/>
<path style="fill:#FFFFFF;stroke:#000000;stroke-width:0.6239;stroke-miterlimit:10;" d="M1.654,30.976c0,0,3.116,3.978,6.929,7.786
	c4.591,4.586,11.894,12.227,13.512,14.536c0,0,3.118-3.288,6.41-6.229c4.332-3.721,11.173-9.777,18.363-15.401
	c6.149-4.932,9.321-6.455,9.321-6.455s-3.086-2.81-8.865-6.043c-5.78-3.234-12.022-6.929-12.022-6.929"/>
<line style="fill:none;stroke:#939598;stroke-width:0.6239;stroke-miterlimit:10;" x1="37.152" y1="36.258" x2="21.739" y2="20.246"/>
<line style="fill:none;stroke:#939598;stroke-width:0.6239;stroke-miterlimit:10;" x1="32.759" y1="41.57" x2="10.643" y2="25.172"/>
<line style="fill:none;stroke:#939598;stroke-width:0.6239;stroke-miterlimit:10;" x1="27.904" y1="47.497" x2="14.033" y2="33.948"/>
<linearGradient id="SVGID_1_" gradientUnits="userSpaceOnUse" x1="44.7021" y1="52.2646" x2="78.8311" y2="52.2646">
	<stop  offset="0" style="stop-color:#D5D7D8"/>
	<stop  offset="0.1822" style="stop-color:#FFFFFF"/>
	<stop  offset="0.8283" style="stop-color:#EFF0F0"/>
	<stop  offset="1" style="stop-color:#C2C2C2"/>
</linearGradient>
<path style="fill:url(#SVGID_1_);stroke:#000000;stroke-width:0.6239;stroke-miterlimit:10;" d="M45.828,65.844
	c0,0,0.162,0.396,2.859-1.299c9.363-5.461,26.997-19.896,29.078-22.205c2.08-2.309,0.771-3.771-1.002-3.387
	c-1.387-0.308-2.774-0.308-2.774-0.308l-9.71,3.773l-5.549,1.154l-2.852,3.926L44.704,59.43
	C44.704,59.43,44.595,64.805,45.828,65.844z"/>
<path style="fill:#FFFFFF;stroke:#000000;stroke-width:0.6239;stroke-miterlimit:10;" d="M21.229,52.26l11.348,12.632
	c0,0-0.03,0.347,1.125,0.347c1.156,0,11.954,0.691,11.954,0.691s0.767-0.436,1.646-1.298c8.921-8.739,22.954-28.811,31.385-25.17
	c-5.818-3.772-20.611-13.249-20.611-13.249s-3.789-2.802-11.207,1.388C34.308,34.696,36.04,42.656,21.229,52.26z"/>
<g>
	<defs>
		<polygon id="SVGID_2_" points="76.39,38.313 56.189,25.212 53.509,24.734 42.787,29.038 22.442,52.433 28.851,58.749 
			34.481,64.978 45.222,65.411 64.104,45.338 70.256,40.492 		"/>
	</defs>
	<clipPath id="SVGID_3_">
		<use xlink:href="#SVGID_2_"  style="overflow:visible;"/>
	</clipPath>
	<path style="clip-path:url(#SVGID_3_);fill:none;stroke:#939598;stroke-width:0.6239;stroke-miterlimit:10;" d="M57.651,25.943
		c0,0-6.018-0.705-12.256,4.34c-9.96,8.479-10.827,16.006-21.742,21.977c1.3,1.558,10.915,11.161,10.915,11.161
		s9.055,0.519,10.134,0.519s10.221-11.247,10.221-11.247s12.905-16.267,21.146-14.971"/>
</g>
<path style="fill:none;stroke:#000000;stroke-width:0.6239;stroke-miterlimit:10;" d="M37.196,54.617
	c0.106,0.158,0.098,0.348-0.017,0.426l-3.489,2.323c-0.114,0.078-0.293,0.012-0.399-0.146l0,0c-0.106-0.158-0.098-0.349,0.018-0.426
	l3.489-2.324C36.911,54.394,37.09,54.459,37.196,54.617L37.196,54.617z"/>
<rect style="fill:none;" width="80" height="80"/>
<g>
</g>
<g>
</g>
<g>
</g>
<g>
</g>
<g>
</g>
<g>
</g>
<g>
</g>
<g>
</g>
<g>
</g>
<g>
</g>
<g>
</g>
<g>
</g>
<g>
</g>
<g>
</g>
<g>
</g>
</svg>
