<?xml version="1.0" encoding="iso-8859-1"?>
<!-- Generator: Adobe Illustrator 16.0.4, SVG Export Plug-In . SVG Version: 6.00 Build 0)  -->
<!DOCTYPE svg PUBLIC "-//W3C//DTD SVG 1.1//EN" "http://www.w3.org/Graphics/SVG/1.1/DTD/svg11.dtd">
<svg version="1.1" id="Layer_1" xmlns="http://www.w3.org/2000/svg" xmlns:xlink="http://www.w3.org/1999/xlink" x="0px" y="0px"
	 width="80px" height="80px" viewBox="0 0 80 80" style="enable-background:new 0 0 80 80;" xml:space="preserve">
<path style="fill:#FFFFFF;" d="M69.057,22.261c-3.916-3.682-10.373-10.058-10.373-10.058c-0.643-1.142-11.061-4.775-11.061-4.775
	L33.924,6.787c0,0-11.173,4.789-11.652,5.247c-1.983,2.055-11.277,10.457-11.277,10.457l2.303,21.634l9.627-10.136
	c-0.537,23.854-1.547,34.187-1.547,34.187s2.982,5.038,19.475,5.038c16.489,0,18.391-4.567,18.391-4.567
	c-0.945-5.706-1.325-15.433-2.293-33.421c0,0,5.425,6.599,8.881,10.281L69.057,22.261z"/>
<g>
	<g>
		<polygon style="opacity:0.35;" points="14.063,44.132 15.794,46.108 23.043,38.404 22.925,34.578 		"/>
		<path style="opacity:0.35;" d="M25.596,71.154l-0.961,1.055c0,0,2.982,5.037,19.475,5.037c16.491,0,18.442-7.569,18.442-7.569
			s-0.438-4.189-1.984-17.857c-0.605-5.346-0.966-8.668-0.442-7.936c0.618,0.865,1.483,2.336,3.09,4.189
			c0.865-1.976,1.585-2.982,1.415-3.202c-2.596-3.334-7.555-7.887-7.652-8.941c0.087,9.878,0.763,21.076,0.941,19.417
			c-0.643-1.141,1.545,13.888,1.545,13.888s-1.773,3.705-14.222,4.081c-12.443,0.375-17.423-0.939-17.423-0.939"/>
		<path style="fill:#FFFFFF;stroke:#000000;stroke-width:0.8248;stroke-miterlimit:10;" d="M59.771,40.246"/>
		<path style="fill:#FFFFFF;stroke:#000000;stroke-width:0.8248;stroke-miterlimit:10;" d="M69.057,22.851
			c-3.916-3.683-10.373-10.058-10.373-10.058c-0.643-1.142-11.061-4.775-11.061-4.775L33.924,7.376c0,0-11.173,4.789-11.652,5.247
			C20.289,14.678,10.995,23.08,10.995,23.08"/>
		<path style="fill:none;stroke:#000000;stroke-width:0.8248;stroke-miterlimit:10;" d="M13.298,44.715l9.627-10.137
			c-0.537,23.855-1.547,34.188-1.547,34.188s2.982,5.037,19.475,5.037c16.489,0,18.391-4.569,18.391-4.569
			c-0.945-5.703-1.325-15.431-2.293-33.42c0,0,5.425,6.599,8.881,10.281"/>
		<path style="fill:#FFFFFF;stroke:#000000;stroke-width:0.8248;stroke-miterlimit:10;" d="M40.453,14.193l-8.1,2.061
			c0,0-1.515-3.765-0.932-8.08l1.304-3.853c1.923-1.919,8.004-1.535,8.716-1.535s5.124-0.059,6.207,1.506
			c1.082,1.565,1.534,4.451,1.534,4.451s-0.397,7.624-1.18,7.511C46.112,15.987,40.453,14.193,40.453,14.193z"/>
		<path style="fill:#FFFFFF;stroke:#000000;stroke-width:0.8248;stroke-miterlimit:10;" d="M40.453,14.193
			c0,0-5.421-4.097-7.728-9.872"/>
		<path style="fill:#FFFFFF;stroke:#000000;stroke-width:0.8248;stroke-miterlimit:10;" d="M40.453,14.193
			c4.66-3.442,7.043-10.085,7.043-10.085"/>
		<path style="fill:none;stroke:#000000;stroke-width:0.8248;stroke-miterlimit:10;" d="M22.908,26.079c0,0,0.309,7.086,0,12.58"/>
		<path style="fill:none;stroke:#000000;stroke-width:0.8248;stroke-miterlimit:10;" d="M57.192,40.988
			c-0.63-6.5-0.495-13.86-0.495-13.86"/>
	</g>
	<line style="fill:none;stroke:#000000;stroke-width:0.8248;stroke-miterlimit:10;" x1="39.32" y1="14.75" x2="39.32" y2="73.724"/>
	
		<line style="fill:none;stroke:#000000;stroke-width:0.8248;stroke-miterlimit:10;" x1="41.601" y1="14.637" x2="41.601" y2="73.724"/>
</g>
<path style="fill:#FFFFFF;stroke:#000000;stroke-width:0.8248;stroke-miterlimit:10;" d="M60.395,71.889"/>
<rect style="fill:none;" width="80" height="80"/>
<g>
</g>
<g>
</g>
<g>
</g>
<g>
</g>
<g>
</g>
<g>
</g>
<g>
</g>
<g>
</g>
<g>
</g>
<g>
</g>
<g>
</g>
<g>
</g>
<g>
</g>
<g>
</g>
<g>
</g>
</svg>
