<?xml version="1.0" encoding="utf-8"?>
<!-- Generator: Adobe Illustrator 19.1.1, SVG Export Plug-In . SVG Version: 6.00 Build 0)  -->
<svg version="1.1" id="Lager_1" xmlns="http://www.w3.org/2000/svg" xmlns:xlink="http://www.w3.org/1999/xlink" x="0px" y="0px"
	 viewBox="0 0 80 80" style="enable-background:new 0 0 80 80;" xml:space="preserve">
<style type="text/css">
	.st0{opacity:0.2;fill:#FFFFFF;}
	.st1{opacity:0.2;}
	.st2{fill:#FFFFFF;}
	.st3{fill:none;stroke:#000000;stroke-miterlimit:10;}
	.st4{fill:none;stroke:#000000;stroke-linecap:round;stroke-miterlimit:10;}
	.st5{opacity:0.1;}
	.st6{opacity:0.1;fill:none;stroke:#000000;stroke-linecap:round;stroke-miterlimit:10;}
	.st7{fill:none;}
	.st8{fill:none;stroke:#000000;stroke-width:0.624;stroke-miterlimit:10;}
</style>
<path class="st0" d="M9.1,72.7c3.3,2.1,59.8,2.1,59.8,2.1s-3.7-28.1-3.9-30c-0.2-1.9-1-14.2-1.1-16.3c-0.1-2.2,2.5-24.8,2.5-24.8
	H10.9c0,0,0.4,15.1,1.1,17.2c0.7,2.2,1.3,8.8,1.3,9.5C13.3,31,7.7,71.8,9.1,72.7z"/>
<path class="st1" d="M9.1,72.7c3.3,2.1,59.8,2.1,59.8,2.1s-3.7-28.1-3.9-30c-0.2-1.9-1-14.2-1.1-16.3c-0.1-2.2,2.5-24.8,2.5-24.8
	H10.9c0,0,0.4,15.1,1.1,17.2c0.7,2.2,1.3,8.8,1.3,9.5C13.3,31,7.7,71.8,9.1,72.7z"/>
<path class="st2" d="M12.8,74.8h56.1c0,0-3.5-28.1-3.7-30c-0.2-1.9-1-14.2-1-16.3c-0.1-2.2,2.3-24.8,2.3-24.8H14
	c0,0,0.3,15.1,1,17.2c0.7,2.2,1.2,8.8,1.3,9.5C16.3,31,12.7,73.3,12.8,74.8z"/>
<path class="st3" d="M14,3.6c0.1,2.8,0.7,14.3,1,17.2c0.4,3.2,1.3,7.7,1.3,10.1c0,3.5-3.4,31.6-3.5,33.8c0,0-0.6,7.4-0.5,9.7
	c0.1,0.6,12.8,1.7,17.5,1.7"/>
<path class="st3" d="M45,3.6c-2.1,2.4-15.3,19.1-15.3,28.4c0,9.8,0.4,27.4,0.4,32.7l0,12.1c0,0,33.8-0.2,38.9-2.3
	c0.9-0.4-3.5-27.3-3.9-31.2c-0.3-3.4-0.8-11.7-0.8-13.7c0-1.9,0.4-5.9,0.8-8.8c0.3-2.7,1.6-14.7,1.6-17.3"/>
<path class="st3" d="M35.8,3.6c0.9,3,2.2,7.5,2.6,8.9"/>
<path class="st3" d="M50.6,3.6C49.9,4.3,36.3,22.9,34,25c-2.3,2.1-3.8,3.2-4,4.5"/>
<path class="st3" d="M30.1,3.6C30.2,5,33.7,14,35.6,17"/>
<path class="st4" d="M54,46c3.1,1,10.6,2.8,11.8,4"/>
<path class="st4" d="M27.2,46.4c-2.3,0.2-11.2,3-11.9,4.5"/>
<g id="Knapp_16_">
	
		<ellipse transform="matrix(-0.995 -9.956514e-002 9.956514e-002 -0.995 53.2899 38.0362)" class="st5" cx="27.6" cy="17.7" rx="2" ry="1.7"/>
	<circle class="st3" cx="27.9" cy="16.9" r="1.6"/>
	<circle class="st2" cx="27.9" cy="16.9" r="1.6"/>
	<circle class="st1" cx="27.9" cy="16.9" r="1.6"/>
</g>
<g id="Knapp_17_">
	
		<ellipse transform="matrix(-0.995 -9.957334e-002 9.957334e-002 -0.995 97.8542 40.2607)" class="st5" cx="49.9" cy="17.7" rx="2" ry="1.7"/>
	<circle class="st3" cx="50.2" cy="16.9" r="1.6"/>
	<circle class="st2" cx="50.2" cy="16.9" r="1.6"/>
	<circle class="st1" cx="50.2" cy="16.9" r="1.6"/>
</g>
<g id="Knapp_18_">
	
		<ellipse transform="matrix(-0.995 -9.953443e-002 9.953443e-002 -0.995 89.9939 74.7043)" class="st5" cx="46.9" cy="35.1" rx="2" ry="1.7"/>
	<circle class="st3" cx="47.2" cy="34.3" r="1.6"/>
	<circle class="st2" cx="47.2" cy="34.3" r="1.6"/>
	<circle class="st1" cx="47.2" cy="34.3" r="1.6"/>
</g>
<g id="Knapp_19_">
	
		<ellipse transform="matrix(-0.995 -9.955286e-002 9.955286e-002 -0.995 88.3186 120.4351)" class="st5" cx="47.2" cy="58" rx="2" ry="1.7"/>
	<circle class="st3" cx="47.5" cy="57.2" r="1.6"/>
	<circle class="st2" cx="47.5" cy="57.2" r="1.6"/>
	<circle class="st1" cx="47.5" cy="57.2" r="1.6"/>
</g>
<g id="Knapp_20_">
	
		<ellipse transform="matrix(-0.995 -9.954467e-002 9.954467e-002 -0.995 60.6609 119.0547)" class="st5" cx="33.3" cy="58" rx="2" ry="1.7"/>
	<circle class="st3" cx="33.6" cy="57.2" r="1.6"/>
	<circle class="st2" cx="33.6" cy="57.2" r="1.6"/>
	<circle class="st1" cx="33.6" cy="57.2" r="1.6"/>
</g>
<g id="Knapp_21_">
	
		<ellipse transform="matrix(-0.995 -9.955286e-002 9.955286e-002 -0.995 62.6022 73.3383)" class="st5" cx="33.1" cy="35.1" rx="2" ry="1.7"/>
	<circle class="st3" cx="33.4" cy="34.3" r="1.6"/>
	<circle class="st2" cx="33.4" cy="34.3" r="1.6"/>
	<circle class="st1" cx="33.4" cy="34.3" r="1.6"/>
</g>
<path class="st6" d="M22.6,12.8c1.1,2.7,3.8,11.2,4,19.1c0.2,6.9,0.9,12.7,0.5,14.4"/>
<path class="st6" d="M58.1,12.6c-0.9,3-4.4,17-4.4,20.9c0,2.1-0.3,10.8-0.1,12.5"/>
<path class="st5" d="M38.6,12.3c-0.1,0.6-2.8-8.7-2.4-8.7l8.6,0C44.8,3.6,38.6,11.7,38.6,12.3z"/>
<path class="st5" d="M29.7,29.3c0.8-0.8,3.9-1.8,5.6-3.4c1.3-1.2,17.3-21.6,17.3-22.2l-2.1,0c0,0-11.9,15.7-15.9,20.6
	C33.4,25.8,29.7,29.3,29.7,29.3z"/>
<path class="st5" d="M34.7,18.5c-2.7-3.3-6-13.6-6.3-14.9l1.7,0c0,0,3.8,11.9,5.6,13.3C36.1,17.3,34.7,18.5,34.7,18.5z"/>
<rect class="st7" width="80" height="80"/>
<g>
	<path class="st8" d="M62.6,6.3c0.1,0.1-0.4,3.1-0.6,3.2c-0.2,0.1-11.4,0-11.6-0.2c-0.1-0.1,0.4-3.2,0.5-3.3c0.1-0.1,5.2,0,7,0.1
		C59.7,6.2,62.6,6.1,62.6,6.3z"/>
</g>
</svg>
