<?xml version="1.0" encoding="utf-8"?>
<!-- Generator: Adobe Illustrator 19.1.1, SVG Export Plug-In . SVG Version: 6.00 Build 0)  -->
<svg version="1.1" id="Lager_1" xmlns="http://www.w3.org/2000/svg" xmlns:xlink="http://www.w3.org/1999/xlink" x="0px" y="0px"
	 viewBox="0 0 80 80" style="enable-background:new 0 0 80 80;" xml:space="preserve">
<style type="text/css">
	.st0{fill:#FFFFFF;}
	.st1{opacity:0.2;}
	.st2{fill:none;stroke:#000000;stroke-miterlimit:10;}
	.st3{fill:none;stroke:#000000;stroke-linecap:round;stroke-miterlimit:10;}
	.st4{opacity:0.1;}
	.st5{opacity:0.1;fill:none;stroke:#000000;stroke-linecap:round;stroke-miterlimit:10;}
	.st6{fill:none;}
	.st7{fill:none;stroke:#000000;stroke-width:0.624;stroke-miterlimit:10;}
</style>
<path class="st0" d="M5.3,76.9h71.2c0,0-4.4-21.8-4.7-24.1c-0.3-2.3-1.2-17-1.3-19.6c-0.1-2.6,3-29.8,3-29.8H6.8
	c0,0,0.4,18.1,1.3,20.7c0.9,2.6,1.6,10.5,1.6,11.4C9.7,36.3,5.1,75.2,5.3,76.9z"/>
<path class="st1" d="M5.3,76.9h71.2c0,0-4.4-21.8-4.7-24.1c-0.3-2.3-1.2-17-1.3-19.6c-0.1-2.6,3-29.8,3-29.8H6.8
	c0,0,0.4,18.1,1.3,20.7c0.9,2.6,1.6,10.5,1.6,11.4C9.7,36.3,5.1,75.2,5.3,76.9z"/>
<path class="st0" d="M9.1,76.9h67.4c0,0-4.2-21.8-4.4-24.1c-0.3-2.3-1.1-17-1.2-19.6c-0.1-2.6,2.8-29.8,2.8-29.8H10.5
	c0,0,0.4,18.1,1.2,20.7c0.8,2.6,1.5,10.5,1.5,11.4C13.2,36.3,8.9,75.2,9.1,76.9z"/>
<path class="st2" d="M10.5,3.5c0.2,3.3,0.8,17.2,1.2,20.7c0.5,3.8,1.6,9.2,1.5,12.2c-0.1,4.2-4.1,37.9-4.2,40.6"/>
<path class="st2" d="M73.7,3.5c0,3.1-1.5,17.6-1.9,20.8c-0.4,3.4-0.9,8.2-0.9,10.5c0,2.3,0.7,12.4,1,16.4c0.4,4.6,4.6,22.7,4.6,25.8
	"/>
<path class="st2" d="M41,76.9c-0.9-5.8-0.3-24.4-1.1-36.1C39,29.2,46.6,6.4,47.7,3.5"/>
<path class="st2" d="M36.7,3.5C37.8,7,41.8,20,42,22.7"/>
<path class="st2" d="M54.4,3.5c-0.4,0.8-10,23.2-11.6,25.7c-1.5,2.5-2.7,4.1-2.9,5.6"/>
<path class="st2" d="M29.8,3.5c0.2,1.7,7.9,21,11.2,24.4"/>
<path class="st3" d="M58.5,54.3c3.7,1.3,12.8,3.3,14.1,4.8"/>
<path class="st3" d="M26.3,54.8C23.6,55,12.9,58.4,12,60.2"/>
<g id="Knapp_10_">
	
		<ellipse transform="matrix(-0.995 -9.957539e-002 9.957539e-002 -0.995 82.9423 90.0021)" class="st4" cx="43.7" cy="42.9" rx="2.4" ry="2.1"/>
	<circle class="st2" cx="44.1" cy="41.9" r="1.9"/>
	<circle class="st0" cx="44.1" cy="41.9" r="1.9"/>
	<circle class="st1" cx="44.1" cy="41.9" r="1.9"/>
</g>
<g id="Knapp_11_">
	
		<ellipse transform="matrix(-0.995 -9.957539e-002 9.957539e-002 -0.995 82.9423 90.0021)" class="st4" cx="43.7" cy="42.9" rx="2.4" ry="2.1"/>
	<circle class="st2" cx="44.1" cy="41.9" r="1.9"/>
	<circle class="st0" cx="44.1" cy="41.9" r="1.9"/>
	<circle class="st1" cx="44.1" cy="41.9" r="1.9"/>
</g>
<g id="Knapp_12_">
	
		<ellipse transform="matrix(-0.995 -9.955491e-002 9.955491e-002 -0.995 80.7194 134.568)" class="st4" cx="43.7" cy="65.3" rx="2.4" ry="2.1"/>
	<circle class="st2" cx="44.1" cy="64.3" r="1.9"/>
	<circle class="st0" cx="44.1" cy="64.3" r="1.9"/>
	<circle class="st1" cx="44.1" cy="64.3" r="1.9"/>
</g>
<path class="st2" d="M39.5,76.9c0.4-1.3,1-6.6,1-7.2"/>
<path class="st5" d="M20.9,14.5c1.4,3.3,4.5,13.5,4.8,23c0.2,8.3,1,15.2,0.7,17.3"/>
<path class="st5" d="M63.5,14.2c-1.1,3.6-5.3,20.4-5.2,25.1c0,2.6-0.4,13-0.1,15"/>
<path class="st4" d="M42.2,21.5c-0.1,0.7-5.5-18-5.1-18l10.4,0C47.5,3.4,42.3,20.8,42.2,21.5z"/>
<path class="st4" d="M40.3,73.4c0,0.2-1,3.5-1,3.5h1.4L40.3,73.4z"/>
<path class="st4" d="M40.5,34.3c0.9-0.9,3.9-3.5,4.3-4.8c0.4-1.3,11.4-25.3,11.5-26h-1.9L40.5,34.3z"/>
<path class="st4" d="M40.5,29.6C34.3,22,28.1,5,27.7,3.4l2,0c0,0,9,22.7,11.2,24.4C41.5,28.3,40.5,29.6,40.5,29.6z"/>
<rect class="st6" width="80" height="80"/>
<g>
	<path class="st7" d="M68.8,7.6c0.1,0.2-0.6,3.9-0.8,4c-0.2,0.1-14.4,0-14.7-0.3c-0.1-0.1,0.5-4,0.6-4.1c0.1-0.1,6.6,0,8.8,0.1
		C65,7.4,68.7,7.3,68.8,7.6z"/>
</g>
</svg>
