<?xml version="1.0" encoding="iso-8859-1"?>
<!-- Generator: Adobe Illustrator 16.0.4, SVG Export Plug-In . SVG Version: 6.00 Build 0)  -->
<!DOCTYPE svg PUBLIC "-//W3C//DTD SVG 1.1//EN" "http://www.w3.org/Graphics/SVG/1.1/DTD/svg11.dtd">
<svg version="1.1" id="Layer_1" xmlns="http://www.w3.org/2000/svg" xmlns:xlink="http://www.w3.org/1999/xlink" x="0px" y="0px"
	 width="80px" height="80px" viewBox="0 0 80 80" style="enable-background:new 0 0 80 80;" xml:space="preserve">
<path style="fill:#FFFFFF;" d="M12.717,4.25h64.116v71.791L3.64,75.875v-7.354C6.066,51.672,12.31,5.921,12.717,4.25z"/>
<path style="fill:#FFFFFF;" d="M8.179,4.25C6.125,8.875,3.328,36.625,3.188,43.5v25.021l9.53-64.271H8.179z"/>
<path style="opacity:0.2;" d="M8.179,4.25C6.125,8.875,3.328,36.625,3.188,43.5v25.021l9.53-64.271H8.179z"/>
<path style="fill:none;stroke:#000000;stroke-miterlimit:10;" d="M3.64,68.521c1.594-9.982,6.713-42.486,9.077-64.271"/>
<path style="opacity:0.1;fill:none;stroke:#12100B;stroke-miterlimit:10;" d="M73.74,32.092c1.083-14.404,1.625-22.851,1.625-27.842
	"/>
<path style="fill:none;stroke:#12100B;stroke-miterlimit:10;" d="M73.176,27.269c-11.21,2.162-47.277-0.311-54.356-2.248
	c-1.536-0.421-2.025,3.698-0.712,4.253c8.356,3.528,49.015,4.506,55.438,2.644C74.403,31.666,73.955,27.119,73.176,27.269z"/>
<path style="opacity:0.2;fill:#12100B;" d="M73.176,27.269c-12.059,1.309-42.257,0.116-54.356-2.248
	c-1.562-0.306-2.058,3.779-0.712,4.253c8.67,3.041,48.183,4.255,55.438,2.644C74.417,31.721,73.966,27.183,73.176,27.269z"/>
<rect style="fill:none;" width="80" height="80"/>
<g id="Pocket_11_">
	<path style="fill:none;stroke:#000000;stroke-miterlimit:10;" d="M17.371,28.726c-0.791-0.384-2.617,15.79-1.52,18.163
		c2.05,4.436,50.67,7.162,57.343,4.418c0.903-0.369,0.001-5.256,0.152-10.174c0.142-4.713,0.474-9.286,0.198-9.216
		C67.114,33.544,26.556,33.189,17.371,28.726z"/>
	<path style="opacity:0.1;fill:#12100B;" d="M15.851,46.889c-1.185-0.795,0.283-18.731,1.52-18.163
		c10.376,4.766,51.007,4.761,56.174,3.191c0,0,0.352,19.212-0.868,19.503C58.057,54.934,21.254,50.508,15.851,46.889z"/>
</g>
<path style="opacity:0.2;fill:#12100B;" d="M16.883,29.878c7.294,4.541,52.132,5.259,55.777,3.651
	c1.615-0.712,1.299-1.615,0.545-1.523c-4.151,0.502-39.206,2.02-54.815-2.507c-1.948-0.565-0.098-2.414-0.958-2.955
	C16.75,26.117,15.669,29.122,16.883,29.878z"/>
<path style="opacity:0.2;fill:#12100B;" d="M17.274,25.688c-2.868,5.37-4.665,20.123-2.738,22.381
	c2.737,3.207,23.454,6.746,52.532,5.871c5.164-0.154,6.645-2.723,6.126-2.633c-17.461,3.049-55.236-1.836-57.343-4.418
	c-2.106-2.584,0.9-17.632,1.519-18.824S17.56,25.151,17.274,25.688z"/>
<g>
</g>
<g>
</g>
<g>
</g>
<g>
</g>
<g>
</g>
<g>
</g>
<g>
</g>
<g>
</g>
<g>
</g>
<g>
</g>
<g>
</g>
<g>
</g>
<g>
</g>
<g>
</g>
<g>
</g>
</svg>
