<?xml version="1.0" encoding="iso-8859-1"?>
<!-- Generator: Adobe Illustrator 16.0.4, SVG Export Plug-In . SVG Version: 6.00 Build 0)  -->
<!DOCTYPE svg PUBLIC "-//W3C//DTD SVG 1.1//EN" "http://www.w3.org/Graphics/SVG/1.1/DTD/svg11.dtd">
<svg version="1.1" id="Layer_1" xmlns="http://www.w3.org/2000/svg" xmlns:xlink="http://www.w3.org/1999/xlink" x="0px" y="0px"
	 width="80px" height="80px" viewBox="0 0 80 80" style="enable-background:new 0 0 80 80;" xml:space="preserve">
<path style="fill:#FFFFFF;" d="M12.717,4.25h64.116v71.791L3.64,75.875v-7.354C6.066,51.671,12.31,5.92,12.717,4.25z"/>
<path style="fill:#FFFFFF;" d="M8.179,4.25C6.125,8.875,3.328,36.625,3.188,43.5v25.021l9.53-64.271H8.179z"/>
<path style="opacity:0.2;" d="M8.179,4.25C6.125,8.875,3.328,36.625,3.188,43.5v25.021l9.53-64.271H8.179z"/>
<path style="fill:none;stroke:#000000;stroke-miterlimit:10;" d="M3.64,68.521c1.594-9.982,6.713-42.486,9.077-64.271"/>
<path style="opacity:0.1;fill:none;stroke:#12100B;stroke-miterlimit:10;" d="M73.74,32.092c1.083-14.404,1.625-22.851,1.625-27.842
	"/>
<path style="fill:none;stroke:#12100B;stroke-miterlimit:10;" d="M73.355,26.263c-11.143,2.485-47.266,1.054-54.398-0.679
	c-1.547-0.376-1.917,3.756-0.589,4.271c8.455,3.287,49.125,3.09,55.491,1.043C74.71,30.624,74.131,26.091,73.355,26.263z"/>
<path style="opacity:0.2;fill:#12100B;" d="M73.355,26.263c-12.016,1.656-42.236,1.336-54.398-0.679
	c-1.57-0.26-1.948,3.837-0.589,4.271c8.754,2.791,48.285,2.863,55.491,1.043C74.725,30.678,74.143,26.154,73.355,26.263z"/>
<rect style="fill:none;" width="80" height="80"/>
<path style="opacity:0.2;fill:#12100B;" d="M17.162,30.495c7.422,4.329,52.262,3.752,55.86,2.041c1.594-0.758,1.252-1.652,0.5-1.539
	c-4.135,0.622-39.131,3.15-54.864-0.924c-1.964-0.509-0.168-2.411-1.043-2.926C16.921,26.74,15.927,29.775,17.162,30.495z"/>
<path style="fill:none;stroke:#12100B;stroke-miterlimit:10;" d="M17.602,27.516c4.635,1.423,31.288,3.963,56.641,1.109"/>
<g>
</g>
<g>
</g>
<g>
</g>
<g>
</g>
<g>
</g>
<g>
</g>
<g>
</g>
<g>
</g>
<g>
</g>
<g>
</g>
<g>
</g>
<g>
</g>
<g>
</g>
<g>
</g>
<g>
</g>
</svg>
