<?xml version="1.0" encoding="iso-8859-1"?>
<!-- Generator: Adobe Illustrator 16.0.4, SVG Export Plug-In . SVG Version: 6.00 Build 0)  -->
<!DOCTYPE svg PUBLIC "-//W3C//DTD SVG 1.1//EN" "http://www.w3.org/Graphics/SVG/1.1/DTD/svg11.dtd">
<svg version="1.1" id="Layer_1" xmlns="http://www.w3.org/2000/svg" xmlns:xlink="http://www.w3.org/1999/xlink" x="0px" y="0px"
	 width="80px" height="80px" viewBox="0 0 80 80" style="enable-background:new 0 0 80 80;" xml:space="preserve">
<rect style="fill:none;" width="80" height="80"/>
<path style="opacity:0.35;" d="M33.769,9.229L22.11,14.481c0,0,0.593,14.683-1.335,17.963c0.203,3.321-2.941,1.799-2.934,5.41
	c0.002,1.501-5.618,4.953-5.453,5.283c0.32,0.639,2.312,2.148,2.312,2.148s3.17-3.489,4.132-2.81
	c1.263,0.895,2.165,7.294,2.158,7.596c-0.249,11.061-1.001,20.59-1.001,20.59s3.16,5.038,20.624,5.038
	c17.461,0,20.005-5.038,20.005-5.038s-1.569-18.981-1.831-24.482c-0.018-0.34,1.339,1.826,1.949,2.191
	c0.149,0.089,7.581-4.874,10.75-8.162c-9.194-22.075,0.734,0.415-0.848-3.385l-9.292,8.502c0,0-1.001-0.155-4.386-6.607
	c-7.045-8.99-10.447-12.018-10.271-13.679c-0.642-1.14,0.791-15.168,0.791-15.168L33.769,9.229z"/>
<path style="fill:#939598;stroke:#000000;stroke-width:0.9769;stroke-miterlimit:10;" d="M19.838,12.731h-0.965
	c0,0-2.575,2.511-4.411,5.57c-2.05,3.419-1.989,3.353-8.659,13.476c0,0-2.635,3.933-2.408,4.167c0.832,0.851,8.52,9.434,8.888,9.064
	c0.556,0.555,5.627-6.291,5.627-6.291l1.927-2.567l1.34-17.655l-1.651-5.42l-0.151-0.201"/>
<path style="fill:#939598;stroke:#000000;stroke-width:0.9769;stroke-miterlimit:10;" d="M55.049,12.731h0.964
	c0,0,2.574,2.511,4.411,5.57c2.428,4.047,2.359,3.973,8.393,15.729c0,0,2.771,4.844,2.542,5.078
	c-0.831,0.851-8.989,9.49-10.588,6.733c-1.601-2.761-3.793-7.124-3.793-7.124l-1.929-2.567l-1.338-17.655l1.65-5.42l0.151-0.201"/>
<path style="fill:#FFFFFF;stroke:#000000;stroke-width:0.9769;stroke-miterlimit:10;" d="M31.28,7.187l-11.659,5.25
	c0,0,0.591,22.26-1.337,25.541C19.258,53.942,17.5,68.619,17.5,68.619s3.157,5.038,20.62,5.038c17.464,0,20.005-5.038,20.005-5.038
	s-2.592-10.263-1.21-29.792c-1.937-10.926-1.216-22.94-0.858-26.22c-0.644-1.141-11.069-4.779-11.069-4.779L31.28,7.187z"/>
<path style="fill:#FFFFFF;stroke:#000000;stroke-width:0.9769;stroke-miterlimit:10;" d="M37.814,14.007l-8.106,2.064
	c0,0-1.516-3.771-0.932-8.085l1.306-3.856c1.923-1.922,8.008-1.537,8.721-1.537c0.712,0,5.129-0.059,6.211,1.508
	c1.083,1.564,1.535,4.453,1.535,4.453s-0.397,7.629-1.181,7.517C43.478,15.801,37.814,14.007,37.814,14.007z"/>
<path style="fill:none;stroke:#000000;stroke-width:0.9769;stroke-miterlimit:10;" d="M37.814,14.007c0,0-5.425-4.099-7.732-9.877"
	/>
<path style="fill:none;stroke:#000000;stroke-width:0.9769;stroke-miterlimit:10;" d="M37.814,14.007
	c4.665-3.444,7.047-10.091,7.047-10.091"/>
<g>
</g>
<g>
</g>
<g>
</g>
<g>
</g>
<g>
</g>
<g>
</g>
<g>
</g>
<g>
</g>
<g>
</g>
<g>
</g>
<g>
</g>
<g>
</g>
<g>
</g>
<g>
</g>
<g>
</g>
</svg>
