<?xml version="1.0" encoding="iso-8859-1"?>
<!-- Generator: Adobe Illustrator 16.0.4, SVG Export Plug-In . SVG Version: 6.00 Build 0)  -->
<!DOCTYPE svg PUBLIC "-//W3C//DTD SVG 1.1//EN" "http://www.w3.org/Graphics/SVG/1.1/DTD/svg11.dtd">
<svg version="1.1" id="Layer_1" xmlns="http://www.w3.org/2000/svg" xmlns:xlink="http://www.w3.org/1999/xlink" x="0px" y="0px"
	 width="80px" height="80px" viewBox="0 0 80 80" style="enable-background:new 0 0 80 80;" xml:space="preserve">
<path style="opacity:0.35;" d="M76.716,41.617c0.048,0.024,0.097,0.046,0.142,0.072c-0.061-0.039-0.129-0.084-0.191-0.125
	c-0.138-0.143-0.309-0.256-0.512-0.33c-6.219-4.024-19.908-12.793-19.908-12.793s-0.851-0.701-2.243-1.31
	c-0.961-0.813-3.862-3.135-8.508-5.734c-5.779-3.233-12.021-6.928-12.021-6.928L3.187,29.48c0,0,3.237,3.695,7.861,6.466
	c4.39,2.631,10.446,9.216,12.432,11.852c0.107,0.231,0.262,0.401,0.375,0.505c0.155,0.193,0.317,0.336,0.489,0.434l20.69,18.964
	c0,0,0.617,0.27,3.314-1.425c9.363-5.461,25.508-19.398,27.589-21.708C77.134,43.24,77.206,42.194,76.716,41.617z"/>
<path style="fill:#FFFFFF;stroke:#000000;stroke-width:0.6239;stroke-miterlimit:10;" d="M3.051,27.295c0,0,3.236,3.695,7.861,6.466
	c4.624,2.771,11.098,9.931,12.716,12.24c1.618,2.31,4.393-1.617,4.393-1.617l16.414-13.856l9.79-5.273c0,0-3.085-2.81-8.865-6.043
	c-5.779-3.233-12.022-6.928-12.022-6.928"/>
<line style="fill:none;stroke:#939598;stroke-width:0.6239;stroke-miterlimit:10;" x1="34.262" y1="30.99" x2="17.847" y2="19.905"/>
<line style="fill:none;stroke:#939598;stroke-width:0.6239;stroke-miterlimit:10;" x1="40.042" y1="27.295" x2="24.321" y2="16.209"/>
<line style="fill:none;stroke:#939598;stroke-width:0.6239;stroke-miterlimit:10;" x1="45.821" y1="26.14" x2="37.267" y2="19.674"/>
<linearGradient id="SVGID_1_" gradientUnits="userSpaceOnUse" x1="42.7393" y1="52.1094" x2="76.8662" y2="52.1094">
	<stop  offset="0" style="stop-color:#D5D7D8"/>
	<stop  offset="0.1822" style="stop-color:#FFFFFF"/>
	<stop  offset="0.8283" style="stop-color:#EFF0F0"/>
	<stop  offset="1" style="stop-color:#C2C2C2"/>
</linearGradient>
<path style="fill:url(#SVGID_1_);stroke:#000000;stroke-width:0.6239;stroke-miterlimit:10;" d="M44.897,65.516
	c0,0,0.616,0.27,3.313-1.425c9.363-5.461,25.509-19.399,27.59-21.708c2.08-2.31,0.771-3.771-1.002-3.387
	c-1.387-0.308-2.774-0.308-2.774-0.308l-9.71,3.772l-5.549,1.155l-2.852,3.926L42.739,59.473
	C42.739,59.473,43.663,64.476,44.897,65.516z"/>
<path style="fill:none;stroke:#939598;stroke-width:0.6239;stroke-miterlimit:10;" d="M45.052,63.168c0,0,2.619-1.231,6.318-3.772
	c3.699-2.54,13.18-9.853,16.031-12.24c2.851-2.386,8.399-6.759,7.397-8.159c-0.771-1.078-1.927-1.001-1.927-1.001"/>
<path style="fill:#FFFFFF;stroke:#000000;stroke-width:0.6239;stroke-miterlimit:10;" d="M23.858,46.231l21.04,19.284
	c0,0-1.041-1.04,1.04-3.927c2.08-2.886,7.514-9.583,12.6-13.51c0.463-0.347,0-4.503,0-4.503L40.62,27.872
	c0,0-13.062,7.044-17.224,16.512C22.818,45.538,23.858,46.231,23.858,46.231z"/>
<g>
	<defs>
		<path id="SVGID_2_" d="M24.259,46.197l19.337,17.788l8.139-10.997l5.17-5.834l2.776-3.729l-6.894-0.957l-6.701-4.494
			c0,0-6.605-6.312-8.807-6.121c-2.204,0.191-8.33,6.886-8.33,6.886S24.259,45.433,24.259,46.197z"/>
	</defs>
	<clipPath id="SVGID_3_">
		<use xlink:href="#SVGID_2_"  style="overflow:visible;"/>
	</clipPath>
	<g style="clip-path:url(#SVGID_3_);">
		<path style="fill:none;stroke:#939598;stroke-width:0.6239;stroke-miterlimit:10;" d="M25.323,47.617c0,0,0.155-1.616,2.082-4.618
			c2.927-5.004,10.017-9.854,10.017-9.854"/>
		<path style="fill:none;stroke:#939598;stroke-width:0.6239;stroke-miterlimit:10;" d="M42.509,63.476c0,0-0.31-1.309,1.618-4.08
			c2.929-4.156,7.167-8.776,10.942-11.701c1.002-0.769,1.233-1.462,1.079-2.387c-0.153-0.923-0.385-1.924-0.385-1.924"/>
	</g>
</g>
<path style="fill:#FFFFFF;stroke:#000000;stroke-width:0.6239;stroke-miterlimit:10;" d="M34.031,31.144l16.53,11.97
	c0,0,1.04,0.809,2.196,0.809s9.595,0.461,9.595,0.461s0.693-0.115,1.733-0.692c1.041-0.577,8.937-6.381,12.636-4.187
	C70.903,35.732,56.11,26.255,56.11,26.255s-2.659-2.193-6.281-2.193C46.208,24.062,40.621,26.564,34.031,31.144z"/>
<g>
	<defs>
		<polygon id="SVGID_4_" points="74.424,38.356 54.225,25.255 51.544,24.777 40.82,29.081 37.375,31.471 41.778,35.2 51.353,41.99 
			56.766,43.615 62.361,43.043 68.298,39.6 		"/>
	</defs>
	<clipPath id="SVGID_5_">
		<use xlink:href="#SVGID_4_"  style="overflow:visible;"/>
	</clipPath>
	<path style="clip-path:url(#SVGID_5_);fill:none;stroke:#939598;stroke-width:0.6239;stroke-miterlimit:10;" d="M55.687,25.986
		c0,0-2.851-1-6.088,0.154c-3.925,1.4-10.944,5.85-10.944,5.85l13.41,9.468c0,0,1.155,0.693,2.234,0.693s6.397,0.308,6.397,0.308
		s0.923-0.154,2.157-1.001c1.232-0.846,7.477-5.08,11.252-3.695"/>
</g>
<path style="fill:none;stroke:#000000;stroke-width:0.6239;stroke-miterlimit:10;" d="M53.171,32.063
	c0.093,0.166,0.07,0.355-0.05,0.422l-3.662,2.042c-0.12,0.067-0.293-0.012-0.387-0.179l0,0c-0.092-0.166-0.069-0.354,0.051-0.422
	l3.661-2.042C52.904,31.817,53.078,31.897,53.171,32.063L53.171,32.063z"/>
<g>
	
		<ellipse style="fill:#FFFFFF;stroke:#000000;stroke-width:0.6239;stroke-miterlimit:10;" cx="49.521" cy="34.686" rx="2.504" ry="1.578"/>
	
		<ellipse style="fill:#FFFFFF;stroke:#000000;stroke-width:0.6239;stroke-miterlimit:10;" cx="49.521" cy="34.3" rx="2.504" ry="1.579"/>
	
		<ellipse style="fill:#FFFFFF;stroke:#000000;stroke-width:0.6239;stroke-miterlimit:10;" cx="49.521" cy="33.916" rx="2.504" ry="1.579"/>
	
		<ellipse style="fill:none;stroke:#000000;stroke-width:0.6239;stroke-miterlimit:10;" cx="49.522" cy="33.876" rx="1.387" ry="0.731"/>
</g>
<rect style="fill:none;" width="80" height="80"/>
<g>
</g>
<g>
</g>
<g>
</g>
<g>
</g>
<g>
</g>
<g>
</g>
<g>
</g>
<g>
</g>
<g>
</g>
<g>
</g>
<g>
</g>
<g>
</g>
<g>
</g>
<g>
</g>
<g>
</g>
</svg>
