<?xml version="1.0" encoding="iso-8859-1"?>
<!-- Generator: Adobe Illustrator 16.0.4, SVG Export Plug-In . SVG Version: 6.00 Build 0)  -->
<!DOCTYPE svg PUBLIC "-//W3C//DTD SVG 1.1//EN" "http://www.w3.org/Graphics/SVG/1.1/DTD/svg11.dtd">
<svg version="1.1" id="Layer_1" xmlns="http://www.w3.org/2000/svg" xmlns:xlink="http://www.w3.org/1999/xlink" x="0px" y="0px"
	 width="80px" height="80px" viewBox="0 0 80 80" style="enable-background:new 0 0 80 80;" xml:space="preserve">
<g>
	<g>
		<path style="opacity:0.35;" d="M67.124,30.502V15.597c0,0-10.331-6.306-17.888-6.306c-7.556,0-7.077,7.167-15.591,7.167
			c-6.217,0-7.868-5.083-7.868-5.083s1.554-3.516-3.039,2.122v50.449c0,0,3.098,7.553,11.137,8.408
			c5.342,0.567,8.765-0.136,11.276-1.537c0.432,0.007,0.852,0.023,1.312,0.008c8.993-0.293,13.238-2.96,12.434-9.364
			c0,0-1.72-26.467-0.956-34.11C62.819,27.542,67.124,30.502,67.124,30.502z"/>
		<path style="fill:#939598;stroke:#000000;stroke-width:0.8138;stroke-miterlimit:10;" d="M28.385,59.358
			c0,0,2.301,7.262,14.061,6.88c17.601-0.574,9.757-7.262,10.715-10.32c0.954-3.057,0.477-8.217,0.477-8.217l-11.956,2.103
			L28.385,59.358z"/>
		<path style="fill:#FFFFFF;stroke:#000000;stroke-width:0.8138;stroke-miterlimit:10;" d="M18.722,8.91v50.449
			c0,0,3.097,7.553,11.137,8.408c9.675,1.029,13.065-2.103,16.126-6.021c3.061-3.915,5.712-6.577,7.175-2.196
			c0.668,2.007,1.435,3.44,1.435,3.44s0.574,1.338,0.286-6.117c0,0-1.721-26.466-0.956-34.109c4.878,0.192,9.183,3.154,9.183,3.154
			V11.011c0,0-10.332-6.306-17.89-6.306c-7.555,0-7.076,7.167-15.589,7.167c-6.218,0-2.871-6.975-2.871-6.975
			S23.312,3.271,18.722,8.91z"/>
	</g>
</g>
<rect style="fill:none;" width="80" height="80"/>
<g>
</g>
<g>
</g>
<g>
</g>
<g>
</g>
<g>
</g>
<g>
</g>
<g>
</g>
<g>
</g>
<g>
</g>
<g>
</g>
<g>
</g>
<g>
</g>
<g>
</g>
<g>
</g>
<g>
</g>
</svg>
