<?xml version="1.0" encoding="iso-8859-1"?>
<!-- Generator: Adobe Illustrator 16.0.4, SVG Export Plug-In . SVG Version: 6.00 Build 0)  -->
<!DOCTYPE svg PUBLIC "-//W3C//DTD SVG 1.1//EN" "http://www.w3.org/Graphics/SVG/1.1/DTD/svg11.dtd">
<svg version="1.1" id="Layer_1" xmlns="http://www.w3.org/2000/svg" xmlns:xlink="http://www.w3.org/1999/xlink" x="0px" y="0px"
	 width="80px" height="80px" viewBox="0 0 80 80" style="enable-background:new 0 0 80 80;" xml:space="preserve">
<rect style="fill:none;" width="80" height="80"/>
<polyline style="fill:#FFFFFF;stroke:#000000;stroke-width:0.8229;stroke-miterlimit:10;" points="9.65,77.816 9.65,26.705 
	39.83,20.44 70.403,26.705 70.403,77.816 "/>
<path style="opacity:0.35;" d="M67.274,22.217c0-0.864-3.742-11.362-5.404-14.516c-0.352-0.667-1.01-1.195-1.571-1.499
	c-0.333-0.178-0.58-0.287-0.58-0.287s2.847,2.918-0.411,5.231c-5.724,4.064-15.719,6.429-17.294,6.785l-0.002-0.001
	c-0.008,0.002-0.015,0.005-0.022,0.007c-0.123,0.027-0.194,0.042-0.194,0.042c0.003,0.004,0.006,0.008,0.01,0.01
	c-0.861,0.227-1.607,0.54-2.258,0.915l-2.068-1.085l-3.337,5.718c0.607-1.12,1.1-2.009,1.397-2.514
	c1.731-2.94,1.683-3.324,1.683-3.324c-7.808-2.796-7.08-2.669-12.247-4.893c-5.021-2.161-3.81-6.487-3.81-6.487
	C19.081,7.695,15.97,18.6,14.584,23.271c-1.385,4.671,10.91,15.1,10.91,15.1s4.104-6.347,7.145-12.04l-0.184,4.894
	c0.015,0.16,0.174,46.253,0.302,46.253c0.873,0.198,3.632-0.301,3.632-0.301c2.339-7.788,2.625-37.432,5.146-49.582
	c1.394-6.72,5.7-0.272,6.128-0.336l7.316,10.924C57.576,35.933,67.618,25.159,67.274,22.217z"/>
<rect x="33.864" y="24.586" style="fill:#FFFFFF;" width="11.949" height="53.648"/>
<line style="fill:#FFFFFF;stroke:#D1D3D4;stroke-width:0.8229;stroke-miterlimit:10;" x1="46.224" y1="24.354" x2="46.224" y2="78.346"/>
<line style="fill:#FFFFFF;stroke:#000000;stroke-width:0.8229;stroke-miterlimit:10;" x1="33.823" y1="78.346" x2="33.823" y2="24.354"/>
<linearGradient id="SVGID_1_" gradientUnits="userSpaceOnUse" x1="20.2046" y1="9.832" x2="61.5137" y2="9.832">
	<stop  offset="0" style="stop-color:#D5D7D8"/>
	<stop  offset="0.1822" style="stop-color:#FFFFFF"/>
	<stop  offset="0.8283" style="stop-color:#EFF0F0"/>
	<stop  offset="1" style="stop-color:#C2C2C2"/>
</linearGradient>
<path style="fill:url(#SVGID_1_);stroke:#000000;stroke-width:0.8229;stroke-miterlimit:10;" d="M21.071,4.422
	c3.831-2.53,9.872-2.767,19.222-2.767c9.351,0,19.653,0.666,21.202,4.013c0,0,1.398,11.987-19.642,12.334
	c-9.956,0.163-17.924-3.2-19.57-6.054l-2.078-4.931L21.071,4.422"/>
<path style="fill:#FFFFFF;stroke:#000000;stroke-width:0.8229;stroke-miterlimit:10;" d="M30.657,13.264
	c0,0,5.901-0.349,9.412-0.349c3.514,0,11.522,0.264,11.522,0.264l-0.562,0.719l-9.062,3.298l-4.724,0.567l-3.496-1.829
	L30.657,13.264z"/>
<polygon style="fill:#FFFFFF;stroke:#000000;stroke-width:0.8229;stroke-miterlimit:10;" points="39.602,17.085 35.292,25.247 
	32.436,24.402 37.385,15.921 "/>
<path style="fill:#FFFFFF;stroke:#000000;stroke-width:0.8229;stroke-miterlimit:10;" d="M47.893,25.312
	c0,0-7.729,1.295-12.601,0.194c-0.26,0-0.195-0.65-0.195-0.65s-0.064-7.147,6.819-8.822l7.44,2.955L47.893,25.312"/>
<g>
	<circle style="fill:none;stroke:#000000;stroke-width:0.8229;stroke-miterlimit:10;" cx="40.715" cy="21.814" r="1.948"/>
	<circle style="fill:none;stroke:#000000;stroke-width:0.8229;stroke-miterlimit:10;" cx="40.714" cy="21.814" r="0.877"/>
</g>
<path style="fill:#FFFFFF;stroke:#000000;stroke-width:0.8229;stroke-miterlimit:10;" d="M61.776,5.808
	c1.659,3.151,5.402,13.65,5.402,14.515c0.346,2.939-9.696,13.715-12.296,15.965l-11.169-17.48c0,0-1.364-2.204-2.014-2.726
	c0,0,11.289-2.411,17.514-6.831c3.257-2.313,0.411-5.233,0.411-5.233s0.246,0.109,0.577,0.289
	C60.766,4.61,61.423,5.137,61.776,5.808z"/>
<path style="fill:#FFFFFF;stroke:#000000;stroke-width:0.8229;stroke-miterlimit:10;" d="M37.128,15.803
	c0,0,0.047,0.383-1.683,3.326c-1.734,2.939-10.047,17.347-10.047,17.347s-12.294-10.43-10.909-15.1
	c1.386-4.671,4.498-15.576,6.582-16.954c0,0-1.211,4.327,3.81,6.487C30.048,13.135,29.317,13.006,37.128,15.803z"/>
<path style="fill:none;stroke:#939598;stroke-width:0.8229;stroke-miterlimit:10;" d="M14.856,19.894c0,0,1.145,5.077,9.985,13.284
	c4.873-9.182,9.061-16.935,9.835-18.041"/>
<path style="fill:none;stroke:#939598;stroke-width:0.8229;stroke-miterlimit:10;" d="M44.093,15.619l11.451,17.64
	c0,0,8.994-9.065,10.803-15.368"/>
<path style="fill:none;stroke:#939598;stroke-width:0.8229;stroke-miterlimit:10;" d="M25.653,11.236c0,0,2.305-1.218,15.38-1.218
	c13.076,0,14.835,1.3,14.835,1.3"/>
<path style="fill:none;stroke:#000000;stroke-width:0.8229;stroke-miterlimit:10;" d="M40.66,41.814c0,0.341-0.17,0.618-0.383,0.618
	l0,0c-0.212,0-0.383-0.277-0.383-0.618v-3.711c0-0.342,0.171-0.617,0.383-0.617l0,0c0.213,0,0.383,0.275,0.383,0.617V41.814z"/>
<path style="fill:none;stroke:#000000;stroke-width:0.8229;stroke-miterlimit:10;" d="M40.66,74.271c0,0.339-0.17,0.618-0.383,0.618
	l0,0c-0.212,0-0.383-0.279-0.383-0.618v-3.714c0-0.339,0.171-0.617,0.383-0.617l0,0c0.213,0,0.383,0.278,0.383,0.617V74.271z"/>
<g>
</g>
<g>
</g>
<g>
</g>
<g>
</g>
<g>
</g>
<g>
</g>
<g>
</g>
<g>
</g>
<g>
</g>
<g>
</g>
<g>
</g>
<g>
</g>
<g>
</g>
<g>
</g>
<g>
</g>
</svg>
