<?xml version="1.0" encoding="iso-8859-1"?>
<!-- Generator: Adobe Illustrator 16.0.4, SVG Export Plug-In . SVG Version: 6.00 Build 0)  -->
<!DOCTYPE svg PUBLIC "-//W3C//DTD SVG 1.1//EN" "http://www.w3.org/Graphics/SVG/1.1/DTD/svg11.dtd">
<svg version="1.1" id="Layer_1" xmlns="http://www.w3.org/2000/svg" xmlns:xlink="http://www.w3.org/1999/xlink" x="0px" y="0px"
	 width="80px" height="80px" viewBox="0 0 80 80" style="enable-background:new 0 0 80 80;" xml:space="preserve">
<rect style="fill:none;" width="80" height="80"/>
<g>
	<rect x="3.005" y="3.461" style="fill:#FFFFFF;" width="73.829" height="74.122"/>
	<path style="opacity:0.1;fill:#12100B;" d="M25.179,74.667c-2.444-0.319-14.869-8.515-16.804-7.588
		C6.802,67.836,4.532,66.687,3,66.452v2.417c3.042,2.423,9.97,6.248,14.682,8.131h7.498C25.716,76.299,25.065,75.295,25.179,74.667z
		"/>
	<path style="opacity:0.1;fill:#12100B;" d="M23.697,45.375V40.87c-1.115,0.143-14.254-1.23-16.274-0.801
		C5.907,40.395,4.077,40.118,3,40.434v1.893C6.446,44.312,21.444,46.003,23.697,45.375z"/>
	<path style="opacity:0.1;fill:#12100B;" d="M24.25,55.862c-0.771,0.382-12.342-3.933-13.912-3.902
		c-1.623,0.028-4.415-1.069-4.359,0.238c0.099,2.262,16.259,8.103,18.188,7.344C25.018,59.207,24.51,55.733,24.25,55.862z"/>
	<path style="opacity:0.2;fill:#12100B;" d="M44.589,3.889C34.072,4.764,13.791,4.308,3,5.246v9.74
		c4.35,0.752,33.884,0.647,33.884,0.647c-0.046,16.199-0.111,40.159,0.154,40.174c0.407,0.022,2.804-11.613,8.438-22.094
		c3.264-6.072,12.534-9.739,14.643-13.776c1.473-2.821-3.02-6.234-2.538-6.268c0.783-0.055,14.337,0.682,19.254-0.687V3.461
		C73.533,3.126,51.377,3.325,44.589,3.889z"/>
	<path style="opacity:0.2;fill:#12100B;" d="M68.534,13.458c-1.425,2.844-2.826,18.593-1.724,19.361
		c1.102,0.768,5.336,1.373,6.513,0.364c1.178-1.008,0.1-18.104-0.78-19.019C71.662,13.249,68.534,13.458,68.534,13.458z"/>
	<path style="opacity:0.1;fill:#12100B;" d="M3.005,34.761c0,0,32.558,1.155,33.788,0.854c0.416-0.102,0.245-6.282,0.245-7.891
		c0-0.402-34.033-0.929-34.033-0.929V34.761z"/>
	<path style="opacity:0.1;fill:#12100B;" d="M76.835,33.018c0,0-2.502,0.239-6.397,0.696c-5.461,0.642-9.788-2.622-15.188-2.689
		c-3.873-0.048-8.634,0.937-8.29,0.428c2.915-4.311,8.29-6.328,12.79-11.016c0.132-0.137,1.613,7.391,6.49,7.134
		c5.423-0.285,10.595-1.821,10.595-1.821V33.018z"/>
	<path style="opacity:0.1;fill:#12100B;" d="M76.834,48.167l0.001,4.477c0,0-10.421,0.553-15.772,0.362
		c-5.203-0.186-8.793-0.99-9.678-0.873s0.507-3.419,1.074-3.369C64.973,49.866,76.834,48.167,76.834,48.167z"/>
	<path style="opacity:0.1;fill:#12100B;" d="M63.967,65.083c3.563,0.803,5.898,1.603,7.057,2.517
		c3.068,2.422-12.047-0.924-17.427,0.01c-4.501,0.781-5.306,0.735-6.19,0.853s0.546-3.734,1.766-3.835
		C58.178,63.883,60.418,64.283,63.967,65.083z"/>
</g>
<g>
	
		<rect x="24.825" y="30.814" transform="matrix(-0.9993 0.037 -0.037 -0.9993 56.2978 106.7691)" style="opacity:0.5;fill:#12100B;" width="4.674" height="46.183"/>
	<path style="fill:none;stroke:#000000;stroke-miterlimit:10;" d="M50.676,27.999c11.696-1.812,5.402,3.834,26.159,0.061"/>
	<path style="fill:none;stroke:#000000;stroke-miterlimit:10;" d="M76.834,12.982c-7.455,1.063-9.847,2.045-19.254,0.687
		c-0.54-0.078,3.788,3.911,2.17,6.768c-1.87,3.303-9.325,6.822-12.453,10.587C41.451,38.061,35.32,61.31,33.667,77"/>
	<path style="fill:none;stroke:#000000;stroke-miterlimit:10;" d="M3,14.934c12.053,0.397,33.013,0.144,33.884,0.7
		c0.345,0.22,0,15.187,0,15.187c-13.475-0.251-21.521-0.564-33.876-1.075"/>
	<path style="fill:none;stroke:#000000;stroke-miterlimit:10;" d="M61.062,29.011C54.274,39.849,46.676,64.534,46.519,77"/>
	<path style="fill:#FFFFFF;" d="M73.342,32.085c-1.661,0.199-4.719-0.062-4.694-0.663c0.031-0.596-0.277-16.945-0.15-17.493
		c0.13-0.547,4.854-0.953,5.05-0.185C73.743,14.513,73.342,32.085,73.342,32.085z"/>
	<path style="fill:none;stroke:#000000;stroke-miterlimit:10;" d="M68.534,13.458c0.267-0.469,4.128-0.209,4.596,0.006
		s0.684,14.226,0.31,18.429c-0.089,0.993-4.869,0.494-4.812-0.151C68.834,29.428,68.154,14.135,68.534,13.458z"/>
	<path style="fill:none;stroke:#000000;stroke-miterlimit:10;" d="M3,12.33c10.946-0.282,24.627-0.534,38.157-0.917
		c12.856-0.364,25.574-0.858,35.677-1.272"/>
	<g>
		<circle style="opacity:0.5;fill:#12100B;" cx="29.737" cy="22.814" r="3.687"/>
		<path style="fill:none;stroke:#000000;stroke-width:0.624;stroke-miterlimit:10;" d="M33.13,22.583
			c0.054,1.875-1.422,3.438-3.3,3.492c-1.876,0.054-3.436-1.423-3.489-3.298c-0.054-1.878,1.418-3.438,3.295-3.492
			C31.514,19.232,33.077,20.705,33.13,22.583z"/>
		<path d="M29.599,21.835c0.008,0.275-0.208,0.5-0.483,0.508c-0.267,0.007-0.496-0.205-0.504-0.479
			c-0.008-0.271,0.208-0.498,0.476-0.505C29.362,21.35,29.591,21.563,29.599,21.835z"/>
		<circle cx="30.624" cy="22.047" r="0.492"/>
		<path d="M30.934,23.583c0.008,0.274-0.205,0.498-0.479,0.505c-0.271,0.008-0.5-0.203-0.508-0.477
			c-0.008-0.274,0.208-0.498,0.48-0.505C30.701,23.098,30.926,23.309,30.934,23.583z"/>
		<path d="M29.385,23.384c0.008,0.272-0.209,0.501-0.477,0.508c-0.274,0.008-0.504-0.208-0.512-0.48
			c-0.007-0.271,0.209-0.5,0.484-0.508C29.147,22.896,29.377,23.113,29.385,23.384z"/>
	</g>
	<path style="fill:none;stroke:#000000;stroke-miterlimit:10;" d="M57.58,13.669c0,0-9.763,15.388-11.062,18.381"/>
	<path style="fill:none;stroke:#000000;stroke-miterlimit:10;" d="M23.697,30.82c0,0,1.208,42.555,1.771,46.18"/>
	<path style="fill:none;stroke:#000000;stroke-miterlimit:10;" d="M36.884,30.82c0,0-0.203,24.122-0.004,27.795"/>
	
		<line style="fill:none;stroke:#FFFFFF;stroke-linecap:round;stroke-miterlimit:10;" x1="25.118" y1="32.151" x2="27.556" y2="32.096"/>
	
		<line style="fill:none;stroke:#FFFFFF;stroke-linecap:round;stroke-miterlimit:10;" x1="25.118" y1="34.983" x2="27.556" y2="34.928"/>
	
		<line style="fill:none;stroke:#FFFFFF;stroke-linecap:round;stroke-miterlimit:10;" x1="25.267" y1="37.895" x2="27.706" y2="37.84"/>
	
		<line style="fill:none;stroke:#FFFFFF;stroke-linecap:round;stroke-miterlimit:10;" x1="25.335" y1="40.925" x2="27.773" y2="40.87"/>
	
		<line style="fill:none;stroke:#FFFFFF;stroke-linecap:round;stroke-miterlimit:10;" x1="25.368" y1="43.824" x2="27.806" y2="43.77"/>
	
		<line style="fill:none;stroke:#FFFFFF;stroke-linecap:round;stroke-miterlimit:10;" x1="25.493" y1="46.719" x2="27.931" y2="46.663"/>
	
		<line style="fill:none;stroke:#FFFFFF;stroke-linecap:round;stroke-miterlimit:10;" x1="25.712" y1="49.694" x2="28.151" y2="49.639"/>
	
		<line style="fill:none;stroke:#FFFFFF;stroke-linecap:round;stroke-miterlimit:10;" x1="25.778" y1="52.644" x2="28.216" y2="52.589"/>
	
		<line style="fill:none;stroke:#FFFFFF;stroke-linecap:round;stroke-miterlimit:10;" x1="25.83" y1="55.862" x2="28.268" y2="55.808"/>
	
		<line style="fill:none;stroke:#FFFFFF;stroke-linecap:round;stroke-miterlimit:10;" x1="25.942" y1="58.812" x2="28.381" y2="58.758"/>
	
		<line style="fill:none;stroke:#FFFFFF;stroke-linecap:round;stroke-miterlimit:10;" x1="26.116" y1="61.705" x2="28.555" y2="61.65"/>
	
		<line style="fill:none;stroke:#FFFFFF;stroke-linecap:round;stroke-miterlimit:10;" x1="26.116" y1="64.683" x2="28.554" y2="64.627"/>
	
		<line style="fill:none;stroke:#FFFFFF;stroke-linecap:round;stroke-miterlimit:10;" x1="26.285" y1="67.6" x2="28.723" y2="67.545"/>
	
		<line style="fill:none;stroke:#FFFFFF;stroke-linecap:round;stroke-miterlimit:10;" x1="26.381" y1="70.493" x2="28.819" y2="70.438"/>
	
		<line style="fill:none;stroke:#FFFFFF;stroke-linecap:round;stroke-miterlimit:10;" x1="26.602" y1="73.442" x2="29.04" y2="73.387"/>
	
		<line style="fill:none;stroke:#FFFFFF;stroke-linecap:round;stroke-miterlimit:10;" x1="26.683" y1="76.264" x2="29.121" y2="76.209"/>
	<path style="fill:none;stroke:#000000;stroke-miterlimit:10;" d="M76.834,3.461C64.815,3.426,50.408,3.637,35.159,4.194
		C24.165,4.596,13.095,4.849,3,5.159"/>
</g>
<g>
</g>
<g>
</g>
<g>
</g>
<g>
</g>
<g>
</g>
<g>
</g>
<g>
</g>
<g>
</g>
<g>
</g>
<g>
</g>
<g>
</g>
<g>
</g>
<g>
</g>
<g>
</g>
<g>
</g>
</svg>
