<?xml version="1.0" encoding="iso-8859-1"?>
<!-- Generator: Adobe Illustrator 16.0.4, SVG Export Plug-In . SVG Version: 6.00 Build 0)  -->
<!DOCTYPE svg PUBLIC "-//W3C//DTD SVG 1.1//EN" "http://www.w3.org/Graphics/SVG/1.1/DTD/svg11.dtd">
<svg version="1.1" id="Layer_1" xmlns="http://www.w3.org/2000/svg" xmlns:xlink="http://www.w3.org/1999/xlink" x="0px" y="0px"
	 width="80px" height="80px" viewBox="0 0 80 80" style="enable-background:new 0 0 80 80;" xml:space="preserve">
<g>
	<g>
		<path style="fill:#FFFFFF;" d="M3.4,76.499h29.433c0,0,4.708-12.009,8.38-16.411c0.765-0.917,0.356,1.565,0.696,2.902
			c0.342,1.334-1.121,11.241-0.633,13.509h28.255c0,0,3.033-25.212,4.235-28.816c2.828-8.484,0.275-20.956-2.286-31.539
			c-2.56-10.582-1.052-5.455-1.431-7.132c-0.382-1.677-0.6-2.615-1.129-3.45c-0.527-0.835-17.831-2.224-26.105-2.044
			c-8.272,0.179-25.515,1.628-31.5,4.048c-0.957,0.387-1.708,12.15-1.949,16.86C9.125,29.183,3.4,76.499,3.4,76.499z"/>
		<path style="opacity:0.2;fill:#12100B;" d="M3.525,76.499h29.382c0,0,4.7-12.009,8.365-16.411
			c0.764-0.917,0.355,1.565,0.695,2.902c0.342,1.334-1.119,11.241-0.632,13.509h28.205c0,0,3.029-25.212,4.229-28.816
			c2.823-8.484,0.274-20.956-2.281-31.539c-2.556-10.582-1.051-5.455-1.43-7.132c-0.38-1.677-0.598-2.615-1.126-3.45
			c-0.526-0.835-17.8-2.224-26.061-2.044c-8.257,0.179-25.47,1.628-31.444,4.048c-0.955,0.387-1.704,12.15-1.945,16.86
			C9.24,29.183,3.525,76.499,3.525,76.499z"/>
		<path style="fill:#FFFFFF;" d="M5.784,76.499h29.198c0,0,4.671-11.588,8.313-15.834c0.76-0.887,0.354,1.51,0.691,2.797
			c0.338,1.289-1.111,10.85-0.629,13.037h28.03c0,0,3.01-24.33,4.202-27.807c2.805-8.187,0.271-20.222-2.267-30.434
			c-2.54-10.212-1.043-5.265-1.421-6.882c-0.378-1.618-0.595-2.524-1.119-3.33c-0.523-0.805-17.69-2.146-25.897-1.973
			S19.574,7.646,13.637,9.979c-0.95,0.374-1.694,11.725-1.933,16.27C11.462,30.84,5.784,76.499,5.784,76.499z"/>
	</g>
	<path style="opacity:0.1;fill:#12100B;" d="M12.165,19.271c6.305-1.257,16.937-2.888,34.516-3.588
		c4.817-0.192,19.369-0.529,26.101-0.251c0,0,0.136-1.436-0.258-1.549c-1.903-0.546-8.808-1.394-30.675-0.459
		C32.19,13.835,12.57,16,12.553,16.856C12.536,17.713,12.165,19.271,12.165,19.271z"/>
	<path style="opacity:0.2;fill:#12100B;" d="M16.114,7.481c-1.601,1.378-2.295,11.417-1.329,11.79
		c0.966,0.374,3.16-0.164,3.09-1.012c-0.07-0.849-1.494-7.48-0.134-10.395C17.937,7.445,16.688,6.986,16.114,7.481z"/>
	<path style="opacity:0.2;fill:#12100B;" d="M44.759,5.646c-1.039,1.011-0.314,11.069,0.714,11.21
		c1.025,0.141,3.75-0.32,3.486-1.129c-0.263-0.81-0.769-8.829-2.528-10.083C46.054,5.375,45.303,5.117,44.759,5.646z"/>
	<path style="opacity:0.2;fill:#12100B;" d="M55.466,5.243c-1.04,1.011-0.315,11.069,0.712,11.211
		c1.025,0.141,3.751-0.32,3.486-1.129c-0.263-0.81-0.769-8.829-2.527-10.083C56.759,4.973,56.009,4.714,55.466,5.243z"/>
	<path style="opacity:0.1;fill:#12100B;" d="M48.956,54.2c0.242,0-0.102,3.307,0.604,6.092c0.367,1.449,0.366,4.004-0.282,5.949
		c-1.088,3.262-0.663,6.301-0.287,7.758c0.218,0.844,0.316,1.963,0.247,2.5h-5.881c0,0-0.273-9.656,0.629-11.508
		s-0.16-1.945-0.345-3.02c-0.186-1.074-0.306-1.348-0.073-1.68C43.801,59.958,48.956,54.2,48.956,54.2z"/>
	<path style="opacity:0.1;fill:#12100B;" d="M36.738,47.771c3.825-0.277,8.802-0.377,14.192-0.562
		c1.027-0.037-9.668-2.674-8.782-2.686c0.591-0.008,8.825,1.637,13.764,2.523c2.174,0.391,3.831-0.02,5.918-0.17
		c8.583-0.621,1.032,1.336-0.063,1.568c-1.793,0.385-8.582,0.422-14.849,0.361c-0.651-0.006,8.39,1.818,8.873,2.229
		c0.177,0.148-12.427-2.127-13.671-2.291c-0.983-0.131-6.399-0.133-6.866-0.15C34.046,48.544,36.738,47.771,36.738,47.771z"/>
</g>
<g>
	<path style="fill:none;stroke:#000000;stroke-miterlimit:10;" d="M49.076,54.038c-3.464,2.738-11.517,13.588-14.095,22.461"/>
	<path style="fill:none;stroke:#000000;stroke-miterlimit:10;" d="M5.784,76.499c0.242-1.744,1.812-10.459,1.691-12.271
		s3.987-32.863,4.229-35.521c0.241-2.658,1.33-18.202,1.933-18.727c3.745-3.262,19.331-3.866,33.104-3.866S64.139,5.63,70.783,8.046
		c0,0,1.691,4.229,2.054,7.853c0.362,3.625,6.041,18.123,3.262,30.447c-2.777,12.322-4.59,27.805-4.711,30.152"/>
	<path style="fill:none;stroke:#000000;stroke-miterlimit:10;" d="M43.357,76.499c-0.12-3.09-0.12-8.74,0.483-11.23
		c0.604-2.492-0.908-2.27-0.272-4.977"/>
	<path style="fill:none;stroke:#000000;stroke-miterlimit:10;" d="M12.687,16.856C16.674,14.803,43.78,13.065,49.076,13
		c5.759-0.071,17.456-0.403,23.447,0.886"/>
	<path style="fill:none;stroke:#000000;stroke-miterlimit:10;" d="M44.564,23.208c-0.193,0.159-5.983,0.271-11.87,0.5
		c-5.83,0.226-11.302,0.549-11.4,0.468c-0.402-0.331-0.438-1.862-0.024-2.204c0.126-0.104,5.502-0.562,11.252-0.797
		c5.848-0.238,11.616-0.23,11.829-0.053C44.724,21.428,44.914,22.919,44.564,23.208z"/>
	<path style="fill:none;stroke:#000000;stroke-miterlimit:10;" d="M73.782,20.042c-5.753-0.123-10.811,0.007-10.943,0.103
		c-0.436,0.315-0.493,1.846-0.112,2.202c0.094,0.086,5.787,0.035,11.62,0.172"/>
	<path style="fill:#FFFFFF;" d="M16.134,8.208c-0.406,2.532-0.171,10.051-0.171,10.051l1.834-0.213c0,0-0.975-7.244,0.009-10.422
		C17.998,7,16.134,8.208,16.134,8.208z"/>
	<path style="fill:#FFFFFF;" d="M44.832,5.754c0.443,2.443,1.325,9.929,1.325,9.929l2.371-0.116c0,0-0.097-6.574-1.386-9.724
		C46.896,5.239,44.832,5.754,44.832,5.754z"/>
	<path style="fill:#FFFFFF;" d="M55.684,5.491c0.443,2.442,1.326,9.929,1.326,9.929l2.37-0.116c0,0-0.096-6.575-1.385-9.724
		C57.747,4.976,55.684,5.491,55.684,5.491z"/>
	<path style="fill:none;stroke:#000000;stroke-miterlimit:10;" d="M17.796,18.046c0.106,0.217-1.673,0.213-1.834,0.213
		c-0.066,0,0.017-0.362-0.121-1.402c-0.197-1.49-0.621-4.169,0.292-8.648c0.102-0.5,1.639-0.972,1.671-0.584
		c0.062,0.762-1.281,4.972-0.182,8.82C17.758,16.914,17.577,17.596,17.796,18.046z"/>
	<path style="fill:none;stroke:#000000;stroke-miterlimit:10;" d="M45.885,15.581c-0.124,0.228,2.428,0.005,2.644-0.014
		c0.089-0.008-0.149-0.488-0.056-1.541c0.136-1.507-0.171-4.097-1.33-8.184c-0.142-0.498-2.384-0.361-2.394,0.029
		c-0.017,0.766,1.424,4.487,1.227,8.092C45.948,14.467,46.14,15.106,45.885,15.581z"/>
	<path style="fill:none;stroke:#000000;stroke-miterlimit:10;" d="M56.718,15.334c-0.122,0.23,2.428-0.02,2.643-0.041
		c0.089-0.008-0.155-0.487-0.072-1.54c0.12-1.509-0.213-4.095-1.415-8.169c-0.146-0.497-2.389-0.336-2.394,0.054
		c-0.008,0.766,1.472,4.473,1.312,8.079C56.769,14.22,56.967,14.858,56.718,15.334z"/>
</g>
<rect style="fill:none;" width="80" height="80"/>
<g>
</g>
<g>
</g>
<g>
</g>
<g>
</g>
<g>
</g>
<g>
</g>
<g>
</g>
<g>
</g>
<g>
</g>
<g>
</g>
<g>
</g>
<g>
</g>
<g>
</g>
<g>
</g>
<g>
</g>
</svg>
