<?xml version="1.0" encoding="iso-8859-1"?>
<!-- Generator: Adobe Illustrator 16.0.4, SVG Export Plug-In . SVG Version: 6.00 Build 0)  -->
<!DOCTYPE svg PUBLIC "-//W3C//DTD SVG 1.1//EN" "http://www.w3.org/Graphics/SVG/1.1/DTD/svg11.dtd">
<svg version="1.1" id="Layer_1" xmlns="http://www.w3.org/2000/svg" xmlns:xlink="http://www.w3.org/1999/xlink" x="0px" y="0px"
	 width="80.15px" height="80.148px" viewBox="0 0 80.15 80.148" style="enable-background:new 0 0 80.15 80.148;"
	 xml:space="preserve">
<g>
	<path style="opacity:0.35;" d="M5.06,8.593c0.606-0.455,1.373-0.71,3.873-0.938c2.498-0.227,7.84-0.92,30.869-0.3
		c8.785,0.236,28.549,1.126,31.814,2.984c0,0,0.998,6.161,1.113,7.468c0.112,1.306,1.305,6.136,2.102,7.1
		c0.795,0.966,1.533,11.589,1.021,13.691c-0.512,2.103-1.021,7.84-1.193,9.715c-0.17,1.875-0.625,18.064-0.852,21.473
		c-0.227,3.41-0.852,10.738-1.875,9.145H38.36c0,0-2.955-14.256-3.238-12.326c-0.285,1.932-5.967,12.214-5.967,12.214H0.979
		L0.411,63.82c0,0,2.783-45.901,3.012-46.98c0.227-1.079,0.396-1.705,0.453-1.875c0.057-0.171,0-1.591,0.228-2.216
		C4.33,12.125,5.06,8.593,5.06,8.593z"/>
	<path style="fill:#FFFFFF;" d="M7.943,5.656c0.606-0.455,1.373-0.71,3.873-0.938c2.498-0.227,7.84-0.92,30.869-0.3
		C51.471,4.653,71.234,5.544,74.5,7.401c0,0,0.998,6.161,1.113,7.468c0.112,1.306,1.305,6.136,2.102,7.1
		c0.795,0.966,1.533,11.589,1.021,13.691c-0.512,2.103-1.021,7.84-1.193,9.715c-0.17,1.875-0.625,18.064-0.852,21.473
		c-0.227,3.41-0.852,10.738-1.875,12.157H41.244c0,0-2.955-17.269-3.238-15.339c-0.285,1.932-5.967,15.227-5.967,15.227H3.862
		l-0.567-18.01c0,0,2.783-45.901,3.012-46.98c0.227-1.079,0.396-1.705,0.453-1.875c0.057-0.171,0-1.591,0.228-2.216
		C7.214,9.188,7.943,5.656,7.943,5.656z"/>
	<path style="fill:none;stroke:#000000;stroke-width:0.624;stroke-miterlimit:10;" d="M41.244,79.005c0,0-2.955-17.269-3.238-15.339
		c-0.285,1.932-5.967,15.227-5.967,15.227"/>
	<path style="fill:none;stroke:#000000;stroke-width:0.624;stroke-miterlimit:10;" d="M3.862,78.893l-0.567-18.01
		c0,0,2.783-45.901,3.012-46.98c0.227-1.079,0.396-1.705,0.453-1.875c0.057-0.171,0-1.591,0.228-2.216
		c0.227-0.625,0.956-4.157,0.956-4.157c0.606-0.455,1.373-0.71,3.873-0.938c2.498-0.227,7.84-0.92,30.869-0.3
		C51.471,4.653,71.234,5.544,74.5,7.401c0,0,0.998,6.161,1.113,7.468c0.112,1.306,1.305,6.136,2.102,7.1
		c0.795,0.966,1.533,11.589,1.021,13.691c-0.512,2.103-1.021,7.84-1.193,9.715c-0.17,1.875-0.625,18.064-0.852,21.473
		c-0.227,3.41-0.852,10.738-1.875,12.157"/>
	<path style="fill:#DADADA;" d="M8.01,6.12c0,0-0.249-0.584,0.744-0.844c1.867-0.488,9.865-1.387,33.754-0.792
		c1.04,0.026,20.783,0.565,29.039,2.14c1.223,0.232,2.773,0.594,2.815,1.03c0,0.056,1.136,2.5-34.88,1.362
		C36.132,8.911,9.203,7.312,8.01,6.12z"/>
	<rect style="fill:none;" width="80.15" height="80.148"/>
	<path style="fill:none;stroke:#000000;stroke-width:0.624;stroke-miterlimit:10;" d="M6.76,12.028c0,0,4.829,1.193,14.372,1.817
		c9.544,0.625,24.825,1.307,31.474,1.363c6.645,0.057,18.973,0.739,22.893-1.193"/>
	<path style="fill:none;stroke:#000000;stroke-width:0.624;stroke-miterlimit:10;" d="M74.362,7.654c0,0.056,1.136,2.5-34.88,1.362
		C36.132,8.911,9.096,7.24,7.902,6.046"/>
	<path style="fill:#DADADA;" d="M74.912,16.572c0,0,0.282,10.21,0.698,11.877c0.417,1.666,0.289,6.549,0.25,7.875
		c-0.038,1.325,0.944,6.267,0.944,6.267s0.304,0.039,0.341-0.265c0.039-0.303,0.152-6.211,0.531-7.12
		c0.378-0.909,0.149-9.693-1.066-11.882c-1.25-2.25-1.319-5.653-1.396-6.259C75.138,16.459,74.949,16.308,74.912,16.572z"/>
	<path style="fill:#808080;stroke:#000000;stroke-width:0.624;stroke-miterlimit:10;" d="M45.73,25.038c0,0,7.613,0.453,12.556,0.34
		c4.94-0.114,10.339-0.625,10.339-0.625l0.057,1.649c0,0-6.646,0.567-10.396,0.567S45.617,26.57,45.617,26.57L45.73,25.038z"/>
	<path style="fill:none;stroke:#9D9D9C;stroke-width:0.6239;stroke-miterlimit:10;" d="M33.61,26.699c0,0-2.625,19.5,4.388,36.562"
		/>
	<path style="opacity:0.35;" d="M13.963,7.164c0,0-0.137,3.371-0.307,3.975c-0.17,0.604-0.561,2.424-0.485,2.951
		c0.076,0.528-1.544,0.291-2.055-0.486C10.605,12.829,13.963,7.164,13.963,7.164z"/>
	<path style="opacity:0.35;" d="M61.586,9.532c0,0,0,3.524,0.037,4.333c0.038,0.812-0.098,2.611,0.523,2.951
		c0.623,0.339,1.943-0.336,1.943-0.336L61.586,9.532z"/>
	<polygon style="fill:#FFFFFF;stroke:#000000;stroke-width:0.624;stroke-miterlimit:10;" points="27.608,8.165 27.098,15.38 
		28.574,15.494 29.029,8.278 	"/>
	<path style="fill:#FFFFFF;stroke:#000000;stroke-width:0.624;stroke-miterlimit:10;" d="M13.832,7.029
		c0,0.085-0.34,3.465-0.766,4.29c-0.428,0.823-0.852,1.42-0.739,2.016c0.113,0.596-1.022,0-1.022,0s-0.085-1.193,0.227-1.79
		c0.312-0.596,0.796-1.505,0.938-2.499c0.143-0.995,0.312-2.158,0.312-2.158L13.832,7.029z"/>
	<polygon style="fill:#FFFFFF;stroke:#000000;stroke-width:0.624;stroke-miterlimit:10;" points="42.549,8.932 42.322,16.091 
		43.799,16.118 44.055,8.932 	"/>
	<path style="fill:#FFFFFF;stroke:#000000;stroke-width:0.624;stroke-miterlimit:10;" d="M61.836,9.103c0,0,0.113,3.124,0.342,4.345
		c0.227,1.222,0.312,1.816,0.312,2.557c0,0.342,1.392,0.37,1.419,0.199c0.028-0.171-0.027-2.159-0.198-2.727
		c-0.171-0.568-0.454-4.431-0.454-4.431L61.836,9.103z"/>
</g>
<g>
</g>
<g>
</g>
<g>
</g>
<g>
</g>
<g>
</g>
<g>
</g>
<g>
</g>
<g>
</g>
<g>
</g>
<g>
</g>
<g>
</g>
<g>
</g>
<g>
</g>
<g>
</g>
<g>
</g>
</svg>
