<?xml version="1.0" encoding="iso-8859-1"?>
<!-- Generator: Adobe Illustrator 16.0.4, SVG Export Plug-In . SVG Version: 6.00 Build 0)  -->
<!DOCTYPE svg PUBLIC "-//W3C//DTD SVG 1.1//EN" "http://www.w3.org/Graphics/SVG/1.1/DTD/svg11.dtd">
<svg version="1.1" id="Layer_1" xmlns="http://www.w3.org/2000/svg" xmlns:xlink="http://www.w3.org/1999/xlink" x="0px" y="0px"
	 width="80.04px" height="80.04px" viewBox="0 0 80.04 80.04" style="enable-background:new 0 0 80.04 80.04;" xml:space="preserve"
	>
<g>
	<rect style="fill:none;" width="80.04" height="80.04"/>
	<path style="fill:#FFFFFF;" d="M78.071,78.426h-77c0,0-0.167-68.08-0.093-68.112c10.619-3.702,34.454-9.479,76.842-7.718"/>
	<path style="fill:none;stroke:#000000;stroke-width:0.624;stroke-miterlimit:10;" d="M1.403,10.257
		c10.959-3.674,35.061-9.313,76.826-7.64"/>
	<path style="fill:none;stroke:#000000;stroke-width:0.624;stroke-miterlimit:10;" d="M1.889,37.761
		c8.452,1.309,26.073,3.66,31.977,4.48c6.324,0.879,14.866,2.938,20.286,2.811c1.959-0.047,12.695-0.354,24.504-0.686"/>
	<path style="fill:none;stroke:#000000;stroke-width:0.624;stroke-miterlimit:10;" d="M78.489,29.497
		c-2.812,0.121-4.941,0.215-6.102,0.275c-6.645,0.352-18.412,0-23.855-0.526c-5.443-0.525-30.556-4.216-35.825-4.741
		c-2.077-0.207-6.494-0.386-10.684-1.39"/>
	<path style="fill:#DADADA;" d="M77.739,14.68c-2.949-0.11-5.389-0.25-8.66-0.36c-38.741-1.306-61.504,4.983-67.924,7.277
		L0.988,11.263c19.185-6.774,46.723-7.67,51.274-8.007c3.627-0.268,12.688-0.279,25.393,0.257L77.739,14.68z"/>
	<path style="fill:none;stroke:#000000;stroke-width:0.624;stroke-miterlimit:10;" d="M77.739,14.68
		c-2.949-0.11-5.389-0.25-8.66-0.36c-38.741-1.306-61.504,4.983-67.924,7.277"/>
	<path style="fill:none;stroke:#000000;stroke-width:0.624;stroke-miterlimit:10;" d="M53.096,45.403c0,0-0.875,16.566-0.979,33.359
		"/>
	<path style="fill:none;stroke:#9D9D9C;stroke-width:0.6239;stroke-miterlimit:10;" d="M65.213,51.022
		c0,0,0.059,12.979-0.059,26.324"/>
	<path style="opacity:0.35;" d="M52.729,45.176c0,0-11.854,0.6-13.18,0.656c-1.327,0.059-5.434-3.658-3.372-10.805
		C38.055,28.514,52.729,45.176,52.729,45.176z"/>
	<path style="fill:#FFFFFF;" d="M53.075,45.061c0,0-11.479-0.801-12.622-0.801c-1.143,0-4.479-3.775-4.391-7.989
		c0.088-4.215,4.451-7.085,8.926-7.021c4.018,0.058,8.902,0.391,11.533,0.479"/>
	<path style="fill:none;stroke:#000000;stroke-width:0.624;stroke-miterlimit:10;" d="M53.176,45.049c0,0-11.58-0.789-12.723-0.789
		c-1.143,0-4.479-3.775-4.391-7.989c0.088-4.215,4.77-7.147,9.024-6.987c4.014,0.15,8.805,0.357,11.436,0.445"/>
	<path style="opacity:0.35;" d="M28.906,26.751c0,0-1.959,14.014-0.685,17.345c1.273,3.332-4.212,1.455-5.243-0.447
		C21.949,41.747,25.183,24.497,28.906,26.751z"/>
	<path style="fill:#FFFFFF;stroke:#000000;stroke-width:0.624;stroke-miterlimit:10;" d="M24.324,26.015c0,0-0.557,7.52-0.994,10.73
		c-0.439,3.213-1.143,6.287-0.352,6.904c0.789,0.611,3.427,1.455,4.127,1.033c0.704-0.422-0.879-0.422-0.701-5.075
		c0.176-4.653,1.549-13.092,1.549-13.092L24.324,26.015z"/>
</g>
<g>
</g>
<g>
</g>
<g>
</g>
<g>
</g>
<g>
</g>
<g>
</g>
<g>
</g>
<g>
</g>
<g>
</g>
<g>
</g>
<g>
</g>
<g>
</g>
<g>
</g>
<g>
</g>
<g>
</g>
</svg>
