<?xml version="1.0" encoding="iso-8859-1"?>
<!-- Generator: Adobe Illustrator 16.0.4, SVG Export Plug-In . SVG Version: 6.00 Build 0)  -->
<!DOCTYPE svg PUBLIC "-//W3C//DTD SVG 1.1//EN" "http://www.w3.org/Graphics/SVG/1.1/DTD/svg11.dtd">
<svg version="1.1" id="Layer_1" xmlns="http://www.w3.org/2000/svg" xmlns:xlink="http://www.w3.org/1999/xlink" x="0px" y="0px"
	 width="80.04px" height="80.04px" viewBox="0 0 80.04 80.04" style="enable-background:new 0 0 80.04 80.04;" xml:space="preserve"
	>
<g>
	<path style="fill:#FFFFFF;" d="M62.313,78.342c-0.551-5.869-1.412-22.943-1.316-26.096c0.104-3.459-1.258-6.814-1.258-9.123
		c0-2.305,0.104-4.404-0.945-6.29c-1.049-1.889-1.676-10.697-1.887-13.005c-0.209-2.307-1.154-6.396-2.098-10.59
		c-0.941-4.195-4.719-6.606-42.992-8.389c-3.427-0.16-6.66-0.238-9.706-0.248v73.968L62.313,78.342z"/>
	<path style="fill:#DADADA;" d="M2.435,11.706c0.877,0.017,1.77,0.04,2.678,0.07c28,0.944,35.34,1.782,45.615,5.243
		c0,0,2.936-1.39,3.959-2.884s-1.809-5.662-19.267-7.157C23.31,5.942,10.634,5.323,2.585,5.146"/>
	<path style="fill:none;stroke:#000000;stroke-width:0.624;stroke-miterlimit:10;" d="M2.435,11.705
		c0.877,0.017,1.77,0.04,2.678,0.07c28,0.944,35.34,1.782,45.615,5.243"/>
	<path style="fill:none;stroke:#000000;stroke-width:0.624;stroke-miterlimit:10;" d="M2.111,4.603
		c3.046,0.01,6.279,0.088,9.706,0.248c38.273,1.782,42.05,4.193,42.992,8.389c0.943,4.193,1.889,8.283,2.098,10.59
		c0.211,2.308,0.838,11.116,1.887,13.005c1.049,1.886,0.945,3.984,0.945,6.29c0,2.309,1.361,5.664,1.258,9.123
		c-0.096,3.152,0.766,20.227,1.316,26.096"/>
	<path style="fill:none;stroke:#000000;stroke-width:0.624;stroke-miterlimit:10;" d="M2.339,29.943
		c8.956-0.253,24.214-0.688,28.038-0.766c5.244-0.104,24.538,0,26.217-7.55l-1.785-8.389c0,0-1.363,4.613-11.219,5.662
		c-9.858,1.049-32.855,1.887-36.823,2.097c-1.246,0.065-2.793,0.09-4.429,0.083"/>
	<path style="fill:none;stroke:#9D9D9C;stroke-width:0.6239;stroke-miterlimit:10;" d="M20.048,59.663
		c0,0,2.173,14.164,2.736,18.912"/>
	<polygon style="fill:#808080;stroke:#000000;stroke-width:0.624;stroke-miterlimit:10;" points="61.055,58.536 54.245,24.942 
		52.721,25.857 61.665,68.243 	"/>
	<path style="opacity:0.35;" d="M14.452,20.833c0,0-0.234,10.357,0.117,10.649c0.352,0.293,2.165,0.117,2.633-0.233
		c0.469-0.352-0.702-10.533-0.702-10.533L14.452,20.833z"/>
	<path style="fill:#FFFFFF;stroke:#000000;stroke-width:0.624;stroke-miterlimit:10;" d="M15.33,20.618v10.5c0,0,1.78,0.262,2.202,0
		c0.419-0.263-0.259-10.389,0-10.5C17.788,20.509,15.33,20.618,15.33,20.618z"/>
	<path style="opacity:0.35;" d="M53.811,14.806c0,0,0.023,3.686,0.375,5.5s1.229,5.384,1.814,5.325
		c0.584-0.058,0.818-0.937,0.818-0.937l-2.516-10.299L53.811,14.806z"/>
	<path style="fill:#FFFFFF;stroke:#000000;stroke-width:0.624;stroke-miterlimit:10;" d="M53.811,14.806
		c-0.057,0.057,1.838,5.249,2.152,10.355c0.01,0.161,0.994-0.75,0.994-0.75s0.164-2.469-0.363-5.562s-1.785-5.609-1.785-5.609
		S54.424,14.19,53.811,14.806z"/>
	<rect style="fill:none;" width="80.04" height="80.04"/>
</g>
<g>
</g>
<g>
</g>
<g>
</g>
<g>
</g>
<g>
</g>
<g>
</g>
<g>
</g>
<g>
</g>
<g>
</g>
<g>
</g>
<g>
</g>
<g>
</g>
<g>
</g>
<g>
</g>
<g>
</g>
</svg>
