<?xml version="1.0" encoding="iso-8859-1"?>
<!-- Generator: Adobe Illustrator 16.0.4, SVG Export Plug-In . SVG Version: 6.00 Build 0)  -->
<!DOCTYPE svg PUBLIC "-//W3C//DTD SVG 1.1//EN" "http://www.w3.org/Graphics/SVG/1.1/DTD/svg11.dtd">
<svg version="1.1" id="Layer_1" xmlns="http://www.w3.org/2000/svg" xmlns:xlink="http://www.w3.org/1999/xlink" x="0px" y="0px"
	 width="80px" height="80px" viewBox="0 0 80 80" style="enable-background:new 0 0 80 80;" xml:space="preserve">
<path style="fill:#FFFFFF;" d="M12.655,3.006l62.021,0.136c3.381,7.87-0.03,66.115-1.456,73.852L3.876,76.86
	c0.213-1.165,7.253-36.131,7.918-56.93c0.136-4.25,1.609-2.278,1.088-3.948C10.254,7.561,12.396,4.02,12.655,3.006z"/>
<path style="opacity:0.2;fill:#12100B;" d="M12.655,3.006l62.021,0.136c3.381,7.87-0.03,66.115-1.456,73.852L3.876,76.86
	c0.213-1.165,7.253-36.131,7.918-56.93c0.136-4.25,1.609-2.278,1.088-3.948C10.254,7.561,12.396,4.02,12.655,3.006z"/>
<g>
	<path style="fill:#FFFFFF;" d="M15.834,3.006l58.914,0.136c3.212,7.87-0.028,66.115-1.383,73.852L7.495,76.86
		c0.203-1.165,6.89-36.131,7.522-56.93c0.129-4.25,1.528-2.278,1.034-3.948C13.554,7.561,15.587,4.02,15.834,3.006z"/>
</g>
<path style="fill:none;stroke:#000000;stroke-miterlimit:10;" d="M73.365,76.994c1.435-5.365,2.709-58.392,2.709-63.632
	c0-5.24-0.797-7.611-1.354-10.355"/>
<path style="fill:none;stroke:#000000;stroke-miterlimit:10;" d="M7.495,76.862c0.797-4.99,7.618-40.74,7.299-50.971
	s1.11-7.716,1.11-9.962c0-2.246-1.388-6.233-1.388-8.728c0-2.496,1.318-3.321,1.318-4.195"/>
<path style="opacity:0.1;fill:none;stroke:#12100B;stroke-miterlimit:10;" d="M44.916,46.925c0-7.237,1.407-19.339,1.407-21.834
	c0-2.496-0.281-17.967-1.407-22.084"/>
<path style="fill:none;stroke:#12100B;stroke-miterlimit:10;" d="M44.447,44.738c-5.644,0.853-23.608-1.114-27.104-2.226
	c-0.758-0.241-1.087,1.806-0.442,2.109c4.102,1.933,24.39,3.245,27.635,2.445C44.971,46.96,44.839,44.68,44.447,44.738z"/>
<path style="opacity:0.2;fill:#12100B;" d="M44.447,44.738c-5.773,0.266-23.394-1.471-27.104-2.226
	c-0.78-0.158-1.104,1.846-0.442,2.109c4.269,1.695,23.979,3.104,27.635,2.445C44.977,46.987,44.843,44.721,44.447,44.738z"/>
<g id="Knapp_23_">
	<circle style="opacity:0.1;fill:#12100B;" cx="69.523" cy="10.946" r="4.063"/>
	<circle style="fill:none;stroke:#12100B;stroke-miterlimit:10;" cx="69.926" cy="10.148" r="3.762"/>
	<circle style="fill:#FFFFFF;" cx="69.926" cy="10.148" r="3.762"/>
	<circle style="opacity:0.5;fill:none;stroke:#12100B;stroke-miterlimit:10;" cx="69.524" cy="9.186" r="0.2"/>
	<circle style="opacity:0.5;fill:none;stroke:#12100B;stroke-miterlimit:10;" cx="70.896" cy="9.74" r="0.2"/>
	<circle style="opacity:0.5;fill:none;stroke:#12100B;stroke-miterlimit:10;" cx="70.346" cy="11.102" r="0.2"/>
	<circle style="opacity:0.5;fill:none;stroke:#12100B;stroke-miterlimit:10;" cx="68.975" cy="10.548" r="0.2"/>
</g>
<g id="Knapp_22_">
	<circle style="opacity:0.1;fill:#12100B;" cx="68.005" cy="63.137" r="3.728"/>
	<circle style="fill:none;stroke:#12100B;stroke-miterlimit:10;" cx="68.375" cy="62.404" r="3.452"/>
	<circle style="fill:#FFFFFF;" cx="68.375" cy="62.404" r="3.452"/>
	<circle style="opacity:0.5;fill:none;stroke:#12100B;stroke-miterlimit:10;" cx="68.007" cy="61.521" r="0.183"/>
	<circle style="opacity:0.5;fill:none;stroke:#12100B;stroke-miterlimit:10;" cx="69.266" cy="62.029" r="0.183"/>
	<circle style="opacity:0.5;fill:none;stroke:#12100B;stroke-miterlimit:10;" cx="68.761" cy="63.279" r="0.183"/>
	<circle style="opacity:0.5;fill:none;stroke:#12100B;stroke-miterlimit:10;" cx="67.503" cy="62.771" r="0.183"/>
</g>
<rect style="fill:none;" width="80" height="80"/>
<g id="Pocket">
	<path style="fill:none;stroke:#000000;stroke-miterlimit:10;" d="M16.544,44.334c-0.387-0.208-1.627,7.833-1.127,9.041
		c0.934,2.257,25.164,4.606,28.552,3.371c0.458-0.167,0.106-2.625,0.281-5.079c0.167-2.352,0.426-4.629,0.286-4.6
		C41.292,47.75,21.042,46.75,16.544,44.334z"/>
	<path style="opacity:0.1;fill:#12100B;" d="M15.417,53.375c-0.576-0.421,0.539-9.382,1.127-9.041
		c1.581,0.916,22.165,4.249,27.992,2.733c0,0-0.214,9.604-0.828,9.725C36.333,58.25,18.042,55.292,15.417,53.375z"/>
</g>
<g>
</g>
<g>
</g>
<g>
</g>
<g>
</g>
<g>
</g>
<g>
</g>
<g>
</g>
<g>
</g>
<g>
</g>
<g>
</g>
<g>
</g>
<g>
</g>
<g>
</g>
<g>
</g>
<g>
</g>
</svg>
