<?xml version="1.0" encoding="iso-8859-1"?>
<!-- Generator: Adobe Illustrator 16.0.4, SVG Export Plug-In . SVG Version: 6.00 Build 0)  -->
<!DOCTYPE svg PUBLIC "-//W3C//DTD SVG 1.1//EN" "http://www.w3.org/Graphics/SVG/1.1/DTD/svg11.dtd">
<svg version="1.1" id="Layer_1" xmlns="http://www.w3.org/2000/svg" xmlns:xlink="http://www.w3.org/1999/xlink" x="0px" y="0px"
	 width="80px" height="80px" viewBox="0 0 80 80" style="enable-background:new 0 0 80 80;" xml:space="preserve">
<g>
	<g>
		<path style="opacity:0.35;" d="M71.573,58.524c0,3.809-9.46,13.404-13.049,13.404H28.017c-4.037,0-14.638-10.043-14.638-12.956
			l0.058-37.641c0-10.019,1.796-9.124,7.179-9.124h43.965c5.607,0,6.992,0.001,6.992,10.02V58.524z"/>
		<path style="fill:#FFFFFF;stroke:#000000;stroke-width:0.6519;stroke-miterlimit:10;" d="M67.321,54.279
			c0,3.809-9.46,13.405-13.05,13.405H23.767c-4.037,0-14.637-10.043-14.637-12.957l0.057-37.643c0-10.019,1.794-9.124,7.179-9.124
			H60.33c5.606,0,6.991,0.003,6.991,10.019V54.279z"/>
		
			<line style="fill:none;stroke:#000000;stroke-width:0.6519;stroke-miterlimit:10;" x1="13.225" y1="17.979" x2="63.245" y2="17.979"/>
	</g>
</g>
<rect style="fill:none;" width="80" height="80"/>
<g>
</g>
<g>
</g>
<g>
</g>
<g>
</g>
<g>
</g>
<g>
</g>
<g>
</g>
<g>
</g>
<g>
</g>
<g>
</g>
<g>
</g>
<g>
</g>
<g>
</g>
<g>
</g>
<g>
</g>
</svg>
