<?xml version="1.0" encoding="iso-8859-1"?>
<!-- Generator: Adobe Illustrator 16.0.4, SVG Export Plug-In . SVG Version: 6.00 Build 0)  -->
<!DOCTYPE svg PUBLIC "-//W3C//DTD SVG 1.1//EN" "http://www.w3.org/Graphics/SVG/1.1/DTD/svg11.dtd">
<svg version="1.1" id="Layer_1" xmlns="http://www.w3.org/2000/svg" xmlns:xlink="http://www.w3.org/1999/xlink" x="0px" y="0px"
	 width="80px" height="80px" viewBox="0 0 80 80" style="enable-background:new 0 0 80 80;" xml:space="preserve">
<path style="opacity:0.35;" d="M74.446,41.657c0-1.154-4.99-15.158-7.205-19.361c-0.472-0.893-1.351-1.598-2.099-2.002
	c-0.443-0.239-0.773-0.384-0.773-0.384s3.797,3.893-0.548,6.979c-7.634,5.422-20.969,8.577-23.069,9.05l-0.003,0
	c-0.009,0.002-0.019,0.005-0.028,0.008c-0.163,0.037-0.26,0.057-0.26,0.057c0.005,0.003,0.009,0.008,0.012,0.012
	c-1.146,0.303-2.142,0.722-3.01,1.221l-2.758-1.45l-4.452,7.63c0.811-1.493,1.467-2.68,1.864-3.353
	c2.311-3.923,2.247-4.432,2.247-4.432c-10.419-3.733-9.446-3.561-16.338-6.528c-6.699-2.884-5.082-8.652-5.082-8.652
	c-2.779,1.835-5.656,14.087-7.504,20.317c-1.849,6.229,2.184,8.537,2.184,8.537s4.632-2.393,12.717-7.006
	c0,0,12.82,12.344,39.27,2.076l10.048,4.731C73.123,46.104,74.908,45.58,74.446,41.657z"/>
<linearGradient id="SVGID_1_" gradientUnits="userSpaceOnUse" x1="11.6621" y1="25.1348" x2="66.7617" y2="25.1348">
	<stop  offset="0" style="stop-color:#D5D7D8"/>
	<stop  offset="0.1822" style="stop-color:#FFFFFF"/>
	<stop  offset="0.8283" style="stop-color:#EFF0F0"/>
	<stop  offset="1" style="stop-color:#C2C2C2"/>
</linearGradient>
<path style="fill:url(#SVGID_1_);stroke:#000000;stroke-width:0.935;stroke-miterlimit:10;" d="M12.816,17.92
	c5.111-3.375,13.167-3.692,25.642-3.692c12.474,0,26.211,0.89,28.278,5.351c0,0,1.867,15.993-26.199,16.455
	c-13.281,0.218-23.908-4.269-26.103-8.076l-2.772-6.576L12.816,17.92"/>
<path style="fill:#939598;stroke:#000000;stroke-width:0.935;stroke-miterlimit:10;" d="M25.604,29.715
	c0,0,7.873-0.468,12.557-0.468c4.684,0,15.369,0.354,15.369,0.354l-0.752,0.956l-12.087,4.4l-6.3,0.754l-4.664-2.438L25.604,29.715z
	"/>
<polygon style="fill:#FFFFFF;stroke:#000000;stroke-width:0.935;stroke-miterlimit:10;" points="37.535,34.811 32.134,45.696 
	20.108,40.105 34.016,33.077 "/>
<path style="fill:#FFFFFF;stroke:#000000;stroke-width:0.935;stroke-miterlimit:10;" d="M59.033,42.182c0,0-5.083,5.769-27.245,3.86
	c-0.347,0-0.26-0.865-0.26-0.865s-0.087-9.535,9.096-11.768l9.926,3.941l8.944,4.371"/>
<circle style="fill:none;stroke:#000000;stroke-width:0.935;stroke-miterlimit:10;" cx="39.021" cy="41.116" r="2.599"/>
<circle style="fill:none;stroke:#000000;stroke-width:0.935;stroke-miterlimit:10;" cx="39.021" cy="41.116" r="1.169"/>
<path style="fill:#FFFFFF;stroke:#000000;stroke-width:0.935;stroke-miterlimit:10;" d="M67.113,19.767
	c2.127,4.572,6.355,17.799,6.355,18.954c0.463,3.923-0.692,5.192-4.158,8.19c0,0-28.11-12.744-28.977-13.437
	c0,0,15.058-3.218,23.359-9.115c4.347-3.087,0.55-6.979,0.55-6.979s0.331,0.146,0.771,0.384
	C65.766,18.169,66.688,18.853,67.113,19.767z"/>
<path style="fill:#FFFFFF;stroke:#000000;stroke-width:0.935;stroke-miterlimit:10;" d="M34.236,33.101l-26.5,13.523
	c0,0-3.095-2.424-1.247-8.654c1.849-6.23,3.548-18.214,6.328-20.05c0,0-1.584,5.582,4.753,8.748
	C22.469,29.115,24.335,29.814,34.236,33.101z"/>
<path style="fill:none;stroke:#939598;stroke-width:0.7254;stroke-miterlimit:10;" d="M7.058,37.797c0,0-0.231,3.922,1.386,5.999
	c15.361-7.96,18.134-8.767,22.638-11.306"/>
<path style="fill:none;stroke:#939598;stroke-width:0.7254;stroke-miterlimit:10;" d="M43.369,33.048l25.941,11.209
	c0,0,1.156-0.346,2.542-2.652c1.794-2.985,0.951-3.915,0.951-3.915"/>
<path style="fill:none;stroke:#939598;stroke-width:0.7254;stroke-miterlimit:10;" d="M18.614,27.041c0,0,3.071-1.625,20.515-1.625
	c17.442,0,19.788,1.733,19.788,1.733"/>
<rect style="fill:none;" width="80" height="80"/>
<g>
</g>
<g>
</g>
<g>
</g>
<g>
</g>
<g>
</g>
<g>
</g>
<g>
</g>
<g>
</g>
<g>
</g>
<g>
</g>
<g>
</g>
<g>
</g>
<g>
</g>
<g>
</g>
<g>
</g>
</svg>
