<?xml version="1.0" encoding="iso-8859-1"?>
<!-- Generator: Adobe Illustrator 16.0.4, SVG Export Plug-In . SVG Version: 6.00 Build 0)  -->
<!DOCTYPE svg PUBLIC "-//W3C//DTD SVG 1.1//EN" "http://www.w3.org/Graphics/SVG/1.1/DTD/svg11.dtd">
<svg version="1.1" id="Layer_1" xmlns="http://www.w3.org/2000/svg" xmlns:xlink="http://www.w3.org/1999/xlink" x="0px" y="0px"
	 width="80px" height="80px" viewBox="0 0 80 80" style="enable-background:new 0 0 80 80;" xml:space="preserve">
<path style="opacity:0.2;fill:#12100B;" d="M5.903,3.257C9.648,3.184,69.97,2.665,70.472,4.447
	c0.503,1.781,1.02,11.718,0.328,13.767c-0.691,2.047,4.336,14.937,6.396,57.016L5.812,75.222L5.903,3.257z"/>
<path style="opacity:0.3;fill:#12100B;" d="M65.908,75.098c-0.423-8.17-0.687-15.244-0.728-17.075
	c-0.099-4.176-0.59-32.842-2.89-38.698c-2.296-5.856,1.237-12.862-0.121-13.287C61.41,5.799,32.121,4.983,6,5.28
	c0.068,0.368,0.077,40.075,0.006,66.999"/>
<path style="fill:#FFFFFF;" d="M73.197,75.422c-0.343-7.334-0.549-9.908-0.676-11.592c-2.711-36.064-4.995-39.182-5.372-43.53
	c-0.544-6.271,0.813-13.919-0.562-14.365c-0.828-0.268-31.924-2.75-60.796-0.913c0,0.449-0.037,41.966-0.085,70.491"/>
<g>
	<path style="opacity:0.1;fill:#12100B;" d="M5.749,74.251c4.31,0.575,9.153,0.801,10.776,0.656c4.872-0.433,6.132-2.086,6.64-3.091
		c-2.575-0.121-10.175-1.463-17.416-2.967"/>
	<path style="opacity:0.1;fill:#12100B;" d="M5.819,43.973c2.534,0.014,5.235-0.032,6.291-0.143c6.664-0.717,7.022-4.3,6.12-4.086
		c-0.974,0.229-6.3,0.155-12.411-0.009"/>
	<path style="opacity:0.1;fill:#12100B;" d="M5.749,58.282c6.636,1.372,13.332,2.399,15.369,2.493
		c5.633,0.256,6.386-2.708,5.605-2.643c-1.342,0.108-12.233-1.999-20.974-3.845"/>
	<path style="opacity:0.1;fill:#12100B;" d="M5.834,30.832c25.699-1.321,52.091-5.949,61.696-10.794l-0.377-3.136
		c-12.351,5.595-44.24,9.36-61.3,10.328"/>
	<path style="opacity:0.2;fill:#12100B;" d="M20.469,15.643c-1.759,2.604-1.402,10.196-1.045,12.683
		c0.353,2.455,0.881,6.079,2.318,6.599c1.438,0.52,3.709,1.306,4.863,0.236c1.285-1.191,0.556-0.861,0.665-3.328
		C27.379,29.367,20.469,15.643,20.469,15.643z"/>
	<path style="opacity:0.2;fill:#12100B;" d="M5.833,15.908c34.224-0.92,61.888-9.278,59.969-9.879
		C63.729,5.38,29.792,4.506,5.807,5.344"/>
	<path style="opacity:0.1;fill:#12100B;" d="M70.787,63.938c-0.104-0.519-3.617-29.812-4.892-39.745
		c0.936-0.429,1.12-0.589,1.258-0.871c0.921-1.877,0.646-3.96-0.213-3.549c-1.65,0.79-4.848,2.326-10.296,3.996l-3.2,0.88
		l0.018,0.037c-9.545,2.578-24.585,5.211-47.628,5.767l-0.015,3.11c19.002-0.643,37.59-2.877,49.259-5.492
		c0,0,4.82-1.458,8.377-2.834l6.721,48.637C71.166,71.899,70.912,64.562,70.787,63.938z"/>
</g>
<g>
	<path style="fill:none;stroke:#000000;stroke-miterlimit:10;" d="M5.834,30.453c30.688-1.06,59.21-7.274,61.319-10.959
		c0.367-0.634-0.002-4.432,0-7.197c0.008-2.763,0.387-5.916,0-6.158C65.214,4.923,38.027,3.973,5.834,4.845"/>
	<path style="fill:none;stroke:#000000;stroke-miterlimit:10;" d="M5.854,16.157c20.679-0.964,41.834-3.77,61.3-10.018"/>
	<path style="fill:none;stroke:#000000;stroke-miterlimit:10;" d="M73.197,75.342c-1.068-18.714-2.629-37.396-6.044-55.848"/>
	<path style="fill:#FFFFFF;" d="M26.201,32.129c-1.581,0.142-4.465,0.558-4.492-0.007c-0.022-0.562-0.939-15.954-0.867-16.479
		c0.077-0.523,3.822-1.204,4.071-0.5C25.162,15.847,26.201,32.129,26.201,32.129z"/>
	<path style="fill:none;stroke:#000000;stroke-miterlimit:10;" d="M20.466,15.198c0.209-0.462,3.853-0.541,4.31-0.377
		c0.456,0.162,1.829,13.279,1.829,17.25c0,0.939-4.521,0.871-4.521,0.262C22.083,30.146,20.165,15.864,20.466,15.198z"/>
	<path style="fill:none;stroke:#000000;stroke-miterlimit:10;" d="M5.861,11.621c15.356-0.611,31.12-1.208,46.488-1.415"/>
	<path style="fill:none;stroke:#000000;stroke-miterlimit:10;" d="M60.257,23.276c0,0,5.906,44.696,6.836,50.905
		c0.097,0.648,2.693,0.24,2.668-0.154c-0.575-8.93-6.771-52.157-6.771-52.157"/>
</g>
<rect style="fill:none;" width="80" height="80"/>
<g>
</g>
<g>
</g>
<g>
</g>
<g>
</g>
<g>
</g>
<g>
</g>
<g>
</g>
<g>
</g>
<g>
</g>
<g>
</g>
<g>
</g>
<g>
</g>
<g>
</g>
<g>
</g>
<g>
</g>
</svg>
