<svg xmlns="http://www.w3.org/2000/svg" viewBox="0 0 300.91 405.94"><defs><style>.cls-1{fill:#3e362e;}</style></defs><g id="Layer_2" data-name="Layer 2"><g id="Layer_1-2" data-name="Layer 1"><path class="cls-1" d="M7.19,369a2.92,2.92,0,0,1-1.92-.72,3,3,0,0,1-1-2.14c-.11-2.36,0-5.43.17-8.69.32-7.29.71-16.35-1.74-19.64a6.89,6.89,0,0,1-1.26-3.68C-1.44,294.14.6,232,2.55,208.43c.89-10.82,3.84-27.48,9.2-57.74,1.37-7.74,2.9-16.38,4.59-26A203.18,203.18,0,0,1,31.13,77.58l.3-.67C34,71.1,38.79,60.27,48.63,53.3c10-7.1,57.51-23.62,59.52-24.32l.48,1.38c-.49.18-49.3,17.15-59.15,24.14-9.51,6.73-14.2,17.32-16.71,23l-.3.68a201.28,201.28,0,0,0-14.68,46.73c-1.7,9.65-3.23,18.29-4.6,26C7.84,181.16,4.89,197.8,4,208.55,2.07,232.06,0,294.11,2.86,334a5.44,5.44,0,0,0,1,2.9c2.77,3.71,2.38,12.67,2,20.58-.14,3.23-.27,6.27-.17,8.57a1.54,1.54,0,0,0,.53,1.09,1.49,1.49,0,0,0,1.14.35c15-1.62,21.59-1.13,29.21-.56,2.11.15,4.3.32,6.78.45a1.13,1.13,0,0,0,.79-.18c.39-.43.16-2-.07-3.46a34.89,34.89,0,0,1-.4-3.58c-.12-2.44,0-5.19.13-8.1A110.72,110.72,0,0,0,43.91,341a21.79,21.79,0,0,1,1.54-8,25.18,25.18,0,0,0,1.33-5.33c.16-1.76.52-6.17,1-12.49,5.57-68,13.52-159.33,18.18-168.46l1.31.66c-5.08,9.93-14.83,128.85-18,167.92-.52,6.33-.88,10.74-1,12.51a26.9,26.9,0,0,1-1.4,5.64,20.85,20.85,0,0,0-1.47,7.45c.22,3.95,0,7.84-.11,11.27-.12,2.88-.24,5.59-.13,8,.06,1.22.24,2.4.39,3.44.31,2.07.56,3.71-.3,4.65a2.3,2.3,0,0,1-1.95.66c-2.49-.13-4.69-.29-6.81-.45-7.55-.56-14.07-1.05-28.94.56Z"/><path class="cls-1" d="M126.29,64.68a.75.75,0,0,1-.59-.29C111,45,109.32,38.15,108.2,33.64c-.09-.38-.18-.74-.27-1.09a4.55,4.55,0,0,1-.24-3.06c.68-2.64,1.47-5.28,2.32-7.87,1.33-4,2.88-8.08,4.61-12A4.51,4.51,0,0,1,117,7.28h0a47.37,47.37,0,0,1,11.85-4.64,90.35,90.35,0,0,1,35-1.67,98.74,98.74,0,0,1,23.21,6.31,4.51,4.51,0,0,1,2.41,2.35c1.72,3.9,3.27,7.93,4.61,12,.85,2.59,1.64,5.23,2.32,7.87a4.72,4.72,0,0,1-.28,3.18c-.32.69-.61,1.4-.93,2.19-1.74,4.32-4.39,10.86-17.79,28.56a.74.74,0,0,1-.76.27.73.73,0,0,1-.54-.59c0-.22-4.09-22-23.82-30-20.1,7.36-25.26,30.78-25.31,31a.7.7,0,0,1-.55.57ZM115.7,10.81c-1.6,3.69-3,7.47-4.3,11.27-.84,2.56-1.61,5.17-2.3,7.78a3.25,3.25,0,0,0,.2,2.19c.14.48.23.85.33,1.23,1.06,4.31,2.65,10.77,16.33,29,1.46-5.17,7.39-22.29,23.33-29.56C127.45,29.22,118.12,15.2,115.7,10.81Zm39.48,21.94c15.52,7.58,20.73,23.48,22,28.53,12.46-16.6,15-22.82,16.66-27,.32-.82.62-1.55.95-2.26a3.25,3.25,0,0,0,.2-2.19c-.69-2.61-1.46-5.22-2.3-7.78-1.24-3.77-2.67-7.53-4.25-11.17C186,15.5,176.84,29.32,155.18,32.75ZM116.56,9.32A36.65,36.65,0,0,0,124,19.11c5,4.82,14,10.91,28.17,12.54a.32.32,0,0,1,.14,0,.35.35,0,0,1,.14,0c24.67-2.84,33.67-19.18,35.16-22.27a3,3,0,0,0-1.08-.74,97.23,97.23,0,0,0-22.86-6.22,88.79,88.79,0,0,0-34.42,1.64,46.17,46.17,0,0,0-12.11,4.83l-.11,0A3.4,3.4,0,0,0,116.56,9.32Z"/><path class="cls-1" d="M148.94,48.07c-5.43,0-11.48-.35-14.89-1.19l.36-1.43c4,1,12,1.27,17.78,1.11,7.76-.21,14.17-.86,17.15-1.74l.42,1.4C165.17,47.58,155.18,48,152.23,48,151.18,48.06,150.07,48.07,148.94,48.07Z"/><path class="cls-1" d="M145.12,405.56h-1.46V46.42c0-1.24-.05-5.61-.05-7.59a5,5,0,0,1,1.8-3.9l.49.51.76,0-.3.63a3.59,3.59,0,0,0-1.29,2.79c0,2,.05,6.33.06,7.57V405.56Z"/><path class="cls-1" d="M45.2,338.14a89,89,0,0,0-33.35-1.68c-2.83.4-5.66,1-8.43,1.63l-.35-1.42A83.08,83.08,0,0,1,11.64,335a90.48,90.48,0,0,1,33.9,1.7Z"/><path class="cls-1" d="M145.13,405.94c-14-.14-19.47-.18-27.82-1.92-7.22-1.5-20.65-4.29-32.88-13.68-2.64-2-6.86-5.63-12.71-10.62l-2.24-1.91c-3.46-3-6.2-5.32-10.21-8.44-2.41-1.88-4.87-3.72-7.31-5.47l-.57-.4.38-.59c1.06-2,3.26-32.55,4.48-52.62,0-.37,1.78-37.94,2.66-48.16s1.44-46,1.45-46.4c-.23-2.34.73-10.95,1.94-21.85,1.29-11.61,2.89-26.06,3.38-36.47.31-6.51-.28-14.55-1-23.86-.15-2-.49-6.59-1-10.86a146.28,146.28,0,0,0-7.22-33.46c-3-8.34-6.2-16.25-15.62-28.59l1.17-.89c9.54,12.5,12.81,20.53,15.83,29a148.35,148.35,0,0,1,7.3,33.77c.48,4.32.82,8.93,1,10.9.69,9.39,1.29,17.47,1,24.07-.49,10.46-2.1,24.93-3.39,36.56-1.15,10.39-2.15,19.36-1.93,21.63,0,.45-.57,36.35-1.45,46.58S57.73,310,57.71,310.36c-.49,8.06-2.89,46.67-4.46,52.67,2.31,1.66,4.64,3.4,6.92,5.18,4,3.15,6.79,5.5,10.27,8.48l2.17,1.87c5.89,5,10.1,8.61,12.72,10.62,12,9.18,25.17,11.93,32.27,13.41,8.21,1.7,13.65,1.74,27.5,1.88"/><path d="M195.38,31.68l.48-1.38"/><path class="cls-1" d="M151.65,44.61a4,4,0,1,1,4-4A4,4,0,0,1,151.65,44.61Zm0-6.52a2.53,2.53,0,1,0,2.53,2.53A2.54,2.54,0,0,0,151.65,38.09Z"/><path class="cls-1" d="M151.65,98a4,4,0,1,1,4-4A4,4,0,0,1,151.65,98Zm0-6.53A2.53,2.53,0,1,0,154.18,94,2.54,2.54,0,0,0,151.65,91.45Z"/><path class="cls-1" d="M151.65,151.9a4,4,0,1,1,4-4A4,4,0,0,1,151.65,151.9Zm0-6.53a2.53,2.53,0,1,0,2.53,2.53A2.54,2.54,0,0,0,151.65,145.37Z"/><path class="cls-1" d="M151.65,206.49a4,4,0,1,1,4-4A4,4,0,0,1,151.65,206.49Zm0-6.53a2.53,2.53,0,1,0,2.53,2.53A2.54,2.54,0,0,0,151.65,200Z"/><path class="cls-1" d="M151.65,261.1a4,4,0,1,1,4-4A4,4,0,0,1,151.65,261.1Zm0-6.52a2.53,2.53,0,1,0,2.53,2.53A2.54,2.54,0,0,0,151.65,254.58Z"/><path class="cls-1" d="M151.65,315.61a4,4,0,1,1,4-4A4,4,0,0,1,151.65,315.61Zm0-6.52a2.53,2.53,0,1,0,2.53,2.53A2.54,2.54,0,0,0,151.65,309.09Z"/><path class="cls-1" d="M151.65,369.56a4,4,0,1,1,4-4A4,4,0,0,1,151.65,369.56Zm0-6.53a2.54,2.54,0,1,0,2.53,2.53A2.54,2.54,0,0,0,151.65,363Z"/><path class="cls-1" d="M125.2,21.54l-.49-1.39a88.71,88.71,0,0,1,25.87-5.08,82.44,82.44,0,0,1,29.45,5l-.48,1.39a80.59,80.59,0,0,0-28.93-4.92A86.74,86.74,0,0,0,125.2,21.54Z"/><path class="cls-1" d="M107.31,378.23l-1.76-.3a961.44,961.44,0,0,0,13-121.71A960.44,960.44,0,0,0,110.27,83.7l1.78-.25a963.12,963.12,0,0,1,8.28,172.84A961.22,961.22,0,0,1,107.31,378.23Z"/><circle class="cls-1" cx="83.07" cy="162.72" r="3.11"/><circle class="cls-1" cx="110.57" cy="83.33" r="3.11"/><circle class="cls-1" cx="77.16" cy="308.2" r="3.11"/><circle class="cls-1" cx="114.71" cy="319.73" r="3.11"/><circle class="cls-1" cx="105.98" cy="377.68" r="3.11"/><path class="cls-1" d="M176.92,328.14l-4.27,0a265,265,0,0,1-95.53-19l.66-1.67a263.25,263.25,0,0,0,94.89,18.86c47.6.55,75.74-8.45,97-17.35l.69,1.66C249.57,319.33,222.29,328.14,176.92,328.14Z"/><path class="cls-1" d="M179.46,183.49q-2.82,0-5.64-.06a247.07,247.07,0,0,1-91.4-20.18l.71-1.65a244.93,244.93,0,0,0,90.74,20,245.53,245.53,0,0,0,61.86-6.48,243.69,243.69,0,0,0,30.12-9.28l.64,1.67a243.48,243.48,0,0,1-30.35,9.35A248.38,248.38,0,0,1,179.46,183.49Z"/><circle class="cls-1" cx="119.29" cy="174.4" r="3.11"/><circle class="cls-1" cx="265.95" cy="166.93" r="3.11"/><circle class="cls-1" cx="270.16" cy="309.38" r="3.11"/><path class="cls-1" d="M298.51,357.23H297a.37.37,0,0,0-.35-.26.38.38,0,0,0-.37.37.37.37,0,0,0,.72.12h1.47a.12.12,0,0,0,.12-.12A.11.11,0,0,0,298.51,357.23Z"/><circle class="cls-1" cx="296.69" cy="357.34" r="0.96"/><path class="cls-1" d="M298.51,360H297a.37.37,0,0,0-.35-.26.38.38,0,0,0-.37.37.37.37,0,0,0,.72.12h1.47a.12.12,0,0,0,.12-.12A.11.11,0,0,0,298.51,360Z"/><circle class="cls-1" cx="296.69" cy="360.08" r="0.96"/><path class="cls-1" d="M298.51,362.71H297a.37.37,0,0,0-.35-.26.38.38,0,0,0-.37.37.37.37,0,0,0,.72.12h1.47a.12.12,0,0,0,.12-.12A.11.11,0,0,0,298.51,362.71Z"/><circle class="cls-1" cx="296.69" cy="362.82" r="0.96"/><path class="cls-1" d="M298.51,365.45H297a.37.37,0,0,0-.35-.26.38.38,0,0,0-.37.37.37.37,0,0,0,.72.12h1.47a.12.12,0,0,0,.12-.12A.11.11,0,0,0,298.51,365.45Z"/><circle class="cls-1" cx="296.69" cy="365.56" r="0.96"/><path class="cls-1" d="M208.7,357.23h1.47a.37.37,0,0,1,.35-.26.38.38,0,0,1,.37.37.37.37,0,0,1-.72.12H208.7a.12.12,0,0,1-.12-.12A.11.11,0,0,1,208.7,357.23Z"/><circle class="cls-1" cx="210.52" cy="357.34" r="0.96"/><path class="cls-1" d="M208.7,360h1.47a.37.37,0,0,1,.35-.26.38.38,0,0,1,.37.37.37.37,0,0,1-.72.12H208.7a.12.12,0,0,1-.12-.12A.11.11,0,0,1,208.7,360Z"/><circle class="cls-1" cx="210.52" cy="360.08" r="0.96"/><path class="cls-1" d="M208.7,362.71h1.47a.37.37,0,0,1,.35-.26.38.38,0,0,1,.37.37.37.37,0,0,1-.72.12H208.7a.12.12,0,0,1-.12-.12A.11.11,0,0,1,208.7,362.71Z"/><circle class="cls-1" cx="210.52" cy="362.82" r="0.96"/><path class="cls-1" d="M208.7,365.45h1.47a.37.37,0,0,1,.35-.26.38.38,0,0,1,.37.37.37.37,0,0,1-.72.12H208.7a.12.12,0,0,1-.12-.12A.11.11,0,0,1,208.7,365.45Z"/><circle class="cls-1" cx="210.52" cy="365.56" r="0.96"/><path class="cls-1" d="M263.31,244.2c-2.29-1.86-5.57-2.8-9.74-2.8-3.82,0-6.89.79-9.14,2.35l-.82-1.18c2.5-1.73,5.85-2.6,10-2.6,4.51,0,8.09,1,10.64,3.11Z"/><path class="cls-1" d="M264.49,250.23a7.29,7.29,0,0,0-2.22-1,37.66,37.66,0,0,0-17.41,0,7.54,7.54,0,0,0-2.18,1l-.79-1.19a8.35,8.35,0,0,1,2.63-1.2,38.81,38.81,0,0,1,18.1,0,8.75,8.75,0,0,1,2.66,1.22Z"/><path class="cls-1" d="M212.81,371.42a13.16,13.16,0,0,1-5.54-1.13.69.69,0,0,1-.38-.5c-1.64-8.77.07-59.32,1-74.85a219.07,219.07,0,0,1,2.93-23.48l1.41.25A218.33,218.33,0,0,0,209.35,295c-1.07,17.21-2.53,65-1.12,74.12a12.73,12.73,0,0,0,4.58.83,14.67,14.67,0,0,0,6.08-1.8l.71,1.24A15.75,15.75,0,0,1,212.81,371.42Z"/><path class="cls-1" d="M224.49,297.65l-1.43-.1c0-.17,1.09-17-1.92-27.74l1.37-.38C225.6,280.42,224.54,297,224.49,297.65Z"/><path class="cls-1" d="M253.56,307.36a.72.72,0,0,1-.7-.55c-4.16-16.88-9.25-39.09-11-50.79a.7.7,0,0,1,.59-.81.68.68,0,0,1,.82.59c1.77,11.65,6.85,33.81,11,50.67a.72.72,0,0,1-.52.87Z"/><path class="cls-1" d="M222.74,255.19a.72.72,0,0,1-.67-.48.7.7,0,0,1,.43-.91L238,248.36a.71.71,0,1,1,.47,1.34L223,255.15A1,1,0,0,1,222.74,255.19Z"/><path class="cls-1" d="M220.92,345.2h-.12a.71.71,0,0,1-.59-.81c1-6.27,2.19-13.7,3.51-22,.73-4.58.17-10.73-.32-16.15l-.2-2.22-.19-6.35c0-.24,1.09-17.07-1.93-27.82a.72.72,0,0,1,.5-.88.71.71,0,0,1,.88.49c3.09,11,2,27.54,2,28.24l.19,6.24.2,2.17c.49,5.51,1.06,11.75.3,16.5-1.32,8.31-2.5,15.73-3.51,22A.71.71,0,0,1,220.92,345.2Z"/><path class="cls-1" d="M239.2,380.08h-.45c-15.4-.53-21.9-13.43-22-13.56l-.11-.21,0-.22s1.32-8.15,3.49-21.7l1.41.22c-2,12.22-3.21,20-3.45,21.47.86,1.57,7.12,12.1,20.63,12.57h.39c6.32,0,10.91-5.39,13.63-16l1.39.36C251.3,374.32,246.25,380.08,239.2,380.08Z"/><path class="cls-1" d="M235.75,261l-3.41-4,.18-.41c2.59-5.86,10.4-14.42,12-14.42h.09l.59.15-.05.89-.17.18c-2.05,2.21-2.59,6.77-1.62,13.57l.07.53ZM234,256.75l2.12,2.49,5.73-2.61c-.6-4.56-.52-8.18.26-10.83C239.61,248.38,235.91,252.74,234,256.75Z"/><path class="cls-1" d="M251.89,310.83c-3-7.44-7.73-18.13-12.26-28.48-3-7-6.08-13.91-8.68-20l-.27-.65L243.21,256l.15.92c2.33,13.62,7,33.65,10.88,49.58l-1.39.33c-3.76-15.6-8.35-35.12-10.74-48.76l-9.57,4.36c2.54,5.92,5.47,12.62,8.4,19.33,4.53,10.35,9.22,21.05,12.28,28.51Z"/><path class="cls-1" d="M294.3,371.42a16.25,16.25,0,0,1-6.7-1.95.71.71,0,0,1-.31-1,.73.73,0,0,1,1-.31,15.24,15.24,0,0,0,6,1.78,12.73,12.73,0,0,0,4.58-.83c1.41-9.12-.05-56.91-1.12-74.12-1-15.4-4.63-32.59-5.53-36.61a31.76,31.76,0,0,0-4.1,6.12c-5.54,9.13-4.1,32.77-4.09,33l2.75,46.61a.72.72,0,0,1-.68.75.68.68,0,0,1-.75-.67l-2.74-46.6c-.07-1-1.49-24.33,4.28-33.83,3.91-6.82,4.83-7,5.57-7.09a.71.71,0,0,1,.59,0,.74.74,0,0,1,.37.46c.05.2,4.66,20.11,5.76,37.71,1,15.52,2.68,66.05,1,74.85a.68.68,0,0,1-.38.5A13.16,13.16,0,0,1,294.3,371.42Z"/><path class="cls-1" d="M254.18,306.87l-1.39-.34c3.26-13.18,9-37.21,11-50l1.41.23C263.2,269.6,257.44,293.67,254.18,306.87Z"/><path class="cls-1" d="M267.88,380.08a11.43,11.43,0,0,1-8.17-3.42c-9.2-8.89-9.47-32-9.47-34.64V317.48c0-.54.64-3.2,2.55-11a.73.73,0,0,1,.87-.53.72.72,0,0,1,.52.87c-1.1,4.47-2.47,10-2.51,10.62V342c0,9.24,1.9,26.72,9,33.61a10.09,10.09,0,0,0,7.19,3h.37c13.5-.47,19.77-11,20.62-12.57-.35-2.16-3.06-19-6.95-43.47-.76-4.75-.19-11,.3-16.51l.2-2.2.18-6.27c-.06-.93-1.48-24.27,4.29-33.77a34.56,34.56,0,0,1,4.16-6.25l-22.4-7.88a.72.72,0,1,1,.48-1.35L293,256.76a.71.71,0,0,1,.48.68.74.74,0,0,1-.5.67l-.24.06c-.82.14-2.95,3.56-4.58,6.4-5.54,9.14-4.1,32.78-4.09,33l-.18,6.38-.2,2.25c-.49,5.43-1.05,11.58-.32,16.16,4.18,26.28,7,43.7,7,43.7a.65.65,0,0,1-.06.43c-.06.13-6.57,13-22,13.56Z"/><path class="cls-1" d="M230.58,340.27c-3.2,0-8.13-2.36-8.77-2.68l-.48-.23,1.3-8.22,12.81,4.06,0,.56c0,.2-.35,5.08-3.35,6.27A4,4,0,0,1,230.58,340.27Zm-7.67-3.74c2.69,1.26,7,2.8,8.62,2.17s2.2-3.08,2.39-4.48L223.78,331Z"/><path class="cls-1" d="M271.36,261l-7.69-3.5.07-.53c1-6.8.43-11.36-1.62-13.56l-.17-.19-.08-.85.62-.19h.08c1.62,0,9.42,8.56,12,14.42l.19.41Zm-6.12-4.36,5.73,2.61,2.12-2.49c-1.89-4-5.59-8.37-8.12-10.95C265.75,248.45,265.84,252.07,265.24,256.63Z"/><path class="cls-1" d="M276.48,340.27A4,4,0,0,1,275,340c-3-1.2-3.06-6.19-3.06-6.4v-.53l12.49-3.84,1.3,8.1-.48.23C284.61,337.91,279.68,340.27,276.48,340.27Zm-3.09-6.12c.1,1.41.59,3.93,2.14,4.55s5.93-.91,8.61-2.17l-.87-5.42Z"/><path class="cls-1" d="M254.23,322.21a1.35,1.35,0,1,1,1-2.26h2.1a.92.92,0,0,1,0,1.83h-2.1A1.33,1.33,0,0,1,254.23,322.21Z"/><path class="cls-1" d="M257.31,336.13h-2.49a.63.63,0,1,0,0,.39h2.49a.2.2,0,1,0,0-.39Z"/><circle class="cls-1" cx="254.23" cy="320.87" r="1.62"/><path class="cls-1" d="M266.62,284.8h-.72v-2.31h1.43v.87c5.63-.07,11.51-.93,12.86-1.88v-2.26c-2.74.85-9.07,1.33-12.44,1.4l0-1.44c6-.11,11.92-1,12.63-1.54a.59.59,0,0,0-.16.38l1.43-.1,0,.32,0,.05v3.78l-.17.2C279.77,284.18,270.73,284.8,266.62,284.8Z"/><path class="cls-1" d="M251.66,320.5l-1.42-.12v-2.94c5.5-22.62,10.93-45.46,13.51-60.5l.15-.92,12.53,5.71-.28.65c-2.58,6.05-5.62,13-8.65,19.91C260,299.41,252.27,317.11,251.66,320.5ZM265,258.09c-2.46,14.06-7.26,34.47-12.25,55,2.95-7.4,8.09-19.15,13.44-31.37,2.92-6.69,5.84-13.37,8.37-19.27Z"/><path class="cls-1" d="M256.87,73.76a.36.36,0,0,1-.36-.36v-.53a.36.36,0,0,1,.36-.36.35.35,0,0,1,.35.36v.53A.35.35,0,0,1,256.87,73.76Z"/><path class="cls-1" d="M256.87,85a.36.36,0,0,1-.36-.36V83.47a.35.35,0,0,1,.36-.35.34.34,0,0,1,.35.35v1.12A.35.35,0,0,1,256.87,85Zm0-2.24a.36.36,0,0,1-.36-.36V81.23a.35.35,0,0,1,.36-.35.34.34,0,0,1,.35.35v1.12A.35.35,0,0,1,256.87,82.71Zm0-2.24a.36.36,0,0,1-.36-.36V79a.36.36,0,0,1,.36-.36.35.35,0,0,1,.35.36v1.11A.35.35,0,0,1,256.87,80.47Zm0-2.23a.36.36,0,0,1-.36-.36V76.76a.36.36,0,0,1,.36-.36.35.35,0,0,1,.35.36v1.12A.35.35,0,0,1,256.87,78.24Zm0-2.24a.36.36,0,0,1-.36-.36V74.52a.35.35,0,0,1,.36-.35.34.34,0,0,1,.35.35v1.12A.35.35,0,0,1,256.87,76Z"/><path class="cls-1" d="M256.78,86.91h-.07a.36.36,0,0,1-.28-.43c0-.17.06-.33.08-.47v-.3a.36.36,0,0,1,.36-.36.35.35,0,0,1,.35.36l0,.54c0,.11,0,.24-.07.38A.36.36,0,0,1,256.78,86.91Z"/><path class="cls-1" d="M253.46,91.25a.36.36,0,0,1-.32-.21.35.35,0,0,1,.17-.47,5.76,5.76,0,0,0,.77-.45.36.36,0,0,1,.5.09.36.36,0,0,1-.09.5,6.16,6.16,0,0,1-.87.5A.29.29,0,0,1,253.46,91.25ZM255,90.18a.36.36,0,0,1-.25-.62,4.64,4.64,0,0,0,.59-.66.34.34,0,0,1,.5-.07.35.35,0,0,1,.07.5,5.9,5.9,0,0,1-.66.75A.35.35,0,0,1,255,90.18Zm1.13-1.51a.32.32,0,0,1-.16,0,.34.34,0,0,1-.15-.48,6.3,6.3,0,0,0,.35-.82.37.37,0,0,1,.46-.22.37.37,0,0,1,.22.46,7.2,7.2,0,0,1-.4.91A.36.36,0,0,1,256.15,88.67Z"/><path class="cls-1" d="M252,91.72a.37.37,0,0,1-.36-.29A.37.37,0,0,1,252,91c.1,0,.27-.05.48-.11a.34.34,0,0,1,.44.24.35.35,0,0,1-.24.44,4.91,4.91,0,0,1-.55.13Z"/><path class="cls-1" d="M245.73,217.73h-.52a.36.36,0,0,1-.35-.36.35.35,0,0,1,.35-.35h.52a.35.35,0,0,1,.35.35A.36.36,0,0,1,245.73,217.73Zm-1.59,0h-1.07a.36.36,0,0,1-.36-.36.35.35,0,0,1,.36-.35h1.07a.35.35,0,0,1,.36.35A.36.36,0,0,1,244.14,217.73Zm-2.15,0h-1.07a.36.36,0,0,1-.36-.36.35.35,0,0,1,.36-.35H242a.35.35,0,0,1,.36.35A.36.36,0,0,1,242,217.73Zm-2.15,0h-1.07a.36.36,0,0,1-.36-.36.35.35,0,0,1,.36-.35h1.07a.35.35,0,0,1,.36.35A.36.36,0,0,1,239.84,217.73Zm-2.14,0h-1.08a.36.36,0,0,1-.36-.36.35.35,0,0,1,.36-.35h1.08a.34.34,0,0,1,.35.35A.35.35,0,0,1,237.7,217.73Zm-2.15,0h-1.08a.36.36,0,0,1-.36-.36.35.35,0,0,1,.36-.35h1.08a.35.35,0,0,1,.35.35A.36.36,0,0,1,235.55,217.73Z"/><path class="cls-1" d="M277.49,217.73h-.31a.35.35,0,0,1-.35-.36.34.34,0,0,1,.35-.35h.31a.35.35,0,0,1,.36.35A.36.36,0,0,1,277.49,217.73Zm-1.39,0H275a.36.36,0,0,1-.36-.36A.35.35,0,0,1,275,217h1.07a.35.35,0,0,1,.36.35A.36.36,0,0,1,276.1,217.73Zm-2.14,0h-1.08a.35.35,0,0,1-.35-.36.34.34,0,0,1,.35-.35H274a.34.34,0,0,1,.35.35A.35.35,0,0,1,274,217.73Zm-2.15,0h-1.08a.35.35,0,0,1-.35-.36.34.34,0,0,1,.35-.35h1.08a.35.35,0,0,1,.36.35A.36.36,0,0,1,271.81,217.73Zm-2.15,0h-1.07a.36.36,0,0,1-.36-.36.35.35,0,0,1,.36-.35h1.07a.35.35,0,0,1,.36.35A.36.36,0,0,1,269.66,217.73Zm-2.15,0h-1.07a.36.36,0,0,1-.36-.36.35.35,0,0,1,.36-.35h1.07a.35.35,0,0,1,.36.35A.36.36,0,0,1,267.51,217.73Zm-2.15,0h-1.07a.36.36,0,0,1-.36-.36.35.35,0,0,1,.36-.35h1.07a.35.35,0,0,1,.36.35A.36.36,0,0,1,265.36,217.73Zm-2.15,0h-1.07a.36.36,0,0,1-.36-.36.35.35,0,0,1,.36-.35h1.07a.35.35,0,0,1,.36.35A.36.36,0,0,1,263.21,217.73Zm-2.14,0H260a.36.36,0,0,1-.36-.36A.35.35,0,0,1,260,217h1.08a.34.34,0,0,1,.35.35A.35.35,0,0,1,261.07,217.73Zm-2.15,0h-1.08a.35.35,0,0,1-.35-.36.34.34,0,0,1,.35-.35h1.08a.34.34,0,0,1,.35.35A.35.35,0,0,1,258.92,217.73Z"/><path class="cls-1" d="M253.29,70.13h0a7.73,7.73,0,0,1-.76-.23.18.18,0,0,1,.13-.34,5.22,5.22,0,0,0,.71.22.18.18,0,0,1,.14.21A.19.19,0,0,1,253.29,70.13Z"/><path class="cls-1" d="M255.24,70.33a.19.19,0,0,1-.18-.18.18.18,0,0,1,.17-.18,7,7,0,0,0,1.71-.26,13.91,13.91,0,0,0-1.61-.13.17.17,0,0,1-.17-.18.18.18,0,0,1,.18-.17h0a12.15,12.15,0,0,1,2.31.24.17.17,0,0,1,.14.17.2.2,0,0,1-.11.19,7.21,7.21,0,0,1-2.43.5Z"/><path class="cls-1" d="M252.56,69.81a.18.18,0,0,1-.18-.14.17.17,0,0,1,.14-.21c.16,0,.4-.08.71-.12a.18.18,0,0,1,.2.15.17.17,0,0,1-.15.2l-.69.12Z"/><path class="cls-1" d="M278.68,89.73c-1.41-4.21-2.25-7-3.06-9.6s-1.64-5.36-3-9.51l1.35-.46c1.4,4.18,2.23,6.91,3,9.55s1.65,5.37,3,9.56Z"/><path class="cls-1" d="M230.61,75.8l-1.36-.43c.47-1.48,1-3.13,1.67-5.12l1.36.46C231.61,72.69,231.08,74.33,230.61,75.8Z"/><path class="cls-1" d="M252.5,96.81h-1.43V65.56h.73a77.81,77.81,0,0,0,8.11-.29c.94-.08,2.49-.24,4.52-.54l.21,1.42c-2.07.31-3.64.47-4.6.55-2.47.21-5,.31-7.54.3Z"/><path class="cls-1" d="M267.06,72.43,266.82,71a77.57,77.57,0,0,0,10.47-2.52l.42,1.37A79.41,79.41,0,0,1,267.06,72.43Z"/><path class="cls-1" d="M251.85,73.7h-.06A86.85,86.85,0,0,1,240,72.92l.2-1.42a87.17,87.17,0,0,0,11.63.76h.06a89.91,89.91,0,0,0,13.43-1l.21,1.42A92.54,92.54,0,0,1,251.85,73.7Z"/><path class="cls-1" d="M238.42,72.69l-.49-.08a48.81,48.81,0,0,1-5.53-1.31c-1.36-.38-2.75-.78-4.6-1.19l-.64-.14.28-1.4.53.11c2,.45,3.44.85,4.82,1.24a48,48,0,0,0,5.38,1.28l.32,0,0,.73Z"/><path class="cls-1" d="M239.75,73.69h-.1l-1.14-.2a.55.55,0,0,1-.45-.6l.95-7.26a.55.55,0,0,1,.22-.37.66.66,0,0,1,.43-.1l1.12.2a.56.56,0,0,1,.45.63l-.94,7.25a.55.55,0,0,1-.22.36A.51.51,0,0,1,239.75,73.69Zm-1-.89.81.15.9-6.92-.8-.14Zm1.86-6.74Zm-1.12-.2Z"/><path class="cls-1" d="M265.74,73.49a.51.51,0,0,1-.32-.1.53.53,0,0,1-.22-.36l-1-7.32a.57.57,0,0,1,.46-.63l1.12-.2a.62.62,0,0,1,.44.11.54.54,0,0,1,.21.36l1,7.32a.56.56,0,0,1-.46.61l-1.14.21ZM265,65.76l.92,7,.8-.15-.91-7Zm1.88,6.81h0Z"/><path class="cls-1" d="M254.37,68.34a1.32,1.32,0,1,0,1.21,1.32A1.27,1.27,0,0,0,254.37,68.34ZM254.2,70a.15.15,0,0,1-.14-.15.15.15,0,0,1,.14-.15.15.15,0,0,1,.14.15A.14.14,0,0,1,254.2,70Zm0-.36a.15.15,0,0,1,0-.3.15.15,0,0,1,0,.3Zm.33.36a.14.14,0,0,1-.13-.15.14.14,0,1,1,.27,0A.14.14,0,0,1,254.53,70Zm0-.36a.15.15,0,1,1,.14-.15A.14.14,0,0,1,254.53,69.63Z"/><path class="cls-1" d="M276.7,63.45h-.06a237.52,237.52,0,0,0-23.94-1c-8.79.07-17.09.15-24.51.94a.74.74,0,0,1-.79-.63A.71.71,0,0,1,228,62c7.5-.81,15.83-.88,24.66-1,7.61-.06,15.47.28,24.07,1a.72.72,0,0,1-.06,1.43Z"/><path class="cls-1" d="M245.24,221.32h-9.5a.72.72,0,0,1,0-1.44h9.5a.72.72,0,0,1,0,1.44Z"/><path class="cls-1" d="M226.05,200.7a.71.71,0,0,1-.71-.71c-.12-11.11-.27-25.48-.42-39.93a.72.72,0,0,1,.71-.72h0a.71.71,0,0,1,.71.71c.16,14.45.31,28.82.42,39.93a.71.71,0,0,1-.71.72Z"/><path class="cls-1" d="M227.5,74.14,226.07,74c.43-4.2.87-7.89,1.32-11l.12-.84.8.26c1.56.5,3.84,1,5.85,1.39l.68.14c1.52.31,3.08.57,4.65.77l1.56.22c1,.15,2.17.3,3.38.44,2.38.27,4.81.5,7.24.67l-.1,1.42c-2.45-.16-4.91-.39-7.3-.67-1.22-.14-2.37-.29-3.42-.44l-1.56-.22c-1.59-.2-3.19-.47-4.74-.79l-.68-.14c-1.73-.36-3.65-.76-5.18-1.18C228.28,66.94,227.89,70.32,227.5,74.14Z"/><path class="cls-1" d="M245.24,221.32h0a.72.72,0,0,1-.71-.73c0-.65,1.1-65.41,1.1-68.4V142.4a.7.7,0,0,1,0-.25,16.56,16.56,0,0,0,.6-2c.07-.46.56-6,.87-9.7l2-19.45c.2-1.34.48-3.48.48-4s.31-7.57.43-8.21a3.62,3.62,0,0,1,1.34-2.63.7.7,0,0,1,1,.19.72.72,0,0,1-.2,1,2.22,2.22,0,0,0-.69,1.53l0,.17c-.09.5-.41,7-.41,8s-.44,3.82-.48,4.17l-2,19.4c-.08.93-.78,9.14-.89,9.8a14.29,14.29,0,0,1-.62,2.09v9.67c0,3-1.1,67.77-1.11,68.42A.71.71,0,0,1,245.24,221.32Z"/><path class="cls-1" d="M257.84,221a.71.71,0,0,1-.71-.71c0-.65-.61-65.09-.61-68.09v-9.67a15.29,15.29,0,0,1-.63-2.1c-.11-.65-.81-8.86-.89-9.8l-2-19.42c0-.32-.49-3.36-.49-4.14s-.32-7.45-.4-7.94l0-.18a2.23,2.23,0,0,0-.7-1.53.72.72,0,0,1-.2-1,.71.71,0,0,1,1-.19,3.49,3.49,0,0,1,1.32,2.47c.15.8.45,7.72.45,8.37s.29,2.65.48,4l2,19.47c.31,3.66.8,9.25.87,9.71a14.86,14.86,0,0,0,.61,2,.93.93,0,0,1,0,.25v9.79c0,3,.6,67.43.61,68.08A.69.69,0,0,1,257.84,221Z"/><path class="cls-1" d="M278.49,221H257.84a.72.72,0,0,1,0-1.43h19.94c.06-5.18.38-37.86.7-68.17a.72.72,0,0,1,.72-.71.74.74,0,0,1,.72.72c-.36,33-.71,68.88-.71,68.88A.71.71,0,0,1,278.49,221Z"/><path class="cls-1" d="M280,144.27H278.6l.2-18.23c.17-16,.31-28.61.31-28.85,0-.57-1.2-20.21-3.05-33.45-1.17.34-2.55.71-4.56,1.16-1.81.4-3.53.74-5.25,1l-1.6.25-.23-1.42,1.6-.25c1.7-.27,3.38-.6,5.16-1,2.38-.53,3.87-1,5.16-1.33a.75.75,0,0,1,1,.55.43.43,0,0,1,0,.16c2,13.66,3.16,33.71,3.16,34.31,0,.24-.13,12.24-.31,28.86Z"/><path class="cls-1" d="M279.92,153.51l-1.43,0c0-.59,0-1,0-1.15a4.84,4.84,0,0,0-.44-2.64,2.5,2.5,0,0,1,0-2.49,1.47,1.47,0,0,0,.11-.31l.09-.48a12.39,12.39,0,0,0,.29-2.09c0-.09,0-.67,0-1.63l1.43,0c0,.95,0,1.52,0,1.61a14,14,0,0,1-.32,2.37,4.11,4.11,0,0,0-.08.42,3.45,3.45,0,0,1-.2.63c-.11.27-.37.91-.23,1.09a5.87,5.87,0,0,1,.73,3.5C279.94,152.48,279.94,152.9,279.92,153.51Z"/><path class="cls-1" d="M202,273.08a71.45,71.45,0,0,1-21.82-3.37l-.5-.16-.91-.25.49-.81a55.76,55.76,0,0,0,1.18-5.69c0-.06,1.13-9.59,1.32-12.07s.29-11.79.29-11.89,0-8.37-.2-12.85a26.86,26.86,0,0,0-1.35-8.11C180,216,176.2,202,176,201.43l1.38-.37c0,.15,3.91,14.58,4.45,16.28a28.14,28.14,0,0,1,1.45,8.59c.17,4.51.21,12.83.21,12.92,0,.39-.1,9.47-.3,12s-1.29,11.77-1.33,12.16c-.28,1.61-.73,4.06-1.09,5.39a71.5,71.5,0,0,0,42.68,0,36.56,36.56,0,0,1-1-5.36c-.09-1.85-1-14.95-1-15.08l-.41-10.65a82,82,0,0,1-.16-10.64,67.14,67.14,0,0,1,1.21-10.42,60.23,60.23,0,0,1,5.09-14.82l1.29.64a58.6,58.6,0,0,0-5,14.46,67.34,67.34,0,0,0-1.18,10.21,81.44,81.44,0,0,0,.16,10.48l.41,10.66c0,.52.89,13.22,1,15.09a42.23,42.23,0,0,0,1.08,5.73l.16.65-.64.21A73.25,73.25,0,0,1,202,273.08Z"/><path class="cls-1" d="M226.24,231.58,226,231c-.73-1.43-1.51-3-2.29-4.57s-1.52-3.06-2.23-4.46l1.27-.65c.72,1.41,1.48,2.94,2.25,4.48.67,1.36,1.35,2.72,2,4a42,42,0,0,0,5.38-2.33,41.43,41.43,0,0,0,4.22-2.5c-.65-1.68-2.62-6.84-3.13-8.35l-.29-.87c-.83-2.46-2.77-8.2-3.3-9.39a12.69,12.69,0,0,0-4-5.56c-1.23-.87-5.65-3-12.44-6.07l.59-1.31c4.86,2.19,11,5,12.67,6.21a13.93,13.93,0,0,1,4.38,6c.63,1.42,2.51,7,3.41,9.68l.3.87c.59,1.75,3.28,8.75,3.31,8.82l.2.53-.46.32a44.22,44.22,0,0,1-11,5.53Z"/><path class="cls-1" d="M177.56,232l-.58-.2a43.56,43.56,0,0,1-6.17-2.61,42.87,42.87,0,0,1-4.84-2.92l-.47-.32.21-.53c0-.07,2.72-7.07,3.31-8.81l.15-.46c.79-2.36,2.89-8.61,3.48-9.93l.08-.18a13.9,13.9,0,0,1,4.37-6c1.62-1.15,7.55-4.15,12.24-6.46l.64,1.28c-6.66,3.29-10.83,5.48-12,6.35a12.38,12.38,0,0,0-3.89,5.38l-.08.18c-.56,1.26-2.72,7.69-3.43,9.8l-.16.46c-.5,1.51-2.48,6.67-3.12,8.35a42.14,42.14,0,0,0,9.6,4.83c.66-1.3,1.42-2.85,2.17-4.39.87-1.77,1.74-3.55,2.47-5l1.27.65c-.72,1.42-1.59,3.19-2.45,4.95s-1.74,3.55-2.47,5Z"/><path class="cls-1" d="M168,224.49a.36.36,0,0,1-.2-.06l-.44-.28a.36.36,0,0,1-.11-.5.35.35,0,0,1,.49-.1l.45.28a.36.36,0,0,1,.11.5A.38.38,0,0,1,168,224.49Z"/><path class="cls-1" d="M176.1,228.65a.31.31,0,0,1-.13,0l-1.07-.43a.37.37,0,0,1-.19-.47.35.35,0,0,1,.47-.19l1,.43a.34.34,0,0,1,.2.46A.36.36,0,0,1,176.1,228.65Zm-2.11-.9a.22.22,0,0,1-.14,0l-1-.48a.36.36,0,0,1-.17-.48.37.37,0,0,1,.48-.17l1,.48a.36.36,0,0,1,.18.47A.35.35,0,0,1,174,227.75Zm-2.07-1a.32.32,0,0,1-.16,0c-.35-.17-.69-.35-1-.53a.36.36,0,0,1-.15-.49.37.37,0,0,1,.49-.14c.32.18.66.35,1,.53a.34.34,0,0,1,.16.47A.35.35,0,0,1,171.92,226.76Zm-2-1.09a.29.29,0,0,1-.18,0l-1-.58a.36.36,0,0,1-.12-.49.37.37,0,0,1,.49-.12l1,.57a.36.36,0,0,1-.18.67Z"/><path class="cls-1" d="M177.7,229.24h-.12l-.51-.19a.36.36,0,0,1-.21-.46.35.35,0,0,1,.46-.21l.5.18a.37.37,0,0,1,.22.46A.36.36,0,0,1,177.7,229.24Z"/><path class="cls-1" d="M168.41,223.44a.41.41,0,0,1-.19-.05l-.45-.29a.36.36,0,0,1-.11-.5.37.37,0,0,1,.5-.11l.44.29a.35.35,0,0,1,.11.49A.35.35,0,0,1,168.41,223.44Z"/><path class="cls-1" d="M176.56,227.59a.3.3,0,0,1-.13,0c-.35-.14-.7-.28-1.06-.44a.35.35,0,0,1-.2-.46.34.34,0,0,1,.47-.19l1.06.42a.35.35,0,0,1,.19.47A.34.34,0,0,1,176.56,227.59Zm-2.1-.89a.4.4,0,0,1-.15,0l-1.05-.49a.36.36,0,0,1-.17-.48.35.35,0,0,1,.48-.16l1,.47a.36.36,0,0,1-.14.69Zm-2.07-1a.29.29,0,0,1-.16,0c-.35-.17-.7-.35-1-.53a.36.36,0,1,1,.34-.63l1,.53a.34.34,0,0,1,.15.48A.34.34,0,0,1,172.39,225.71Zm-2-1.09a.31.31,0,0,1-.18-.05l-1-.58a.37.37,0,0,1-.12-.49.36.36,0,0,1,.49-.13c.32.2.65.39,1,.58a.36.36,0,0,1-.18.67Z"/><path class="cls-1" d="M178.16,228.19a.25.25,0,0,1-.12,0l-.5-.18a.36.36,0,1,1,.24-.67l.5.17a.38.38,0,0,1,.22.46A.35.35,0,0,1,178.16,228.19Z"/><path class="cls-1" d="M225.62,228.1a.35.35,0,0,1-.33-.24.36.36,0,0,1,.21-.46l.5-.18a.36.36,0,1,1,.25.67l-.5.19Z"/><path class="cls-1" d="M227.18,227.49a.36.36,0,0,1-.33-.22.37.37,0,0,1,.2-.47l1-.44a.36.36,0,0,1,.28.66l-1.06.45Zm2.11-.92a.35.35,0,0,1-.33-.2.38.38,0,0,1,.17-.48c.34-.15.68-.32,1-.49a.37.37,0,0,1,.48.16.35.35,0,0,1-.16.48c-.35.18-.7.34-1,.5A.44.44,0,0,1,229.29,226.57Zm2.05-1a.37.37,0,0,1-.32-.19.36.36,0,0,1,.15-.48l1-.55a.36.36,0,0,1,.35.63l-1,.55A.38.38,0,0,1,231.34,225.56Zm2-1.11a.36.36,0,0,1-.18-.67l1-.59a.35.35,0,0,1,.49.12.36.36,0,0,1-.12.49l-1,.6A.37.37,0,0,1,233.34,224.45Z"/><path class="cls-1" d="M235.31,223.22a.35.35,0,0,1-.2-.65l.44-.29a.35.35,0,0,1,.5.09.36.36,0,0,1-.09.5l-.45.3A.35.35,0,0,1,235.31,223.22Z"/><path class="cls-1" d="M226.14,229a.34.34,0,0,1-.33-.23.36.36,0,0,1,.21-.46l.5-.18a.35.35,0,0,1,.46.21.35.35,0,0,1-.21.46l-.5.18A.27.27,0,0,1,226.14,229Z"/><path class="cls-1" d="M227.7,228.43a.36.36,0,0,1-.33-.22.37.37,0,0,1,.2-.47l1.05-.44a.35.35,0,0,1,.47.18.36.36,0,0,1-.19.47l-1.06.45A.32.32,0,0,1,227.7,228.43Zm2.1-.92a.35.35,0,0,1-.32-.2.35.35,0,0,1,.17-.48c.34-.15.68-.32,1-.49a.36.36,0,0,1,.32.64c-.35.18-.7.34-1.05.5A.4.4,0,0,1,229.8,227.51Zm2.06-1a.36.36,0,0,1-.32-.18.37.37,0,0,1,.15-.49l1-.54a.37.37,0,0,1,.49.14.36.36,0,0,1-.14.49l-1,.54A.38.38,0,0,1,231.86,226.49Zm2-1.11a.34.34,0,0,1-.3-.17.35.35,0,0,1,.12-.49l1-.59a.35.35,0,0,1,.49.11.37.37,0,0,1-.12.5l-1,.59A.27.27,0,0,1,233.86,225.38Z"/><path class="cls-1" d="M235.83,224.16a.35.35,0,0,1-.3-.16.36.36,0,0,1,.11-.5l.43-.29a.36.36,0,0,1,.41.6l-.45.3A.46.46,0,0,1,235.83,224.16Z"/><path class="cls-1" d="M202.3,269.4A.36.36,0,0,1,202,269a.35.35,0,0,1,.35-.35h1.07a.33.33,0,0,1,.37.35.36.36,0,0,1-.35.36Zm-1.07,0h0l-1.08,0a.35.35,0,0,1-.35-.36.36.36,0,0,1,.36-.35h0l1.07,0a.36.36,0,0,1,0,.71Zm3.22,0a.35.35,0,0,1-.35-.35.35.35,0,0,1,.34-.37l1.07,0a.36.36,0,0,1,0,.72l-1.08,0Zm-5.36,0h0l-1.08-.06a.34.34,0,0,1-.33-.38.35.35,0,0,1,.35-.33h0l1.07.05a.36.36,0,0,1,.34.38A.35.35,0,0,1,199.09,269.34Zm7.51-.06a.35.35,0,0,1-.35-.34.34.34,0,0,1,.33-.37l1.07-.07c.23,0,.37.14.38.33a.35.35,0,0,1-.33.38l-1.08.07Zm-9.66-.06h0l-1.07-.09a.37.37,0,0,1-.33-.39.36.36,0,0,1,.39-.33c.35,0,.71.06,1.07.09a.37.37,0,0,1,.33.39A.36.36,0,0,1,196.94,269.22Zm11.81-.08a.36.36,0,0,1-.36-.33.37.37,0,0,1,.33-.39l1.07-.09a.38.38,0,0,1,.39.32.37.37,0,0,1-.32.39l-1.08.1ZM194.8,269h0l-1.07-.12a.37.37,0,0,1-.32-.4.39.39,0,0,1,.4-.32c.35.05.71.08,1.06.12a.36.36,0,0,1,.32.4A.36.36,0,0,1,194.8,269Zm16.08-.09a.36.36,0,0,1-.35-.32.36.36,0,0,1,.31-.4l1.07-.12a.37.37,0,0,1,.4.31.36.36,0,0,1-.31.4l-1.08.13Zm-18.22-.17h0l-1.06-.15a.35.35,0,0,1-.3-.41.34.34,0,0,1,.4-.3l1.06.15a.36.36,0,0,1-.05.71Zm20.36-.09a.37.37,0,0,1-.36-.31.35.35,0,0,1,.31-.4l1.05-.16a.34.34,0,0,1,.41.3.35.35,0,0,1-.29.41l-1.07.15Zm-22.48-.23h-.06l-1.06-.18a.36.36,0,0,1-.29-.42.35.35,0,0,1,.41-.29l1.06.18a.36.36,0,0,1,.29.42A.35.35,0,0,1,190.54,268.45Zm24.6-.09a.35.35,0,0,1-.35-.3.36.36,0,0,1,.29-.41l1-.19a.35.35,0,0,1,.42.29.36.36,0,0,1-.28.42l-1.07.19Zm-26.72-.28h-.07l-1-.22a.35.35,0,0,1-.28-.42.36.36,0,0,1,.43-.28l1,.22a.34.34,0,0,1,.28.42A.35.35,0,0,1,188.42,268.08Zm28.84-.1a.36.36,0,0,1-.07-.71l1.05-.22a.34.34,0,0,1,.42.28.35.35,0,0,1-.28.42l-1,.22Zm-30.94-.35h-.08l-1.05-.25a.36.36,0,0,1-.26-.43.35.35,0,0,1,.43-.26l1,.24a.36.36,0,0,1,.27.43A.35.35,0,0,1,186.32,267.63Zm33-.1a.36.36,0,0,1-.08-.71l1-.25a.34.34,0,0,1,.43.26.35.35,0,0,1-.26.43l-1.05.26Zm-35.12-.41h-.09l-1-.28a.36.36,0,0,1-.26-.44.37.37,0,0,1,.44-.25l1,.28a.35.35,0,0,1,.25.43A.34.34,0,0,1,184.24,267.12Zm37.2-.12a.36.36,0,0,1-.35-.26.36.36,0,0,1,.26-.44l1-.29a.36.36,0,1,1,.21.68l-1,.3Zm-39.28-.46h-.09l-1-.31a.36.36,0,0,1-.24-.45.38.38,0,0,1,.45-.24l1,.31a.37.37,0,0,1,.25.44A.35.35,0,0,1,182.16,266.54Zm41.41-.17a.37.37,0,0,1-.36-.22.32.32,0,0,1,.17-.45l.15,0a.35.35,0,0,1,.44.25.37.37,0,0,1-.26.44A.34.34,0,0,1,223.57,266.37Z"/><path class="cls-1" d="M202.18,270.51a.35.35,0,0,1-.35-.36.34.34,0,0,1,.35-.35h1.08a.36.36,0,0,1,0,.71Zm-1.07,0h0l-1.09,0a.36.36,0,0,1,0-.71h0l1.07,0a.36.36,0,0,1,0,.71Zm3.22,0a.36.36,0,1,1,0-.71l1.07,0h0a.36.36,0,0,1,0,.72l-1.08,0Zm-5.37,0h0l-1.08-.05a.36.36,0,0,1-.34-.38.37.37,0,0,1,.38-.33l1.07.05a.36.36,0,0,1,.34.37A.36.36,0,0,1,199,270.44Zm7.52-.05a.36.36,0,0,1,0-.72l1.07-.06h0a.36.36,0,0,1,0,.71l-1.07.07Zm-9.67-.07h0l-1.08-.08a.36.36,0,0,1-.32-.39c0-.2.15-.32.39-.33l1.06.09a.36.36,0,0,1,.33.39A.35.35,0,0,1,196.81,270.32Zm11.81-.08a.36.36,0,0,1,0-.71l1.06-.09a.36.36,0,0,1,.07.71c-.36,0-.71.07-1.08.09Zm-13.94-.1h0l-1.07-.12a.37.37,0,0,1-.32-.4.38.38,0,0,1,.4-.32l1.07.12a.36.36,0,0,1,0,.72Zm16.08-.1a.36.36,0,0,1,0-.71l1.06-.12a.37.37,0,0,1,.4.31.36.36,0,0,1-.31.4c-.35,0-.71.09-1.07.12Zm-18.22-.16h0l-1.06-.15a.36.36,0,0,1-.31-.41.35.35,0,0,1,.41-.3c.35.06.7.1,1.06.15a.35.35,0,0,1,.3.41A.35.35,0,0,1,192.54,269.88Zm20.35-.09a.36.36,0,0,1-.35-.31.35.35,0,0,1,.31-.4l1.05-.15a.34.34,0,0,1,.41.29.35.35,0,0,1-.3.41l-1.07.16Zm-22.47-.23h-.06l-1.06-.18a.36.36,0,0,1,.12-.71l1.06.18a.36.36,0,0,1,.29.41A.35.35,0,0,1,190.42,269.56Zm24.6-.09a.36.36,0,0,1-.35-.3.35.35,0,0,1,.29-.41l1-.19a.38.38,0,0,1,.42.29.37.37,0,0,1-.29.42l-1.06.18Zm-26.72-.28h-.07l-1-.22a.36.36,0,1,1,.14-.7l1.05.22a.36.36,0,0,1-.07.71Zm28.84-.1a.35.35,0,0,1-.35-.29.34.34,0,0,1,.28-.42l1.05-.22a.35.35,0,0,1,.42.28.35.35,0,0,1-.28.42l-1,.22Zm-30.94-.35h-.08l-1.05-.25a.36.36,0,0,1-.26-.43.34.34,0,0,1,.43-.26l1,.24a.36.36,0,0,1-.08.71Zm33-.1a.36.36,0,0,1-.08-.71l1-.25a.34.34,0,0,1,.43.26.37.37,0,0,1-.26.44l-1.05.25Zm-35.12-.41H184l-1.05-.28a.36.36,0,0,1,.19-.69l1,.28a.36.36,0,0,1-.09.7Zm37.2-.12a.36.36,0,0,1-.1-.7l1-.29a.35.35,0,1,1,.2.68l-1,.3ZM182,267.65h-.1l-1-.31a.36.36,0,0,1-.24-.45.37.37,0,0,1,.45-.24l1,.31a.36.36,0,0,1-.1.7Zm41.34-.15a.34.34,0,0,1-.34-.26.35.35,0,0,1,.25-.44l.07,0a.36.36,0,1,1,.27.66l-.15.05Z"/><path class="cls-1" d="M203.34,211.21h-3.61v-15h3.61Zm-2.9-.71h2.19V196.89h-2.19Z"/><path class="cls-1" d="M208.4,202.62l-.63-.68c-1-1-3.53-3.81-5.16-4.42l.51-1.35c1.65.63,3.78,2.74,5.5,4.58a11.07,11.07,0,0,0,4.27-6.5,39,39,0,0,1-3.67-4.83,22.71,22.71,0,0,0-15.23-.16,27.47,27.47,0,0,1-3.55,5.18,10.15,10.15,0,0,0,4.09,6.2c1.65-1.74,3.74-3.78,5.4-4.41l.5,1.35c-1.69.63-4.3,3.44-5.16,4.36l-.41.45-.62-.21a11.77,11.77,0,0,1-5.25-7.66l-.08-.36.22-.41a25.88,25.88,0,0,0,3.7-5.38l.12-.24.24-.1a23.57,23.57,0,0,1,16.77.14l.19.07.12.16a36.91,36.91,0,0,0,3.93,5.16l.26.27-.08.37a12.55,12.55,0,0,1-5.48,8.09Z"/><path class="cls-1" d="M199.85,197.39c-7.41-5.38-7-8.54-6.91-8.88l1.39.29-.69-.14.7.11s-.25,2.67,6.35,7.46Z"/><path class="cls-1" d="M203.14,197.38l-.84-1.16c6.61-4.8,6.53-7.36,6.52-7.39l1.42-.18C210.3,189,210.52,192,203.14,197.38Z"/><path class="cls-1" d="M208.9,190.91a35,35,0,0,0-14.53-.07l-.16-.69a35.69,35.69,0,0,1,14.86.06Z"/><circle class="cls-1" cx="201.54" cy="200.25" r="0.51"/><circle class="cls-1" cx="201.54" cy="206.38" r="0.51"/><path class="cls-1" d="M203.83,163.54a84.38,84.38,0,0,1-25.83-4l-.6-.19-.9-.25.48-.81a63.44,63.44,0,0,0,1.42-6.79c0-.08,1.34-11.39,1.57-14.33s.34-14,.34-14.11,0-9.93-.24-15.25a31.49,31.49,0,0,0-1.61-9.65c-.69-2.18-5.14-18.8-5.33-19.51l1.38-.37c.05.17,4.64,17.3,5.28,19.32a33.57,33.57,0,0,1,1.72,10.15c.2,5.35.24,15.22.24,15.32,0,.47-.11,11.23-.35,14.21s-1.53,14-1.59,14.42c-.27,1.6-.86,4.89-1.3,6.5a84.7,84.7,0,0,0,50.93,0,46.4,46.4,0,0,1-1.17-6.44c-.09-2.21-1.15-17.74-1.16-17.9l-.48-12.63a98.05,98.05,0,0,1-.19-12.6,80.88,80.88,0,0,1,1.43-12.34,71.44,71.44,0,0,1,6-17.55l1.29.64a69.51,69.51,0,0,0-5.92,17.19,78.39,78.39,0,0,0-1.4,12.13,95.81,95.81,0,0,0,.18,12.45l.48,12.63c0,.62,1.07,15.69,1.17,17.91a51.73,51.73,0,0,0,1.28,6.82l.17.65-.64.21A87,87,0,0,1,203.83,163.54Z"/><path class="cls-1" d="M174.74,114.74l-.58-.2a51.65,51.65,0,0,1-13-6.55l-.46-.32.2-.53c0-.08,3.23-8.39,3.93-10.45l.32-1c1.08-3.2,3.33-9.86,4-11.35l.08-.2c.77-1.73,2.19-4.94,5.15-7s17.42-9.09,18-9.39l.35-.17.33.2a20,20,0,0,0,10.11,2.9,19.5,19.5,0,0,0,10.59-2.9l.32-.19.34.15c.64.28,15.67,6.86,18.6,8.94s4.39,5.32,5.15,7l.08.19c.68,1.52,3.05,8.56,4.06,11.57l.25.74c.7,2.07,3.9,10.38,3.93,10.46l.2.53-.46.32a52.12,52.12,0,0,1-13,6.55l-.59.2-.28-.55c-.84-1.66-1.74-3.47-2.64-5.27s-1.85-3.74-2.72-5.45l1.27-.65c.88,1.72,1.81,3.59,2.74,5.46.79,1.6,1.59,3.2,2.35,4.7a49.52,49.52,0,0,0,6.52-2.82,50.69,50.69,0,0,0,5.1-3c-.73-1.89-3.13-8.17-3.75-10L241,96c-.92-2.73-3.37-10-4-11.45l-.08-.19c-.71-1.6-2-4.59-4.67-6.46s-15.73-7.65-18-8.65a21.38,21.38,0,0,1-10.77,2.91h-.27a21.31,21.31,0,0,1-10.49-2.9c-2.26,1.1-14.9,7.26-17.48,9.09a14.75,14.75,0,0,0-4.66,6.45l-.1.2c-.63,1.43-2.94,8.29-3.93,11.22l-.33,1c-.61,1.81-3,8.1-3.74,10a50.78,50.78,0,0,0,5.1,3A51.65,51.65,0,0,0,174,113c.8-1.58,1.73-3.47,2.65-5.35,1-2.09,2-4.18,2.9-5.86l1.28.65c-.86,1.67-1.87,3.75-2.89,5.84s-2.08,4.23-2.95,5.93Z"/><path class="cls-1" d="M203.25,73.58h-.42A22.36,22.36,0,0,1,192,70.48l.36-.61a21.85,21.85,0,0,0,10.53,3h.41a21.44,21.44,0,0,0,11.18-3.16l.37.62A22.22,22.22,0,0,1,203.25,73.58Z"/><path class="cls-1" d="M163.43,106.07a.36.36,0,0,1-.2-.06l-.44-.29a.35.35,0,0,1-.11-.49.36.36,0,0,1,.5-.11l.45.29a.36.36,0,0,1-.2.66Z"/><path class="cls-1" d="M173.5,111.17a.27.27,0,0,1-.13,0l-1.06-.42a.36.36,0,0,1,.27-.67l1,.42a.36.36,0,0,1,.21.47A.35.35,0,0,1,173.5,111.17Zm-2.1-.86a.25.25,0,0,1-.14,0c-.34-.14-.69-.3-1-.46a.36.36,0,0,1-.18-.48.37.37,0,0,1,.48-.17l1,.46a.36.36,0,0,1,.18.47A.36.36,0,0,1,171.4,110.31Zm-2.05-.94-.15,0-.33-.16-.7-.34a.36.36,0,0,1-.16-.49.37.37,0,0,1,.48-.16l.7.35.3.15a.34.34,0,0,1,.18.47A.36.36,0,0,1,169.35,109.37Zm-2-1a.33.33,0,0,1-.17,0l-1-.55a.36.36,0,0,1-.13-.49.34.34,0,0,1,.48-.13l1,.54a.36.36,0,0,1-.17.67Zm-2-1.1a.37.37,0,0,1-.18,0c-.34-.2-.67-.39-1-.59a.36.36,0,0,1-.12-.49.36.36,0,0,1,.49-.12c.32.19.63.39,1,.58a.36.36,0,0,1,.13.49A.38.38,0,0,1,165.36,107.25Z"/><path class="cls-1" d="M175.08,111.76l-.12,0-.5-.18a.36.36,0,0,1-.22-.46.37.37,0,0,1,.45-.22l.5.18a.36.36,0,0,1-.11.7Z"/><path class="cls-1" d="M164.15,104.84a.31.31,0,0,1-.19-.06l-.45-.29a.36.36,0,0,1-.11-.5.38.38,0,0,1,.5-.1l.45.29a.36.36,0,0,1-.2.66Z"/><path class="cls-1" d="M174.22,109.94l-.13,0-1.06-.43a.35.35,0,0,1-.2-.46.36.36,0,0,1,.47-.2q.52.23,1,.42a.36.36,0,0,1-.13.69Zm-2.09-.86-.15,0-1-.47a.34.34,0,0,1-.17-.47.36.36,0,0,1,.47-.18c.35.17.69.32,1,.46a.37.37,0,0,1,.19.47A.36.36,0,0,1,172.13,109.08Zm-2.06-.94-.15,0-.33-.16-.7-.35a.36.36,0,0,1-.16-.48.36.36,0,0,1,.48-.16l.7.35.31.15a.34.34,0,0,1,.17.47A.36.36,0,0,1,170.07,108.14Zm-2-1a.33.33,0,0,1-.17,0l-1-.54a.36.36,0,0,1-.13-.49.34.34,0,0,1,.48-.14l1,.54a.35.35,0,0,1,.14.48A.33.33,0,0,1,168.05,107.11Zm-2-1.1a.29.29,0,0,1-.18-.05c-.34-.19-.66-.39-1-.58a.36.36,0,0,1-.12-.49.35.35,0,0,1,.49-.12l1,.58a.35.35,0,0,1,.13.49A.37.37,0,0,1,166.08,106Z"/><path class="cls-1" d="M175.8,110.53l-.12,0-.51-.19a.36.36,0,0,1-.21-.46.37.37,0,0,1,.46-.21l.5.18a.37.37,0,0,1,.22.46A.37.37,0,0,1,175.8,110.53Z"/><path class="cls-1" d="M232.23,111.54a.37.37,0,0,1-.34-.23.35.35,0,0,1,.22-.46l.49-.19a.37.37,0,0,1,.46.21.35.35,0,0,1-.21.46l-.5.19Z"/><path class="cls-1" d="M233.78,111a.37.37,0,0,1-.34-.23.36.36,0,0,1,.2-.46l1-.43a.35.35,0,0,1,.47.19.37.37,0,0,1-.19.47l-1.05.43Zm2.08-.89a.36.36,0,0,1-.33-.21.36.36,0,0,1,.18-.47l1-.47a.35.35,0,0,1,.47.17.34.34,0,0,1-.17.47c-.34.17-.69.33-1,.48A.35.35,0,0,1,235.86,110.06Zm2-1a.36.36,0,0,1-.32-.19.37.37,0,0,1,.16-.49l.7-.35a2.64,2.64,0,0,0,.29-.15.36.36,0,1,1,.35.63l-.32.17-.7.35A.45.45,0,0,1,237.9,109.09Zm2-1a.36.36,0,0,1-.18-.68c.34-.18.66-.36,1-.55a.35.35,0,0,1,.49.14.35.35,0,0,1-.13.48c-.32.19-.65.38-1,.56A.37.37,0,0,1,239.91,108.05Zm2-1.13a.37.37,0,0,1-.31-.17.35.35,0,0,1,.13-.49l.95-.59a.35.35,0,0,1,.49.11.35.35,0,0,1-.11.49c-.31.21-.64.4-1,.6A.31.31,0,0,1,241.87,106.92Z"/><path class="cls-1" d="M243.8,105.71a.38.38,0,0,1-.3-.16.36.36,0,0,1,.11-.5l.43-.29a.36.36,0,1,1,.41.59l-.45.3A.36.36,0,0,1,243.8,105.71Z"/><path class="cls-1" d="M231.75,110.19a.35.35,0,0,1-.12-.69l.49-.18a.36.36,0,1,1,.26.67l-.51.18A.25.25,0,0,1,231.75,110.19Z"/><path class="cls-1" d="M233.3,109.6a.36.36,0,0,1-.34-.22.37.37,0,0,1,.2-.47l1-.43a.37.37,0,0,1,.47.19.37.37,0,0,1-.19.47c-.35.15-.7.3-1,.43Zm2.08-.88a.36.36,0,0,1-.33-.21.37.37,0,0,1,.18-.48c.34-.14.68-.3,1-.46a.34.34,0,0,1,.47.17.35.35,0,0,1-.16.47l-1,.48A.32.32,0,0,1,235.38,108.72Zm2.05-1a.38.38,0,0,1-.33-.2.37.37,0,0,1,.17-.48l.68-.35.32-.15a.34.34,0,0,1,.48.14.36.36,0,0,1-.15.49l-.32.16-.69.35A.34.34,0,0,1,237.43,107.75Zm2-1a.36.36,0,0,1-.32-.18.37.37,0,0,1,.15-.49l1-.55a.35.35,0,0,1,.49.13.36.36,0,0,1-.13.49l-1,.56A.33.33,0,0,1,239.43,106.7Zm2-1.12a.36.36,0,0,1-.18-.67l.95-.58a.36.36,0,1,1,.38.6l-1,.6A.41.41,0,0,1,241.39,105.58Z"/><path class="cls-1" d="M243.33,104.36a.36.36,0,0,1-.2-.66l.44-.29a.36.36,0,1,1,.4.6l-.45.29A.35.35,0,0,1,243.33,104.36Z"/><path class="cls-1" d="M204,160.41a.36.36,0,0,1,0-.71H205a.36.36,0,1,1,0,.71Zm-1.08,0H201.8a.34.34,0,0,1-.35-.36c0-.2.2-.39.36-.35h1.07a.35.35,0,0,1,.35.36A.34.34,0,0,1,202.88,160.41Zm3.22,0a.36.36,0,0,1,0-.71l1.07,0h0a.35.35,0,0,1,.35.34.36.36,0,0,1-.34.37l-1.08,0Zm-5.37,0h0l-1.07,0a.37.37,0,0,1-.35-.38.36.36,0,0,1,.36-.34h0l1.07,0a.35.35,0,0,1,.35.37A.35.35,0,0,1,200.73,160.37Zm7.52-.08a.36.36,0,0,1-.36-.34.35.35,0,0,1,.34-.37l1.07-.06h0a.35.35,0,0,1,.36.33.36.36,0,0,1-.34.38l-1.07.06Zm-9.67,0h0l-1.07-.06a.36.36,0,0,1-.33-.38.33.33,0,0,1,.38-.34l1.06.07a.36.36,0,0,1,.34.38A.35.35,0,0,1,198.58,160.28Zm11.81-.11a.36.36,0,0,1,0-.72l1.06-.08a.37.37,0,0,1,.39.33.35.35,0,0,1-.32.38l-1.08.09Zm-13.95,0h0l-1.08-.1a.35.35,0,0,1-.32-.39.38.38,0,0,1,.39-.32l1.06.1a.36.36,0,0,1,0,.71Zm16.09-.14a.34.34,0,0,1-.35-.32.36.36,0,0,1,.32-.39l1.07-.11c.19,0,.37.12.39.32a.35.35,0,0,1-.32.39l-1.07.11Zm-18.23-.06h0l-1.07-.13a.36.36,0,0,1-.31-.39.36.36,0,0,1,.4-.32l1.06.12a.36.36,0,0,1,0,.72Zm20.38-.16a.36.36,0,0,1,0-.72l1.06-.13a.38.38,0,0,1,.4.31.36.36,0,0,1-.31.41l-1.07.13Zm-22.51-.1h0l-1.07-.15a.36.36,0,0,1,.11-.71l1.06.15a.35.35,0,0,1,.3.41A.35.35,0,0,1,192.17,159.67Zm24.64-.17a.37.37,0,0,1-.36-.31.35.35,0,0,1,.31-.4l1.06-.16a.33.33,0,0,1,.4.3.35.35,0,0,1-.3.41l-1.06.15ZM190,159.35H190l-1.06-.18a.36.36,0,0,1-.29-.41.38.38,0,0,1,.41-.3l1.06.18a.36.36,0,0,1,.3.42A.36.36,0,0,1,190,159.35Zm28.89-.18a.35.35,0,0,1-.35-.3.35.35,0,0,1,.29-.41l1.06-.18a.35.35,0,0,1,.41.29.36.36,0,0,1-.29.42l-1.06.18Zm-31-.18h-.06c-.36-.06-.72-.14-1.06-.21a.34.34,0,0,1-.28-.42.36.36,0,0,1,.42-.28l1.05.21a.36.36,0,0,1-.07.71Zm33.12-.2a.35.35,0,0,1-.07-.7l1.05-.21a.33.33,0,0,1,.42.28.35.35,0,0,1-.28.42l-1,.21Zm-35.23-.23h-.07l-1.05-.24a.35.35,0,0,1-.28-.42.35.35,0,0,1,.43-.27l1.05.23a.35.35,0,0,1,.27.42A.35.35,0,0,1,185.82,158.56Zm37.33-.2a.35.35,0,0,1-.35-.28.36.36,0,0,1,.27-.43l1.05-.23a.37.37,0,0,1,.43.26.36.36,0,0,1-.27.43c-.35.09-.7.17-1.06.24Zm-39.42-.28h-.09l-1-.27a.35.35,0,0,1-.26-.43.36.36,0,0,1,.43-.26l1,.26a.35.35,0,0,1-.08.7Zm41.51-.22a.36.36,0,0,1-.35-.27.36.36,0,0,1,.26-.43l1-.28a.39.39,0,0,1,.44.26.36.36,0,0,1-.25.44l-1,.27Zm-43.6-.3-.09,0-1-.28a.36.36,0,0,1,.19-.69l1,.28a.37.37,0,0,1,.25.45A.38.38,0,0,1,181.64,157.56Zm45.67-.26a.36.36,0,0,1-.1-.7l1-.3a.36.36,0,1,1,.21.68l-1,.31ZM179.58,157l-.1,0-1-.31a.35.35,0,0,1-.23-.45.37.37,0,0,1,.45-.23l1,.31a.34.34,0,0,1,.25.44A.35.35,0,0,1,179.58,157Z"/><path class="cls-1" d="M204,159.22a.36.36,0,0,1-.36-.35.35.35,0,0,1,.35-.36l1.07,0h0a.36.36,0,0,1,0,.72Zm-1.08,0h-1.08a.37.37,0,0,1-.35-.37.33.33,0,0,1,.36-.35l1.07,0a.36.36,0,1,1,0,.71Zm3.23,0a.36.36,0,0,1,0-.71l1.07,0h0a.36.36,0,0,1,0,.72l-1.07,0Zm-5.38,0h0l-1.08,0a.35.35,0,0,1-.34-.37.36.36,0,0,1,.36-.34h0l1.07,0a.36.36,0,1,1,0,.71Zm7.52-.07a.36.36,0,0,1-.36-.34.37.37,0,0,1,.34-.38c.36,0,.71,0,1.07-.06h0a.36.36,0,0,1,0,.72l-1.07.06Zm-9.67,0h0l-1.08-.07a.34.34,0,0,1-.33-.38.4.4,0,0,1,.38-.33l1.06.07a.34.34,0,0,1,.34.37A.36.36,0,0,1,198.63,159.08Zm11.82-.1a.36.36,0,0,1-.36-.34.37.37,0,0,1,.33-.38l1.06-.08a.36.36,0,1,1,.07.71l-1.08.09Zm-14,0h0l-1.07-.09a.37.37,0,0,1-.32-.4.37.37,0,0,1,.39-.32l1.06.1a.36.36,0,0,1,.33.38A.35.35,0,0,1,196.49,158.93Zm16.1-.13a.36.36,0,0,1,0-.71l1.07-.11a.36.36,0,0,1,.39.32.36.36,0,0,1-.32.39l-1.07.11Zm-18.24-.07h0l-1.07-.13a.36.36,0,0,1-.31-.39.36.36,0,0,1,.4-.32l1.06.12a.36.36,0,0,1,.32.4A.37.37,0,0,1,194.35,158.73Zm20.37-.15a.36.36,0,0,1-.35-.32.37.37,0,0,1,.31-.4l1.06-.13a.42.42,0,0,1,.41.31.38.38,0,0,1-.31.41l-1.07.13Zm-22.5-.11h-.05c-.36,0-.71-.09-1.06-.15a.35.35,0,0,1,.1-.7l1.06.15a.35.35,0,0,1,.31.4A.37.37,0,0,1,192.22,158.47Zm24.64-.17a.37.37,0,0,1-.36-.31.36.36,0,0,1,.31-.4l1.06-.15a.33.33,0,0,1,.4.3.35.35,0,0,1-.3.4l-1.06.16Zm-26.76-.14H190L189,158a.35.35,0,0,1-.3-.41.37.37,0,0,1,.42-.29l1.06.18a.35.35,0,0,1,.29.41A.36.36,0,0,1,190.1,158.16ZM219,158a.35.35,0,0,1-.06-.7l1.06-.19a.36.36,0,0,1,.42.29.37.37,0,0,1-.29.42L219,158Zm-31-.18h-.07l-1.06-.21a.36.36,0,0,1-.28-.42.34.34,0,0,1,.42-.28l1.06.21a.35.35,0,0,1,.28.42A.35.35,0,0,1,188,157.79Zm33.11-.19a.34.34,0,0,1-.34-.29.35.35,0,0,1,.27-.42l1.06-.21a.36.36,0,0,1,.42.28.34.34,0,0,1-.28.42l-1.06.21Zm-35.22-.23h-.08l-1-.23a.36.36,0,0,1-.28-.43.36.36,0,0,1,.43-.27l1,.23a.36.36,0,0,1,.27.43A.36.36,0,0,1,185.87,157.37Zm37.33-.21a.36.36,0,0,1-.35-.28.35.35,0,0,1,.27-.42l1-.24a.36.36,0,0,1,.43.27.37.37,0,0,1-.27.43l-1.05.24Zm-39.43-.27h-.08l-1.05-.26a.35.35,0,0,1-.25-.43.35.35,0,0,1,.43-.26l1,.25a.36.36,0,0,1-.09.71Zm41.52-.22a.36.36,0,0,1-.09-.7c.35-.09.7-.18,1-.28a.38.38,0,0,1,.44.26.36.36,0,0,1-.25.44l-1,.27Zm-43.6-.31h-.1l-1-.28a.37.37,0,0,1-.25-.45.38.38,0,0,1,.44-.25l1,.29a.36.36,0,0,1-.1.7Zm45.68-.25a.36.36,0,0,1-.1-.7l1-.31a.35.35,0,0,1,.45.23.37.37,0,0,1-.23.46l-1,.3Zm-47.74-.33-.1,0-1-.31a.37.37,0,0,1-.24-.45.39.39,0,0,1,.46-.24l1,.32a.35.35,0,0,1,.25.44A.36.36,0,0,1,179.63,155.78Z"/><path class="cls-1" d="M203.5,80.45h-.07c-6,0-11.93-4.54-12.74-9.64a7.07,7.07,0,0,1-.08-1.6l.71.05a7.68,7.68,0,0,0,.07,1.44c.76,4.78,6.39,9,12,9h.07c5.6,0,11.33-4.21,12.06-8.87a6.75,6.75,0,0,0,.05-1.62l.71-.07a7.22,7.22,0,0,1,0,1.8C215.48,76,209.53,80.45,203.5,80.45Z"/><path class="cls-1" d="M203.53,79.15c-6.11,0-10.6-4.78-11.41-7.53a6.83,6.83,0,0,1-.26-1.76,5.24,5.24,0,0,1,.17-1.43l.7.18a4.8,4.8,0,0,0-.16,1.25,6.48,6.48,0,0,0,.24,1.56c.73,2.48,5.05,7,10.72,7h.27a11.72,11.72,0,0,0,9.93-6.16,6,6,0,0,0,.66-2.67,3.44,3.44,0,0,0-.12-.91l.69-.18a3.86,3.86,0,0,1,.14,1.06,6.62,6.62,0,0,1-.73,3,12.48,12.48,0,0,1-10.55,6.55Z"/></g></g></svg>