<svg id="Layer_1" data-name="Layer 1" xmlns="http://www.w3.org/2000/svg" viewBox="0 0 137.89 132.9"><defs><style>.cls-1{fill:#3e362e;}.cls-2{fill:#3e372f;}.cls-3{fill:#aca69d;}</style></defs><path class="cls-1" d="M49.45,109.62a.7.7,0,0,1-.52-.22.71.71,0,0,1,0-.92c6.82-8.72,8.92-16.47,9.4-18.62A44.67,44.67,0,0,1,28.44,54a44.39,44.39,0,1,1,87.91-12.46,48.13,48.13,0,0,1-.13,13.35,38.84,38.84,0,0,1-2,7c-.16.43-.43,1-.67,1.55l-.25.55L112,63.42l.25-.57c.22-.49.48-1.06.64-1.47a38,38,0,0,0,1.9-6.75A47.81,47.81,0,0,0,115,41.72,43,43,0,0,0,29.84,53.78a43.25,43.25,0,0,0,29.5,34.93.7.7,0,0,1,.48.78c0,.34-1.23,7.37-7.2,16.27,4.56-3.42,12.19-9.65,14.87-14.85a.7.7,0,0,1,.7-.38,40.85,40.85,0,0,0,5.07.19,49.58,49.58,0,0,0,7.14-.67l.26,1.39a51.28,51.28,0,0,1-7.37.7A42.16,42.16,0,0,1,68.52,92c-4.34,7.79-18.08,17.11-18.67,17.51A.72.72,0,0,1,49.45,109.62Z"/><path class="cls-1" d="M36.44,129.53a.7.7,0,0,1-.31-.07c-.23-.12-5.54-2.71-7.74-5.36a16.89,16.89,0,1,1,13.35-16.52,17,17,0,0,1-9,14.92,18.15,18.15,0,0,0,4.16,5.81.71.71,0,0,1,.09.92A.7.7,0,0,1,36.44,129.53Zm-7.76-6.93a.73.73,0,0,1,.58.3,15.24,15.24,0,0,0,4,3.33,14.85,14.85,0,0,1-2.07-3.86.72.72,0,0,1,.37-.85,15.42,15.42,0,1,0-3.06,1.1Z"/><path class="cls-1" d="M24,113.27a1.34,1.34,0,0,1,0-1.87,1.28,1.28,0,0,1,.94-.39,1.29,1.29,0,0,1,.94.38,1.27,1.27,0,0,1,.38,1,1.23,1.23,0,0,1-.39.93,1.34,1.34,0,0,1-1.87,0Zm-.3-10h2.47v6.57H23.67Z"/><path class="cls-2" d="M72.7,67.17h-.34a.09.09,0,0,0-.07-.06.09.09,0,0,0-.09.08.09.09,0,0,0,.09.09.09.09,0,0,0,.07-.06h.34s0,0,0,0Z"/><path class="cls-2" d="M72.29,67.37a.18.18,0,0,1-.18-.18.18.18,0,0,1,.18-.17.21.21,0,0,1,.13,0h.28a.12.12,0,0,1,.12.12.12.12,0,0,1-.12.13h-.28A.21.21,0,0,1,72.29,67.37Zm.41-.11Z"/><circle class="cls-2" cx="72.29" cy="67.19" r="0.22"/><path class="cls-2" d="M72.29,67.51a.32.32,0,1,1,0-.63.32.32,0,0,1,0,.63Zm0-.44a.13.13,0,0,0-.13.12.13.13,0,0,0,.13.13.13.13,0,0,0,.12-.13A.13.13,0,0,0,72.29,67.07Z"/><path class="cls-2" d="M72.7,67.79h-.34a.09.09,0,0,0-.07-.06.09.09,0,0,0-.09.08.09.09,0,0,0,.09.09.09.09,0,0,0,.07-.06h.34s0,0,0,0A0,0,0,0,0,72.7,67.79Z"/><path class="cls-2" d="M72.29,68a.18.18,0,0,1-.18-.18.18.18,0,0,1,.18-.17.21.21,0,0,1,.13,0h.28a.12.12,0,0,1,.12.12.12.12,0,0,1-.12.13h-.28A.21.21,0,0,1,72.29,68Zm.41-.11Z"/><circle class="cls-2" cx="72.29" cy="67.81" r="0.22"/><path class="cls-2" d="M72.29,68.13a.32.32,0,1,1,0-.63.32.32,0,0,1,0,.63Zm0-.44a.13.13,0,0,0-.13.12.13.13,0,0,0,.13.13.13.13,0,0,0,.12-.13A.13.13,0,0,0,72.29,67.69Z"/><path class="cls-2" d="M72.7,68.41h-.34a.09.09,0,0,0-.07-.06.09.09,0,0,0-.09.08.09.09,0,0,0,.09.09.09.09,0,0,0,.07-.06h.34s0,0,0,0A0,0,0,0,0,72.7,68.41Z"/><path class="cls-2" d="M72.29,68.61a.18.18,0,0,1-.18-.18.18.18,0,0,1,.18-.17.21.21,0,0,1,.13,0h.28a.12.12,0,0,1,.12.12.12.12,0,0,1-.12.13h-.28A.21.21,0,0,1,72.29,68.61Zm.41-.11Z"/><circle class="cls-2" cx="72.29" cy="68.43" r="0.22"/><path class="cls-2" d="M72.29,68.75a.32.32,0,1,1,0-.63.32.32,0,0,1,0,.63Zm0-.44a.13.13,0,0,0-.13.12.13.13,0,0,0,.13.13.13.13,0,0,0,.12-.13A.13.13,0,0,0,72.29,68.31Z"/><path class="cls-2" d="M72.7,69h-.34a.09.09,0,0,0-.07-.06.09.09,0,0,0-.09.08.09.09,0,0,0,.09.09.09.09,0,0,0,.07-.06h.34s0,0,0,0Z"/><path class="cls-2" d="M72.29,69.23a.18.18,0,0,1-.18-.18.18.18,0,0,1,.18-.17.21.21,0,0,1,.13.05h.28a.12.12,0,0,1,.12.12.12.12,0,0,1-.12.13h-.28A.21.21,0,0,1,72.29,69.23Zm.41-.11Z"/><circle class="cls-2" cx="72.29" cy="69.05" r="0.22"/><path class="cls-2" d="M72.29,69.37a.32.32,0,1,1,0-.63.32.32,0,0,1,0,.63Zm0-.44a.13.13,0,0,0-.13.12.13.13,0,0,0,.13.13.13.13,0,0,0,.12-.13A.13.13,0,0,0,72.29,68.93Z"/><path class="cls-2" d="M52.37,67.17h.34a.09.09,0,0,1,.07-.06.09.09,0,0,1,.09.08.09.09,0,0,1-.09.09.09.09,0,0,1-.07-.06h-.34s0,0,0,0A0,0,0,0,1,52.37,67.17Z"/><path class="cls-2" d="M52.78,67.37a.21.21,0,0,1-.13-.05h-.28a.13.13,0,0,1-.12-.13.13.13,0,0,1,.12-.12h.28a.21.21,0,0,1,.13,0,.18.18,0,0,1,.18.17A.18.18,0,0,1,52.78,67.37Z"/><circle class="cls-2" cx="52.78" cy="67.19" r="0.22"/><path class="cls-2" d="M52.78,67.51a.32.32,0,1,1,.32-.32A.31.31,0,0,1,52.78,67.51Zm0-.44a.13.13,0,0,0-.12.12.13.13,0,0,0,.12.13.13.13,0,0,0,.13-.13A.13.13,0,0,0,52.78,67.07Z"/><path class="cls-2" d="M52.37,67.79h.34a.09.09,0,0,1,.07-.06.09.09,0,0,1,.09.08.09.09,0,0,1-.09.09.09.09,0,0,1-.07-.06h-.34s0,0,0,0A0,0,0,0,1,52.37,67.79Z"/><path class="cls-2" d="M52.78,68a.21.21,0,0,1-.13,0h-.28a.13.13,0,0,1-.12-.13.13.13,0,0,1,.12-.12h.28a.21.21,0,0,1,.13,0,.18.18,0,0,1,.18.17A.18.18,0,0,1,52.78,68Z"/><circle class="cls-2" cx="52.78" cy="67.81" r="0.22"/><path class="cls-2" d="M52.78,68.13a.32.32,0,1,1,.32-.32A.31.31,0,0,1,52.78,68.13Zm0-.44a.13.13,0,0,0-.12.12.13.13,0,0,0,.12.13.13.13,0,0,0,.13-.13A.13.13,0,0,0,52.78,67.69Z"/><path class="cls-2" d="M52.37,68.41h.34a.09.09,0,0,1,.07-.06.09.09,0,0,1,.09.08.09.09,0,0,1-.09.09.09.09,0,0,1-.07-.06h-.34s0,0,0,0A0,0,0,0,1,52.37,68.41Z"/><path class="cls-2" d="M52.78,68.61a.21.21,0,0,1-.13,0h-.28a.13.13,0,0,1-.12-.13.13.13,0,0,1,.12-.12h.28a.21.21,0,0,1,.13,0,.18.18,0,0,1,.18.17A.18.18,0,0,1,52.78,68.61Z"/><circle class="cls-2" cx="52.78" cy="68.43" r="0.22"/><path class="cls-2" d="M52.78,68.75a.32.32,0,1,1,.32-.32A.31.31,0,0,1,52.78,68.75Zm0-.44a.13.13,0,0,0-.12.12.13.13,0,0,0,.12.13.13.13,0,0,0,.13-.13A.13.13,0,0,0,52.78,68.31Z"/><path class="cls-2" d="M52.37,69h.34a.09.09,0,0,1,.07-.06.09.09,0,0,1,.09.08.09.09,0,0,1-.09.09.09.09,0,0,1-.07-.06h-.34s0,0,0,0Z"/><path class="cls-2" d="M52.78,69.23a.21.21,0,0,1-.13,0h-.28a.13.13,0,0,1-.12-.13.13.13,0,0,1,.12-.12h.28a.21.21,0,0,1,.13-.05.18.18,0,0,1,.18.17A.18.18,0,0,1,52.78,69.23Z"/><circle class="cls-2" cx="52.78" cy="69.05" r="0.22"/><path class="cls-2" d="M52.78,69.37a.32.32,0,1,1,.32-.32A.31.31,0,0,1,52.78,69.37Zm0-.44a.13.13,0,0,0-.12.12.13.13,0,0,0,.12.13.13.13,0,0,0,.13-.13A.13.13,0,0,0,52.78,68.93Z"/><path class="cls-3" d="M65,41.62a4.16,4.16,0,0,0-5,0c-.83.83-.71,1.18-.71,1.18l.35.24a2.09,2.09,0,0,1,.83-.47,8.54,8.54,0,0,1,4,0,2,2,0,0,1,.82.47l.36-.24S65.84,42.45,65,41.62Z"/><path class="cls-2" d="M65.36,43.23a.19.19,0,0,1-.13,0,1.9,1.9,0,0,0-.74-.43,8.51,8.51,0,0,0-3.93,0,1.74,1.74,0,0,0-.73.43.21.21,0,0,1-.25,0L59.23,43a.21.21,0,0,1-.08-.1c0-.1-.09-.53.76-1.37a3.57,3.57,0,0,1,2.62-.89,3.53,3.53,0,0,1,2.61.89c.85.84.79,1.27.76,1.37a.14.14,0,0,1-.08.1l-.35.24A.2.2,0,0,1,65.36,43.23Zm-2.83-1.09a10,10,0,0,1,2,.24,2.11,2.11,0,0,1,.8.42l.15-.1a2.11,2.11,0,0,0-.66-.94,4,4,0,0,0-4.69,0,2,2,0,0,0-.65.94l.14.1a2.19,2.19,0,0,1,.8-.42A10.05,10.05,0,0,1,62.53,42.14Z"/><path class="cls-2" d="M53.3,70.41A3,3,0,0,1,52,70.15a.18.18,0,0,1-.11-.13c-.37-2,0-13.43.24-16.95a62.18,62.18,0,0,1,1.3-8.54.22.22,0,0,1,.09-.12.23.23,0,0,1,.16,0c.18,0,.39.07,1.29,1.63,1.3,2.15,1,7.44,1,7.67L55,69.76a.19.19,0,0,1-.09.15A4,4,0,0,1,53.3,70.41Zm-1-.56a2.92,2.92,0,0,0,1,.18,3.55,3.55,0,0,0,1.36-.4l.93-16s.33-5.39-.91-7.45a7.85,7.85,0,0,0-.89-1.34,59,59,0,0,0-1.24,8.23C52.31,57,52,67.75,52.29,69.85Z"/><path class="cls-3" d="M55.82,55.11l0-1.43s.35-5.43-.94-7.56c-.94-1.63-1.08-1.5-1.18-1.53l6.27-2.21c-.8.55,3.18,15.33,3.18,15.79v5.56c0,2.12-.49,8.56-3.92,8.45a5.77,5.77,0,0,1-4.83-3s.64-4,1.58-9.89A19.83,19.83,0,0,0,55.82,55.11Z"/><path class="cls-2" d="M59.27,72.37h-.1a6,6,0,0,1-5-3.09.14.14,0,0,1,0-.11s.64-4,1.58-9.89a16.11,16.11,0,0,0-.07-3.65l0-.5h0l-.05-1.43c0-.07.33-5.41-.91-7.47-.71-1.22-.94-1.43-1-1.44h-.06a.19.19,0,0,1-.13-.18.21.21,0,0,1,.12-.19l6.28-2.2a.18.18,0,0,1,.23.09.18.18,0,0,1-.06.24c-.4.65,1.71,9.2,2.61,12.85.49,2,.65,2.66.65,2.79v5.56c0,.59-.06,5.84-2.15,7.86A2.61,2.61,0,0,1,59.27,72.37Zm-4.72-3.21A5.61,5.61,0,0,0,59.19,72a2.27,2.27,0,0,0,1.69-.67c1.6-1.55,2-5.5,2-7.58V58.17c0-.13-.3-1.32-.64-2.7-2-7.93-2.72-11.58-2.62-12.79l-5.57,2A8.47,8.47,0,0,1,55,46c1.3,2.15,1,7.44,1,7.67l0,1.4,0,.5a16.88,16.88,0,0,1,.07,3.74C55.25,64.85,54.63,68.64,54.55,69.16Z"/><path class="cls-3" d="M57.91,44.46l.63.73,1.52-.69c-.19-1.33-.17-2.58.41-3.2A9.26,9.26,0,0,0,57.91,44.46Z"/><path class="cls-2" d="M58.54,45.38a.2.2,0,0,1-.15-.06l-.62-.74a.18.18,0,0,1,0-.2c.56-1.27,2.4-3.36,2.77-3.28a.22.22,0,0,1,.15.22.22.22,0,0,1,0,.11c-.46.49-.58,1.52-.36,3a.22.22,0,0,1-.11.21l-1.52.69Zm-.4-1,.45.53,1.26-.57a6.37,6.37,0,0,1,0-2.34A10.16,10.16,0,0,0,58.14,44.43Z"/><path class="cls-3" d="M63.11,58.83c-.2-1.1-3.49-8.38-5.55-13.19l1.13-.51,1.37-.63c.57,3.34,1.75,8.35,3,13.67Z"/><path class="cls-2" d="M63.11,59a.19.19,0,0,1-.19-.16c-.13-.76-1.88-4.76-3.57-8.62-.69-1.58-1.38-3.15-2-4.52a.19.19,0,0,1,.1-.25L60,44.33a.17.17,0,0,1,.17,0,.21.21,0,0,1,.1.14c.58,3.4,1.81,8.57,3,13.65v.71a.19.19,0,0,1-.17.19Zm-5.3-13.28c.57,1.33,1.23,2.84,1.89,4.34,1.12,2.58,2.21,5.06,2.89,6.74-1.09-4.48-2.13-8.94-2.68-12Z"/><path class="cls-2" d="M71.74,70.41a3.94,3.94,0,0,1-1.63-.5.19.19,0,0,1-.09-.15l-1-16.07c0-.23-.34-5.52,1-7.68.9-1.55,1.11-1.59,1.29-1.61a.16.16,0,0,1,.15,0,.18.18,0,0,1,.09.12,59.79,59.79,0,0,1,1.31,8.54c.22,3.52.61,14.95.23,16.95a.17.17,0,0,1-.1.13A3,3,0,0,1,71.74,70.41Zm-1.35-.78a3.49,3.49,0,0,0,1.35.4,2.87,2.87,0,0,0,1-.18c.32-2.11,0-12.87-.25-16.75a59,59,0,0,0-1.24-8.23,7.24,7.24,0,0,0-.89,1.34c-1.25,2.06-.92,7.4-.92,7.45Z"/><path class="cls-3" d="M69.22,55.11l0-1.43s-.35-5.43.95-7.56c.94-1.63,1.07-1.5,1.18-1.53l-6.28-2.21c.8.55-3.17,15.33-3.17,15.79v5.56c0,2.12.49,8.56,3.92,8.45a5.79,5.79,0,0,0,4.83-3s-.64-4-1.59-9.89A19.84,19.84,0,0,1,69.22,55.11Z"/><path class="cls-2" d="M65.77,72.37a2.59,2.59,0,0,1-1.87-.78c-2.09-2-2.16-7.27-2.16-7.86V58.17c0-.13.16-.79.66-2.79.9-3.65,3-12.2,2.59-12.86a.19.19,0,0,1-.06-.24.22.22,0,0,1,.25-.08l6.27,2.2a.21.21,0,0,1,.13.19.19.19,0,0,1-.13.18h-.06c-.08,0-.32.22-1,1.44-1.25,2.06-.92,7.4-.92,7.45l0,1.45h0l0,.5a16.15,16.15,0,0,0-.08,3.65c.95,5.94,1.59,9.89,1.59,9.89a.2.2,0,0,1,0,.11,6,6,0,0,1-5,3.09Zm-.38-29.69c.1,1.21-.66,4.86-2.62,12.79-.34,1.38-.63,2.57-.64,2.71v5.55c0,2.08.43,6,2,7.58a2.23,2.23,0,0,0,1.69.67,5.61,5.61,0,0,0,4.64-2.82c-.09-.52-.7-4.31-1.57-9.82A16.27,16.27,0,0,1,69,55.6l0-.5,0-1.42c0-.21-.34-5.5,1-7.66A8,8,0,0,1,71,44.64Zm3.83,12.43Z"/><path class="cls-2" d="M57.33,63.36a5.83,5.83,0,0,1-2-.61l-.14-.06.39-1.86,2.88.88v.15s-.08,1.17-.78,1.45A1.16,1.16,0,0,1,57.33,63.36Zm-1.7-.89a3.7,3.7,0,0,0,1.9.48c.33-.13.47-.65.52-1l-2.18-.67Z"/><path class="cls-3" d="M67.13,44.46l-.62.73L65,44.5c.19-1.33.17-2.58-.41-3.2A9.16,9.16,0,0,1,67.13,44.46Z"/><path class="cls-2" d="M66.51,45.38h-.08l-1.52-.69a.2.2,0,0,1-.11-.21c.22-1.52.1-2.55-.36-3a.16.16,0,0,1,0-.11.22.22,0,0,1,.15-.22c.36-.09,2.21,2,2.77,3.28a.18.18,0,0,1,0,.2l-.63.74A.18.18,0,0,1,66.51,45.38Zm-1.31-1,1.26.57.45-.53a9.91,9.91,0,0,0-1.75-2.38A6.34,6.34,0,0,1,65.2,44.39Z"/><path class="cls-2" d="M67.71,63.36a1.11,1.11,0,0,1-.34,0c-.71-.29-.72-1.43-.72-1.48a.18.18,0,0,1,.14-.18l2.53-.78a.18.18,0,0,1,.16,0,.2.2,0,0,1,.09.13l.24,1.53a.18.18,0,0,1-.1.2A6,6,0,0,1,67.71,63.36ZM67,62c0,.31.14.85.47,1a3.72,3.72,0,0,0,1.9-.48l-.18-1.17Z"/><path class="cls-2" d="M63.37,58.9h-.56a.14.14,0,1,0,0,.08h.56a0,0,0,1,0,0-.08Z"/><path class="cls-2" d="M62.68,59.27a.33.33,0,1,1,0-.66.29.29,0,0,1,.23.1h.46a.23.23,0,0,1,.24.23.24.24,0,0,1-.24.24h-.46A.32.32,0,0,1,62.68,59.27Zm.69-.18h0Z"/><path class="cls-2" d="M63.37,62.39h-.56a.14.14,0,0,0-.13-.09.14.14,0,1,0,.13.18h.56a0,0,0,0,0,.05,0A0,0,0,0,0,63.37,62.39Z"/><path class="cls-2" d="M62.68,62.77a.34.34,0,0,1-.34-.33.33.33,0,0,1,.34-.33.32.32,0,0,1,.23.09h.46a.24.24,0,0,1,.24.24.23.23,0,0,1-.24.23h-.46A.33.33,0,0,1,62.68,62.77Zm.69-.18h0Z"/><circle class="cls-2" cx="62.68" cy="58.94" r="0.37"/><path class="cls-2" d="M62.68,59.4a.46.46,0,0,1-.47-.46.47.47,0,0,1,.93,0A.46.46,0,0,1,62.68,59.4Zm0-.73a.27.27,0,1,0,.27.27A.27.27,0,0,0,62.68,58.67Z"/><path class="cls-2" d="M65.48,50.81a.19.19,0,0,1-.19-.19v-.95a.19.19,0,0,1,.19-.19,12.6,12.6,0,0,0,3.07-.33.23.23,0,0,1,.15-.1.19.19,0,0,1,.2.17,0,0,0,0,1,0,0h0v.86a.21.21,0,0,1,0,.13C68.44,50.7,66.22,50.81,65.48,50.81Zm.19-1v.57A8.2,8.2,0,0,0,68.52,50v-.46A13.59,13.59,0,0,1,65.67,49.86Zm3,.24Z"/><path class="cls-3" d="M61.94,58.83c.19-1.1,3.49-8.38,5.55-13.19l-1.13-.51L65,44.5c-.57,3.34-1.76,8.35-3,13.67Z"/><path class="cls-2" d="M61.94,59h0a.19.19,0,0,1-.18-.19v-.67C63,53,64.22,47.86,64.8,44.47a.21.21,0,0,1,.1-.14.17.17,0,0,1,.17,0l2.5,1.14a.2.2,0,0,1,.1.25c-.59,1.37-1.28,2.94-2,4.52C64,54.1,62.26,58.1,62.12,58.86A.18.18,0,0,1,61.94,59Zm.19-.19Zm3-14c-.55,3.08-1.58,7.52-2.67,12,.68-1.68,1.76-4.15,2.88-6.72.66-1.5,1.32-3,1.89-4.34Z"/><path class="cls-1" d="M101.92,86a2.69,2.69,0,0,1,.21-1.15,1.81,1.81,0,0,1,.54-.68,5,5,0,0,1,.8-.46,3.33,3.33,0,0,0,.76-.49.87.87,0,0,0,.25-.67.92.92,0,0,0-.41-.78,1.78,1.78,0,0,0-1-.29A1.41,1.41,0,0,0,102,82a1.73,1.73,0,0,0-.39,1.18H99.35a3.83,3.83,0,0,1,.47-1.91,3.34,3.34,0,0,1,1.3-1.31,3.91,3.91,0,0,1,1.93-.46,4.17,4.17,0,0,1,1.84.41A3.35,3.35,0,0,1,106.21,81a2.92,2.92,0,0,1,.28,2.71,1.92,1.92,0,0,1-.52.7,7.68,7.68,0,0,1-.77.53,3.85,3.85,0,0,0-.76.55,1,1,0,0,0-.25.7v.48h-2.27Zm.21,3.94a1.38,1.38,0,0,1,0-1.94,1.38,1.38,0,0,1,1.94,0,1.37,1.37,0,0,1,.39,1,1.33,1.33,0,0,1-1.35,1.35A1.37,1.37,0,0,1,102.13,90Z"/><path class="cls-1" d="M81.2,76v.45"/><path class="cls-1" d="M89.67,38.78a.14.14,0,0,1-.14-.14v-.2a.14.14,0,0,1,.28,0v.2A.14.14,0,0,1,89.67,38.78Z"/><path class="cls-1" d="M89.67,41.7a.14.14,0,0,1-.14-.14v-.42a.14.14,0,0,1,.28,0v.42A.14.14,0,0,1,89.67,41.7Zm0-1a.14.14,0,0,1-.14-.14v-.43a.14.14,0,0,1,.28,0v.43A.14.14,0,0,1,89.67,40.72Zm0-1a.14.14,0,0,1-.14-.14v-.42a.14.14,0,0,1,.28,0v.42A.14.14,0,0,1,89.67,39.73Z"/><path class="cls-1" d="M89.64,42.41h0a.14.14,0,0,1-.11-.17.67.67,0,0,0,0-.18v-.13a.14.14,0,0,1,.28,0v.2l0,.17A.15.15,0,0,1,89.64,42.41Z"/><path class="cls-1" d="M89.06,43.35A.14.14,0,0,1,89,43.1a1.36,1.36,0,0,0,.3-.33l.24.15h0a1.88,1.88,0,0,1-.35.39A.16.16,0,0,1,89.06,43.35Z"/><path class="cls-1" d="M88.34,43.68a.15.15,0,0,1-.14-.11.15.15,0,0,1,.11-.17l.17,0a.13.13,0,0,1,.18.09.14.14,0,0,1-.09.18l-.2,0Z"/><path class="cls-1" d="M89.33,37.77h-.14a2.12,2.12,0,0,1-.54-.13.07.07,0,0,1,0-.07s0-.07,0-.07a2.55,2.55,0,0,1,.57-.07h.09a2.45,2.45,0,0,1,.57.07.06.06,0,0,1,.06.06.1.1,0,0,1,0,.08,2.22,2.22,0,0,1-.55.13ZM89,37.58l.3,0,.29,0-.29,0Z"/><path class="cls-1" d="M95.87,43.24a.2.2,0,0,1-.2-.14c-.39-1.16-.62-1.92-.84-2.65S94.37,39,94,37.83a.21.21,0,0,1,.14-.27.2.2,0,0,1,.26.13c.39,1.16.62,1.9.84,2.64s.46,1.48.84,2.63a.21.21,0,0,1-.13.27Z"/><path class="cls-1" d="M81,43.27H81a.21.21,0,0,1-.13-.27c.38-1.15.61-1.89.83-2.63s.46-1.49.85-2.64a.21.21,0,1,1,.4.13c-.39,1.15-.61,1.89-.84,2.63s-.45,1.49-.84,2.64A.21.21,0,0,1,81,43.27Z"/><path class="cls-1" d="M88.27,45.26a.22.22,0,0,1-.21-.22V36.63a.2.2,0,0,1,.06-.15.23.23,0,0,1,.16-.06c.74,0,1.49,0,2.23-.08.18,0,.62-.06,1.25-.15a.21.21,0,0,1,.24.18.23.23,0,0,1-.18.24c-.64.09-1.09.14-1.27.15-.68.06-1.37.08-2.06.09V45A.22.22,0,0,1,88.27,45.26Z"/><path class="cls-1" d="M91.79,36.61a.2.2,0,0,1-.21-.18.21.21,0,0,1,.17-.24l.44-.07c.47-.08.93-.17,1.42-.28s1-.24,1.47-.37a.2.2,0,0,1,.26.14.21.21,0,0,1-.14.26c-.45.14-.86.25-1.49.39s-1,.2-1.45.28l-.44.07Z"/><path class="cls-1" d="M92.45,38.34a.21.21,0,0,1,0-.42,23.92,23.92,0,0,0,2.89-.69.2.2,0,0,1,.26.14.2.2,0,0,1-.14.26,21.24,21.24,0,0,1-2.94.71Z"/><path class="cls-1" d="M88.27,38.69A23,23,0,0,1,85,38.47a.2.2,0,0,1-.18-.24.22.22,0,0,1,.24-.18,23.67,23.67,0,0,0,3.2.21A25.55,25.55,0,0,0,92,38a.21.21,0,0,1,.24.18.21.21,0,0,1-.18.24A26.39,26.39,0,0,1,88.27,38.69Z"/><path class="cls-1" d="M84.59,38.41l-.14,0A13.4,13.4,0,0,1,82.92,38c-.37-.11-.76-.22-1.26-.33l-.18,0a.21.21,0,0,1-.17-.25.22.22,0,0,1,.25-.17l.15,0c.56.12,1,.23,1.33.34a14.75,14.75,0,0,0,1.48.35h.1v.22Z"/><path class="cls-1" d="M88.23,37h0c-.69,0-1.35-.11-2-.19l-.94-.12-.43-.06c-.44,0-.88-.13-1.31-.22l-.18,0a16.94,16.94,0,0,1-1.66-.4.2.2,0,0,1-.14-.26.21.21,0,0,1,.27-.14,16,16,0,0,0,1.61.38l.18,0c.42.09.85.16,1.28.21l.44.06.93.12c.65.08,1.3.14,2,.19a.21.21,0,0,1,0,.42Z"/><path class="cls-1" d="M84.94,38.57l-.31,0s0,0,0-.06l.26-2a.06.06,0,0,1,.06-.05l.31.06a.06.06,0,0,1,0,.06l-.27,2A0,0,0,0,1,84.94,38.57Z"/><path class="cls-1" d="M85,38.71h0l-.31-.05a.19.19,0,0,1-.16-.22l.26-2a.18.18,0,0,1,.08-.13.16.16,0,0,1,.15,0l.3,0a.21.21,0,0,1,.17.22l-.27,2a.17.17,0,0,1-.07.13A.23.23,0,0,1,85,38.71Zm-.1-.2Zm.11-.08h0Zm-.23,0,.14,0,.23-1.82-.13,0Zm.15-1.84Z"/><path class="cls-1" d="M92.13,38.52l.31-.06a.06.06,0,0,0,0-.06l-.27-2a.06.06,0,0,0-.06,0l-.31.06a.06.06,0,0,0,0,.06l.27,2S92.1,38.52,92.13,38.52Z"/><path class="cls-1" d="M92.12,38.66a.19.19,0,0,1-.12,0,.15.15,0,0,1-.07-.12l-.27-2a.19.19,0,0,1,.17-.22l.3-.06a.19.19,0,0,1,.16,0,.17.17,0,0,1,.07.13l.27,2a.2.2,0,0,1-.16.22l-.32.06h0Zm0-.14Zm-.17-2,.24,1.84.13,0-.24-1.84Zm.46,1.8Zm-.54-1.78Z"/><path class="cls-1" d="M81.74,36a.21.21,0,0,1-.21-.19.21.21,0,0,1,.19-.23c2.16-.23,4.63-.37,6.94-.39,2.48,0,4.59.13,6.5.3a.21.21,0,1,1,0,.42,64.24,64.24,0,0,0-6.46-.3c-2.3,0-4.75.16-6.9.39Z"/><path class="cls-1" d="M81,58.43a.21.21,0,0,1-.21-.21c-.07-6.19-.14-12.89-.14-13,0-.28.36-5.94.87-9.5a.21.21,0,0,1,.24-.18.21.21,0,0,1,.18.24c-.53,3.71-.87,9.28-.87,9.44s.06,5.55.14,13a.21.21,0,0,1-.21.22Z"/><path class="cls-1" d="M81.26,77.56h0a.22.22,0,0,1-.18-.22v-.62c0-1.91,0-4.61-.1-7.73,0-2.55-.09-5.37-.12-8.23a.2.2,0,0,1,.21-.21h0a.21.21,0,0,1,.21.21c0,2.86.08,5.67.13,8.22,0,2.79.09,5.23.1,7.09a27.54,27.54,0,0,1,2.19-4.25,21,21,0,0,1,2.77-3.34c.07-2.88.12-6,.12-8.17v-2.7a.15.15,0,0,1,0-.07,3.66,3.66,0,0,0,.17-.54c0-.12.15-1.67.24-2.67L87.53,49c0-.37.13-1,.13-1.1s.08-2.08.12-2.27a2.38,2.38,0,0,1,.31-.67.21.21,0,0,1,.3-.06.21.21,0,0,1,.06.29,1.4,1.4,0,0,0-.25.52c0,.16-.11,2-.11,2.19S88,48.92,88,49l-.55,5.35c0,.25-.21,2.52-.24,2.7a4.48,4.48,0,0,1-.18.58v2.66c0,2.15,0,5.33-.11,8.25a.24.24,0,0,1-.05.14A20.47,20.47,0,0,0,84,72a28,28,0,0,0-2.58,5.38A.21.21,0,0,1,81.26,77.56Z"/><path class="cls-1" d="M89.9,66.25a.21.21,0,0,1-.21-.21c-.06-1.83-.12-4-.13-5.73,0-1.16,0-2.11,0-2.66a3.37,3.37,0,0,1-.17-.58c0-.18-.22-2.45-.25-2.7L88.59,49c0-.09-.13-.92-.13-1.14s-.09-2-.11-2.19a1.84,1.84,0,0,0-.26-.52.21.21,0,0,1,.07-.29.2.2,0,0,1,.29.06,2.08,2.08,0,0,1,.32.68c0,.18.11,2.09.11,2.26S89,48.6,89,49l.55,5.37c.08,1,.22,2.55.24,2.67a5.21,5.21,0,0,0,.16.54.19.19,0,0,1,0,.07c0,.55,0,1.51,0,2.7,0,1.71.06,3.89.12,5.72a.23.23,0,0,1-.2.22Z"/><path class="cls-1" d="M81,61a.21.21,0,0,1-.21-.21c0-.17,0-.28,0-.32a1.66,1.66,0,0,1,.2-1s0-.22-.06-.28A.76.76,0,0,1,80.9,59a.74.74,0,0,0,0-.12,4.28,4.28,0,0,1-.08-.65s0-.18,0-.44a.21.21,0,0,1,.21-.22.24.24,0,0,1,.22.21v.45a3.28,3.28,0,0,0,.08.56c0,.07,0,.12,0,.15a.34.34,0,0,1,0,.08.7.7,0,0,1,0,.7,1.36,1.36,0,0,0-.12.72s0,.15,0,.31A.21.21,0,0,1,81,61Z"/><path class="cls-1" d="M89.94,66.05a.21.21,0,0,1-.18-.11.21.21,0,0,1,.08-.29l5.75-3,0-2.54a.21.21,0,0,1,.21-.21h0a.21.21,0,0,1,.21.21l0,2.67a.21.21,0,0,1-.11.18L90.05,66Z"/><path class="cls-1" d="M95.86,58.34h0a.21.21,0,0,1-.21-.22c.07-6.68.14-12.88.14-13s-.34-5.73-.87-9.45a.21.21,0,0,1,.18-.24.21.21,0,0,1,.24.18c.54,3.77.87,9.34.87,9.51s0,5.25-.14,13A.21.21,0,0,1,95.86,58.34Z"/><path class="cls-1" d="M95.83,60.86h0a.2.2,0,0,1-.21-.19v-.32a1.41,1.41,0,0,0-.11-.72.7.7,0,0,1,0-.7.16.16,0,0,0,0-.08,1.06,1.06,0,0,0,0-.14,3.4,3.4,0,0,0,.08-.57v-.45a.22.22,0,1,1,.43,0c0,.26,0,.42,0,.44a4.12,4.12,0,0,1-.08.65,1,1,0,0,0,0,.12,1.89,1.89,0,0,1-.06.18c0,.06-.1.24-.07.29a1.54,1.54,0,0,1,.21,1s0,.14,0,.28A.22.22,0,0,1,95.83,60.86Z"/><circle class="cls-1" cx="89.17" cy="37.56" r="0.31"/><path class="cls-1" d="M86.47,116.35a.7.7,0,0,1-.5-1.21,26.35,26.35,0,0,0,6.19-8.75,23.91,23.91,0,1,1,5.79,2.1c-3,3.81-10.83,7.63-11.17,7.79A.7.7,0,0,1,86.47,116.35ZM103.18,62.4a22.62,22.62,0,0,0-9.83,43,.72.72,0,0,1,.37.85,22.81,22.81,0,0,1-3.9,6.76c2.58-1.52,5.82-3.68,7.26-5.72a.71.71,0,0,1,.75-.28,22.63,22.63,0,1,0,5.35-44.61Z"/><g id="perfect_fit" data-name="perfect fit"><path class="cls-1" d="M62,37.2l0-1.47a1,1,0,0,1-.15-.51c0-.91,0-2.94,0-4.57,0-.64,0-1.2,0-1.58,0-1.52,1.41-8.18,2-8.88.28-.35,1.62-.94,4-1.76l.14.4c-3.18,1.11-3.7,1.53-3.78,1.63a38.32,38.32,0,0,0-1.87,8.61c0,.38,0,.94,0,1.59,0,1.62,0,3.64,0,4.55a.47.47,0,0,0,.08.3l0,.06v.08l0,1.55Z"/><path class="cls-1" d="M70.23,39.34a11.74,11.74,0,0,1-2.8-.31,13,13,0,0,1-2.67-2l-.07-.07L65,32.49c-.08.86-.16,1.75-.19,2.45a1.53,1.53,0,0,1-.14.63l0,1.63h-.43l0-1.76,0,0h0a1,1,0,0,0,.11-.47c0-.89.15-2.08.25-3.13.05-.5.1-1,.13-1.37a23.48,23.48,0,0,1,.35-2.5l.4-2,0,2s0,2.24-.06,3.66l-.31,5.14a11.51,11.51,0,0,0,2.44,1.87,12.68,12.68,0,0,0,5.3,0,11.51,11.51,0,0,0,2.44-1.87L75,31.62c-.09-1.42-.06-3.64-.06-3.66l0-2,.4,2a21.47,21.47,0,0,1,.35,2.5c0,.41.08.89.13,1.4.1,1,.21,2.21.25,3.1a1.06,1.06,0,0,0,.12.48l0,.05v.06l0,1.69h-.43l0-1.63a1.53,1.53,0,0,1-.14-.63c0-.72-.12-1.64-.2-2.52l.28,4.52-.07.07A13,13,0,0,1,73,39,11.74,11.74,0,0,1,70.23,39.34Z"/><path class="cls-1" d="M78.42,37.21H78l0-1.63.06-.06h0a.5.5,0,0,0,.08-.3c0-.91,0-2.93,0-4.55,0-.65,0-1.21,0-1.59a38.32,38.32,0,0,0-1.87-8.61c-.08-.1-.59-.51-3.7-1.6l.14-.4c2.3.8,3.61,1.38,3.89,1.73.56.7,2,7.36,2,8.88v1.58c0,1.63,0,3.66,0,4.58a1,1,0,0,1-.15.5Z"/><path class="cls-1" d="M72,17.63a3.28,3.28,0,0,0-1.86-.33c-1.39,0-1.69.31-1.7.31l-.34-.26c.06-.08.42-.48,2-.48s2.1.4,2.15.45l-.29.31Z"/><path class="cls-1" d="M71.61,18.63a4.18,4.18,0,0,0-1.45-.26,3.77,3.77,0,0,0-1.29.23l-.15-.4A4.2,4.2,0,0,1,70.16,18a4.57,4.57,0,0,1,1.6.28Z"/><path class="cls-1" d="M68.86,20.57a.2.2,0,0,1-.17-.09c-.11-.16-.22-.29-.32-.42a3.27,3.27,0,0,1-.73-1.38.31.31,0,0,1,0-.1,3.1,3.1,0,0,1,.54-1.27.21.21,0,0,1,.23,0,.2.2,0,0,1,.11.2.74.74,0,0,0,.38.73,3.42,3.42,0,0,0,1.11.35.22.22,0,0,1,.17.22A.2.2,0,0,1,70,19c-.27,0-.66.86-.87,1.29l-.09.17a.21.21,0,0,1-.17.12Zm-.79-1.93a2.67,2.67,0,0,0,.64,1.15l.12.16a4.87,4.87,0,0,1,.63-1.06,3,3,0,0,1-.78-.31,1.34,1.34,0,0,1-.45-.47C68.17,18.27,68.12,18.45,68.07,18.64Z"/><path class="cls-1" d="M71.67,20.57h0a.21.21,0,0,1-.17-.12l-.08-.16c-.22-.44-.61-1.26-.88-1.3a.2.2,0,0,1-.18-.2.22.22,0,0,1,.17-.22c.84-.16,1.53-.36,1.49-1.08a.2.2,0,0,1,.09-.19.22.22,0,0,1,.21,0c.3.15.5.88.58,1.31a.11.11,0,0,1,0,.08,3.13,3.13,0,0,1-.72,1.39c-.1.13-.21.26-.32.42A.2.2,0,0,1,71.67,20.57Zm-.6-1.68A4.91,4.91,0,0,1,71.71,20a.91.91,0,0,0,.11-.16,2.65,2.65,0,0,0,.64-1.16c0-.19-.1-.38-.15-.54A1.81,1.81,0,0,1,71.07,18.89Z"/><path class="cls-1" d="M76.63,37.57a1.33,1.33,0,0,1-.65-.11.33.33,0,0,1-.13-.21.29.29,0,0,1,.07-.22c.06-.07.26-.28,2.32-.06a.23.23,0,0,1,.19.21.21.21,0,0,1-.18.21A10,10,0,0,1,76.63,37.57Z"/><path class="cls-1" d="M63.82,37.57a10,10,0,0,1-1.62-.18.21.21,0,0,1-.17-.21.21.21,0,0,1,.19-.21c2.06-.22,2.26,0,2.32.06a.34.34,0,0,1,.07.22h0a.31.31,0,0,1-.14.21A1.33,1.33,0,0,1,63.82,37.57Z"/><circle class="cls-1" cx="70.52" cy="19.14" r="0.17"/><circle class="cls-1" cx="70.58" cy="35.49" r="0.24"/><circle class="cls-1" cx="70.58" cy="33.05" r="0.24"/><circle class="cls-1" cx="70.58" cy="30.71" r="0.24"/><circle class="cls-1" cx="70.58" cy="28.59" r="0.24"/><circle class="cls-1" cx="70.58" cy="26.15" r="0.24"/><circle class="cls-1" cx="70.58" cy="23.81" r="0.24"/><circle class="cls-1" cx="70.58" cy="21.63" r="0.24"/><path class="cls-1" d="M70.19,19.79h-.34a.21.21,0,0,1-.2-.19,1.12,1.12,0,0,1,.19-.86.48.48,0,0,1,.36-.16h.28V19H70.2l0,0a.67.67,0,0,0-.09.34,7.32,7.32,0,0,0,1.15-.06l.05.42A7.59,7.59,0,0,1,70.19,19.79Z"/><rect class="cls-1" x="69.64" y="19.58" width="0.43" height="19.55"/><path class="cls-1" d="M69.81,19.79a2.78,2.78,0,0,1-.57-.07l.11-.42a1.63,1.63,0,0,0,.5.06v.43Z"/><path class="cls-1" d="M62.22,35.87l0-.42.33-.05c.85-.11,1.66-.22,2,.1l-.27.32c-.23-.19-1-.08-1.69,0Z"/><path class="cls-1" d="M78.21,35.87a3.8,3.8,0,0,0-2.07,0l-.2-.37a3.88,3.88,0,0,1,2.34,0Z"/></g></svg>