<?xml version="1.0" encoding="iso-8859-1"?>
<!-- Generator: Adobe Illustrator 16.0.4, SVG Export Plug-In . SVG Version: 6.00 Build 0)  -->
<!DOCTYPE svg PUBLIC "-//W3C//DTD SVG 1.1//EN" "http://www.w3.org/Graphics/SVG/1.1/DTD/svg11.dtd">
<svg version="1.1" id="Layer_1" xmlns="http://www.w3.org/2000/svg" xmlns:xlink="http://www.w3.org/1999/xlink" x="0px" y="0px"
	 width="80px" height="80px" viewBox="0 0 80 80" style="enable-background:new 0 0 80 80;" xml:space="preserve">
<path style="fill:#FFFFFF;" d="M69.057,22.261c-3.917-3.682-10.373-10.058-10.373-10.058c-0.643-1.142-11.061-4.775-11.061-4.775
	L33.922,6.787c0,0-11.171,4.789-11.65,5.247c-1.983,2.055-11.277,10.457-11.277,10.457l2.303,21.635l9.627-10.137
	c-0.537,23.854-1.548,34.187-1.548,34.187s2.982,5.038,19.474,5.038c16.492,0,18.392-4.567,18.392-4.567
	c-0.943-5.706-1.323-15.433-2.291-33.421c0,0,5.425,6.599,8.881,10.281L69.057,22.261z"/>
<g>
	<g>
		<g>
			<polygon style="opacity:0.35;" points="14.063,44.133 15.793,46.108 23.043,38.404 22.925,34.578 			"/>
			<path style="opacity:0.35;" d="M25.595,71.154l-0.96,1.055c0,0,2.981,5.037,19.474,5.037s18.443-7.569,18.443-7.569
				s-0.439-4.189-1.985-17.857c-0.604-5.346-0.965-8.667-0.442-7.936c0.617,0.865,1.482,2.336,3.09,4.189
				c0.865-1.976,1.585-2.982,1.415-3.201c-2.596-3.334-7.555-7.888-7.652-8.942c0.087,9.878,0.763,21.076,0.941,19.417
				c-0.643-1.141,1.545,13.888,1.545,13.888s-1.774,3.705-14.221,4.081c-12.444,0.375-17.423-0.939-17.423-0.939"/>
			<path style="fill:#FFFFFF;stroke:#000000;stroke-width:0.8248;stroke-miterlimit:10;" d="M59.771,40.247"/>
			<path style="fill:#FFFFFF;stroke:#000000;stroke-width:0.8248;stroke-miterlimit:10;" d="M69.057,22.851
				c-3.917-3.683-10.374-10.058-10.374-10.058c-0.643-1.142-11.061-4.775-11.061-4.775l-13.7-0.642c0,0-11.171,4.789-11.65,5.247
				C20.289,14.678,10.995,23.08,10.995,23.08"/>
			<path style="fill:none;stroke:#000000;stroke-width:0.8248;stroke-miterlimit:10;" d="M13.298,44.714l9.627-10.136
				c-0.537,23.855-1.548,34.188-1.548,34.188s2.982,5.037,19.474,5.037s18.392-4.569,18.392-4.569
				c-0.945-5.703-1.324-15.431-2.291-33.42c0,0,5.424,6.599,8.88,10.281"/>
			<path style="fill:#FFFFFF;stroke:#000000;stroke-width:0.8248;stroke-miterlimit:10;" d="M40.453,14.193l-8.101,2.061
				c0,0-1.515-3.765-0.932-8.08l1.305-3.853c1.923-1.919,8.003-1.535,8.714-1.535c0.713,0,5.125-0.059,6.207,1.506
				c1.084,1.565,1.535,4.451,1.535,4.451s-0.397,7.624-1.18,7.511C46.112,15.987,40.453,14.193,40.453,14.193z"/>
			<path style="fill:#FFFFFF;stroke:#000000;stroke-width:0.8248;stroke-miterlimit:10;" d="M40.453,14.193
				c0,0-5.421-4.097-7.728-9.872"/>
			<path style="fill:#FFFFFF;stroke:#000000;stroke-width:0.8248;stroke-miterlimit:10;" d="M40.453,14.193
				c4.66-3.442,7.043-10.085,7.043-10.085"/>
			<path style="fill:none;stroke:#000000;stroke-width:0.8248;stroke-miterlimit:10;" d="M22.908,26.079c0,0,0.308,7.086,0,12.579"
				/>
			<path style="fill:none;stroke:#000000;stroke-width:0.8248;stroke-miterlimit:10;" d="M57.192,40.987
				c-0.631-6.5-0.497-13.859-0.497-13.859"/>
		</g>
		
			<line style="fill:none;stroke:#000000;stroke-width:0.8248;stroke-miterlimit:10;" x1="39.32" y1="14.75" x2="39.32" y2="73.724"/>
		<line style="fill:none;stroke:#000000;stroke-width:0.8248;stroke-miterlimit:10;" x1="41.6" y1="14.637" x2="41.6" y2="73.724"/>
	</g>
	<path style="fill:#818385;stroke:#000000;stroke-width:0.8248;stroke-miterlimit:10;" d="M54.073,31.38
		c0,0.643-1.598,2.261-2.201,2.261h-5.15c-0.68,0-2.468-1.694-2.468-2.185l0.01-6.352c0-1.69,0.302-1.54,1.211-1.54h7.417
		c0.946,0,1.182,0,1.182,1.691V31.38z"/>
	
		<line style="fill:none;stroke:#000000;stroke-width:0.8248;stroke-miterlimit:10;" x1="44.943" y1="25.256" x2="53.385" y2="25.256"/>
	<path style="fill:#818385;stroke:#000000;stroke-width:0.8248;stroke-miterlimit:10;" d="M36.138,31.38
		c0,0.643-1.597,2.261-2.202,2.261h-5.148c-0.681,0-2.471-1.694-2.471-2.185l0.01-6.352c0-1.69,0.303-1.54,1.212-1.54h7.417
		c0.948,0,1.181,0,1.181,1.691V31.38z"/>
	
		<line style="fill:none;stroke:#000000;stroke-width:0.8248;stroke-miterlimit:10;" x1="27.01" y1="25.256" x2="35.45" y2="25.256"/>
</g>
<rect style="fill:none;" width="80" height="80"/>
<g>
</g>
<g>
</g>
<g>
</g>
<g>
</g>
<g>
</g>
<g>
</g>
<g>
</g>
<g>
</g>
<g>
</g>
<g>
</g>
<g>
</g>
<g>
</g>
<g>
</g>
<g>
</g>
<g>
</g>
</svg>
