<?xml version="1.0" encoding="iso-8859-1"?>
<!-- Generator: Adobe Illustrator 16.0.4, SVG Export Plug-In . SVG Version: 6.00 Build 0)  -->
<!DOCTYPE svg PUBLIC "-//W3C//DTD SVG 1.1//EN" "http://www.w3.org/Graphics/SVG/1.1/DTD/svg11.dtd">
<svg version="1.1" id="Layer_1" xmlns="http://www.w3.org/2000/svg" xmlns:xlink="http://www.w3.org/1999/xlink" x="0px" y="0px"
	 width="80px" height="80px" viewBox="0 0 80 80" style="enable-background:new 0 0 80 80;" xml:space="preserve">
<g>
	<path style="opacity:0.35;" d="M67.094,30.502V15.597c0,0-10.332-6.306-17.888-6.306c-7.557,0-7.079,7.167-15.592,7.167
		c-6.218,0-8.511-5.497-8.511-5.497s2.195-3.103-2.396,2.535v50.449c0,0,2.102,4.787,6.759,7.151
		c0.837,1.632,4.087,6.32,13.808,6.32c11.636,0,15.88-8.502,15.592-15.957c0,0-1.721-26.467-0.957-34.11
		C62.789,27.542,67.094,30.502,67.094,30.502z"/>
	<path style="fill:#939598;stroke:#000000;stroke-width:0.8138;stroke-miterlimit:10;" d="M25.197,65.951
		c0,0,2.296,6.88,14.062,6.88c11.765,0,14.061-7.548,15.017-10.606c0.956-3.058-3.826-7.931-3.826-7.931l-11.957,2.104
		L25.197,65.951z"/>
	<path style="fill:#FFFFFF;stroke:#000000;stroke-width:0.8138;stroke-miterlimit:10;" d="M18.691,8.91v50.449
		c0,0,3.384,7.773,11.137,8.408c8.543,0.7,13.064-2.103,16.126-6.021c3.06-3.915,5.713-6.577,7.175-2.196
		c0.668,2.007,1.434,3.44,1.434,3.44s0.575,1.338,0.287-6.117c0,0-1.721-26.466-0.956-34.109c4.877,0.192,9.183,3.154,9.183,3.154
		V11.011c0,0-10.332-6.306-17.888-6.306c-7.557,0-7.078,7.167-15.591,7.167c-6.22,0-2.871-6.975-2.871-6.975
		S23.281,3.271,18.691,8.91z"/>
</g>
<rect style="fill:none;" width="80" height="80"/>
<g>
</g>
<g>
</g>
<g>
</g>
<g>
</g>
<g>
</g>
<g>
</g>
<g>
</g>
<g>
</g>
<g>
</g>
<g>
</g>
<g>
</g>
<g>
</g>
<g>
</g>
<g>
</g>
<g>
</g>
</svg>
