<?xml version="1.0" encoding="iso-8859-1"?>
<!-- Generator: Adobe Illustrator 16.0.4, SVG Export Plug-In . SVG Version: 6.00 Build 0)  -->
<!DOCTYPE svg PUBLIC "-//W3C//DTD SVG 1.1//EN" "http://www.w3.org/Graphics/SVG/1.1/DTD/svg11.dtd">
<svg version="1.1" id="Layer_1" xmlns="http://www.w3.org/2000/svg" xmlns:xlink="http://www.w3.org/1999/xlink" x="0px" y="0px"
	 width="80px" height="80px" viewBox="0 0 80 80" style="enable-background:new 0 0 80 80;" xml:space="preserve">
<rect style="fill:none;" width="80" height="80"/>
<path style="opacity:0.35;" d="M66.467,37.533c0-1.154,1.987-6.666-0.228-10.871c-0.47-0.892,0.383-4.879,0.902-4.204
	c1.062,1.387-2.029,0.375-2.029,0.375s3.749-1.551-0.595,1.536c-7.635,5.422-20.969,8.576-23.069,9.049l-0.003,0
	c-0.01,0.002-0.02,0.005-0.028,0.008c-0.164,0.037-0.26,0.058-0.26,0.058c0.004,0.003,0.008,0.007,0.012,0.011
	c-1.146,0.304-2.143,0.723-3.01,1.222l-2.759-1.45l-4.451,7.628c0.811-1.493,1.467-2.68,1.864-3.352
	c2.311-3.923,2.247-4.433,2.247-4.433c-10.42-3.733-9.446-3.561-16.338-6.528c-6.699-2.885-5.083-8.652-5.083-8.652
	c-1.571,10.603-0.532,12.758-0.532,19.256c0,5.192,1.65,10.345,1.65,10.345s4.471-2.731,7.244-4.115c0,0,10.626,7.152,34.188,1.153
	l6.669,4.163C62.512,49.08,64.661,47.308,66.467,37.533z"/>
<linearGradient id="SVGID_1_" gradientUnits="userSpaceOnUse" x1="11.7236" y1="29.2974" x2="67.9639" y2="29.2974">
	<stop  offset="0" style="stop-color:#D5D7D8"/>
	<stop  offset="0.1822" style="stop-color:#FFFFFF"/>
	<stop  offset="0.8283" style="stop-color:#EFF0F0"/>
	<stop  offset="1" style="stop-color:#C2C2C2"/>
</linearGradient>
<path style="fill:url(#SVGID_1_);stroke:#000000;stroke-width:0.935;stroke-miterlimit:10;" d="M12.532,21.037
	c-0.285,1.711-0.809,11.538-0.809,11.538c3.003,4.96,15.017,12.102,28.297,11.882C52.825,44.247,67.1,34.18,67.396,32.459
	c1.385-8.077-0.193-12.977-0.193-12.977c-2.068-4.46-15.806-5.35-28.28-5.35c-12.474,0-22.578,1.597-24.311,3.097
	C12.879,18.73,12.763,19.652,12.532,21.037z"/>
<path style="fill:#939598;stroke:#000000;stroke-width:0.935;stroke-miterlimit:10;" d="M20.964,28.881
	c0,0,13.68-1.039,18.363-1.039c4.685,0,21.023,0.577,21.023,0.577l-6.53,2.504l-12.087,4.399l-6.299,0.754l-4.664-2.438
	L20.964,28.881z"/>
<path style="fill:#FFFFFF;stroke:#000000;stroke-width:0.935;stroke-miterlimit:10;" d="M40.02,35.292c0,0-2.712,8.764-5.252,8.994
	c-2.541,0.229-11.608-2.077-13.687-3.692c-2.079-1.616,14.898-7.096,14.898-7.096L40.02,35.292z"/>
<path style="fill:#FFFFFF;stroke:#000000;stroke-width:0.935;stroke-miterlimit:10;" d="M57.291,41.456
	c0,0-6.782,4.048-22.812,3.749c-0.346,0-0.461-5.133-0.461-5.133s-0.019-1.511,0.924-2.134c1.656-1.095,4.474-2.514,8.777-4.498
	l12.128,1.498l2.021,5.941L57.291,41.456z"/>
<circle style="fill:none;stroke:#000000;stroke-width:0.935;stroke-miterlimit:10;" cx="40.063" cy="40.732" r="2.599"/>
<circle style="fill:none;stroke:#000000;stroke-width:0.935;stroke-miterlimit:10;" cx="40.062" cy="40.732" r="1.169"/>
<path style="fill:#FFFFFF;stroke:#000000;stroke-width:0.935;stroke-miterlimit:10;" d="M36.095,33.611L15.883,44.226
	c0,0-1.022-4.702-1.249-11.745c-0.073-2.251-0.161-5.063,0.398-8.088c0,0,1.548,2.629,8.588,5.296
	C30.321,32.226,36.095,33.496,36.095,33.611z"/>
<path style="fill:#FFFFFF;stroke:#000000;stroke-width:0.935;stroke-miterlimit:10;" d="M43.736,33.265l18.346,12.229
	c0,0,2.221-4.573,3.393-12.748c0.364-2.542,0.216-6.118-0.531-8.619c0,0-1.693,2.549-8.732,5.216
	C49.51,31.881,43.736,33.15,43.736,33.265z"/>
<path style="fill:none;stroke:#000000;stroke-width:0.935;stroke-miterlimit:10;" d="M12.879,19.421c0,0,0.561,3.247,2.419,5.369"/>
<path style="fill:none;stroke:#000000;stroke-width:0.935;stroke-miterlimit:10;" d="M64.678,24.393
	c1.993-2.52,2.485-5.202,2.485-5.202"/>
<path style="fill:none;stroke:#939598;stroke-width:0.7254;stroke-miterlimit:10;" d="M17.265,26.111c0,0,4.453-2.139,21.896-2.139
	c17.442,0,23.322,2.139,23.322,2.139"/>
<path style="fill:none;stroke:#939598;stroke-width:0.7254;stroke-miterlimit:10;" d="M16.398,26.111c0,0-0.866,4.673,0.866,14.884
	c4.678-2.424,13.34-6.923,15.592-8.135"/>
<path style="fill:none;stroke:#939598;stroke-width:0.7254;stroke-miterlimit:10;" d="M46.717,32.688c0,0,11.954,7.961,14.553,9.691
	c2.946-6.23,3.119-12.979,2.772-16.96"/>
<g>
</g>
<g>
</g>
<g>
</g>
<g>
</g>
<g>
</g>
<g>
</g>
<g>
</g>
<g>
</g>
<g>
</g>
<g>
</g>
<g>
</g>
<g>
</g>
<g>
</g>
<g>
</g>
<g>
</g>
</svg>
