<?xml version="1.0" encoding="iso-8859-1"?>
<!-- Generator: Adobe Illustrator 16.0.4, SVG Export Plug-In . SVG Version: 6.00 Build 0)  -->
<!DOCTYPE svg PUBLIC "-//W3C//DTD SVG 1.1//EN" "http://www.w3.org/Graphics/SVG/1.1/DTD/svg11.dtd">
<svg version="1.1" id="Layer_1" xmlns="http://www.w3.org/2000/svg" xmlns:xlink="http://www.w3.org/1999/xlink" x="0px" y="0px"
	 width="80px" height="80px" viewBox="0 0 80 80" style="enable-background:new 0 0 80 80;" xml:space="preserve">
<path style="opacity:0.35;" d="M76.716,41.491c0.048,0.024,0.097,0.046,0.143,0.072c-0.062-0.039-0.129-0.084-0.192-0.125
	c-0.138-0.143-0.309-0.256-0.512-0.33c-6.219-4.025-19.908-12.793-19.908-12.793s-0.85-0.701-2.243-1.31
	c-0.96-0.812-3.86-3.135-8.508-5.734c-5.779-3.233-12.021-6.928-12.021-6.928L3.187,29.354c0,0,3.237,3.695,7.86,6.467
	c4.391,2.631,10.446,9.216,12.432,11.851c0.107,0.231,0.263,0.402,0.375,0.505c0.155,0.194,0.319,0.337,0.489,0.435l20.69,18.963
	c0,0,0.618,0.27,3.315-1.423c9.363-5.462,25.508-19.399,27.588-21.708C77.135,43.114,77.206,42.068,76.716,41.491z"/>
<path style="fill:#FFFFFF;stroke:#000000;stroke-width:0.6239;stroke-miterlimit:10;" d="M3.051,27.168c0,0,3.237,3.695,7.86,6.466
	s11.098,9.931,12.716,12.239c1.618,2.31,4.393-1.616,4.393-1.616l16.415-13.856l9.79-5.273c0,0-3.085-2.811-8.865-6.043
	c-5.779-3.233-12.022-6.928-12.022-6.928"/>
<line style="fill:none;stroke:#939598;stroke-width:0.6239;stroke-miterlimit:10;" x1="34.263" y1="30.863" x2="17.848" y2="19.778"/>
<line style="fill:none;stroke:#939598;stroke-width:0.6239;stroke-miterlimit:10;" x1="40.042" y1="27.168" x2="24.321" y2="16.083"/>
<line style="fill:none;stroke:#939598;stroke-width:0.6239;stroke-miterlimit:10;" x1="45.822" y1="26.014" x2="37.268" y2="19.548"/>
<linearGradient id="SVGID_1_" gradientUnits="userSpaceOnUse" x1="42.7402" y1="51.9834" x2="76.8662" y2="51.9834">
	<stop  offset="0" style="stop-color:#D5D7D8"/>
	<stop  offset="0.1822" style="stop-color:#FFFFFF"/>
	<stop  offset="0.8283" style="stop-color:#EFF0F0"/>
	<stop  offset="1" style="stop-color:#C2C2C2"/>
</linearGradient>
<path style="fill:url(#SVGID_1_);stroke:#000000;stroke-width:0.6239;stroke-miterlimit:10;" d="M44.897,65.389
	c0,0,0.616,0.27,3.313-1.424c9.365-5.461,25.51-19.398,27.59-21.708c2.081-2.31,0.771-3.771-1.001-3.387
	c-1.388-0.308-2.775-0.308-2.775-0.308l-9.71,3.772l-5.549,1.154l-2.851,3.927L42.74,59.346
	C42.74,59.346,43.663,64.349,44.897,65.389z"/>
<path style="fill:none;stroke:#939598;stroke-width:0.6239;stroke-miterlimit:10;" d="M45.052,63.041c0,0,2.62-1.231,6.319-3.771
	s13.179-9.854,16.03-12.239c2.851-2.388,8.399-6.76,7.398-8.16c-0.771-1.078-1.928-1.001-1.928-1.001"/>
<path style="fill:#FFFFFF;stroke:#000000;stroke-width:0.6239;stroke-miterlimit:10;" d="M23.859,46.105l21.039,19.283
	c0,0-1.041-1.038,1.04-3.926c2.08-2.887,7.514-9.584,12.601-13.51c0.462-0.347,0-4.503,0-4.503L40.621,27.746
	c0,0-13.062,7.043-17.225,16.512C22.818,45.413,23.859,46.105,23.859,46.105z"/>
<g>
	<defs>
		<path id="SVGID_2_" d="M24.259,46.072l19.338,17.786l8.138-10.997l5.17-5.834l2.776-3.729l-6.894-0.957l-6.701-4.494
			c0,0-6.605-6.312-8.807-6.121c-2.202,0.191-8.33,6.886-8.33,6.886S24.259,45.307,24.259,46.072z"/>
	</defs>
	<clipPath id="SVGID_3_">
		<use xlink:href="#SVGID_2_"  style="overflow:visible;"/>
	</clipPath>
	<g style="clip-path:url(#SVGID_3_);">
		<path style="fill:none;stroke:#939598;stroke-width:0.6239;stroke-miterlimit:10;" d="M25.323,47.492c0,0,0.155-1.616,2.081-4.619
			c2.927-5.004,10.018-9.854,10.018-9.854"/>
		<path style="fill:none;stroke:#939598;stroke-width:0.6239;stroke-miterlimit:10;" d="M42.509,63.349c0,0-0.309-1.308,1.618-4.079
			c2.929-4.157,7.167-8.775,10.943-11.701c1.001-0.77,1.233-1.463,1.078-2.386c-0.153-0.924-0.384-1.925-0.384-1.925"/>
	</g>
</g>
<path style="fill:#FFFFFF;stroke:#000000;stroke-width:0.6239;stroke-miterlimit:10;" d="M34.031,31.018l16.53,11.97
	c0,0,1.04,0.809,2.196,0.809s9.595,0.461,9.595,0.461s0.694-0.115,1.733-0.692c1.041-0.577,8.938-6.381,12.637-4.188
	C70.903,35.606,56.11,26.129,56.11,26.129s-2.659-2.193-6.281-2.193C46.208,23.936,40.621,26.438,34.031,31.018z"/>
<g>
	<defs>
		<polygon id="SVGID_4_" points="74.425,38.23 54.225,25.129 51.544,24.651 40.822,28.954 37.375,31.345 41.778,35.074 
			51.353,41.864 56.766,43.488 62.362,42.916 68.298,39.474 		"/>
	</defs>
	<clipPath id="SVGID_5_">
		<use xlink:href="#SVGID_4_"  style="overflow:visible;"/>
	</clipPath>
	<path style="clip-path:url(#SVGID_5_);fill:none;stroke:#939598;stroke-width:0.6239;stroke-miterlimit:10;" d="M55.687,25.86
		c0,0-2.851-1-6.088,0.154c-3.925,1.4-10.943,5.851-10.943,5.851l13.41,9.468c0,0,1.154,0.692,2.233,0.692
		c1.08,0,6.397,0.309,6.397,0.309s0.925-0.154,2.157-1.001c1.233-0.847,7.477-5.08,11.252-3.695"/>
</g>
<g>
	<path style="fill:none;stroke:#000000;stroke-width:0.6239;stroke-miterlimit:10;" d="M50.794,30.061
		c0.092,0.167,0.068,0.355-0.051,0.423l-3.662,2.041c-0.12,0.067-0.294-0.012-0.387-0.178l0,0c-0.093-0.167-0.069-0.355,0.05-0.423
		l3.662-2.041C50.527,29.814,50.701,29.895,50.794,30.061L50.794,30.061z"/>
	<g>
		
			<ellipse style="fill:#FFFFFF;stroke:#000000;stroke-width:0.6239;stroke-miterlimit:10;" cx="47.143" cy="32.683" rx="2.504" ry="1.578"/>
		
			<ellipse style="fill:#FFFFFF;stroke:#000000;stroke-width:0.6239;stroke-miterlimit:10;" cx="47.143" cy="32.298" rx="2.504" ry="1.578"/>
		
			<ellipse style="fill:#FFFFFF;stroke:#000000;stroke-width:0.6239;stroke-miterlimit:10;" cx="47.143" cy="31.914" rx="2.504" ry="1.578"/>
		
			<ellipse style="fill:none;stroke:#000000;stroke-width:0.6239;stroke-miterlimit:10;" cx="47.144" cy="31.874" rx="1.388" ry="0.73"/>
	</g>
</g>
<g>
	<path style="fill:none;stroke:#000000;stroke-width:0.6239;stroke-miterlimit:10;" d="M57.576,34.887
		c0.093,0.166,0.069,0.355-0.052,0.422l-3.661,2.041c-0.119,0.068-0.294-0.012-0.386-0.178l0,0c-0.094-0.166-0.07-0.354,0.05-0.423
		l3.662-2.041C57.31,34.641,57.482,34.721,57.576,34.887L57.576,34.887z"/>
	<g>
		
			<ellipse style="fill:#FFFFFF;stroke:#000000;stroke-width:0.6239;stroke-miterlimit:10;" cx="53.926" cy="37.508" rx="2.504" ry="1.579"/>
		
			<ellipse style="fill:#FFFFFF;stroke:#000000;stroke-width:0.6239;stroke-miterlimit:10;" cx="53.926" cy="37.124" rx="2.504" ry="1.579"/>
		
			<ellipse style="fill:#FFFFFF;stroke:#000000;stroke-width:0.6239;stroke-miterlimit:10;" cx="53.926" cy="36.739" rx="2.504" ry="1.578"/>
		
			<ellipse style="fill:none;stroke:#000000;stroke-width:0.6239;stroke-miterlimit:10;" cx="53.926" cy="36.7" rx="1.387" ry="0.731"/>
	</g>
</g>
<rect style="fill:none;" width="80" height="80"/>
<g>
</g>
<g>
</g>
<g>
</g>
<g>
</g>
<g>
</g>
<g>
</g>
<g>
</g>
<g>
</g>
<g>
</g>
<g>
</g>
<g>
</g>
<g>
</g>
<g>
</g>
<g>
</g>
<g>
</g>
</svg>
