<?xml version="1.0" encoding="iso-8859-1"?>
<!-- Generator: Adobe Illustrator 16.0.4, SVG Export Plug-In . SVG Version: 6.00 Build 0)  -->
<!DOCTYPE svg PUBLIC "-//W3C//DTD SVG 1.1//EN" "http://www.w3.org/Graphics/SVG/1.1/DTD/svg11.dtd">
<svg version="1.1" id="Layer_1" xmlns="http://www.w3.org/2000/svg" xmlns:xlink="http://www.w3.org/1999/xlink" x="0px" y="0px"
	 width="80px" height="80px" viewBox="0 0 80 80" style="enable-background:new 0 0 80 80;" xml:space="preserve">
<rect style="fill:none;" width="80" height="80"/>
<path style="opacity:0.35;" d="M66.468,22.217c0-0.864-3.742-11.362-5.403-14.516c-0.353-0.667-1.011-1.195-1.572-1.499
	c-0.331-0.178-0.579-0.287-0.579-0.287s2.846,2.918-0.411,5.231c-5.723,4.064-15.721,6.429-17.294,6.785l-0.002-0.001
	c-0.007,0.002-0.015,0.005-0.022,0.007c-0.122,0.027-0.193,0.042-0.193,0.042c0.002,0.004,0.005,0.008,0.007,0.01
	c-0.857,0.227-1.606,0.54-2.255,0.915l-2.067-1.085l-3.338,5.718c0.608-1.12,1.1-2.009,1.398-2.514
	c1.731-2.94,1.683-3.324,1.683-3.324c-7.809-2.796-7.081-2.669-12.248-4.893c-5.022-2.161-3.811-6.487-3.811-6.487
	c-2.081,1.376-5.194,12.282-6.579,16.952c-1.386,4.671,10.909,15.1,10.909,15.1s5.493-9.718,8.532-15.412l0.084,8.266
	c0.015,0.16,0.173,46.253,0.301,46.253c0.875,0.198,1.978-0.301,1.978-0.301c2.339-7.788,2.625-37.432,5.146-49.582
	c1.393-6.72,5.7-0.272,6.128-0.336l7.315,10.924C56.771,35.933,66.813,25.159,66.468,22.217z"/>
<polyline style="fill:#FFFFFF;stroke:#000000;stroke-width:0.8229;stroke-miterlimit:10;" points="34.673,78.346 34.673,24.354 
	43.579,24.354 43.579,78.346 "/>
<linearGradient id="SVGID_1_" gradientUnits="userSpaceOnUse" x1="19.3994" y1="9.832" x2="60.707" y2="9.832">
	<stop  offset="0" style="stop-color:#D5D7D8"/>
	<stop  offset="0.1822" style="stop-color:#FFFFFF"/>
	<stop  offset="0.8283" style="stop-color:#EFF0F0"/>
	<stop  offset="1" style="stop-color:#C2C2C2"/>
</linearGradient>
<path style="fill:url(#SVGID_1_);stroke:#000000;stroke-width:0.8229;stroke-miterlimit:10;" d="M20.266,4.422
	c3.831-2.53,9.871-2.767,19.222-2.767c9.35,0,19.651,0.666,21.2,4.013c0,0,1.401,11.987-19.64,12.334
	c-9.958,0.163-17.925-3.2-19.57-6.054l-2.078-4.931L20.266,4.422"/>
<path style="fill:#FFFFFF;stroke:#000000;stroke-width:0.8229;stroke-miterlimit:10;" d="M29.853,13.264
	c0,0,5.901-0.349,9.413-0.349c3.512,0,11.521,0.264,11.521,0.264l-0.562,0.719l-9.063,3.298l-4.722,0.567l-3.496-1.829
	L29.853,13.264z"/>
<polygon style="fill:#FFFFFF;stroke:#000000;stroke-width:0.8229;stroke-miterlimit:10;" points="38.795,17.085 34.487,25.247 
	31.629,24.402 36.579,15.921 "/>
<path style="fill:#FFFFFF;stroke:#000000;stroke-width:0.8229;stroke-miterlimit:10;" d="M47.085,25.312
	c0,0-7.728,1.295-12.598,0.194c-0.261,0-0.194-0.65-0.194-0.65s-0.066-7.147,6.818-8.822l7.44,2.955L47.085,25.312"/>
<g>
	<circle style="fill:none;stroke:#000000;stroke-width:0.8229;stroke-miterlimit:10;" cx="39.91" cy="21.814" r="1.947"/>
	<circle style="fill:none;stroke:#000000;stroke-width:0.8229;stroke-miterlimit:10;" cx="39.909" cy="21.814" r="0.877"/>
</g>
<g>
	<circle style="fill:none;stroke:#000000;stroke-width:0.8229;stroke-miterlimit:10;" cx="39.218" cy="38.945" r="1.947"/>
	<circle style="fill:none;stroke:#000000;stroke-width:0.8229;stroke-miterlimit:10;" cx="39.218" cy="38.945" r="0.878"/>
</g>
<g>
	<circle style="fill:none;stroke:#000000;stroke-width:0.8229;stroke-miterlimit:10;" cx="39.218" cy="66.518" r="1.947"/>
	<circle style="fill:none;stroke:#000000;stroke-width:0.8229;stroke-miterlimit:10;" cx="39.218" cy="66.518" r="0.878"/>
</g>
<path style="fill:#FFFFFF;stroke:#000000;stroke-width:0.8229;stroke-miterlimit:10;" d="M60.971,5.808
	c1.66,3.151,5.403,13.65,5.403,14.515c0.345,2.939-9.698,13.715-12.297,15.965l-11.17-17.48c0,0-1.363-2.204-2.013-2.726
	c0,0,11.288-2.411,17.514-6.831c3.257-2.313,0.41-5.233,0.41-5.233s0.248,0.109,0.579,0.289C59.96,4.61,60.618,5.137,60.971,5.808z"
	/>
<path style="fill:#FFFFFF;stroke:#000000;stroke-width:0.8229;stroke-miterlimit:10;" d="M36.323,15.803
	c0,0,0.048,0.383-1.683,3.326c-1.496,2.535-1.292,2.173-10.047,17.347c0,0-12.295-10.43-10.911-15.1
	c1.387-4.671,4.498-15.576,6.583-16.954c0,0-1.212,4.327,3.809,6.487C29.242,13.135,28.512,13.006,36.323,15.803z"/>
<path style="fill:none;stroke:#939598;stroke-width:0.8229;stroke-miterlimit:10;" d="M14.05,19.894c0,0,1.145,5.077,9.985,13.284
	c4.873-9.182,9.063-16.935,9.836-18.041"/>
<path style="fill:none;stroke:#939598;stroke-width:0.8229;stroke-miterlimit:10;" d="M43.285,15.619l11.453,17.64
	c0,0,8.993-9.065,10.803-15.368"/>
<path style="fill:none;stroke:#939598;stroke-width:0.8229;stroke-miterlimit:10;" d="M24.848,11.236c0,0,2.303-1.218,15.38-1.218
	s14.834,1.3,14.834,1.3"/>
<g>
</g>
<g>
</g>
<g>
</g>
<g>
</g>
<g>
</g>
<g>
</g>
<g>
</g>
<g>
</g>
<g>
</g>
<g>
</g>
<g>
</g>
<g>
</g>
<g>
</g>
<g>
</g>
<g>
</g>
</svg>
