<?xml version="1.0" encoding="iso-8859-1"?>
<!-- Generator: Adobe Illustrator 16.0.4, SVG Export Plug-In . SVG Version: 6.00 Build 0)  -->
<!DOCTYPE svg PUBLIC "-//W3C//DTD SVG 1.1//EN" "http://www.w3.org/Graphics/SVG/1.1/DTD/svg11.dtd">
<svg version="1.1" id="Layer_1" xmlns="http://www.w3.org/2000/svg" xmlns:xlink="http://www.w3.org/1999/xlink" x="0px" y="0px"
	 width="80px" height="80px" viewBox="0 0 80 80" style="enable-background:new 0 0 80 80;" xml:space="preserve">
<rect style="fill:none;" width="80" height="80"/>
<path style="opacity:0.35;" d="M73.748,41.726c0-1.048-3.399-13.812-5.616-17.621c-0.472-0.809-1.349-1.447-2.098-1.814
	c-0.442-0.215-0.772-0.349-0.772-0.349s3.798,3.527-0.549,6.323c-7.633,4.913-20.968,7.771-23.068,8.2h-0.003
	c-0.01,0.002-0.02,0.004-0.028,0.008c-0.164,0.032-0.261,0.05-0.261,0.05c0.005,0.004,0.009,0.007,0.013,0.01
	c-1.146,0.276-2.143,0.655-3.01,1.106l-2.758-1.312l-4.452,6.91c0.811-1.353,1.467-2.427,1.864-3.035
	c2.311-3.555,2.247-4.016,2.247-4.016c-10.42-3.383-9.446-3.227-16.338-5.914c-6.699-2.614-5.082-7.84-5.082-7.84
	c-2.78,1.663-5.897,13.8-7.745,19.445c-1.848,5.643,12.177,15.34,12.177,15.34s2.378-3.593,9.564-10.922c0,0,2.812,1,6.299,1.338
	c3.485,0.335,14.1-0.538,16.68-0.893c0,0,4.708,4.816,6.882,7.133c3.032,3.231,3.381,3.566,3.381,3.566
	C65.942,53.944,74.208,45.278,73.748,41.726z"/>
<linearGradient id="SVGID_1_" gradientUnits="userSpaceOnUse" x1="12.5542" y1="27.5239" x2="67.6543" y2="27.5239">
	<stop  offset="0" style="stop-color:#D5D7D8"/>
	<stop  offset="0.1822" style="stop-color:#FFFFFF"/>
	<stop  offset="0.8283" style="stop-color:#EFF0F0"/>
	<stop  offset="1" style="stop-color:#C2C2C2"/>
</linearGradient>
<path style="fill:url(#SVGID_1_);stroke:#000000;stroke-width:0.935;stroke-miterlimit:10;" d="M13.709,20.142
	c5.11-3.058,13.167-3.346,25.641-3.346c12.473,0,26.212,0.807,28.279,4.848c0,0,1.869,16.185-26.196,16.604
	c-13.281,0.198-23.912-5.564-26.106-9.013l-2.772-5.958L13.709,20.142"/>
<path style="fill:#939598;stroke:#000000;stroke-width:0.935;stroke-miterlimit:10;" d="M24.859,30.918
	c0,0,8.205-0.547,14.194-0.515c4.685,0.025,15.368,0.32,15.368,0.32L53.67,31.59l-13.051,2.862l-5.335,1.807L30.62,34.05
	L24.859,30.918z"/>
<polygon style="fill:#FFFFFF;stroke:#000000;stroke-width:0.935;stroke-miterlimit:10;" points="38.095,35.123 31.772,45.234 
	23.889,42.754 30.322,33.087 "/>
<path style="fill:#FFFFFF;stroke:#000000;stroke-width:0.935;stroke-miterlimit:10;" d="M51.635,44.458
	c0,0-12.709,2.563-19.206,1.229c-0.347,0-0.228-0.601-0.318-2.067c0.361-2.759,0.413-6.821,9.352-9.237l9.979,3.36l0.917,6.629"/>
<path style="fill:#FFFFFF;stroke:#000000;stroke-width:0.935;stroke-miterlimit:10;" d="M67.975,22.116
	c2.168,4.485,5.437,14.026,5.437,15.071c0.839,4.994-8.471,14.475-11.936,17.192c0,0-19.358-19.473-20.224-20.1
	c0,0,15.031-2.961,23.334-8.304c4.347-2.796,0.548-6.324,0.548-6.324s0.332,0.133,0.774,0.35
	C66.657,20.367,67.57,21.275,67.975,22.116z"/>
<path style="fill:#FFFFFF;stroke:#000000;stroke-width:0.935;stroke-miterlimit:10;" d="M35.203,34.364L17.958,54.552
	c0,0-13.241-8.594-10.562-17.943c1.462-5.104,3.534-14.804,6.313-16.467c0,0-1.312,4.601,5.082,7.837
	C25.559,31.405,27.277,31.77,35.203,34.364z"/>
<g>
	<circle style="fill:none;stroke:#000000;stroke-width:0.935;stroke-miterlimit:10;" cx="38.181" cy="41.688" r="2.599"/>
	<circle style="fill:none;stroke:#000000;stroke-width:0.935;stroke-miterlimit:10;" cx="38.181" cy="41.688" r="1.169"/>
</g>
<path style="fill:none;stroke:#939598;stroke-width:0.7254;stroke-miterlimit:10;" d="M8.146,35.63c0,0-2.079,6.057,9.529,15.574
	c9.529-11.594,13.692-15.83,14.726-17.305"/>
<path style="fill:none;stroke:#939598;stroke-width:0.7254;stroke-miterlimit:10;" d="M44.875,34.072l16.979,16.959
	c0,0,4.379-3.933,7.276-7.614c3.812-4.846,3.465-7.96,3.465-7.96"/>
<path style="fill:none;stroke:#939598;stroke-width:0.7254;stroke-miterlimit:10;" d="M20.007,28.246c0,0,3.072-1.625,20.515-1.625
	c17.441,0,19.788,1.733,19.788,1.733"/>
<g>
</g>
<g>
</g>
<g>
</g>
<g>
</g>
<g>
</g>
<g>
</g>
<g>
</g>
<g>
</g>
<g>
</g>
<g>
</g>
<g>
</g>
<g>
</g>
<g>
</g>
<g>
</g>
<g>
</g>
</svg>
