<?xml version="1.0" encoding="iso-8859-1"?>
<!-- Generator: Adobe Illustrator 16.0.4, SVG Export Plug-In . SVG Version: 6.00 Build 0)  -->
<!DOCTYPE svg PUBLIC "-//W3C//DTD SVG 1.1//EN" "http://www.w3.org/Graphics/SVG/1.1/DTD/svg11.dtd">
<svg version="1.1" id="Layer_1" xmlns="http://www.w3.org/2000/svg" xmlns:xlink="http://www.w3.org/1999/xlink" x="0px" y="0px"
	 width="80px" height="80px" viewBox="0 0 80 80" style="enable-background:new 0 0 80 80;" xml:space="preserve">
<rect style="fill:none;" width="80" height="80"/>
<path style="opacity:0.35;" d="M66.467,37.533c0-1.154,1.987-6.666-0.228-10.871c-0.47-0.892,0.383-4.879,0.902-4.204
	c1.062,1.387-2.029,0.375-2.029,0.375s3.749-1.551-0.595,1.536c-7.635,5.422-20.969,8.576-23.069,9.049l-0.003,0
	c-0.01,0.002-0.02,0.005-0.028,0.008c-0.164,0.037-0.26,0.058-0.26,0.058c0.004,0.003,0.008,0.007,0.012,0.011
	c-1.146,0.304-2.143,0.723-3.01,1.222l-2.759-1.45l-4.451,7.628c0.811-1.493,1.467-2.68,1.864-3.352
	c2.311-3.923,2.247-4.433,2.247-4.433c-10.42-3.733-9.446-3.561-16.339-6.528c-6.699-2.885-5.082-8.652-5.082-8.652
	c-1.572,10.603-1.887,7.65-1.887,14.148c0,5.192,4.735,8.998,10.28,11.422c0,0,10.595,7.068,34.157,1.069l4.65-1.993
	C60.493,42.924,65.922,40.04,66.467,37.533z"/>
<linearGradient id="SVGID_1_" gradientUnits="userSpaceOnUse" x1="11.7236" y1="29.2974" x2="67.9639" y2="29.2974">
	<stop  offset="0" style="stop-color:#D5D7D8"/>
	<stop  offset="0.1822" style="stop-color:#FFFFFF"/>
	<stop  offset="0.8283" style="stop-color:#EFF0F0"/>
	<stop  offset="1" style="stop-color:#C2C2C2"/>
</linearGradient>
<path style="fill:url(#SVGID_1_);stroke:#000000;stroke-width:0.935;stroke-miterlimit:10;" d="M12.532,21.037
	c-0.285,1.711-0.809,11.538-0.809,11.538c3.003,4.96,15.017,12.102,28.297,11.882C52.825,44.247,67.1,34.18,67.396,32.459
	c1.385-8.077-0.193-12.977-0.193-12.977c-2.068-4.46-15.806-5.35-28.28-5.35c-12.474,0-21.626,0.986-24.311,3.097
	C12.81,18.646,12.763,19.652,12.532,21.037z"/>
<path style="fill:#939598;stroke:#000000;stroke-width:0.935;stroke-miterlimit:10;" d="M20.964,28.881
	c0,0,13.68-1.039,18.363-1.039c4.685,0,21.023,0.577,21.023,0.577l-6.53,2.504l-12.087,4.399l-6.299,0.754l-4.664-2.438
	L20.964,28.881z"/>
<path style="fill:none;stroke:#000000;stroke-width:0.935;stroke-miterlimit:10;" d="M12.878,19.421c0,0-0.906,3.037,0.952,5.159"/>
<path style="fill:none;stroke:#000000;stroke-width:0.935;stroke-miterlimit:10;" d="M64.678,24.393
	c1.993-2.52,2.485-5.202,2.485-5.202"/>
<path style="fill:none;stroke:#939598;stroke-width:0.7254;stroke-miterlimit:10;" d="M17.264,26.111c0,0,4.453-2.139,21.896-2.139
	c17.442,0,23.322,2.139,23.322,2.139"/>
<path style="fill:#FFFFFF;stroke:#000000;stroke-width:0.935;stroke-miterlimit:10;" d="M40.02,34.599
	c3.031,0.48-2.712,9.457-5.252,9.687c-6.615-0.323-20.013-5.399-22.9-11.284c0-5.54,0.924-12.806,0.924-12.806
	S11.059,27.58,40.02,34.599z"/>
<path style="fill:#FFFFFF;stroke:#000000;stroke-width:0.935;stroke-miterlimit:10;" d="M57.291,41.456
	c-7.887,3.775-22.812,3.749-22.812,3.749s-0.607-3.93-0.461-5.133c0.257-2.109,1.724-5.166,9.702-6.632
	c19.314-3.552,23.358-12.667,23.358-12.667s0.807,1.847,0.807,5.192c0,3.346-0.23,7.096-0.23,7.096S65.176,37.681,57.291,41.456z"/>
<circle style="fill:none;stroke:#000000;stroke-width:0.935;stroke-miterlimit:10;" cx="40.542" cy="39.788" r="2.598"/>
<circle style="fill:none;stroke:#000000;stroke-width:0.935;stroke-miterlimit:10;" cx="40.542" cy="39.788" r="1.169"/>
<g>
</g>
<g>
</g>
<g>
</g>
<g>
</g>
<g>
</g>
<g>
</g>
<g>
</g>
<g>
</g>
<g>
</g>
<g>
</g>
<g>
</g>
<g>
</g>
<g>
</g>
<g>
</g>
<g>
</g>
</svg>
