<?xml version="1.0" encoding="iso-8859-1"?>
<!-- Generator: Adobe Illustrator 16.0.4, SVG Export Plug-In . SVG Version: 6.00 Build 0)  -->
<!DOCTYPE svg PUBLIC "-//W3C//DTD SVG 1.1//EN" "http://www.w3.org/Graphics/SVG/1.1/DTD/svg11.dtd">
<svg version="1.1" id="Layer_1" xmlns="http://www.w3.org/2000/svg" xmlns:xlink="http://www.w3.org/1999/xlink" x="0px" y="0px"
	 width="80px" height="80px" viewBox="0 0 80 80" style="enable-background:new 0 0 80 80;" xml:space="preserve">
<path style="fill:#FFFFFF;" d="M76.688,73.751H3.312V22.887c0,0,0.552-0.976,4.534-2.112c2.433-0.694,3.892-2.044,8.158-3.352
	c0.57-0.174,6.079-5.498,9.994-8.415c4.192-3.124,9.68-3.277,13.746-3.277c5.869,0,11.453,0.975,16.079,4.712
	c2.564,2.071,5.725,5.292,8.119,7.062l12.746,4.46V73.751z"/>
<linearGradient id="GradShadow_3_" gradientUnits="userSpaceOnUse" x1="36.1367" y1="63.7686" x2="40.1533" y2="65.3914">
	<stop  offset="0" style="stop-color:#FFFFFF;stop-opacity:0"/>
	<stop  offset="1" style="stop-color:#20201F"/>
	<stop  offset="1" style="stop-color:#000000"/>
	<stop  offset="1" style="stop-color:#000000"/>
	<stop  offset="1" style="stop-color:#000000"/>
</linearGradient>
<path id="GradShadow_1_" style="opacity:0.5;fill:url(#GradShadow_3_);" d="M34.51,68.399c0.917-1.792,4.326-10.505,4.201-11.005
	l2.214,5.229c0,0-3.182,9.123-3.39,9.123C37.327,71.746,34.51,68.399,34.51,68.399z"/>
<path style="fill:none;stroke:#000000;stroke-width:0.624;stroke-miterlimit:10;" d="M41.938,73.652
	c3.152-5.873,25.589-41.424,27.2-49.404c0.064-0.316-3.996,1.121-4.331,0.761c-0.329-0.353,3.777-1.344,4.112-1.884
	c0.195-0.314-3.303-3.975-7.998-8.296c-5.984-5.507-10.374-9.294-20.637-9.092C32.591,5.89,28.167,5.723,20.587,13.48
	c-5.438,5.565-6.97,4.856-9.228,9.583c-0.354,0.741,3.369,1.631,3.907,1.715c0.083,0.013-3.499-0.585-4.045-0.57
	c-0.963,0.027,14.71,34.529,26.314,47.83c0,0-0.549,1.28-0.683,1.741"/>
<path style="fill:none;stroke:#000000;stroke-width:0.624;stroke-miterlimit:10;" d="M37.535,72.037
	c1.608-3.76,12.613-31.958,18.043-49.15c1.504-4.762,0.7-10.991,0.244-12.444"/>
<path style="fill:none;stroke:#000000;stroke-width:0.624;stroke-miterlimit:10;" d="M56.449,17.891
	c1.488,0.778,7.119,5.863,8.358,7.119"/>
<path style="fill:none;stroke:#000000;stroke-width:0.624;stroke-miterlimit:10;" d="M23.271,18.548
	c-1.296,1.085-6.808,5.533-8.005,6.229"/>
<path style="fill:none;stroke:#000000;stroke-width:0.624;stroke-miterlimit:10;" d="M24.471,9.968
	c-6.581,6.098,9.04,36.991,16.795,52.655"/>
<path style="fill:none;stroke:#000000;stroke-width:0.624;stroke-miterlimit:10;" d="M3.312,22.887
	c2.348-0.675,1.481-1.446,3.636-1.823c1.671-0.292,5.506-3.095,9.36-3.641"/>
<path style="fill:none;stroke:#000000;stroke-width:0.624;stroke-miterlimit:10;" d="M76.688,22.229
	c-3.488-2.086-9.018-3.584-13.018-4.805"/>
<path style="fill:none;stroke:#000000;stroke-width:0.624;stroke-miterlimit:10;" d="M22.891,15.393
	c6.818-1.755,29.064-1.958,33.558,0"/>
<path style="fill:none;stroke:#000000;stroke-width:0.624;stroke-miterlimit:10;" d="M39.562,59.185
	c0.279-7.089-0.171-19.014,0.108-24.01c0.279-4.996-0.324-12.49-0.393-21.164"/>
<path style="opacity:0.2;fill:#12100B;" d="M22.891,15.393c0,0-0.391,4.762,4.129,16.081c5.076,12.71,14.246,31.149,14.246,31.149
	s16.922-40.96,15.184-47.23c0,0-0.564-4.731-0.627-4.95s-4.604-5.021-16.885-4.712c-12.583,0.316-15.302,5.357-15.302,5.357
	C23.146,12.448,22.891,14.474,22.891,15.393z"/>
<path style="opacity:0.1;fill:#12100B;" d="M14.83,17.644c-2.417,1.625-4.557,4.571-4.517,5.335
	c0.015,0.292-0.121,0.615,1.673,1.071c0,0-1.815-0.845-1.907,0.388c-0.268,3.604,11.13,31.188,26.415,49.341l0.365-0.027
	l0.677-1.714c0.701,1.952-11.99-16.885-18.833-30.798c-2.05-4.167-7.481-17.032-7.481-17.032c0.562-0.198,3.592,0.57,3.592,0.57
	s-3.316-0.4-3.37-1.553c-0.056-1.2,3.386-4.576,4.302-5.333C15.924,17.743,14.83,17.644,14.83,17.644z"/>
<path style="opacity:0.1;fill:#12100B;" d="M65.114,17.86c1.365,0.931,5.545,4.256,5.753,5.179c0.094,0.422-4.299,1.451-4.299,1.451
	c0.552-0.02,4.557-1.063,4.628-0.784c0.655,2.576-14.259,32.042-26.821,50.045h-2.437c0,0,19.909-32.569,27.309-49.233
	c0.469-1.056-4.74,0.994-4.439,0.492c0,0,3.905-1.452,4.119-1.785c0.213-0.333-4.68-5.059-4.528-5.581L65.114,17.86z"/>
<rect style="fill:none;" width="80" height="80"/>
<g>
</g>
<g>
</g>
<g>
</g>
<g>
</g>
<g>
</g>
<g>
</g>
<g>
</g>
<g>
</g>
<g>
</g>
<g>
</g>
<g>
</g>
<g>
</g>
<g>
</g>
<g>
</g>
<g>
</g>
</svg>
