<?xml version="1.0" encoding="iso-8859-1"?>
<!-- Generator: Adobe Illustrator 16.0.4, SVG Export Plug-In . SVG Version: 6.00 Build 0)  -->
<!DOCTYPE svg PUBLIC "-//W3C//DTD SVG 1.1//EN" "http://www.w3.org/Graphics/SVG/1.1/DTD/svg11.dtd">
<svg version="1.1" id="Layer_1" xmlns="http://www.w3.org/2000/svg" xmlns:xlink="http://www.w3.org/1999/xlink" x="0px" y="0px"
	 width="80px" height="80px" viewBox="0 0 80 80" style="enable-background:new 0 0 80 80;" xml:space="preserve">
<path style="fill:#FFFFFF;" d="M76.688,73.751H3.312V22.887c0,0,1.453-1.246,4.534-2.112c2.435-0.684,6.529-3.029,10.854-4.258
	c0.573-0.163,3.366-4.562,7.28-7.479c4.193-3.124,9.619-2.601,13.686-2.601c5.869,0,11.244,0.444,15.87,4.18
	c2.564,2.071,2.942,4.209,5.337,5.979l15.814,5.632V73.751z"/>
<linearGradient id="GradShadow_4_" gradientUnits="userSpaceOnUse" x1="35.6387" y1="64.9961" x2="39.6797" y2="66.6288">
	<stop  offset="0" style="stop-color:#FFFFFF;stop-opacity:0"/>
	<stop  offset="1" style="stop-color:#20201F"/>
	<stop  offset="1" style="stop-color:#000000"/>
	<stop  offset="1" style="stop-color:#000000"/>
	<stop  offset="1" style="stop-color:#000000"/>
</linearGradient>
<path id="GradShadow_3_" style="opacity:0.5;fill:url(#GradShadow_4_);" d="M34.51,68.399c0.917-1.792,3.333-8.051,3.208-8.551
	l2.506,5.065c0,0-2.481,6.832-2.689,6.832C37.327,71.746,34.51,68.399,34.51,68.399z"/>
<path style="fill:none;stroke:#000000;stroke-width:0.624;stroke-miterlimit:10;" d="M41.018,73.652
	c2.677-5.873,21.545-37.317,22.913-45.297c0.055-0.315-3.212-2.986-3.497-3.346c-0.279-0.353,3.213-1.245,3.497-1.785
	c0.166-0.314-0.443-4.124-4.181-8.662C54.5,8.188,50.438,6.439,40,6.438C30.5,6.436,26.125,7.5,20.224,14.469
	c-1.945,2.298-3.38,4.904-5.098,8.756c-0.326,0.73,2.79,1.469,3.246,1.553c0.07,0.013-3.231,2.488-3.37,3.241
	c-0.174,0.941,12.425,30.718,22.277,44.019c0,0-0.466,1.28-0.58,1.741"/>
<path style="fill:none;stroke:#000000;stroke-width:0.624;stroke-miterlimit:10;" d="M37.279,72.037
	c1.667-3.76,13.075-31.958,18.703-49.15c1.56-4.762,0.424-10.816-0.049-12.269"/>
<path style="fill:none;stroke:#000000;stroke-width:0.624;stroke-miterlimit:10;" d="M56.449,21.562
	c0.95,0.694,2.995,2.368,3.984,3.447"/>
<path style="fill:none;stroke:#000000;stroke-width:0.624;stroke-miterlimit:10;" d="M22.807,21.069
	c-1.271,1.108-3.659,3.123-4.435,3.708"/>
<path style="fill:none;stroke:#000000;stroke-width:0.624;stroke-miterlimit:10;" d="M23.932,10.706
	c-6.688,6.098,8.41,38.543,16.292,54.208"/>
<path style="fill:none;stroke:#000000;stroke-width:0.624;stroke-miterlimit:10;" d="M3.312,22.887
	c2.348-0.675,1.481-1.446,3.636-1.823c1.671-0.292,7.898-4.001,11.752-4.547"/>
<path style="fill:none;stroke:#000000;stroke-width:0.624;stroke-miterlimit:10;" d="M76.688,22.229
	c-3.488-2.086-11.349-4.491-15.349-5.711"/>
<path style="fill:none;stroke:#000000;stroke-width:0.624;stroke-miterlimit:10;" d="M22.274,15.517
	c6.818-1.755,29.478-2.486,34.497,0.483"/>
<path style="fill:none;stroke:#000000;stroke-width:0.624;stroke-miterlimit:10;" d="M39.746,63.96
	c0.28-7.089-0.355-23.79-0.075-28.786c0.279-4.996-0.324-12.49-0.393-21.164"/>
<path style="opacity:0.2;fill:#12100B;" d="M22.266,15.417c0,0-0.317,7.108,4.203,18.427C31.544,46.555,40.224,64.75,40.224,64.75
	S58.509,22.27,56.771,16c0,0-0.775-5.164-0.838-5.382S51.759,6.13,39.478,6.438c-12.583,0.316-16.334,4.957-16.334,4.957
	C22.654,12.755,22.266,14.498,22.266,15.417z"/>
<path style="opacity:0.1;fill:#12100B;" d="M17.527,16.878c-2.105,1.625-4.177,6.008-4.143,6.772
	c0.013,0.292,0.399,1.21,1.962,1.667c0,0-2.252,1.833-2.178,2.875c0.074,1.042,10.068,27.877,23.462,45.586l0.318-0.027l0.59-1.714
	c0.611,1.952-11.304-16.885-17.267-30.798c-1.786-4.167-5.27-13.221-5.27-13.221c1.031-1.388,3.076-3.241,3.076-3.241
	s-2.913-0.216-2.959-1.369c-0.049-1.2,2.52-5.772,3.318-6.53C18.592,16.73,17.527,16.878,17.527,16.878z"/>
<path style="opacity:0.1;fill:#12100B;" d="M62.946,17.01c1.133,0.932,3.214,5.491,3.386,6.415c0.078,0.422-2.764,1.669-2.764,1.669
	c1.122,0.9,2.591,2.569,2.649,2.849c0.545,2.577-12.248,27.806-22.676,45.809h-2.625c0,0,16.875-28.126,23.014-45.396
	c0.233-0.655-3.582-3.075-3.332-3.576c0,0,3.246-1.418,3.356-1.779c0.201-0.656-2.539-6.092-2.616-6.483L62.946,17.01z"/>
<rect style="fill:none;" width="80" height="80"/>
<g>
</g>
<g>
</g>
<g>
</g>
<g>
</g>
<g>
</g>
<g>
</g>
<g>
</g>
<g>
</g>
<g>
</g>
<g>
</g>
<g>
</g>
<g>
</g>
<g>
</g>
<g>
</g>
<g>
</g>
</svg>
