<?xml version="1.0" encoding="utf-8"?>
<!-- Generator: Adobe Illustrator 25.2.0, SVG Export Plug-In . SVG Version: 6.00 Build 0)  -->
<svg version="1.1" xmlns="http://www.w3.org/2000/svg" xmlns:xlink="http://www.w3.org/1999/xlink" x="0px" y="0px"
	 viewBox="0 0 4500 4500" style="enable-background:new 0 0 4500 4500;" xml:space="preserve">
<style type="text/css">
	.st0{fill:#006D5B;}
	.st1{fill:#FFFFFF;}
	.st2{fill:none;}
	.st3{fill:#1F0B00;}
	.st4{display:none;fill:#006D5B;}
	.st5{display:none;fill:#1F0B00;}
</style>
<g id="Layer_3">
	<path d="M1706.14,2490.3c-49.91,0-118.11-6.72-202.8-20c-74.24,13.28-146.49,20-214.88,20c-130.53,0-211.43-12.01-211.43-71.76
		c0-44.23,51.56-60.23,68.51-65.48c31.87-9.88,69.04-14.88,110.49-14.88c48,0,137.39,14.38,273.12,43.95
		c81.58-22.59,146.46-57.2,192.97-102.93c49.36-48.51,127.5-157.84,232.28-324.96c59.59-95.51,125.55-179.47,196.33-249.94
		c-58.3-81.25-145.59-120.85-265.88-120.85c-138.79,0-268.39,55.87-385.22,166.08c-59.4,56.04-107.5,118.72-142.95,186.28
		c-34.55,65.85-52.07,126.49-52.07,180.22c0,37.5,11.09,66.25,33.91,87.9c23.38,22.18,54.41,32.96,94.9,32.96
		c73.79,0,153.36-42.25,236.49-125.59c83.15-83.35,125.31-162.82,125.31-236.22c0-22.02-5.29-38.8-16.17-51.25
		c-1.37,22.14-10.76,42.3-27.39,58.59c-17.81,17.46-40.2,26.7-64.72,26.7c-47.53,0-77.05-30.79-77.05-80.36
		c0-31.03,13.91-58.55,40.25-79.61c24.21-19.39,53.52-29.22,87.11-29.22c42.6,0,78,14.69,105.19,43.69
		c26.58,28.31,40.05,64.93,40.05,108.83c0,98.79-50.48,199.48-150.05,299.28c-99.59,99.82-200.19,150.44-299.02,150.44
		c-71.33,0-131.18-24.34-177.87-72.33c-46.42-47.7-69.96-109.2-69.96-182.78c0-148.27,72.99-282.05,216.92-397.62
		c141.52-113.63,303.81-171.25,482.34-171.25c141.91,0,253.96,48.39,333.72,143.97c104.83-87.65,213.31-132.05,322.92-132.05
		c65.72,0,120.05,21.94,161.51,65.2c41.03,42.79,61.83,98.83,61.83,166.53c0,24.95-2.95,51.43-8.75,78.73
		c-5.28,24.83-14.12,66.39-51.09,66.39c-22.79,0-40.64-17.85-40.64-40.64c0-7.02,1.07-13.8,3.19-20.16
		c9.03-23.99,13.36-51.43,13.36-82.99c0-45.84-13.05-81.13-39.88-107.92c-26.86-26.83-62.23-39.86-108.12-39.86
		c-89.65,0-178.91,41.37-265.61,123.02c32.37,68.48,48.76,141.11,48.76,216.27c0,154.86-60.06,287.82-178.52,395.21
		C2020.12,2436.32,1874.97,2490.3,1706.14,2490.3z M1730.8,2406.35c157.23,0,281.48-74.79,379.88-228.66
		c63.89-99.49,96.27-197.72,96.27-292.01c0-29.52-3.67-58.18-10.95-85.68c-41.66,56.12-80.19,122.57-114.97,198.29
		c-64,140.25-131.99,243.4-202.07,306.51c-42.96,38.27-97.66,72.17-163.53,101.42C1720.53,2406.31,1725.66,2406.35,1730.8,2406.35z"
		/>
	<path d="M2324.72,2465.81c-39.77,0-65.47-26.22-65.47-66.8c0-28.44,13.48-55.59,40.06-80.71c26.02-24.59,53.72-37.05,82.33-37.05
		c37.18,0,62.16,25.51,62.16,63.49c0,29.84-12.67,57.75-37.65,82.96C2380.99,2452.99,2353.61,2465.81,2324.72,2465.81z"/>
	<path d="M2110.57,2904c-65.24,0-104.19-36.97-104.19-98.9c0-62.38,39.26-124.66,116.7-185.12c38.72-30.06,72.19-53.28,99.57-69.05
		c41.42-23.68,102.43-52.72,186.57-88.84l110.24-195.91c32.39-56.35,73.89-128.3,124.65-216.15l13.83-23.93l26.82,6.7
		c11.72,2.93,18.55,3.55,22.22,3.55c7.31,0,16.67-0.7,27.96-2.08c-21.62-9.83-34.85-31.22-34.85-59.21
		c0-24.02,10.11-46.48,30.06-66.76c25.04-25.47,50.54-30.81,67.51-30.81c38.96,0,65.14,26.18,65.14,65.14
		c0,17.28-5.29,43.09-30.5,67.85c-4.22,4.15-8.62,7.89-13.17,11.19l9.52-1.45l-41.45,67.38c-33.04,53.7-82.55,137.46-147.31,249.17
		c3.38-2.82,6.66-5.65,9.84-8.46c33.58-29.66,70.77-71.35,110.58-123.98c5.48-8.95,19.36-29.31,44.31-29.31
		c17.66,0,33.07,11.44,38.34,28.47l1.64,5.29v5.55c0,16.59-3.36,27.67-82.96,116.39c-51.07,57.17-120.53,111.13-206.55,160.44
		l-28.77,50.2c-70.44,120.43-141.41,210.37-211.09,267.6C2237.09,2872.92,2170.17,2904,2110.57,2904z M2330.45,2595.7
		c-58.36,31.05-98.22,53.88-118.99,68.18c-101.21,69.74-122.46,116.74-122.46,143.88c0,3.68,0.86,5.57,3.68,8.09
		c2.53,2.27,6.55,4.87,15.25,4.87c35.12,0,72.18-21.87,110.15-65.01C2244.65,2725.8,2282.29,2672.17,2330.45,2595.7z"/>
	<path d="M3052.61,2474.41c-31.17,0-58.09-12.42-77.83-35.92c-8.57-10.19-15.17-21.52-19.79-33.89
		c-9.79,11.12-18.61,20.31-26.53,27.63c-30.27,27.99-61.59,42.18-93.07,42.18c-34.55,0-64.87-15.23-87.67-44.04
		c-21.06-26.62-31.74-59.78-31.74-98.55c0-98.77,66.78-185.32,198.48-257.25c58.37-32.38,105.77-48.17,144.66-48.17
		c17.35,0,32.32,3.83,44.37,10.96l5.86-11.15l27.61,6.44c10.46,2.44,19.46,3.68,26.75,3.68c9.88,0,23.49-1.4,40.45-4.16l78.31-12.75
		l-158.19,261.87c-32.79,54.88-46.26,84.9-51.78,100.5c9.39-7,23.62-19.14,43.77-40.09c37.16-38.63,75.6-87.07,114.27-143.97
		c12.68-20.32,29.25-23.38,38.09-23.38c22.8,0,40.65,17.85,40.65,40.64c0,15.83,0,27.27-105.39,152.23
		C3143.2,2440.29,3095.08,2474.41,3052.61,2474.41z M2840.03,2391.13c2.42-0.53,34.12-9.29,128.74-136.77
		c67.53-91.32,81.6-129.68,84.23-143.79c-17.95,3.93-56.38,23.36-124.2,105.02c-74.8,90.06-90.5,141.71-90.5,169.19
		c0,2.84,0.21,4.9,0.43,6.32C2839.13,2391.12,2839.56,2391.13,2840.03,2391.13z"/>
	<path d="M3268.29,2474.41c-39.58,0-72.24-11.97-97.08-35.57c-25.36-24.11-38.22-56.12-38.22-95.1c0-41.08,14.4-81.03,42.8-118.71
		c29.85-39.64,63.16-60.33,99.06-61.55l39.83-48.79c14.88-17.77,34.41-41.96,58.35-72.22c8.59-31.9,21.34-60.06,37.97-83.82
		c22.65-32.35,48.12-48.75,75.73-48.75c27.39,0,47.27,20.3,47.27,48.26c0,24.31-14.79,54.86-85.29,123.02
		c-0.95,6.64-1.42,12.55-1.42,17.64c0,11.57,4.18,40.94,32.22,107.58c13.92,32.47,20.74,60.15,20.74,84.38
		c0,51.65-24.39,96.25-72.5,132.54C3382.78,2457.23,3329.14,2474.41,3268.29,2474.41z M3343.42,2209.29
		c2.59,7.3,3.91,15.09,3.91,23.25c0,25.64-12.1,71.26-93.11,88.8c-9.06,2.1-17,7.24-24.52,16.06
		c-10.12,11.89-10.12,20.17-10.12,22.9c0,7.46,2.18,12.53,7.51,17.5c4.02,3.74,10.23,8.04,22.66,8.04
		c24.96,0,50.73-16.92,76.59-50.31c28.47-36.76,42.3-74.78,42.3-116.22c0-12.28-0.42-24.7-1.24-36.93c-0.04-0.73-0.1-1.49-0.14-2.25
		C3359.69,2189.4,3351.75,2199.12,3343.42,2209.29z"/>
</g>
<g id="Layer_2">
	<path d="M1651.12,2435.28c-49.91,0-118.12-6.72-202.8-20c-74.24,13.28-146.49,20-214.88,20c-130.53,0-211.43-12.01-211.43-71.76
		c0-44.23,51.56-60.23,68.51-65.48c31.87-9.88,69.04-14.88,110.49-14.88c48,0,137.39,14.38,273.12,43.95
		c81.58-22.59,146.46-57.2,192.97-102.93c49.36-48.51,127.5-157.84,232.28-324.96c59.59-95.51,125.55-179.47,196.33-249.94
		c-58.3-81.25-145.59-120.85-265.88-120.85c-138.79,0-268.39,55.87-385.22,166.08c-59.4,56.04-107.5,118.72-142.95,186.28
		c-34.55,65.85-52.07,126.49-52.07,180.22c0,37.5,11.09,66.25,33.91,87.9c23.38,22.18,54.41,32.96,94.9,32.96
		c73.79,0,153.36-42.26,236.49-125.59c83.15-83.35,125.31-162.82,125.31-236.22c0-22.02-5.29-38.8-16.17-51.25
		c-1.37,22.14-10.76,42.3-27.39,58.59c-17.81,17.46-40.2,26.7-64.72,26.7c-47.53,0-77.05-30.79-77.05-80.36
		c0-31.03,13.91-58.55,40.25-79.61c24.21-19.39,53.52-29.22,87.11-29.22c42.6,0,78,14.69,105.19,43.69
		c26.58,28.31,40.05,64.93,40.05,108.83c0,98.79-50.48,199.48-150.05,299.28c-99.59,99.82-200.19,150.44-299.02,150.44
		c-71.33,0-131.18-24.34-177.87-72.33c-46.42-47.7-69.96-109.2-69.96-182.78c0-148.27,72.99-282.05,216.92-397.62
		c141.52-113.63,303.81-171.25,482.34-171.25c141.91,0,253.96,48.39,333.72,143.97c104.83-87.65,213.31-132.05,322.92-132.05
		c65.71,0,120.05,21.94,161.51,65.2c41.03,42.79,61.83,98.83,61.83,166.53c0,24.95-2.95,51.43-8.75,78.73
		c-5.28,24.83-14.12,66.39-51.09,66.39c-22.79,0-40.64-17.85-40.64-40.64c0-7.02,1.07-13.8,3.19-20.16
		c9.03-23.99,13.36-51.43,13.36-82.99c0-45.84-13.05-81.13-39.88-107.92c-26.86-26.83-62.23-39.86-108.12-39.86
		c-89.65,0-178.91,41.37-265.61,123.02c32.37,68.48,48.76,141.11,48.76,216.27c0,154.86-60.06,287.82-178.52,395.21
		C1965.1,2381.31,1819.96,2435.28,1651.12,2435.28z M1675.78,2351.34c157.23,0,281.48-74.79,379.88-228.66
		c63.89-99.49,96.27-197.72,96.27-292.01c0-29.52-3.67-58.18-10.95-85.68c-41.66,56.12-80.19,122.57-114.97,198.29
		c-64,140.25-131.99,243.4-202.07,306.51c-42.96,38.27-97.66,72.17-163.53,101.42C1665.51,2351.29,1670.65,2351.34,1675.78,2351.34z
		"/>
	<path class="st0" d="M1651.12,2416.94c-48.97,0-116.24-6.65-199.96-19.78l-2.93-0.47c-0.07-0.01-0.14-0.01-0.22,0l-2.93,0.53
		c-73.14,13.08-144.35,19.72-211.65,19.72c-137.14,0-193.09-15.47-193.09-53.42c0-27.54,31.73-40.56,55.61-47.97
		c30.1-9.33,65.45-14.06,105.05-14.06c46.71,0,134.76,14.24,269.22,43.53l4.28,0.93c0.1,0.02,0.21,0.02,0.31-0.01l4.22-1.17
		c84.59-23.42,152.19-59.61,200.93-107.53c50.35-49.48,129.41-159.94,234.96-328.29c58.8-94.25,123.98-177.24,193.73-246.69
		l10.67-10.62c0.22-0.22,0.25-0.58,0.07-0.83l-8.78-12.23c-62.04-86.46-153.89-128.49-280.78-128.49
		c-143.63,0-277.46,57.56-397.8,171.08c-60.89,57.45-110.22,121.74-146.61,191.1c-35.95,68.5-54.17,132-54.17,188.75
		c0,42.8,12.96,75.91,39.62,101.21c26.95,25.56,62.12,37.99,107.52,37.99c78.84,0,162.78-44.06,249.47-130.98
		c86.7-86.91,130.67-170.74,130.67-249.17c0-26.66-6.77-47.38-20.7-63.32c-13.53-16.3-28.63-7.67-32.11,10.93
		c-1.1,17.76-8.47,33.44-21.92,46.62c-14.33,14.04-32.26,21.46-51.89,21.46c-37.31,0-58.71-22.61-58.71-62.03
		c0-25.26,11.53-47.83,33.36-65.29c20.89-16.72,46.34-25.2,75.65-25.2c37.35,0,68.23,12.75,91.81,37.89
		c23.29,24.81,35.09,57.2,35.09,96.28c0,93.76-48.68,190.09-144.69,286.33c-96.03,96.25-192.27,145.05-286.03,145.05
		c-66.2,0-121.62-22.47-164.72-66.78c-42.98-44.16-64.77-101.35-64.77-170c0-142.43,70.68-271.4,210.07-383.32
		c138.19-110.95,296.61-167.21,470.86-167.21c136.02,0,243.57,46.22,319.65,137.38l11.34,13.6c0.23,0.27,0.64,0.31,0.91,0.08
		l13.59-11.36c101.4-84.79,206.08-127.78,311.15-127.78c60.51,0,110.4,20.03,148.26,59.55c37.64,39.26,56.73,91.02,56.73,153.84
		c0,23.65-2.81,48.86-8.35,74.92c-6.63,31.16-13.87,49.87-30.38,51.71c-14.28,1.6-25.55-9.52-25.05-23.88
		c0.15-4.42,0.9-8.68,2.23-12.66c9.54-25.29,14.29-54.54,14.29-88.76c0-50.95-14.81-90.5-45.26-120.9
		c-30.47-30.43-70.08-45.22-121.08-45.22c-94.4,0-187.98,43.07-278.18,128.01l-9.36,8.82c-0.2,0.19-0.26,0.49-0.14,0.75l5.49,11.62
		c31.2,65.99,47.01,136.12,47.01,208.44c0,149.46-58.04,277.86-172.5,381.63C1956.27,2364.57,1815.26,2416.94,1651.12,2416.94z
		 M2126.26,1734.05c-42.36,57.07-81.7,124.88-116.92,201.57c-62.97,138.02-129.48,239.12-197.68,300.54
		c-30.8,27.44-104.03,68.7-139,87.75c-11.41,6.22-17.42,19.16-14.83,31.9l0,0c1.64,8.05,8.72,13.84,16.93,13.86
		c0.36,0,0.69,0,1.01,0c163.98,0,293.3-77.56,395.33-237.13c65.8-102.45,99.16-204.02,99.16-301.88c0-30.98-3.89-61.39-11.56-90.37
		l-9.41-35.53c-0.14-0.52-0.82-0.65-1.14-0.22L2126.26,1734.05z"/>
	<path d="M2269.7,2410.79c-39.77,0-65.47-26.22-65.47-66.8c0-28.44,13.48-55.59,40.06-80.71c26.02-24.59,53.72-37.05,82.33-37.05
		c37.18,0,62.16,25.51,62.16,63.49c0,29.84-12.67,57.75-37.65,82.96C2325.98,2397.98,2298.6,2410.79,2269.7,2410.79z"/>
	<path class="st0" d="M2269.7,2392.45c-29.51,0-47.14-18.11-47.14-48.46c0-23.19,11.55-45.86,34.32-67.39
		c22.5-21.26,45.96-32.04,69.74-32.04c27.03,0,43.82,17.3,43.82,45.15c0,24.83-10.88,48.4-32.34,70.05
		C2316.55,2381.45,2293.53,2392.45,2269.7,2392.45z"/>
	<path d="M2055.56,2848.99c-65.24,0-104.19-36.97-104.19-98.9c0-62.38,39.26-124.66,116.7-185.12
		c38.72-30.06,72.19-53.28,99.57-69.05c41.42-23.68,102.43-52.72,186.57-88.84l110.24-195.91c32.39-56.35,73.89-128.3,124.65-216.15
		l13.83-23.93l26.82,6.7c11.72,2.93,18.55,3.55,22.22,3.55c7.31,0,16.67-0.7,27.96-2.08c-21.62-9.83-34.85-31.22-34.85-59.21
		c0-24.02,10.11-46.48,30.06-66.76c25.04-25.47,50.54-30.81,67.51-30.81c38.96,0,65.14,26.18,65.14,65.14
		c0,17.28-5.29,43.09-30.5,67.86c-4.22,4.15-8.62,7.89-13.17,11.19l9.52-1.45l-41.45,67.38c-33.04,53.7-82.55,137.46-147.31,249.17
		c3.38-2.82,6.66-5.65,9.84-8.46c33.58-29.66,70.77-71.35,110.58-123.98c5.48-8.95,19.36-29.31,44.31-29.31
		c17.66,0,33.07,11.44,38.34,28.47l1.64,5.29v5.55c0,16.59-3.36,27.67-82.96,116.39c-51.07,57.17-120.53,111.13-206.55,160.44
		l-28.77,50.2c-70.44,120.43-141.41,210.37-211.09,267.6C2182.07,2817.91,2115.15,2848.99,2055.56,2848.99z M2275.44,2540.68
		c-58.36,31.05-98.22,53.88-118.99,68.18c-101.21,69.74-122.46,116.74-122.46,143.88c0,3.68,0.86,5.57,3.68,8.09
		c2.53,2.27,6.55,4.87,15.25,4.87c35.12,0,72.18-21.87,110.15-65.01C2189.63,2670.79,2227.28,2617.15,2275.44,2540.68z"/>
	<path class="st0" d="M2055.56,2830.65c-55.36,0-85.85-28.61-85.85-80.56c0-56.44,36.89-113.86,109.64-170.67
		c38.03-29.52,70.83-52.28,97.44-67.61c40.73-23.28,101.16-52.04,184.65-87.89l3.91-1.68c1.17-0.5,2.13-1.37,2.76-2.48
		l112.32-199.61c32.3-56.19,73.79-128.13,124.54-215.96l4.73-8.2c1.29-2.23,3.91-3.34,6.41-2.72l9.18,2.29
		c10.87,2.71,19.84,4.09,26.67,4.09c8.01,0,18.17-0.74,30.18-2.21l42.28-5.17c4.81-0.59,8.17,4.64,5.63,8.77l-13.48,21.92
		c-25.24,41.01-130.26,220-130.26,220c-55.63,92.66-39.96,99.97,20.5,44.1l0.06-0.06c34.44-30.42,72.42-72.97,112.89-126.46
		c0.1-0.13,0.2-0.28,0.29-0.42c9.44-15.15,18.78-21.81,29.55-21.81c9.57,0,17.94,6.25,20.83,15.56l0.56,1.81
		c0.17,0.55,0.26,1.13,0.26,1.7v1.9c0,10.52-5.27,22.78-78.27,104.14c-49.77,55.72-117.73,108.45-202.03,156.78l-2.96,1.7
		c-0.89,0.51-1.63,1.25-2.14,2.14l-30.46,53.15c-69.21,118.32-138.82,206.7-206.82,262.54
		C2173.88,2800.91,2110.74,2830.65,2055.56,2830.65z M2266.83,2524.49c-59.74,31.79-99.25,54.44-120.77,69.26
		c-86.53,59.62-130.4,113.11-130.4,158.98c0,8.86,3.11,15.78,9.79,21.76c7.15,6.42,16.14,9.55,27.48,9.55
		c40.63,0,82.32-23.96,123.92-71.23c27.05-30.45,65.46-85.1,114.12-162.36l25.16-39.95c3.16-5.02-2.38-10.97-7.61-8.19
		L2266.83,2524.49z M2687.51,1962.55c-15.54-7.07-24.1-22.17-24.1-42.52c0-19.05,8.35-37.18,24.79-53.9
		c20.59-20.94,40.97-25.33,54.44-25.33c28.87,0,46.8,17.94,46.8,46.8c0,13.77-4.34,34.46-25.01,54.77c-2.46,2.43-5.02,4.7-7.64,6.8
		c-2.02,1.62-2.76,4.35-1.78,6.74l0,0c0.7,1.71,0.54,3.65-0.42,5.23l-12.67,20.6c-1.53,2.48-4.67,3.44-7.32,2.23L2687.51,1962.55z"
		/>
	<path d="M2997.6,2419.4c-31.17,0-58.09-12.42-77.83-35.92c-8.57-10.19-15.17-21.52-19.79-33.89
		c-9.79,11.12-18.61,20.31-26.53,27.63c-30.27,27.99-61.59,42.18-93.07,42.18c-34.55,0-64.87-15.23-87.67-44.04
		c-21.06-26.62-31.74-59.78-31.74-98.55c0-98.77,66.78-185.32,198.48-257.25c58.37-32.38,105.77-48.17,144.66-48.17
		c17.35,0,32.32,3.83,44.37,10.96l5.87-11.15l27.61,6.44c10.46,2.44,19.46,3.68,26.75,3.68c9.88,0,23.49-1.4,40.45-4.16l78.31-12.75
		l-158.19,261.87c-32.79,54.88-46.26,84.9-51.78,100.5c9.39-7,23.62-19.14,43.77-40.09c37.16-38.63,75.6-87.07,114.27-143.97
		c12.68-20.32,29.25-23.38,38.09-23.38c22.8,0,40.65,17.85,40.65,40.64c0,15.83,0,27.27-105.39,152.23
		C3088.19,2385.27,3040.07,2419.4,2997.6,2419.4z M2785.02,2336.11c2.42-0.53,34.12-9.29,128.74-136.77
		c67.53-91.32,81.6-129.68,84.23-143.79c-17.95,3.93-56.38,23.36-124.19,105.02c-74.8,90.06-90.5,141.71-90.5,169.19
		c0,2.84,0.21,4.9,0.43,6.32C2784.11,2336.11,2784.54,2336.11,2785.02,2336.11z"/>
	<path class="st0" d="M2997.6,2401.06c-25.58,0-47.65-10.16-63.79-29.38c-7.16-8.52-12.77-18.11-16.65-28.51l-10.72-28.7
		l-20.23,22.99c-9.32,10.58-17.8,19.43-25.22,26.28c-26.78,24.76-53.9,37.31-80.62,37.31c-28.75,0-54.09-12.82-73.29-37.08
		c-18.44-23.3-27.78-52.63-27.78-87.17c0-91.55,63.57-172.68,188.93-241.16c55.75-30.92,100.16-45.93,135.87-45.93
		c13.83,0,25.61,2.83,35.03,8.4l16.59,9.82l8.25-15.67l13.81,3.21c11.8,2.77,22.21,4.16,30.91,4.16c10.89,0,25.49-1.48,43.4-4.41
		l39.15-6.38l-137.68,227.91c-26.66,44.62-45.1,80.51-53.37,103.86l-20.17,56.91l48.41-36.09c13.01-9.7,28.5-23.85,46.02-42.08
		c37.85-39.34,76.95-88.59,116.23-146.38c8-12.79,16.84-15.35,22.92-15.35c12.72,0,22.31,9.59,22.31,22.3
		c0,9.64,0,20.58-101.08,140.41C3078.56,2368.16,3033.69,2401.06,2997.6,2401.06z M2994.07,2037.64
		c-34.08,7.47-79.29,44.89-134.38,111.22c-62.86,75.67-94.73,136.54-94.73,180.9c0,4.12,0.33,7.11,0.65,9.17l2.32,14.77l17.08,0.74
		h1.98l1.93-0.42c11.78-2.58,48.98-21.74,139.55-143.75c65.55-88.65,83.78-131.23,87.54-151.35l5.08-27.19L2994.07,2037.64z"/>
	<path d="M3213.28,2419.4c-39.58,0-72.24-11.97-97.08-35.58c-25.36-24.11-38.22-56.12-38.22-95.1c0-41.08,14.4-81.03,42.8-118.71
		c29.85-39.64,63.16-60.33,99.06-61.55l39.83-48.79c14.88-17.77,34.41-41.96,58.35-72.22c8.59-31.89,21.34-60.06,37.97-83.82
		c22.65-32.35,48.12-48.75,75.73-48.75c27.39,0,47.27,20.3,47.27,48.26c0,24.31-14.79,54.86-85.29,123.02
		c-0.95,6.64-1.42,12.55-1.42,17.64c0,11.57,4.18,40.94,32.22,107.58c13.92,32.47,20.74,60.15,20.74,84.38
		c0,51.65-24.39,96.25-72.5,132.54C3327.77,2402.21,3274.12,2419.4,3213.28,2419.4z M3288.4,2154.27c2.59,7.3,3.91,15.09,3.91,23.25
		c0,25.64-12.1,71.26-93.11,88.8c-9.06,2.1-17,7.24-24.52,16.06c-10.12,11.89-10.12,20.17-10.12,22.9c0,7.46,2.18,12.53,7.51,17.5
		c4.02,3.74,10.23,8.04,22.66,8.04c24.96,0,50.73-16.92,76.59-50.31c28.47-36.76,42.3-74.78,42.3-116.22
		c0-12.28-0.42-24.7-1.24-36.93c-0.04-0.73-0.1-1.49-0.14-2.25C3304.67,2134.39,3296.73,2144.11,3288.4,2154.27z"/>
	<path class="st0" d="M3213.28,2401.06c-34.72,0-63.13-10.27-84.45-30.53c-21.57-20.51-32.51-48.03-32.51-81.81
		c0-37.02,13.15-73.25,39.1-107.67c26.35-34.99,54.96-53.24,85.04-54.26l8.33-0.29l45.09-55.24c14.55-17.38,34.29-41.81,58.52-72.43
		l2.35-2.96l0.98-3.65c8.02-29.82,19.9-56.08,35.28-78.07c19.01-27.15,39.43-40.92,60.7-40.92c17.31,0,28.93,12.03,28.93,29.93
		c0,16.21-9.46,41.94-79.7,109.84l-4.51,4.37l-0.89,6.21c-1.07,7.48-1.61,14.28-1.61,20.24c0,15.83,5.84,48.58,33.65,114.69
		c13.01,30.33,19.31,55.57,19.31,77.27c0,45.59-21.94,85.26-65.2,117.9C3319.99,2385.11,3270.06,2401.06,3213.28,2401.06z
		 M3298.03,2113.52l-30.36,37.13l3.46,9.74c1.9,5.35,2.86,11.11,2.86,17.12c0,24.56-13.65,56.8-78.65,70.87
		c-13.31,3.08-24.55,10.29-34.61,22.11c-14.49,17.03-14.49,30.39-14.49,34.78c0,12.61,4.24,22.43,13.35,30.92
		c9.37,8.72,20.87,12.96,35.16,12.96c30.93,0,61.58-19.32,91.08-57.42c31.05-40.09,46.14-81.78,46.14-127.45
		c0-12.65-0.43-25.49-1.29-38.16l-3.12-46.38L3298.03,2113.52z"/>
	<path class="st1" d="M2673.15,1686.81c0,22.51-2.65,46.17-7.94,71.1c-5.3,24.88-10.37,37.34-15.22,37.34
		c-2.65,0-3.97-1.32-3.97-3.97c0-3.09,0.44-5.96,1.32-8.61c10.15-26.86,15.22-58.36,15.22-94.55c0-55.55-16.88-100.17-50.64-133.88
		c-33.76-33.7-78.44-50.58-134.04-50.58c-106.79,0-210.27,50.75-310.45,152.24c37.95,70.61,56.93,145.18,56.93,223.73
		c0,144.74-55.49,267.42-166.48,368.03c-110.98,100.61-246.57,150.92-406.76,150.92c-49.42,0-117.16-6.84-203.21-20.52
		c-74.58,13.68-146.07,20.52-214.47,20.52c-116.5,0-174.75-11.69-174.75-35.08c0-11.47,14.23-21.62,42.69-30.45
		s61.67-13.24,99.62-13.24c45.89,0,137.24,15,274.04,45.01c92.23-24.27,164.82-62.44,217.78-114.51
		c51.63-50.75,130.84-161.29,237.63-331.63c64.43-103.26,135.25-191.3,212.48-264.11c-64.43-108.56-168.79-162.83-313.09-162.83
		c-149.16,0-285.95,58.69-410.4,176.07c-62.66,59.13-112.75,124.44-150.26,195.93c-37.51,71.49-56.26,137.24-56.26,197.26
		c0,47.66,15.11,85.83,45.34,114.51c30.23,28.68,70.27,43.03,120.14,43.03c84.29,0,171.77-45.45,262.46-136.36
		c90.68-90.91,136.03-178.28,136.03-262.12c0-31.77-8.83-57.37-26.48-76.78s-40.82-29.12-69.5-29.12c-32.66,0-48.98,5.3-48.98,15.89
		c0,3.09,2.43,4.63,7.28,4.63c2.65,0,4.85-0.44,6.62-1.32h9.27c21.62,0,32.43,9.93,32.43,29.79c0,14.56-5.52,27.25-16.55,38.06
		c-11.03,10.81-24.05,16.22-39.05,16.22c-26.92,0-40.38-14.56-40.38-43.69c0-19.86,8.83-36.85,26.48-50.97s39.05-21.18,64.21-21.18
		c32.21,0,58.36,10.7,78.44,32.1c20.08,21.4,30.12,49.31,30.12,83.73c0,89.14-46.45,180.27-139.34,273.38
		c-92.89,93.11-183.91,139.67-273.05,139.67c-61.34,0-111.87-20.41-151.58-61.23s-59.57-93.22-59.57-157.21
		c0-137.24,67.74-260.25,203.21-369.03c135.48-108.78,288.6-163.17,459.38-163.17c145.18,0,254.62,53.62,328.32,160.85
		c107.67-99.29,217.11-148.93,328.32-148.93c55.6,0,100.61,17.98,135.03,53.89C2655.94,1581.56,2673.15,1628.61,2673.15,1686.81z
		 M1424.74,2374.11c-121.8-17.21-212.7-25.82-272.72-25.82c-52.95,0-79.43,5.07-79.43,15.22c0,15.45,57.81,23.17,173.43,23.17
		C1312.22,2386.69,1371.79,2382.5,1424.74,2374.11z M2188.61,1830.67c0-56.48-11.91-109.44-35.74-158.86
		c-59.57,67.96-112.97,153.35-160.19,256.17c-62.22,136.36-126.65,234.54-193.28,294.56c-68.84,61.34-169.67,110.54-302.5,147.61
		c56.1,11.91,115.73,17.87,178.89,17.87c169.18,0,306.09-81.86,410.78-245.58C2154.58,2036.53,2188.61,1932.61,2188.61,1830.67z"/>
	<path class="st1" d="M2352.11,2289.72c0,19.97-9.05,39-27.03,57.15c-18.04,18.15-36.46,27.25-55.38,27.25
		c-19.2,0-28.79-10.04-28.79-30.12c0-18.04,9.49-36.02,28.57-54.06c19.03-17.98,38.12-27.03,57.15-27.03
		C2343.61,2262.91,2352.11,2271.84,2352.11,2289.72z"/>
	<path class="st1" d="M2752.91,2159.32c0,6.62-24.55,37.23-73.58,91.9c-50.36,56.37-119.04,109.05-206.08,157.98l-33.76,58.91
		c-68.4,116.94-135.92,202.77-202.55,257.49c-70.61,57.81-131.06,86.71-181.37,86.71c-45.01,0-67.52-20.74-67.52-62.22
		c0-50.75,34.2-102.82,102.6-156.22c37.51-29.12,69.28-51.19,95.32-66.19c40.16-22.95,101.94-52.29,185.34-88.04l9.27-4.63
		l115.84-205.86c32.21-56.04,73.7-127.97,124.44-215.79c12.36,3.09,22.73,4.63,31.11,4.63c12.36,0,28.68-1.54,48.98-4.63
		c-35.3,57.37-88.7,147.83-160.19,271.39l-60.9,111.2c56.87-31.72,103.26-63.44,139.17-95.21c35.91-31.72,74.8-75.35,116.67-130.84
		c5.3-8.83,9.93-13.24,13.9-13.24C2751.25,2156.67,2752.36,2157.55,2752.91,2159.32z M2375.28,2447.59
		c-125.77,63.99-205.64,107.67-239.62,131.06c-92.23,63.55-138.34,121.57-138.34,174.09c0,14.12,5.3,25.93,15.89,35.41
		c10.59,9.49,23.83,14.23,39.72,14.23c46.34,0,92.23-25.82,137.68-77.45c38.39-43.25,97.3-131.28,176.74-264.11L2375.28,2447.59z
		 M2771.11,1887.59c0,15-6.51,28.9-19.53,41.7c-13.02,12.8-27.25,19.2-42.69,19.2c-18.09,0-27.14-9.49-27.14-28.46
		c0-14.12,6.51-27.8,19.53-41.04c13.02-13.24,26.81-19.86,41.37-19.86C2761.62,1859.13,2771.11,1868.62,2771.11,1887.59z"/>
	<path class="st1" d="M3217.58,2159.98c0,9.27-32.27,52.13-96.75,128.58c-52.13,62.77-93.22,94.16-123.23,94.16
		c-20.35,0-36.96-7.61-49.76-22.84c-12.8-15.22-19.2-34.31-19.2-57.26c0-23.83,7.06-49.64,21.18-77.45
		c-44.13,61.78-77.89,103.48-101.28,125.1s-46.11,32.43-68.18,32.43c-23.39,0-43.03-10.04-58.91-30.12
		c-15.89-20.08-23.83-45.34-23.83-75.79c0-84.73,59.79-159.75,179.38-225.06c52.51-29.12,94.88-43.69,127.09-43.69
		c27.36,0,41.04,13.24,41.04,39.72c0,7.5-1.77,17.43-5.3,29.79l33.76-64.21c13.24,3.09,24.93,4.63,35.08,4.63
		c11.91,0,27.36-1.54,46.33-4.63l-117.16,193.95c-40.6,67.96-60.9,112.75-60.9,134.37c0,20.74,8.61,31.11,25.87,31.11
		c17.65,0,45.95-20.24,84.84-60.68c38.89-40.43,78.44-90.24,118.65-149.49c2.65-4.41,5.07-6.62,7.28-6.62
		C3216.26,2156.01,3217.58,2157.33,3217.58,2159.98z M3035.22,2050.43c0-21.62-9.93-32.43-29.79-32.43
		c-40.6,0-93.88,39.72-159.86,119.15c-65.97,79.43-98.96,143.64-98.96,192.62c0,28.68,12.8,43.03,38.39,43.03
		c30.45,0,83.18-50.53,158.2-151.58C3004.55,2138.24,3035.22,2081.32,3035.22,2050.43z"/>
	<path class="st1" d="M3442.31,1903.15c0,17.6-27.58,52.57-82.74,104.92c-2.65,13.68-3.97,25.59-3.97,35.74
		c0,25.59,11.69,66.19,35.08,121.8c11.91,27.8,17.87,51.19,17.87,70.16c0,39.72-19.31,74.14-57.92,103.26
		c-38.61,29.12-84.4,43.69-137.35,43.69c-30.01,0-53.95-8.49-71.82-25.48c-17.87-16.99-26.81-39.83-26.81-68.51
		c0-33.1,11.8-65.31,35.41-96.64s47.99-47,73.14-47c4.41,0,8.38,0.88,11.91,2.65l52.95-64.87c15.89-18.98,37.07-45.23,63.55-78.77
		c7.5-30.89,18.98-57.37,34.42-79.43s30.67-33.1,45.67-33.1C3438.78,1891.57,3442.31,1895.43,3442.31,1903.15z M3350.3,2164.28
		c0-13.24-0.44-26.37-1.32-39.39c-0.88-13.02-1.32-31.66-1.32-55.93c0-19.86,0.88-36.41,2.65-49.64
		c-24.71,31.33-60.46,75.46-107.23,132.39c8.38,7.06,12.58,15.67,12.58,25.82c0,26.04-21.4,43.69-64.21,52.95
		c-17.21,3.97-32.1,13.35-44.68,28.13c-12.58,14.78-18.86,30.34-18.86,46.67c0,17.65,6.4,32.43,19.2,44.35s28.68,17.87,47.66,17.87
		c37.07,0,72.26-21.51,105.58-64.54C3333.64,2259.93,3350.3,2213.71,3350.3,2164.28z"/>
</g>
<g id="Layer_4">
	<path d="M2264,902.31c474.72,0,896.95,224.73,1166.12,573.6l36.88-193.6l204.63,7.91C3348.42,876.38,2844.79,610.31,2279,610.31
		c-572.04,0-1080.56,271.99-1403.29,693.69l188.29-2.69l34.08,174.33C1367.27,1126.92,1789.4,902.31,2264,902.31z"/>
	<path d="M2261.33,3853.04c-474.65-8.28-892.89-240.35-1155.94-593.87l-40.25,192.93l-204.46-11.48
		c315.93,419.42,814.85,694.24,1380.55,704.11c571.96,9.98,1085.14-253.09,1415.18-669.09l-188.3-0.6l-31.04-174.9
		C3161.85,3644.1,2735.86,3861.32,2261.33,3853.04z"/>
	<path class="st0" d="M2249.93,3773.85c-474.63-9.29-892.38-242.25-1154.67-596.32l-40.66,192.84l-204.43-11.91
		c315.04,420.09,813.37,695.97,1379.05,707.05c571.93,11.2,1085.67-250.78,1416.6-666.08l-188.3-1l-30.66-174.97
		C3150.89,3566.84,2724.44,3783.15,2249.93,3773.85z"/>
	<path class="st0" d="M2254,832c474.72,0,896.95,224.73,1166.12,573.6L3457,1212l204.63,7.91C3338.42,806.07,2834.79,540,2269,540
		c-572.04,0-1080.56,271.99-1403.29,693.69L1054,1231l34.08,174.33C1357.27,1056.62,1779.4,832,2254,832z"/>
</g>
<g id="Layer_5">
	<path id="SVGID_x5F_1_x5F_" class="st2" d="M3892,2309c0,896.08-726.42,1622.5-1622.5,1622.5S647,3205.08,647,2309
		S1373.42,686.5,2269.5,686.5S3892,1412.92,3892,2309z"/>
	<text>	<textPath  xlink:href="#SVGID_x5F_1_x5F_" startOffset="4352.6772%">
<tspan  style="font-family:'CenturyGothic-Bold'; font-size:161px;">      </tspan><tspan  class="st1" style="font-family:'CenturyGothic-Bold'; font-size:161px;">•</tspan><tspan  style="font-family:'CenturyGothic-Bold'; font-size:161px;">  </tspan><tspan  class="st1" style="font-family:'CenturyGothic-Bold'; font-size:194px;">SUIT SPECIALIST</tspan><tspan  style="font-family:'CenturyGothic-Bold'; font-size:194px;"> </tspan><tspan  class="st1" style="font-family:'CenturyGothic-Bold'; font-size:161px;"> •</tspan>	</textPath>
</text>
	<path id="SVGID_x5F_2_x5F_" class="st2" d="M3892,2309c0,896.08-726.42,1622.5-1622.5,1622.5S647,3205.08,647,2309
		S1373.42,686.5,2269.5,686.5S3892,1412.92,3892,2309z"/>
	<text>	<textPath  xlink:href="#SVGID_x5F_2_x5F_" startOffset="4352.6772%">
<tspan  style="font-family:'CenturyGothic-Bold'; font-size:161px;">                                                                        </tspan><tspan  class="st1" style="font-family:'CenturyGothic-Bold'; font-size:161px;"> </tspan><tspan  class="st1" style="font-family:'CenturyGothic-Bold'; font-size:194px;"> ESTD • 1993</tspan>	</textPath>
</text>
</g>
<g id="Layer_6">
	
		<rect x="700.93" y="1837.39" transform="matrix(-0.9772 -0.2123 0.2123 -0.9772 1014.9495 3957.2996)" class="st3" width="38" height="173.53"/>
	
		<rect x="688.66" y="1815.51" transform="matrix(-0.9772 -0.2123 0.2123 -0.9772 995.3314 3911.4233)" class="st0" width="38" height="173.53"/>
	
		<rect x="651.62" y="2250.4" transform="matrix(-0.9989 0.0479 -0.0479 -0.9989 1452.3247 4639.562)" class="st3" width="38" height="173.53"/>
	
		<rect x="636.61" y="2233.6" transform="matrix(-0.9989 0.0479 -0.0479 -0.9989 1421.5039 4606.707)" class="st0" width="38" height="173.53"/>
	
		<rect x="3881.38" y="2225.07" transform="matrix(0.9989 -0.0479 0.0479 0.9989 -106.166 189.3048)" class="st3" width="38" height="173.53"/>
	
		<rect x="3864.39" y="2210.86" transform="matrix(0.9989 -0.0479 0.0479 0.9989 -105.5057 188.4758)" class="st0" width="38" height="173.53"/>
	
		<rect x="3826.54" y="1802.87" transform="matrix(0.9524 -0.3047 0.3047 0.9524 -392.9416 1261.8036)" class="st3" width="38" height="173.53"/>
	
		<rect x="3806.46" y="1793.54" transform="matrix(0.9524 -0.3047 0.3047 0.9524 -391.0552 1255.2407)" class="st0" width="38" height="173.53"/>
</g>
<g id="Layer_7">
	<g>
		<path d="M790.23,1719c-23.67-13.61-47.4-27.1-70.94-40.92c-4.22-2.48-12.98-4.53-7.84-11.47c5.15-6.95,3.98-22.29,17.85-18.89
			c7.87,1.93,8.93-2.26,10.64-6.24c4.3-10,9.73-9.35,18.14-4.42c38.91,22.85,78.06,45.31,117.36,67.49
			c7.55,4.26,11.46,7.93,5.27,16.26c-3.5,4.71-5.53,8.1,0.83,14.82c8.29,8.77-5.11,15.72-8.1,23.79c-2.82,7.62-8.15,2.65-12.18,0.35
			C837.54,1746.25,813.9,1732.6,790.23,1719z"/>
		<path d="M936.31,1463.49c22.68,13.04,45.49,25.87,67.94,39.3c4.37,2.61,15.03,3.98,9.45,11.89c-5.11,7.25-2.95,23.21-19.14,19.74
			c-2.88-0.62-6-1.73-7.21,1.31c-7.11,17.86-16.66,7.4-25.56,2.3c-36.72-21.01-73.29-42.29-110.12-63.11
			c-7.8-4.41-13.35-8.25-5.89-17.35c1.73-2.11,3.54-5.47,1.11-7.51c-15.47-12.98,2.8-19.79,5.84-28.82
			c2.18-6.47,8.67-0.66,12.58,1.54C889.07,1436.21,912.67,1449.9,936.31,1463.49z"/>
		<path d="M839.57,1629.53c-21.18-12.18-42.34-24.39-63.56-36.51c-4.88-2.79-11.44-5.87-8.2-12.1c3.42-6.58,9.57-2.49,14.36,0.27
			c42.86,24.61,85.7,49.26,128.56,73.87c4.81,2.76,11.55,5.66,8.12,12.08c-3.48,6.5-9.24,2.51-14.19-0.38
			c-21.58-12.6-43.3-24.98-64.97-37.44C839.65,1629.4,839.61,1629.47,839.57,1629.53z"/>
		<path d="M870.61,1578.4c-21.72-12.49-43.47-24.92-65.14-37.51c-4.57-2.65-11.64-5.33-7.65-12.03c3.35-5.63,8.94-1.52,13.18,0.92
			c43.47,24.93,86.93,49.9,130.34,74.94c4.15,2.4,10.67,4.92,7.29,10.89c-3.95,6.96-9.69,1.98-14.27-0.62
			C913.05,1602.88,891.85,1590.61,870.61,1578.4z"/>
		<path d="M867.38,1584.95c20.69,11.89,41.43,23.7,62.03,35.74c4.85,2.83,13.58,4.87,8.88,12.72c-3.79,6.33-9.92,1.24-14.53-1.4
			c-42.37-24.27-84.72-48.58-126.98-73.03c-4.93-2.85-13.28-5.53-8.83-13c3.81-6.4,9.92-0.87,14.44,1.69
			C824.12,1559.99,845.72,1572.51,867.38,1584.95z"/>
		<path d="M857.6,1601.91c21.18,12.18,42.32,24.44,63.59,36.48c5.02,2.84,11.1,5.69,7.27,12.2c-3.25,5.52-8.83,2.13-13.2-0.38
			c-43.35-24.87-86.69-49.74-129.99-74.71c-4.69-2.71-11.43-6.11-7.22-12.37c3.99-5.93,9.64-1.29,14.47,1.52
			c21.6,12.58,43.31,24.97,64.98,37.43C857.53,1602.02,857.56,1601.96,857.6,1601.91z"/>
		<path d="M830.72,1646.85c-21.19-12.18-42.37-24.38-63.57-36.53c-5.12-2.94-13.24-5.32-8.84-12.79c3.57-6.06,9.88-1.44,14.61,1.27
			c42.38,24.32,84.77,48.63,127.07,73.09c4.94,2.85,13.19,5.54,8.57,13.06c-3.67,5.98-9.45,1.54-14.39-1.37
			c-21.05-12.4-42.31-24.45-63.5-36.63C830.68,1646.91,830.7,1646.88,830.72,1646.85z"/>
		<path d="M820.39,1663.71c-21.73-12.51-43.49-24.97-65.19-37.53c-4.26-2.46-10.27-5.19-7.03-11.12c3.27-5.97,8.77-2.35,13.02,0.09
			c43.5,24.93,86.97,49.92,130.4,74.96c4.66,2.68,11.48,5.48,7.11,12.23c-3.64,5.63-8.84,1.33-13.11-1.13
			C863.86,1688.71,842.12,1676.21,820.39,1663.71z"/>
		<path d="M886.76,1551.07c20.73,11.92,41.55,23.7,62.13,35.88c4.24,2.51,13,4.23,9.17,11.11c-4.47,8.03-10.78,0.87-15.45-1.79
			c-41.58-23.64-83.04-47.49-124.41-71.49c-4.86-2.82-14.46-5.33-10.57-12.11c4.78-8.33,11.72-0.03,16.84,2.79
			C845.41,1527.01,866.03,1539.15,886.76,1551.07z"/>
		<path d="M897.91,1531.68c20.73,11.92,41.55,23.7,62.13,35.88c4.24,2.51,13,4.23,9.17,11.11c-4.47,8.03-10.78,0.87-15.45-1.79
			c-41.58-23.64-83.04-47.49-124.41-71.49c-4.86-2.82-14.46-5.33-10.57-12.11c4.78-8.33,11.72-0.03,16.84,2.79
			C856.56,1507.62,877.18,1519.76,897.91,1531.68z"/>
		<path d="M904.94,1516c21.67,12.45,43.39,24.81,64.94,37.45c3.88,2.28,11.3,3.8,8.26,10.13c-3.08,6.4-8.55,2.01-12.71-0.38
			c-43.83-25.14-87.64-50.34-131.44-75.54c-3.81-2.19-9.45-4.68-6.8-9.64c3.46-6.48,8.71-1.59,12.72,0.68
			C861.65,1491.03,883.27,1503.55,904.94,1516z"/>
	</g>
	<g>
		<path class="st0" d="M780.23,1686c-23.67-13.61-47.4-27.1-70.94-40.92c-4.22-2.48-12.98-4.53-7.84-11.47
			c5.15-6.95,3.98-22.29,17.85-18.89c7.87,1.93,8.93-2.26,10.64-6.24c4.3-10,9.73-9.35,18.14-4.42
			c38.91,22.85,78.06,45.31,117.36,67.49c7.55,4.26,11.46,7.93,5.27,16.26c-3.5,4.71-5.53,8.1,0.83,14.82
			c8.29,8.77-5.11,15.72-8.1,23.79c-2.82,7.62-8.15,2.65-12.18,0.35C827.54,1713.25,803.9,1699.6,780.23,1686z"/>
		<path class="st0" d="M926.31,1430.49c22.68,13.04,45.49,25.87,67.94,39.3c4.37,2.61,15.03,3.98,9.45,11.89
			c-5.11,7.25-2.95,23.21-19.14,19.74c-2.88-0.62-6-1.73-7.21,1.31c-7.11,17.86-16.66,7.4-25.56,2.3
			c-36.72-21.01-73.29-42.29-110.12-63.11c-7.8-4.41-13.35-8.25-5.89-17.35c1.73-2.11,3.54-5.47,1.11-7.51
			c-15.47-12.98,2.8-19.79,5.84-28.82c2.18-6.47,8.67-0.66,12.58,1.54C879.07,1403.21,902.67,1416.9,926.31,1430.49z"/>
		<path class="st0" d="M829.57,1596.53c-21.18-12.18-42.34-24.39-63.56-36.51c-4.88-2.79-11.44-5.87-8.2-12.1
			c3.42-6.58,9.57-2.49,14.36,0.27c42.86,24.61,85.7,49.26,128.56,73.87c4.81,2.76,11.55,5.66,8.12,12.08
			c-3.48,6.5-9.24,2.51-14.19-0.38c-21.58-12.6-43.3-24.98-64.97-37.44C829.65,1596.4,829.61,1596.47,829.57,1596.53z"/>
		<path class="st0" d="M860.61,1545.4c-21.72-12.49-43.47-24.92-65.14-37.51c-4.57-2.65-11.64-5.33-7.65-12.03
			c3.35-5.63,8.94-1.52,13.18,0.92c43.47,24.93,86.93,49.9,130.34,74.94c4.15,2.4,10.67,4.92,7.29,10.89
			c-3.95,6.96-9.69,1.98-14.27-0.62C903.05,1569.88,881.85,1557.61,860.61,1545.4z"/>
		<path class="st0" d="M857.38,1551.95c20.69,11.89,41.43,23.7,62.03,35.74c4.85,2.83,13.58,4.87,8.88,12.72
			c-3.79,6.33-9.92,1.24-14.53-1.4c-42.37-24.27-84.72-48.58-126.98-73.03c-4.93-2.85-13.28-5.53-8.83-13
			c3.81-6.4,9.92-0.87,14.44,1.69C814.12,1526.99,835.72,1539.51,857.38,1551.95z"/>
		<path class="st0" d="M847.6,1568.91c21.18,12.18,42.32,24.44,63.59,36.48c5.02,2.84,11.1,5.69,7.27,12.2
			c-3.25,5.52-8.83,2.13-13.2-0.38c-43.35-24.87-86.69-49.74-129.99-74.71c-4.69-2.71-11.43-6.11-7.22-12.37
			c3.99-5.93,9.64-1.29,14.47,1.52c21.6,12.58,43.31,24.97,64.98,37.43C847.53,1569.02,847.56,1568.96,847.6,1568.91z"/>
		<path class="st0" d="M820.72,1613.85c-21.19-12.18-42.37-24.38-63.57-36.53c-5.12-2.94-13.24-5.32-8.84-12.79
			c3.57-6.06,9.88-1.44,14.61,1.27c42.38,24.32,84.77,48.63,127.07,73.09c4.94,2.85,13.19,5.54,8.57,13.06
			c-3.67,5.98-9.45,1.54-14.39-1.37c-21.05-12.4-42.31-24.45-63.5-36.63C820.68,1613.91,820.7,1613.88,820.72,1613.85z"/>
		<path class="st0" d="M810.39,1630.71c-21.73-12.51-43.49-24.97-65.19-37.53c-4.26-2.46-10.27-5.19-7.03-11.12
			c3.27-5.97,8.77-2.35,13.02,0.09c43.5,24.93,86.97,49.92,130.4,74.96c4.66,2.68,11.48,5.48,7.11,12.23
			c-3.64,5.63-8.84,1.33-13.11-1.13C853.86,1655.71,832.12,1643.21,810.39,1630.71z"/>
		<path class="st0" d="M876.76,1518.07c20.73,11.92,41.55,23.7,62.13,35.88c4.24,2.51,13,4.23,9.17,11.11
			c-4.47,8.03-10.78,0.87-15.45-1.79c-41.58-23.64-83.04-47.49-124.41-71.49c-4.86-2.82-14.46-5.33-10.57-12.11
			c4.78-8.33,11.72-0.03,16.84,2.79C835.41,1494.01,856.03,1506.15,876.76,1518.07z"/>
		<path class="st0" d="M887.91,1498.68c20.73,11.92,41.55,23.7,62.13,35.88c4.24,2.51,13,4.23,9.17,11.11
			c-4.47,8.03-10.78,0.87-15.45-1.79c-41.58-23.64-83.04-47.49-124.41-71.49c-4.86-2.82-14.46-5.33-10.57-12.11
			c4.78-8.33,11.72-0.03,16.84,2.79C846.56,1474.62,867.18,1486.76,887.91,1498.68z"/>
		<path class="st0" d="M894.94,1483c21.67,12.45,43.39,24.81,64.94,37.45c3.88,2.28,11.3,3.8,8.26,10.13
			c-3.08,6.4-8.55,2.01-12.71-0.38c-43.83-25.14-87.64-50.34-131.44-75.54c-3.81-2.19-9.45-4.68-6.8-9.64
			c3.46-6.48,8.71-1.59,12.72,0.68C851.65,1458.03,873.27,1470.55,894.94,1483z"/>
	</g>
	<g>
		<path d="M3791.65,1680.77c-21.84,16.38-43.6,32.87-65.59,49.05c-3.94,2.9-9.28,10.14-13.63,2.68
			c-4.35-7.47-18.92-12.45-10.32-23.85c4.88-6.47,1.45-9.09-1.54-12.24c-7.5-7.9-4.76-12.63,3.09-18.41
			c36.34-26.75,72.42-53.87,108.31-81.22c6.89-5.25,11.81-7.4,17.03,1.57c2.95,5.07,5.26,8.27,13.95,5.08
			c11.33-4.16,12.43,10.9,18.67,16.83c5.89,5.6-0.77,8.53-4.48,11.33C3835.35,1648.05,3813.48,1664.39,3791.65,1680.77z"/>
		<path d="M3614.47,1445.76c20.93-15.7,41.71-31.6,62.91-46.93c4.12-2.98,9.59-12.24,14.65-4c4.65,7.56,20.16,11.87,10.59,25.38
			c-1.7,2.4-3.95,4.84-1.64,7.15c13.61,13.58,0.23,18.22-7.96,24.39c-33.79,25.46-67.77,50.67-101.42,76.3
			c-7.13,5.43-12.84,9.01-18.27-1.43c-1.26-2.42-3.63-5.41-6.46-3.98c-18.03,9.1-17.08-10.38-24.18-16.73
			c-5.09-4.56,2.81-8.23,6.38-10.96C3570.77,1478.41,3592.65,1462.13,3614.47,1445.76z"/>
		<path d="M3728.89,1600.15c-19.54,14.66-39.11,29.29-58.62,44.01c-4.48,3.38-9.9,8.2-14.35,2.76c-4.7-5.74,1.49-9.77,5.91-13.09
			c39.52-29.68,79.07-59.32,118.59-89c4.44-3.33,9.76-8.38,14.3-2.69c4.6,5.76-1.34,9.48-5.95,12.88
			c-20.09,14.86-40.03,29.94-60.03,44.94C3728.8,1600.02,3728.85,1600.09,3728.89,1600.15z"/>
		<path d="M3694.15,1551.46c-20.04,15.04-40.05,30.12-60.16,45.06c-4.24,3.15-9.49,8.6-14.07,2.29c-3.85-5.3,2.13-8.81,6.04-11.75
			c40.06-30.12,80.14-60.2,120.27-90.21c3.84-2.87,8.73-7.87,12.88-2.4c4.84,6.37-2,9.68-6.2,12.86
			C3733.38,1522.11,3713.74,1536.76,3694.15,1551.46z"/>
		<path d="M3698.89,1557.01c19.09-14.32,38.12-28.72,57.31-42.91c4.52-3.34,9.83-10.56,15.19-3.15c4.33,5.98-2.78,9.61-7.02,12.8
			c-39.01,29.37-78.05,58.69-117.19,87.89c-4.56,3.4-10.32,10.02-15.43,2.99c-4.38-6.03,3.11-9.46,7.25-12.6
			C3658.89,1586.92,3678.92,1572,3698.89,1557.01z"/>
		<path d="M3710.61,1572.69c19.55-14.66,39.15-29.25,58.6-44.05c4.59-3.49,9.61-7.96,14.08-1.87c3.79,5.17-1.53,8.96-5.55,11.98
			c-39.95,30.02-79.9,60.05-119.92,89.98c-4.34,3.25-10.12,8.09-14.22,1.75c-3.88-6,2.62-9.37,7.1-12.7
			c20.08-14.89,40.03-29.95,60.02-44.95C3710.69,1572.79,3710.65,1572.74,3710.61,1572.69z"/>
		<path d="M3741.32,1615.11c-19.55,14.67-39.11,29.32-58.64,44.01c-4.72,3.55-10.11,10.06-15.24,3.08
			c-4.16-5.67,2.57-9.65,6.93-12.92c39.06-29.36,78.12-58.72,117.28-87.94c4.57-3.41,10.29-9.94,15.38-2.72
			c4.05,5.73-2.31,9.29-6.94,12.68c-19.7,14.46-39.16,29.24-58.71,43.9C3741.36,1615.17,3741.34,1615.14,3741.32,1615.11z"/>
		<path d="M3752.73,1631.26c-20.06,15.04-40.1,30.11-60.19,45.1c-3.94,2.94-8.82,7.39-12.99,2.07c-4.2-5.36,1.3-8.98,5.21-11.93
			c40.06-30.14,80.17-60.23,120.32-90.27c4.3-3.22,9.56-8.39,14.04-1.71c3.74,5.56-2.27,8.65-6.21,11.6
			C3792.85,1601.17,3772.8,1616.22,3752.73,1631.26z"/>
		<path d="M3675.4,1525.83c19.13-14.35,38.16-28.84,57.48-42.94c3.98-2.91,9.01-10.28,13.83-4.05c5.62,7.27-3.45,10.25-7.74,13.5
			c-38.12,28.89-76.39,57.57-114.76,86.13c-4.51,3.36-10.6,11.18-15.3,4.93c-5.77-7.68,4.59-10.78,9.21-14.37
			C3636.99,1554.34,3656.27,1540.19,3675.4,1525.83z"/>
		<path d="M3661.98,1507.94c19.13-14.35,38.16-28.84,57.48-42.94c3.98-2.91,9.01-10.28,13.83-4.05c5.62,7.27-3.45,10.25-7.74,13.5
			c-38.12,28.89-76.39,57.57-114.76,86.13c-4.51,3.36-10.6,11.18-15.3,4.93c-5.77-7.68,4.59-10.78,9.21-14.37
			C3623.57,1536.45,3642.85,1522.29,3661.98,1507.94z"/>
		<path d="M3650.35,1495.3c19.99-15,39.91-30.08,60.03-44.9c3.62-2.67,7.95-8.88,12.56-3.59c4.67,5.35-1.53,8.65-5.36,11.53
			c-40.39,30.36-80.83,60.68-121.26,90.99c-3.52,2.64-8.02,6.84-11.54,2.44c-4.59-5.74,1.97-8.64,5.64-11.42
			C3610.32,1525.23,3630.36,1510.3,3650.35,1495.3z"/>
	</g>
	<g>
		<path class="st0" d="M3757.38,1676.95c-21.84,16.38-43.6,32.87-65.59,49.05c-3.94,2.9-9.28,10.14-13.63,2.68
			c-4.35-7.47-18.92-12.45-10.32-23.85c4.88-6.47,1.45-9.09-1.54-12.24c-7.5-7.9-4.76-12.63,3.09-18.41
			c36.34-26.75,72.42-53.87,108.31-81.22c6.89-5.25,11.81-7.4,17.03,1.57c2.95,5.07,5.26,8.27,13.95,5.08
			c11.33-4.16,12.43,10.9,18.67,16.83c5.89,5.6-0.77,8.53-4.48,11.33C3801.08,1644.22,3779.22,1660.56,3757.38,1676.95z"/>
		<path class="st0" d="M3580.2,1441.94c20.93-15.7,41.71-31.6,62.91-46.93c4.12-2.98,9.59-12.24,14.65-4
			c4.65,7.56,20.16,11.87,10.59,25.38c-1.7,2.4-3.95,4.84-1.64,7.15c13.61,13.58,0.23,18.22-7.96,24.39
			c-33.79,25.46-67.77,50.66-101.42,76.3c-7.13,5.43-12.84,9.01-18.27-1.43c-1.26-2.42-3.63-5.41-6.46-3.98
			c-18.03,9.1-17.08-10.38-24.18-16.73c-5.09-4.56,2.81-8.23,6.38-10.96C3536.5,1474.59,3558.38,1458.3,3580.2,1441.94z"/>
		<path class="st0" d="M3694.62,1596.33c-19.54,14.66-39.11,29.29-58.62,44.01c-4.48,3.38-9.9,8.2-14.35,2.76
			c-4.7-5.74,1.49-9.77,5.91-13.09c39.52-29.68,79.07-59.32,118.59-89c4.44-3.33,9.76-8.38,14.3-2.69c4.6,5.76-1.34,9.48-5.95,12.88
			c-20.09,14.86-40.03,29.94-60.03,44.94C3694.53,1596.2,3694.58,1596.26,3694.62,1596.33z"/>
		<path class="st0" d="M3659.88,1547.63c-20.04,15.04-40.05,30.12-60.16,45.06c-4.24,3.15-9.49,8.6-14.07,2.29
			c-3.85-5.3,2.13-8.81,6.04-11.75c40.06-30.12,80.14-60.2,120.27-90.21c3.84-2.87,8.73-7.87,12.88-2.4c4.84,6.37-2,9.68-6.2,12.86
			C3699.11,1518.29,3679.47,1532.93,3659.88,1547.63z"/>
		<path class="st0" d="M3664.62,1553.19c19.09-14.32,38.12-28.72,57.31-42.91c4.52-3.34,9.83-10.56,15.19-3.15
			c4.33,5.98-2.78,9.61-7.02,12.8c-39.01,29.37-78.05,58.69-117.19,87.89c-4.56,3.4-10.32,10.02-15.43,2.99
			c-4.38-6.03,3.11-9.46,7.25-12.6C3624.62,1583.09,3644.65,1568.18,3664.62,1553.19z"/>
		<path class="st0" d="M3676.35,1568.86c19.55-14.66,39.15-29.25,58.6-44.05c4.59-3.49,9.61-7.96,14.08-1.87
			c3.79,5.17-1.53,8.96-5.55,11.98c-39.95,30.02-79.9,60.05-119.92,89.98c-4.34,3.25-10.12,8.09-14.22,1.75
			c-3.88-6,2.62-9.37,7.1-12.7c20.08-14.89,40.03-29.95,60.02-44.95C3676.42,1568.97,3676.38,1568.91,3676.35,1568.86z"/>
		<path class="st0" d="M3707.05,1611.29c-19.55,14.67-39.11,29.32-58.64,44.01c-4.72,3.55-10.11,10.06-15.24,3.08
			c-4.16-5.67,2.57-9.65,6.93-12.92c39.06-29.36,78.12-58.72,117.28-87.94c4.57-3.41,10.29-9.94,15.38-2.72
			c4.05,5.73-2.31,9.29-6.94,12.68c-19.7,14.46-39.16,29.24-58.71,43.9C3707.09,1611.34,3707.07,1611.32,3707.05,1611.29z"/>
		<path class="st0" d="M3718.46,1627.43c-20.06,15.04-40.1,30.11-60.19,45.1c-3.94,2.94-8.82,7.39-12.99,2.07
			c-4.2-5.36,1.3-8.98,5.21-11.93c40.06-30.14,80.17-60.23,120.32-90.27c4.3-3.22,9.56-8.39,14.04-1.71
			c3.74,5.56-2.27,8.65-6.21,11.6C3758.58,1597.34,3738.53,1612.39,3718.46,1627.43z"/>
		<path class="st0" d="M3641.13,1522.01c19.13-14.35,38.16-28.84,57.48-42.94c3.98-2.91,9.01-10.28,13.83-4.05
			c5.62,7.27-3.45,10.25-7.74,13.5c-38.12,28.89-76.39,57.57-114.76,86.13c-4.51,3.36-10.6,11.18-15.3,4.93
			c-5.77-7.68,4.59-10.78,9.21-14.37C3602.72,1550.52,3622,1536.36,3641.13,1522.01z"/>
		<path class="st0" d="M3627.71,1504.11c19.13-14.35,38.16-28.84,57.48-42.94c3.98-2.91,9.01-10.28,13.83-4.05
			c5.62,7.27-3.45,10.25-7.74,13.5c-38.12,28.89-76.39,57.58-114.76,86.13c-4.51,3.36-10.6,11.18-15.3,4.93
			c-5.77-7.68,4.59-10.78,9.21-14.37C3589.3,1532.62,3608.58,1518.47,3627.71,1504.11z"/>
		<path class="st0" d="M3616.08,1491.48c19.99-15,39.91-30.09,60.03-44.9c3.62-2.67,7.95-8.88,12.56-3.59
			c4.67,5.35-1.53,8.65-5.36,11.53c-40.39,30.36-80.82,60.68-121.26,90.99c-3.52,2.64-8.02,6.84-11.54,2.44
			c-4.59-5.74,1.97-8.64,5.64-11.42C3576.05,1521.41,3596.09,1506.48,3616.08,1491.48z"/>
	</g>
</g>
<g id="Layer_8">
	<path class="st4" d="M2901.23,2813.67c-7.09-8.84-14.42-5.37-22.62-2.51c-23.61,8.22-42.19,24.37-61.65,38.94
		c-9.65,7.23-28.98,22.94-45.28,37.21c-263.48,230.55-532.22,454.94-799.12,681.47c-25.02,21.23-51.07,41.73-69.88,69.83
		c305.92-232.82,926.17-731.33,933.1-737.99c21.75-20.91,46.73-38.62,63.73-64.32C2904.52,2828.7,2908.09,2822.22,2901.23,2813.67z
		 M2869.46,2856.48l-79.54,67.16c-5.66,4.78-14.13,4.07-18.91-1.6c-4.78-5.66-4.06-14.13,1.6-18.91l79.54-67.16
		c5.66-4.78,14.13-4.07,18.91,1.6C2875.83,2843.23,2875.12,2851.7,2869.46,2856.48z"/>
	<path d="M1432.8,3015.9c-4.31,10.48,2.27,15.22,8.74,21.02c18.61,16.69,41.74,25.14,63.9,35.13c10.99,4.96,34.1,14.27,54.46,21.64
		c329.22,119.13,655.58,245.84,982.94,369.9c30.68,11.63,61.22,24.52,94.91,27.39c-351.73-155.18-1088.02-457-1097.2-459.84
		c-28.82-8.93-56.4-22.22-87.12-24.67C1444.37,3005.75,1436.96,3005.77,1432.8,3015.9z M1485.64,3023.02l97.24,37.14
		c6.92,2.64,10.39,10.4,7.75,17.32c-2.64,6.92-10.4,10.39-17.32,7.75l-97.25-37.14c-6.92-2.64-10.39-10.4-7.75-17.32
		C1470.96,3023.84,1478.71,3020.37,1485.64,3023.02z"/>
	<path class="st0" d="M1409.78,2990.85c-4.31,10.48,2.27,15.22,8.74,21.02c18.61,16.69,41.74,25.14,63.9,35.13
		c10.99,4.96,34.1,14.27,54.46,21.64c329.22,119.13,655.58,245.84,982.94,369.9c30.68,11.63,61.22,24.52,94.91,27.39
		c-351.73-155.18-1088.02-457-1097.2-459.84c-28.82-8.93-56.4-22.22-87.12-24.67C1421.35,2980.7,1413.95,2980.72,1409.78,2990.85z
		 M1462.62,2997.97l97.24,37.14c6.92,2.64,10.39,10.4,7.75,17.32c-2.64,6.92-10.4,10.39-17.32,7.75l-97.25-37.14
		c-6.92-2.64-10.39-10.4-7.75-17.32C1447.95,2998.79,1455.7,2995.32,1462.62,2997.97z"/>
	<path d="M3047.72,3007.48c-30.71,2.45-58.3,15.74-87.12,24.67c-9.18,2.85-745.47,304.67-1097.2,459.84
		c33.69-2.87,64.23-15.77,94.91-27.39c327.36-124.06,653.72-250.78,982.94-369.9c20.37-7.37,43.47-16.69,54.46-21.64
		c22.16-9.99,45.28-18.45,63.9-35.13c6.47-5.8,13.05-10.54,8.74-21.02C3064.19,3006.77,3056.78,3006.75,3047.72,3007.48z
		 M3032.84,3031.76c2.64,6.92-0.82,14.68-7.75,17.32l-97.25,37.14c-6.92,2.64-14.68-0.82-17.32-7.75
		c-2.64-6.92,0.82-14.68,7.75-17.32l97.24-37.14C3022.44,3021.37,3030.19,3024.84,3032.84,3031.76z"/>
	<path class="st0" d="M3070.73,2982.43c-30.71,2.45-58.3,15.74-87.12,24.67c-9.18,2.85-745.47,304.67-1097.2,459.84
		c33.69-2.87,64.23-15.77,94.91-27.39c327.36-124.06,653.72-250.78,982.94-369.9c20.37-7.37,43.47-16.69,54.46-21.64
		c22.16-9.99,45.28-18.45,63.9-35.13c6.47-5.8,13.05-10.54,8.74-21.02C3087.2,2981.72,3079.8,2981.7,3070.73,2982.43z
		 M3055.85,3006.71c2.64,6.92-0.82,14.68-7.75,17.32l-97.25,37.14c-6.92,2.64-14.68-0.82-17.32-7.75
		c-2.64-6.92,0.82-14.68,7.75-17.32l97.24-37.14C3045.45,2996.32,3053.2,2999.79,3055.85,3006.71z"/>
</g>
<g id="Layer_10">
	<g>
		<path d="M696.59,2609.1c-2.22,15.37-2.67,30.95-1.64,46.39c1.01,15.45,3.54,30.75,7.09,45.79c7.17,30.07,18.79,58.95,33.16,86.24
			c7.17,13.67,15.05,26.96,23.55,39.83c8.5,12.88,17.58,25.36,27.22,37.39c9.62,12.05,19.79,23.64,30.4,34.81
			c10.61,11.16,21.69,21.87,33.25,32c23.1,20.27,48.05,38.45,74.74,53.28c13.35,7.39,27.1,13.97,41.25,19.37
			c14.14,5.38,28.68,9.61,43.41,12.07c14.72,2.45,29.65,3.2,44.19,1.49c7.27-0.82,14.43-2.27,21.37-4.37
			c3.48-1.01,6.88-2.27,10.24-3.58c3.33-1.4,6.63-2.87,9.81-4.57c12.82-6.65,24.18-15.91,33.9-26.77
			c9.75-10.86,17.78-23.38,24.4-36.7c3.33-6.72,6.23-13.41,8.57-20.32c2.34-6.9,4.08-13.93,5.17-21.02
			c2.24-14.17,1.5-28.58-2.19-42.29c-3.67-13.72-10.32-26.66-18.93-38.33c-8.61-11.68-19.13-22.14-30.71-31.28
			c-44.57-36.56-114.74-46.12-160.86-10.76c-11.59,8.47-21.8,19-30.63,30.75c-4.41,5.85-8.53,12.09-12.29,18.39
			c-3.65,6.18-6.73,12.64-9.13,19.29c-4.84,13.29-6.93,27.41-6.05,41.56c0.83,14.15,4.49,28.26,10.08,41.75
			c5.59,13.51,13.05,26.43,21.62,38.67c8.58,12.25,18.27,23.86,28.66,34.87c10.39,11.01,21.49,21.45,33.07,31.32
			c5.79,4.94,11.71,9.73,17.74,14.37c3.01,2.32,6.06,4.6,9.12,6.82c1.53,1.11,3.07,2.21,4.61,3.29l2.31,1.6l2.23,1.5l0.95,0.7
			c-0.1-0.08,0.04,0.03,0.09,0.07l0.24,0.19l0.56,0.41c0.4,0.28,0.81,0.57,1.24,0.85c0.86,0.57,1.76,1.12,2.68,1.67
			c1.85,1.07,3.78,2.1,5.76,3.02c3.97,1.86,8.13,3.39,12.4,4.58c8.54,2.39,17.5,3.38,26.48,3.03c8.98-0.35,17.98-1.99,26.75-4.74
			c8.77-2.74,17.31-6.54,25.53-11.08c8.2-4.59,16.11-9.87,23.65-15.73c1.9-1.44,3.75-2.96,5.61-4.47l5.64-4.74l3.11-2.57l3.23-2.45
			c1.06-0.83,2.18-1.61,3.3-2.36c1.13-0.75,2.22-1.56,3.39-2.27c9.18-5.84,19.34-10.5,30.09-13.13c10.73-2.68,21.92-3.49,32.78-2.47
			c10.88,0.97,21.43,3.59,31.4,7.28c9.98,3.7,19.41,8.45,28.35,13.8c17.88,10.76,33.85,23.93,48.41,38.35
			c3.64,3.62,7.18,7.32,10.63,11.14c1.73,1.91,3.43,3.85,5.11,5.84c0.81,0.94,1.83,2.26,2.18,2.6c0.67,0.74,1.45,1.52,2.24,2.28
			c6.45,6.12,14.21,11.25,22.47,14.84c8.28,3.63,17.17,5.69,26.19,6.11c9.03,0.42,18.17-0.86,27.05-3.42
			c8.89-2.57,17.51-6.46,25.72-11.23c8.23-4.74,16.02-10.4,23.47-16.54c14.87-12.36,28.23-26.77,40.58-42.02
			c6.15-7.64,12-15.5,17.36-23.63c5.34-8.14,10.22-16.54,14.22-25.27c3.97-8.71,7.07-17.8,8.23-26.98
			c0.58-4.58,0.63-9.16-0.01-13.57c-0.65-4.4-2.03-8.62-4.21-12.36c-2.17-3.74-5.15-7-8.73-9.54c-3.56-2.55-7.7-4.39-12.05-5.47
			c-4.35-1.07-8.93-1.39-13.35-0.85c-4.4,0.54-8.7,1.95-12.02,4.39c-1.66,1.21-3.02,2.67-4,4.32c-1.01,1.68-1.46,3.4-1.75,5.7
			c-0.28,2.17-0.28,4.35,0.02,6.5c0.32,2.15,0.93,4.25,1.82,6.26c1.76,4.04,4.69,7.63,8.17,10.67c3.5,3.04,7.56,5.54,11.88,7.58
			c8.67,4.07,18.25,6.38,27.94,7.61c9.72,1.19,19.6,1.37,29.46,0.74c19.73-1.26,39.28-5.59,58.19-11.73l0.4,1.13
			c-18.86,6.55-38.43,11.32-58.38,13.01c-9.96,0.84-20.02,0.9-29.98-0.17c-9.94-1.09-19.86-3.28-29.07-7.39
			c-4.58-2.07-8.97-4.65-12.86-7.9c-3.86-3.25-7.25-7.2-9.39-11.85c-1.08-2.31-1.85-4.77-2.27-7.29c-0.4-2.52-0.45-5.1-0.18-7.63
			c0.14-1.27,0.33-2.52,0.68-3.79c0.35-1.25,0.84-2.46,1.48-3.6c1.27-2.27,3.05-4.22,5.1-5.77c4.12-3.12,9.11-4.78,14.12-5.48
			c5.03-0.69,10.17-0.41,15.11,0.72c4.93,1.14,9.69,3.15,13.87,6.04c4.19,2.87,7.77,6.65,10.39,11.01
			c2.64,4.35,4.31,9.25,5.12,14.24c0.81,5,0.82,10.1,0.26,15.1c-1.12,10.03-4.3,19.68-8.3,28.85c-4.04,9.17-8.96,17.92-14.36,26.33
			c-5.4,8.41-11.28,16.51-17.46,24.36c-12.39,15.66-25.86,30.55-41.11,43.53c-7.65,6.44-15.71,12.45-24.33,17.56
			c-8.6,5.14-17.76,9.42-27.38,12.33c-9.61,2.92-19.7,4.43-29.77,4.05c-10.06-0.38-20.06-2.6-29.32-6.56
			c-9.26-3.95-17.84-9.49-25.22-16.36c-0.92-0.87-1.82-1.75-2.69-2.68c-0.91-0.97-1.63-1.94-2.45-2.87
			c-1.62-1.88-3.27-3.73-4.95-5.56c-3.36-3.66-6.83-7.22-10.38-10.7c-14.23-13.86-29.79-26.46-46.88-36.56
			c-8.55-5.03-17.48-9.43-26.79-12.8c-9.31-3.36-19-5.69-28.84-6.53c-9.83-0.88-19.8-0.09-29.35,2.34
			c-9.57,2.39-18.64,6.59-26.94,11.92c-1.05,0.64-2.04,1.39-3.07,2.08c-1.02,0.69-2.03,1.4-3,2.17l-2.94,2.25l-2.84,2.38l-5.71,4.85
			c-1.93,1.59-3.86,3.18-5.84,4.71c-7.87,6.19-16.19,11.82-24.92,16.76c-8.74,4.9-17.93,9.07-27.51,12.11
			c-9.57,3.06-19.54,4.96-29.6,5.4c-10.06,0.44-20.2-0.61-29.93-3.27c-4.86-1.32-9.62-3.04-14.21-5.15
			c-4.59-2.14-8.98-4.56-13.09-7.72l0.1,0.07c-13.01-8.73-25.32-18.31-37.24-28.39c-11.9-10.1-23.31-20.78-34.05-32.12
			c-10.73-11.34-20.81-23.34-29.8-36.13c-8.98-12.79-16.91-26.4-22.94-40.88c-6.02-14.46-10.1-29.85-11.06-45.56
			c-1-15.69,1.27-31.61,6.68-46.38c2.68-7.39,6.1-14.51,10.11-21.26c4.03-6.72,8.36-13.24,13.09-19.49
			c9.43-12.49,20.47-23.87,33.18-33.12c12.68-9.26,27.09-16.19,42.31-20.15c15.22-3.97,31.13-4.96,46.74-3.44
			c15.62,1.52,30.96,5.37,45.53,11.12c3.64,1.44,7.24,3.01,10.77,4.72c1.76,0.86,3.52,1.75,5.23,2.72c1.72,0.92,3.43,1.92,5.1,2.94
			c6.69,4.09,13.09,8.61,19.22,13.48c12.23,9.76,23.39,20.94,32.63,33.62c9.23,12.65,16.48,26.89,20.46,42.11
			c4.01,15.2,4.71,31.24,2.18,46.73c-1.24,7.75-3.18,15.38-5.74,22.79c-2.55,7.41-5.72,14.6-9.23,21.58
			c-7.04,13.96-15.62,27.22-26.16,38.84c-10.52,11.6-22.97,21.56-36.97,28.67c-3.48,1.82-7.08,3.38-10.71,4.87
			c-3.66,1.4-7.36,2.73-11.13,3.79c-3.76,1.13-7.59,1.99-11.42,2.78c-3.85,0.71-7.73,1.34-11.62,1.73
			c-15.59,1.7-31.37,0.74-46.77-1.96c-15.41-2.7-30.45-7.24-44.99-12.91c-14.55-5.69-28.6-12.57-42.16-20.3
			c-27.12-15.48-52.25-34.26-75.45-55.09c-23.19-20.85-44.48-43.82-63.6-68.45c-9.57-12.31-18.57-25.06-26.98-38.2
			c-8.41-13.13-16.18-26.68-23.22-40.59c-14.09-27.81-25.29-57.2-32.02-87.69c-3.35-15.24-5.54-30.75-6.24-46.35
			c-0.71-15.59,0.07-31.27,2.62-46.68L696.59,2609.1z"/>
	</g>
	<g>
		<path class="st0" d="M697.6,2620.97c1.17,15.17,3.14,30.26,6.02,45.17c2.83,14.91,6.57,29.63,10.92,44.13
			c8.82,28.99,20.74,56.95,35.1,83.52c14.36,26.58,31.29,51.72,50.34,75.06c19.07,23.32,40.14,44.99,63.21,64.22
			c23.03,19.23,48.02,36.11,74.66,49.4c13.31,6.65,27.05,12.35,41.11,16.79c14.07,4.39,28.48,7.55,42.94,8.81
			c7.23,0.64,14.46,0.82,21.63,0.42c7.17-0.36,14.25-1.33,21.17-2.87c13.81-3.12,26.91-8.75,38.23-16.93
			c5.68-4.05,10.94-8.7,15.74-13.83c4.77-5.16,9.11-10.74,12.94-16.72c7.66-11.96,13.49-25.28,17.78-39.12
			c4.28-13.79,6.72-28.01,6.85-42.15c0.08-7.07-0.52-14.11-1.64-21.04c-1.19-6.92-2.92-13.75-5.32-20.35
			c-9.46-26.52-28.52-49.42-51.49-66.5c-2.87-2.12-5.82-4.16-8.78-6.03c-0.74-0.47-1.48-0.92-2.22-1.36l-1.09-0.64l-1.15-0.65
			c-1.37-0.77-2.94-1.57-4.51-2.33c-6.34-3.06-13.05-5.69-19.86-7.88c-13.63-4.37-27.81-6.98-41.91-7.32
			c-14.1-0.36-28.11,1.65-41.26,6.16c-6.56,2.3-12.94,5.13-18.99,8.59c-6.06,3.46-11.83,7.46-17.27,11.93
			c-10.9,8.94-20.42,19.74-28.67,31.58c-1.07,1.45-2.02,2.99-3.04,4.49c-1.02,1.49-1.97,3.03-2.93,4.58
			c-1.98,3.1-3.69,6.07-5.33,9.19c-3.27,6.18-5.96,12.6-7.99,19.2c-4.08,13.2-5.38,27.11-3.95,40.95
			c1.4,13.85,5.43,27.56,11.21,40.67c5.79,13.12,13.28,25.66,21.81,37.57c8.53,11.91,18.1,23.2,28.33,33.93
			c10.23,10.73,21.12,20.9,32.48,30.54c5.68,4.82,11.48,9.5,17.38,14.03c2.95,2.26,5.93,4.49,8.93,6.67l4.51,3.22l2.25,1.57
			l2.17,1.47l0.95,0.7c-0.1-0.08,0.04,0.03,0.09,0.07l0.24,0.19l0.56,0.41c0.4,0.28,0.81,0.57,1.24,0.86
			c0.86,0.57,1.76,1.13,2.68,1.68c1.85,1.08,3.78,2.1,5.77,3.03c3.97,1.86,8.14,3.39,12.41,4.58c8.55,2.39,17.52,3.38,26.5,3.03
			c8.99-0.35,18-1.99,26.77-4.75c8.78-2.74,17.32-6.54,25.54-11.09c8.2-4.59,16.11-9.87,23.65-15.74c1.9-1.45,3.75-2.96,5.61-4.47
			l5.64-4.74l3.11-2.57l3.23-2.45c1.06-0.83,2.18-1.6,3.3-2.36c1.13-0.75,2.22-1.56,3.38-2.27c9.17-5.83,19.33-10.5,30.08-13.12
			c10.72-2.68,21.9-3.49,32.76-2.47c10.87,0.98,21.41,3.64,31.37,7.31c9.97,3.7,19.4,8.44,28.34,13.79
			c17.88,10.76,33.84,23.92,48.4,38.33c3.64,3.62,7.18,7.32,10.63,11.13c1.73,1.91,3.43,3.84,5.11,5.84
			c0.81,0.94,1.83,2.26,2.18,2.61c0.67,0.74,1.46,1.52,2.25,2.28c6.46,6.12,14.23,11.26,22.49,14.85
			c8.28,3.63,17.19,5.69,26.22,6.11c9.04,0.4,18.19-0.82,27.08-3.4c8.9-2.57,17.53-6.47,25.73-11.24
			c8.23-4.75,16.03-10.41,23.48-16.55c14.87-12.37,28.23-26.78,40.58-42.04c6.15-7.64,12-15.5,17.35-23.64
			c5.34-8.14,10.25-16.54,14.23-25.27c3.96-8.72,7.07-17.82,8.23-27c0.58-4.58,0.63-9.17-0.01-13.58
			c-0.65-4.41-2.03-8.63-4.22-12.38c-2.18-3.75-5.16-7.01-8.75-9.55c-3.57-2.56-7.71-4.39-12.07-5.47
			c-4.35-1.07-8.94-1.39-13.36-0.85c-4.41,0.54-8.71,1.96-12.04,4.39c-1.66,1.21-3.03,2.68-4.01,4.33
			c-1.01,1.69-1.46,3.42-1.75,5.72c-0.28,2.17-0.27,4.36,0.03,6.52c0.32,2.15,0.94,4.26,1.83,6.27c1.77,4.04,4.7,7.64,8.19,10.68
			c3.5,3.04,7.57,5.54,11.89,7.58c8.67,4.07,18.26,6.38,27.96,7.6c9.72,1.19,19.61,1.38,29.46,0.73
			c19.73-1.27,39.28-5.6,58.19-11.75l0.4,1.13c-18.86,6.55-38.43,11.31-58.38,13.01c-9.96,0.84-20.02,0.89-29.98-0.17
			c-9.94-1.09-19.86-3.28-29.06-7.39c-4.58-2.07-8.97-4.65-12.86-7.9c-3.86-3.25-7.25-7.2-9.39-11.85
			c-1.08-2.31-1.85-4.77-2.27-7.29c-0.4-2.52-0.45-5.1-0.18-7.63c0.14-1.27,0.33-2.52,0.68-3.79c0.35-1.25,0.84-2.46,1.48-3.6
			c1.27-2.27,3.05-4.22,5.1-5.77c4.12-3.12,9.11-4.78,14.12-5.48c5.03-0.69,10.17-0.41,15.11,0.72c4.93,1.14,9.69,3.15,13.87,6.04
			c4.19,2.87,7.77,6.65,10.39,11.01c2.64,4.35,4.31,9.25,5.12,14.24c0.81,5,0.82,10.1,0.26,15.1c-1.12,10.03-4.3,19.68-8.3,28.85
			c-4.04,9.17-8.96,17.92-14.36,26.33c-5.4,8.41-11.28,16.51-17.46,24.36c-12.39,15.66-25.86,30.55-41.11,43.53
			c-7.65,6.44-15.71,12.45-24.33,17.56c-8.6,5.14-17.76,9.42-27.38,12.33c-9.61,2.92-19.7,4.43-29.77,4.05
			c-10.06-0.38-20.06-2.6-29.32-6.56c-9.26-3.95-17.84-9.49-25.22-16.35c-0.92-0.87-1.82-1.75-2.69-2.68
			c-0.91-0.96-1.62-1.94-2.45-2.87c-1.62-1.88-3.27-3.74-4.95-5.56c-3.36-3.66-6.83-7.22-10.38-10.7
			c-14.23-13.86-29.79-26.46-46.88-36.56c-8.55-5.03-17.48-9.43-26.79-12.8c-9.31-3.36-19-5.69-28.84-6.53
			c-9.83-0.88-19.8-0.09-29.35,2.34c-9.58,2.39-18.64,6.59-26.94,11.92c-1.05,0.64-2.04,1.39-3.07,2.08c-1.02,0.69-2.03,1.4-3,2.17
			l-2.94,2.25l-2.84,2.38l-5.71,4.85c-1.93,1.59-3.86,3.18-5.84,4.71c-7.87,6.19-16.19,11.82-24.92,16.76
			c-8.74,4.9-17.93,9.07-27.51,12.11c-9.57,3.06-19.54,4.96-29.6,5.4c-10.06,0.44-20.2-0.61-29.93-3.27
			c-4.86-1.32-9.62-3.04-14.2-5.15c-4.59-2.14-8.98-4.56-13.09-7.72l0.1,0.07c-12.73-8.54-24.78-17.9-36.47-27.73
			c-11.66-9.86-22.86-20.27-33.43-31.31c-10.56-11.04-20.5-22.7-29.44-35.12c-8.93-12.41-16.87-25.6-23.09-39.62
			c-6.21-14-10.66-28.9-12.24-44.21c-1.62-15.29-0.21-30.94,4.32-45.66c2.24-7.36,5.21-14.5,8.81-21.29
			c1.79-3.4,3.73-6.73,5.79-9.95c1.01-1.63,2.02-3.25,3.11-4.83c1.08-1.58,2.09-3.21,3.23-4.75c8.78-12.54,19.03-24.16,30.93-33.89
			c5.94-4.86,12.29-9.25,18.97-13.04c6.68-3.81,13.74-6.93,21-9.45c14.56-4.97,30.03-7.12,45.37-6.7
			c15.36,0.41,30.59,3.26,45.17,7.97c7.29,2.36,14.44,5.18,21.35,8.53c6.96,3.34,13.39,7.6,19.55,12.15
			c12.29,9.15,23.44,19.86,32.91,31.94c9.44,12.08,17.13,25.59,22.22,40.09c2.58,7.23,4.44,14.72,5.7,22.29
			c1.19,7.58,1.79,15.27,1.67,22.94c-0.22,15.35-2.95,30.61-7.57,45.2c-4.6,14.59-10.87,28.72-19.23,41.6
			c-4.18,6.43-8.94,12.49-14.19,18.09c-5.28,5.57-11.09,10.66-17.38,15.07c-12.55,8.89-27.02,14.92-42.01,18.15
			c-7.5,1.6-15.14,2.56-22.8,2.87c-7.66,0.35-15.33,0.08-22.95-0.66c-15.25-1.47-30.24-4.92-44.79-9.61
			c-14.54-4.73-28.64-10.75-42.23-17.7c-27.2-13.93-52.42-31.51-75.61-51.34c-23.19-19.85-44.33-42.06-63.28-65.97
			c-18.92-23.94-35.64-49.63-49.72-76.7c-14.11-27.05-25.53-55.52-33.89-84.87c-8.31-29.36-13.48-59.63-15.08-90.11L697.6,2620.97z"
			/>
	</g>
	<g>
		<path d="M3867.91,2599.9c2.86,15.36,3.94,31.06,3.54,46.73c-0.41,15.67-2.27,31.31-5.42,46.69c-3.12,15.39-7.41,30.53-12.61,45.35
			c-5.21,14.82-11.31,29.33-18.23,43.43c-6.91,14.11-14.56,27.86-22.86,41.21c-8.29,13.35-17.2,26.33-26.69,38.87
			c-18.93,25.12-40.21,48.5-63.44,69.83c-23.25,21.3-48.5,40.59-75.94,56.63c-13.71,8.02-28.01,15.15-42.87,21.08
			c-14.86,5.92-30.3,10.7-46.25,13.61c-15.93,2.91-32.4,4.04-48.84,2.36c-4.11-0.38-8.2-1.02-12.28-1.74
			c-4.07-0.81-8.13-1.69-12.13-2.86c-4.02-1.1-7.95-2.48-11.86-3.95c-3.87-1.55-7.72-3.2-11.44-5.11
			c-14.97-7.48-28.32-17.99-39.49-30.2c-11.19-12.23-20.22-26.1-27.6-40.58c-3.66-7.2-7.05-14.79-9.77-22.6
			c-2.73-7.82-4.84-15.94-6.19-24.22c-2.78-16.56-2.11-33.94,2.17-50.35c4.24-16.44,11.98-31.74,21.72-45.19
			c9.75-13.49,21.43-25.27,34.19-35.53c6.4-5.14,13.07-9.85,20.15-14.19l2.7-1.61l1.39-0.8l1.34-0.74l1.37-0.76l1.44-0.76
			c0.95-0.5,1.9-0.96,2.84-1.43c3.77-1.83,7.57-3.49,11.41-5.02c15.35-6.08,31.48-10.16,48.07-11.79
			c16.56-1.62,33.62-0.6,50.01,3.66c16.38,4.24,31.94,11.72,45.5,21.61c13.6,9.88,25.3,21.95,35.21,35.04
			c4.98,6.57,9.47,13.32,13.72,20.39c4.29,7.21,7.97,14.86,10.88,22.85c5.87,15.95,8.31,33.31,7.21,50.24
			c-1.05,16.97-5.45,33.39-11.82,48.63c-6.38,15.26-14.67,29.43-23.97,42.66c-9.33,13.23-19.7,25.55-30.71,37.16
			c-11.02,11.6-22.68,22.5-34.83,32.79c-6.08,5.14-12.27,10.13-18.6,14.97c-3.17,2.42-6.36,4.8-9.6,7.14
			c-1.62,1.17-3.25,2.33-4.91,3.48l-2.5,1.72l-2.62,1.75l0.95-0.7l-0.64,0.51l-0.5,0.38l-0.95,0.69c-0.62,0.44-1.23,0.86-1.85,1.26
			c-1.22,0.8-2.44,1.55-3.68,2.27c-2.46,1.43-4.96,2.7-7.51,3.86c-5.08,2.32-10.33,4.19-15.68,5.62
			c-10.69,2.88-21.81,3.98-32.74,3.46c-10.94-0.52-21.7-2.62-31.92-5.94c-10.24-3.3-19.95-7.76-29.13-12.95
			c-9.15-5.23-17.81-11.15-25.95-17.6c-2.05-1.59-4.04-3.25-6.04-4.91l-5.77-4.94l-2.63-2.22l-2.71-2.09
			c-0.89-0.72-1.82-1.37-2.76-2.01c-0.94-0.64-1.84-1.33-2.81-1.92c-7.59-4.91-15.76-8.75-24.37-10.93
			c-8.59-2.23-17.56-3-26.56-2.24c-9,0.73-17.99,2.83-26.76,5.9c-8.77,3.1-17.3,7.21-25.53,11.97
			c-16.46,9.55-31.7,21.68-45.66,35.08c-3.48,3.36-6.89,6.81-10.18,10.33c-1.64,1.76-3.26,3.55-4.82,5.34l-1.14,1.33l-0.65,0.78
			l-0.49,0.54l-0.39,0.42c-1.03,1.09-2.02,2.05-3.05,3.01c-4.07,3.77-8.41,7.05-13,9.99c-4.58,2.93-9.42,5.46-14.45,7.57
			c-10.06,4.23-20.94,6.57-31.84,6.91c-10.91,0.34-21.76-1.37-31.94-4.58c-10.21-3.19-19.79-7.8-28.7-13.24
			c-8.94-5.42-17.19-11.7-24.99-18.4c-15.53-13.49-29.07-28.79-41.46-44.78c-6.18-8.02-12.08-16.31-17.5-24.95
			c-5.43-8.63-10.37-17.65-14.41-27.18c-4.01-9.52-7.21-19.6-8.28-30.28c-0.52-5.32-0.46-10.8,0.49-16.24
			c0.95-5.43,2.85-10.82,5.83-15.61c2.97-4.8,7-8.95,11.64-12.05c4.64-3.13,9.84-5.25,15.2-6.42c5.36-1.16,10.9-1.4,16.36-0.58
			c5.43,0.83,10.9,2.69,15.57,6.29c2.32,1.8,4.37,4.1,5.84,6.8c0.73,1.35,1.3,2.79,1.7,4.27c0.19,0.72,0.36,1.54,0.45,2.2
			c0.1,0.69,0.21,1.38,0.26,2.08c0.26,2.78,0.17,5.62-0.32,8.4c-0.5,2.77-1.4,5.47-2.61,7.97c-2.42,5.04-6.13,9.22-10.25,12.58
			c-4.15,3.37-8.76,5.97-13.52,8.03c-9.56,4.1-19.69,6.15-29.78,7.09c-10.11,0.93-20.26,0.66-30.27-0.37
			c-20.04-2.09-39.55-7.25-58.28-14.17l0.4-1.13c18.79,6.51,38.27,11.23,58.09,12.89c9.9,0.83,19.87,0.87,29.74-0.19
			c9.84-1.09,19.64-3.26,28.66-7.31c4.49-2.03,8.78-4.56,12.54-7.71c3.74-3.15,6.99-6.97,9.03-11.4c1.02-2.21,1.76-4.54,2.16-6.94
			c0.38-2.4,0.43-4.85,0.16-7.27c-0.13-1.21-0.32-2.43-0.64-3.56c-0.32-1.15-0.77-2.26-1.36-3.3c-1.17-2.08-2.81-3.89-4.74-5.35
			c-3.86-2.92-8.64-4.53-13.47-5.2c-4.85-0.67-9.83-0.39-14.6,0.71c-4.77,1.11-9.36,3.05-13.38,5.84
			c-4.03,2.77-7.46,6.39-9.97,10.58c-2.53,4.18-4.14,8.9-4.92,13.73c-0.78,4.85-0.79,9.81-0.24,14.71
			c1.11,9.82,4.24,19.34,8.21,28.41c4.01,9.08,8.9,17.76,14.27,26.11c5.38,8.36,11.24,16.41,17.4,24.22
			c12.35,15.58,25.78,30.39,40.93,43.26c7.6,6.39,15.59,12.33,24.13,17.38c8.51,5.07,17.56,9.29,27.03,12.14
			c9.46,2.86,19.36,4.33,29.23,3.95c9.86-0.38,19.64-2.57,28.71-6.46c9.07-3.88,17.49-9.33,24.7-16.05c0.89-0.85,1.77-1.71,2.6-2.6
			c0.8-0.84,1.58-1.88,2.4-2.81c1.63-1.9,3.29-3.77,4.98-5.61c3.38-3.69,6.86-7.27,10.43-10.78c14.3-13.96,29.94-26.66,47.19-36.87
			c8.62-5.09,17.65-9.54,27.09-12.97c9.43-3.41,19.29-5.8,29.32-6.66c10.03-0.9,20.22-0.11,29.99,2.37
			c9.79,2.43,19.06,6.72,27.53,12.15c1.08,0.65,2.08,1.41,3.13,2.11c1.04,0.71,2.07,1.43,3.06,2.21l3,2.29l2.89,2.42l5.69,4.83
			c1.92,1.57,3.83,3.15,5.8,4.67c7.81,6.13,16.05,11.69,24.68,16.57c8.65,4.84,17.71,8.93,27.14,11.92c9.42,3,19.21,4.85,29.07,5.28
			c9.86,0.43,19.78-0.61,29.29-3.22c4.75-1.3,9.4-2.98,13.87-5.05c4.44-2.07,8.82-4.51,12.62-7.44l0.06-0.05l0.04-0.02
			c12.85-8.64,25.15-18.23,36.99-28.26c11.83-10.07,23.18-20.71,33.85-31.99c10.66-11.28,20.65-23.21,29.56-35.9
			c8.89-12.69,16.72-26.17,22.65-40.46c5.93-14.27,9.91-29.41,10.84-44.82c0.97-15.39-1.28-30.94-6.58-45.42
			c-5.18-14.54-13.62-27.74-22.82-40.15c-9.31-12.35-20.18-23.57-32.66-32.67c-12.46-9.11-26.59-15.93-41.52-19.83
			c-14.94-3.91-30.58-4.9-45.96-3.43c-15.39,1.48-30.55,5.27-44.94,10.94c-3.6,1.42-7.15,2.96-10.62,4.64
			c-1.74,0.85-3.45,1.71-5.13,2.66c-1.71,0.91-3.36,1.89-5.02,2.89c-6.6,4.03-12.94,8.5-19.01,13.31
			c-12.11,9.64-23.15,20.69-32.27,33.19c-9.12,12.47-16.25,26.47-20.18,41.41c-3.95,14.92-4.66,30.66-2.18,45.91
			c1.21,7.63,3.12,15.15,5.63,22.46c2.51,7.32,5.64,14.41,9.11,21.34c6.96,13.84,15.44,26.97,25.84,38.44
			c10.37,11.46,22.63,21.28,36.41,28.3c3.42,1.8,6.97,3.34,10.54,4.81c3.61,1.38,7.24,2.7,10.97,3.74c3.7,1.12,7.48,1.96,11.26,2.75
			c3.8,0.7,7.62,1.33,11.47,1.72c15.39,1.69,31.01,0.76,46.27-1.9c15.28-2.67,30.21-7.15,44.68-12.77
			c14.46-5.64,28.46-12.48,41.96-20.15c27.01-15.39,52.08-34.07,75.22-54.82c23.14-20.77,44.39-43.65,63.49-68.19
			c9.56-12.26,18.55-24.97,26.94-38.06c8.4-13.09,16.15-26.58,23.19-40.45c14.08-27.7,25.26-56.98,31.99-87.34
			c3.35-15.17,5.54-30.61,6.26-46.13c0.72-15.51-0.04-31.11-2.56-46.43L3867.91,2599.9z"/>
	</g>
	<g>
		<path class="st0" d="M3866.92,2612.03c-0.51,15.25-1.82,30.5-4.06,45.64c-2.18,15.14-5.3,30.16-9.21,44.98
			c-3.96,14.81-8.62,29.44-14.11,43.78c-2.73,7.17-5.64,14.28-8.71,21.32c-3.1,7.03-6.4,13.97-9.84,20.84
			c-27.63,54.91-65.73,104.75-112.26,145.51c-23.28,20.34-48.65,38.51-76.29,52.98c-13.83,7.2-28.21,13.47-43.12,18.46
			c-14.92,4.94-30.39,8.63-46.27,10.28c-7.93,0.83-15.96,1.18-24.02,0.87c-8.05-0.27-16.13-1.22-24.12-2.86
			c-15.95-3.31-31.53-9.66-45.1-19.11c-6.78-4.71-13.04-10.15-18.71-16.08c-5.64-5.97-10.74-12.41-15.2-19.21
			c-8.92-13.63-15.54-28.42-20.41-43.63c-4.89-15.25-7.86-31.35-8.16-47.69c-0.16-8.16,0.45-16.37,1.69-24.48
			c1.31-8.1,3.27-16.12,6-23.86c5.39-15.53,13.54-29.96,23.48-42.78c9.96-12.84,21.69-24.08,34.62-33.74
			c3.25-2.41,6.57-4.72,10.04-6.93c0.87-0.55,1.75-1.1,2.65-1.64l1.37-0.81l1.34-0.75c1.95-1.1,3.77-2.03,5.63-2.94
			c7.38-3.58,14.87-6.54,22.56-9.04c15.35-4.97,31.43-8.02,47.81-8.47c16.35-0.47,32.98,1.82,48.68,7.16
			c7.83,2.71,15.44,6.07,22.62,10.15c7.19,4.07,13.99,8.77,20.33,13.95c12.71,10.37,23.53,22.64,32.73,35.75
			c1.19,1.62,2.25,3.31,3.38,4.96c1.13,1.65,2.19,3.34,3.25,5.04c2.13,3.31,4.24,6.94,6.16,10.56c3.85,7.29,7.05,14.99,9.47,22.96
			c4.89,15.94,6.41,32.97,4.64,49.44c-1.72,16.5-6.51,32.35-13.05,47.07c-6.56,14.75-14.86,28.46-24.1,41.29
			c-9.26,12.83-19.49,24.8-30.31,36.1c-10.84,11.29-22.28,21.91-34.18,31.95c-5.95,5.02-12.02,9.89-18.22,14.62
			c-3.1,2.36-6.23,4.69-9.4,6.97c-1.59,1.14-3.18,2.28-4.8,3.4l-2.45,1.67l-2.57,1.71l0.95-0.7l-0.64,0.51l-0.5,0.38l-0.95,0.69
			c-0.62,0.44-1.24,0.85-1.85,1.25c-1.22,0.8-2.45,1.54-3.68,2.26c-2.46,1.41-4.96,2.69-7.5,3.85c-5.08,2.32-10.32,4.19-15.66,5.62
			c-10.69,2.88-21.79,3.98-32.72,3.46c-10.94-0.52-21.69-2.62-31.91-5.93c-10.23-3.3-19.95-7.76-29.12-12.94
			c-9.15-5.23-17.8-11.15-25.94-17.59c-2.05-1.59-4.04-3.25-6.04-4.91l-5.77-4.94l-2.63-2.22l-2.71-2.09
			c-0.89-0.72-1.82-1.37-2.76-2.01c-0.94-0.64-1.84-1.33-2.81-1.92c-7.59-4.92-15.77-8.75-24.39-10.94c-8.6-2.23-17.58-3-26.58-2.24
			c-9,0.72-18.02,2.78-26.79,5.87c-8.78,3.1-17.31,7.21-25.55,11.98c-16.47,9.56-31.71,21.69-45.67,35.1
			c-3.48,3.36-6.89,6.81-10.18,10.34c-1.64,1.76-3.26,3.55-4.82,5.34l-1.14,1.33l-0.65,0.78l-0.49,0.54l-0.39,0.42
			c-1.02,1.09-2.02,2.05-3.04,3c-4.07,3.77-8.4,7.04-12.99,9.98c-4.58,2.93-9.42,5.46-14.44,7.57c-10.05,4.22-20.93,6.57-31.82,6.91
			c-10.9,0.35-21.74-1.4-31.91-4.59c-10.2-3.19-19.78-7.79-28.68-13.23c-8.93-5.41-17.19-11.7-24.98-18.39
			c-15.53-13.49-29.06-28.77-41.46-44.76c-6.18-8.02-12.08-16.3-17.51-24.94c-5.43-8.63-10.34-17.66-14.4-27.18
			c-4.01-9.52-7.21-19.59-8.28-30.25c-0.53-5.32-0.46-10.79,0.48-16.23c0.95-5.42,2.84-10.8,5.82-15.59
			c2.96-4.8,6.99-8.93,11.62-12.04c4.63-3.12,9.83-5.24,15.18-6.41c5.36-1.16,10.89-1.4,16.35-0.58c5.43,0.83,10.89,2.68,15.55,6.29
			c2.31,1.8,4.36,4.09,5.82,6.79c0.73,1.34,1.3,2.78,1.69,4.26c0.19,0.72,0.36,1.53,0.45,2.19c0.1,0.69,0.21,1.38,0.26,2.07
			c0.26,2.78,0.17,5.62-0.32,8.39c-0.5,2.77-1.39,5.46-2.6,7.96c-2.41,5.04-6.12,9.21-10.24,12.57c-4.15,3.37-8.75,5.97-13.51,8.03
			c-9.55,4.1-19.68,6.15-29.77,7.1c-10.11,0.94-20.25,0.66-30.26-0.37c-20.04-2.09-39.55-7.24-58.29-14.15l0.4-1.13
			c18.79,6.51,38.27,11.23,58.09,12.89c9.9,0.83,19.87,0.87,29.74-0.19c9.84-1.09,19.64-3.26,28.66-7.31
			c4.49-2.03,8.78-4.56,12.54-7.71c3.74-3.15,6.99-6.97,9.03-11.4c1.02-2.21,1.76-4.54,2.16-6.94c0.38-2.4,0.43-4.85,0.16-7.27
			c-0.13-1.21-0.32-2.43-0.64-3.57c-0.32-1.15-0.77-2.26-1.36-3.3c-1.17-2.08-2.81-3.9-4.74-5.35c-3.86-2.92-8.64-4.53-13.47-5.2
			c-4.85-0.67-9.83-0.39-14.6,0.71c-4.77,1.11-9.36,3.05-13.38,5.84c-4.03,2.77-7.46,6.39-9.97,10.58
			c-2.53,4.18-4.14,8.9-4.92,13.73c-0.78,4.85-0.79,9.81-0.24,14.71c1.11,9.82,4.24,19.34,8.21,28.41
			c4.01,9.08,8.9,17.76,14.27,26.11c5.38,8.36,11.24,16.41,17.4,24.22c12.35,15.58,25.78,30.39,40.93,43.27
			c7.6,6.39,15.59,12.33,24.13,17.38c8.51,5.07,17.56,9.29,27.03,12.14c9.46,2.86,19.36,4.33,29.23,3.95
			c9.86-0.38,19.64-2.57,28.71-6.46c9.07-3.88,17.49-9.33,24.7-16.05c0.89-0.85,1.77-1.71,2.6-2.6c0.8-0.84,1.58-1.88,2.4-2.82
			c1.63-1.9,3.29-3.77,4.98-5.61c3.38-3.69,6.86-7.27,10.43-10.78c14.3-13.96,29.94-26.66,47.19-36.87
			c8.62-5.09,17.65-9.54,27.09-12.97c9.43-3.41,19.29-5.8,29.32-6.66c10.02-0.9,20.22-0.11,29.99,2.37
			c9.79,2.43,19.06,6.72,27.52,12.14c1.07,0.65,2.08,1.41,3.12,2.11c1.04,0.71,2.07,1.43,3.06,2.21l3,2.29l2.89,2.41l5.69,4.83
			c1.92,1.57,3.83,3.16,5.8,4.67c7.81,6.13,16.05,11.69,24.68,16.57c8.65,4.84,17.72,8.93,27.15,11.92c9.42,3,19.21,4.85,29.07,5.28
			c9.86,0.43,19.78-0.61,29.29-3.22c4.75-1.3,9.4-2.98,13.87-5.05c4.44-2.07,8.82-4.51,12.62-7.44l0.06-0.05l0.04-0.02
			c12.57-8.45,24.62-17.82,36.23-27.61c11.6-9.82,22.73-20.2,33.23-31.18c10.49-10.98,20.35-22.58,29.2-34.91
			c8.84-12.32,16.69-25.39,22.82-39.24c6.12-13.83,10.48-28.5,12.02-43.53c1.57-15.01,0.17-30.31-4.27-44.72
			c-2.2-7.21-5.13-14.2-8.65-20.87c-1.76-3.34-3.65-6.6-5.69-9.8c-1-1.61-2-3.22-3.07-4.78c-1.07-1.56-2.07-3.17-3.19-4.7
			c-8.67-12.41-18.76-23.87-30.46-33.45c-5.84-4.79-12.07-9.1-18.63-12.84c-6.56-3.74-13.48-6.81-20.61-9.29
			c-14.29-4.89-29.47-7.02-44.57-6.62c-15.12,0.38-30.15,3.18-44.55,7.82c-7.2,2.33-14.27,5.1-21.07,8.39
			c-6.79,3.25-13.13,7.43-19.22,11.92c-12.15,9.03-23.18,19.61-32.53,31.51c-9.32,11.91-16.91,25.22-21.94,39.48
			c-2.55,7.12-4.38,14.48-5.63,21.93c-1.18,7.46-1.78,15.02-1.66,22.59c0.2,15.13,2.88,30.19,7.43,44.64
			c4.54,14.45,10.73,28.43,18.96,41.14c4.11,6.35,8.8,12.32,13.96,17.84c5.19,5.49,10.9,10.49,17.08,14.84
			c12.33,8.75,26.55,14.7,41.32,17.9c7.39,1.58,14.93,2.54,22.49,2.86c7.56,0.36,15.15,0.1,22.7-0.63
			c15.1-1.44,29.98-4.84,44.42-9.48c14.44-4.69,28.47-10.65,42-17.55c27.08-13.83,52.22-31.31,75.35-51.04
			c23.13-19.75,44.23-41.87,63.15-65.69c18.89-23.85,35.58-49.44,49.65-76.42c14.1-26.96,25.51-55.33,33.88-84.58
			c8.32-29.26,13.5-59.43,15.13-89.81L3866.92,2612.03z"/>
	</g>
</g>
<g id="Layer_9">
	<path class="st3" d="M682,2613.52l43-11.52c51.43,147.34,97.45,259.11,191,371C824,2943,719.58,2730.83,682,2613.52z"/>
	<path class="st5" d="M653.24,2614.11l36.19-11.58c17.93,101.59,97.23,225.59,137.12,282.06
		C734.55,2854.6,690.83,2731.42,653.24,2614.11z"/>
	<path class="st0" d="M663.32,2607.44l41.19-11.58C793.32,2902.6,911,2976,978,3008c-40.11-5.29-177.35-74.17-256.79-235.29
		C697.52,2720.28,677.11,2664.21,663.32,2607.44z"/>
	<path class="st3" d="M3921,2625l-38-7c-51.43,147.34-130,262-240,364C3762,2946,3883.42,2742.31,3921,2625z"/>
	<path class="st0" d="M3900,2598.44l-41.19-11.58C3770,2893.6,3652.32,2967,3585.32,2999c40.11-5.29,177.35-74.17,256.79-235.29
		C3865.8,2711.28,3886.21,2655.21,3900,2598.44z"/>
</g>
<g id="Layer_11">
</g>
</svg>
