<?xml version="1.0" encoding="iso-8859-1"?>
<!-- Generator: Adobe Illustrator 16.0.4, SVG Export Plug-In . SVG Version: 6.00 Build 0)  -->
<!DOCTYPE svg PUBLIC "-//W3C//DTD SVG 1.1//EN" "http://www.w3.org/Graphics/SVG/1.1/DTD/svg11.dtd">
<svg version="1.1" id="Layer_1" xmlns="http://www.w3.org/2000/svg" xmlns:xlink="http://www.w3.org/1999/xlink" x="0px" y="0px"
	 width="80px" height="80px" viewBox="0 0 80 80" style="enable-background:new 0 0 80 80;" xml:space="preserve">
<path style="fill:#FFFFFF;" d="M1.777,7.318c4.084,0.069,8.6,0.167,13.599,0.301C30.53,8.027,64.621,9.563,70.25,12.767
	c0,0,1.726,10.626,1.921,12.881c0.195,2.252,2.254,10.582,3.625,12.247c1.371,1.666,2.647,19.992,1.766,23.617
	c-0.883,3.625-1.766,13.522-2.059,16.757"/>
<path style="fill:#FFFFFF;" d="M75.503,78.269c0.293-3.234,1.176-13.132,2.059-16.757c0.882-3.625-0.395-21.951-1.766-23.617
	c-1.371-1.665-3.43-9.994-3.625-12.247c-0.195-2.255-1.921-12.881-1.921-12.881c-5.629-3.204-39.72-4.74-54.874-5.147
	C10.377,7.485,5.861,7.387,1.777,7.318v70.849L75.503,78.269z"/>
<path style="fill:none;stroke:#000000;stroke-width:0.624;stroke-miterlimit:10;" d="M1.777,7.318
	c4.084,0.069,8.6,0.167,13.599,0.301C30.53,8.027,64.621,9.563,70.25,12.767c0,0,1.726,10.626,1.921,12.881
	c0.195,2.252,2.254,10.582,3.625,12.247c1.371,1.666,2.647,19.992,1.766,23.617c-0.883,3.625-1.766,13.522-2.059,16.757"/>
<path style="fill:#DADADA;" d="M1.554,7.472c0,0,8.635,0.14,13.516,0.262c1.793,0.045,35.85,0.976,50.091,3.691
	c2.108,0.401,4.78,1.026,4.854,1.777c0,0.098,1.961,4.312-60.165,2.35c-1.216-0.038-8.26-0.425-8.26-0.425L1.554,7.472z"/>
<g>
	<path style="fill:#4D4D4D;stroke:#000000;stroke-width:0.624;stroke-miterlimit:10;" d="M38.848,52.047
		c-0.849-0.947-0.73-2.371,0.267-3.18l0,0c0.997-0.809,2.5-0.697,3.352,0.253c0,0,1.368,1.692,0.199,2.642L42.2,52.297
		C41.203,53.105,39.704,52.994,38.848,52.047L38.848,52.047z"/>
	<path style="fill:#808080;stroke:#000000;stroke-width:0.624;stroke-miterlimit:10;" d="M38.929,52.357
		c-0.855-0.95-0.737-2.371,0.263-3.18l0,0c1.001-0.812,2.503-0.697,3.353,0.248l0,0c0.855,0.947,0.734,2.373-0.263,3.182l0,0
		C41.28,53.414,39.781,53.301,38.929,52.357L38.929,52.357z"/>
	<g>
		<path d="M41.247,50.538c-0.128,0-0.232-0.104-0.232-0.226l0,0c0-0.121,0.107-0.223,0.235-0.219l0,0
			c0.132,0,0.232,0.102,0.232,0.223l0,0C41.482,50.438,41.378,50.538,41.247,50.538L41.247,50.538z"/>
		<path d="M41.206,51.574c-0.128-0.002-0.232-0.1-0.229-0.221l0,0c0-0.125,0.104-0.223,0.232-0.223l0,0
			c0.131,0.002,0.235,0.104,0.232,0.223l0,0C41.442,51.479,41.338,51.576,41.206,51.574L41.206,51.574z"/>
		<path d="M40.206,50.528c-0.128,0-0.229-0.101-0.229-0.223l0,0c0-0.124,0.104-0.222,0.236-0.222l0,0
			c0.131,0.001,0.232,0.102,0.232,0.225l0,0C40.441,50.431,40.337,50.531,40.206,50.528L40.206,50.528z"/>
		<path d="M40.199,51.566c-0.132-0.002-0.232-0.102-0.232-0.223l0,0c0-0.121,0.104-0.221,0.235-0.219l0,0
			c0.132,0,0.232,0.101,0.232,0.222l0,0C40.432,51.469,40.327,51.567,40.199,51.566L40.199,51.566z"/>
	</g>
</g>
<rect style="fill:none;" width="80" height="80"/>
<path style="fill:none;stroke:#000000;stroke-width:0.624;stroke-miterlimit:10;" d="M2.269,25.202
	c11.858,0.555,23.553,0.976,30.216,1.032c11.464,0.098,32.729,1.275,39.491-2.059"/>
<path style="fill:none;stroke:#000000;stroke-width:0.624;stroke-miterlimit:10;" d="M70.015,13.201
	c0,0.098,1.961,4.312-60.165,2.35c-1.185-0.037-4.085-0.188-7.967-0.421"/>
<path style="fill:#DADADA;" d="M70.965,28.586c0,0,0.485,17.611,1.202,20.486c0.718,2.874,0.499,11.297,0.432,13.584
	c-0.064,2.285,1.631,10.808,1.631,10.808s0.521,0.067,0.586-0.454c0.067-0.522,0.263-10.715,0.916-12.283
	c0.654-1.566,0.26-16.721-1.839-20.494c-2.156-3.881-2.277-9.751-2.409-10.796C71.353,28.391,71.028,28.129,70.965,28.586z"/>
<path style="fill:#808080;stroke:#000000;stroke-width:0.624;stroke-miterlimit:10;" d="M20.629,43.188
	c0,0,13.132,0.781,21.655,0.586s17.836-1.078,17.836-1.078l0.098,2.846c0,0-11.469,0.979-17.934,0.979
	c-6.469,0-21.852-0.688-21.852-0.688L20.629,43.188z"/>
<path style="opacity:0.35;" d="M47.978,16.442c0,0,0,6.078,0.064,7.474c0.064,1.401-0.172,4.504,0.903,5.09
	c1.071,0.584,3.349-0.579,3.349-0.579L47.978,16.442z"/>
<polygon style="fill:#FFFFFF;stroke:#000000;stroke-width:0.624;stroke-miterlimit:10;" points="15.141,15.406 14.75,27.755 
	17.293,27.803 17.738,15.406 "/>
<path style="fill:#FFFFFF;stroke:#000000;stroke-width:0.624;stroke-miterlimit:10;" d="M48.406,15.701c0,0,0.198,5.389,0.589,7.494
	c0.391,2.107,0.539,3.133,0.539,4.41c0,0.59,2.402,0.639,2.449,0.344c0.051-0.295-0.047-3.725-0.34-4.703
	c-0.297-0.98-0.785-7.643-0.785-7.643L48.406,15.701z"/>
<g>
</g>
<g>
</g>
<g>
</g>
<g>
</g>
<g>
</g>
<g>
</g>
<g>
</g>
<g>
</g>
<g>
</g>
<g>
</g>
<g>
</g>
<g>
</g>
<g>
</g>
<g>
</g>
<g>
</g>
</svg>
