<?xml version="1.0" encoding="iso-8859-1"?>
<!-- Generator: Adobe Illustrator 19.1.1, SVG Export Plug-In . SVG Version: 6.00 Build 0)  -->
<svg version="1.1" id="Lager_1" xmlns="http://www.w3.org/2000/svg" xmlns:xlink="http://www.w3.org/1999/xlink" x="0px" y="0px"
	 viewBox="0 0 80 80" style="enable-background:new 0 0 80 80;" xml:space="preserve">
<path id="WhiteFill_9_" style="fill:#FFFFFF;" d="M34.801,73.563c0.447-0.294,0.418-6.348,0.566-8.594
	c0.057-0.875,0.491-14.593,0.694-16.44C36.263,46.681,38,45,38,45l2.459,9.283c0,0,0.775,4.671,0.823,6.282
	c0.085,2.842,0.676,10.798,0.963,12.613c0.329,2.08,23.125,1.314,23.285,0.223c0.221-1.514,0.313-1.547,0.15-4.22
	c-0.242-3.963,0.018-24.092-0.157-27.371c-0.178-3.313-0.485-14.455-0.534-15.862c-0.05-1.406-0.303-11.065-1.484-13.039
	c-1.183-1.973,0.635-4.333-0.063-4.477C62.743,8.29,15.796,6.957,13.618,9.741c-1.51,1.93-0.292,2.944-0.554,4.195
	c-0.117,0.56-2.25,10.083-2.324,20.867c-0.092,13.309,1.088,27.769,1.267,29.632c0.181,1.877,0.28,7.475,0.493,8.69
	C12.5,73.125,31.188,75.938,34.801,73.563z"/>
<path id="WhiteFill_8_" style="opacity:0.3;fill:#12100B;" d="M34.801,73.563c0.447-0.294,0.418-6.348,0.566-8.594
	c0.057-0.875,0.491-14.593,0.694-16.44C36.263,46.681,38,45,38,45l2.459,9.283c0,0,0.775,4.671,0.823,6.282
	c0.085,2.842,0.676,10.798,0.963,12.613c0.329,2.08,23.125,1.314,23.285,0.223c0.221-1.514,0.313-1.547,0.15-4.22
	c-0.242-3.963,0.018-24.092-0.157-27.371c-0.178-3.313-0.485-14.455-0.534-15.862c-0.05-1.406-0.303-11.065-1.484-13.039
	c-1.183-1.973,0.635-4.333-0.063-4.477C62.743,8.29,15.796,6.957,13.618,9.741c-1.51,1.93-0.292,2.944-0.554,4.195
	c-0.117,0.56-2.25,10.083-2.324,20.867c-0.092,13.309,1.088,27.769,1.267,29.632c0.181,1.877,0.28,7.475,0.493,8.69
	C12.5,73.125,31.188,75.938,34.801,73.563z"/>
<path id="WhiteFill_7_" style="fill:#FFFFFF;" d="M36.801,71.563c0.447-0.294,0.418-6.348,0.566-8.594
	c0.057-0.875,0.491-14.593,0.694-16.44C38.263,44.681,40,43,40,43l2.459,9.283c0,0,0.775,4.671,0.823,6.282
	c0.085,2.842,0.676,10.798,0.963,12.613c0.329,2.08,23.125,1.314,23.285,0.223c0.221-1.514,0.313-1.547,0.15-4.22
	c-0.242-3.963,0.018-24.092-0.157-27.371c-0.178-3.313-0.485-14.455-0.534-15.862c-0.05-1.406-0.303-11.065-1.484-13.039
	c-1.183-1.973,0.635-4.333-0.063-4.477C64.743,6.29,17.796,4.957,15.618,7.741c-1.51,1.93-0.292,2.944-0.554,4.195
	c-0.117,0.56-2.25,10.083-2.324,20.867c-0.092,13.309,1.088,27.769,1.267,29.632c0.181,1.877,0.28,7.475,0.493,8.69
	C14.5,71.125,33.188,73.938,36.801,71.563z"/>
<path id="IntShadow_5_" style="opacity:0.1;fill:#12100B;" d="M49.075,72.266c-0.584-2.111-0.683-7.742-0.707-10.092
	c-0.021-2.171,2.368-0.233,2.099-0.834c-0.221-0.495-3.032-4.737-3.555-6.268c-0.802-2.344-0.768-4.711-1.389-6.124
	c-0.291-0.66,5.025,3.279,5.203,2.836c0.157-0.395-3.753-3.529-5.483-6.049c-0.832-1.211-0.194-2.358-0.164-2.838
	c0.013-0.213,6.475,4.062,6.472,3.85c-0.011-0.767-6.921-5.704-7.241-6.008c-0.371-0.353-0.809-0.409-0.917-0.811
	c-0.146-0.547-0.431-0.167-0.146-0.547c0.205-0.275,8.624,2.648,8.624,2.304c0-0.693-8.236-4.069-8.812-4.298
	c-0.537-0.214-3.189,0.032-4.605,0.215c-0.879,0.113-3.622-0.072-4.128-0.063c-1.784,0.031-5.898,0.022-7.641-0.152
	c-0.979-0.098,5.674,1.26,8.333,1.292c0.819,0.009,1.048,0.273,0.419,1.024c-0.11,0.131-0.19,0.411-1.552,1.349
	c-2.972,2.048-8.024,4.964-8.046,5.143c-0.036,0.283,8.384-3.894,8.648-3.702c1.427,1.046,0.448,1.7,0.308,4.078
	c-0.058,0.994-2.778,6.704-2.379,6.842c0.304,0.104,2.165-3.21,1.75-0.417c-0.538,3.617-1.703,6.613-1.656,7.594
	c0.056,1.17,1.375,3.713,1.375,5.466c0,0.563,0.173,6.028-0.048,6.03l2.964-0.793c-0.007-3.245,0.501-6.734,0.513-6.99
	c0.09-1.987-0.126-10.073,0.233-12.705c0.145-1.059,1.106-5.999,1.455-7.34c0.309-1.187,0.918-1.242,1.246-0.516
	c0.112,0.248,2.092,7.211,2.255,7.857c0.163,0.646,0.876,5.443,1.016,6.842c0.075,0.755,0.6,12.329,0.899,13.06"/>
<path style="opacity:0.1;fill:#12100B;" d="M28.6,35.29c-2.281,1.135,16.226-2.389,18.85-2.063c2.619,0.326,6.551-0.716,7.862-0.032
	c1.31,0.684-20.099,3.508-23.499,3.291C28.414,36.268,29.037,35.073,28.6,35.29z"/>
<path style="opacity:0.1;fill:#12100B;" d="M49.871,29.861c1.879,1.298-13.359-2.732-15.519-2.36
	c-2.157,0.373-5.703-0.622-6.473-0.037c-0.804,0.611,16.546,4.012,19.346,3.764C50.024,30.979,49.511,29.613,49.871,29.861z"/>
<path style="opacity:0.1;fill:#12100B;" d="M47.845,18.579c-0.969,0.227-12.768-0.37-14.583-0.224
	c-1.876,0.152-4.297-0.086-4.729,0.353c-0.863,0.875,14.692,1.595,17.11,1.34C48.04,19.791,48.169,18.501,47.845,18.579z"/>
<path style="opacity:0.1;fill:#12100B;" d="M50.895,25.193c-0.832,0.067-10.596-2.23-12.124-2.34
	c-1.58-0.114-4.041-0.688-4.278-0.253c-0.41,0.754,12.343,3.449,14.385,3.543C50.904,26.236,51.176,25.17,50.895,25.193z"/>
<path style="opacity:0.1;fill:#12100B;" d="M14.851,14.652c0.329,0.07,12.885,2.223,25.162,2.192
	c12.055-0.03,24.414-2.335,25.428-4.057c0.989-1.681-0.373-1.299-0.373-1.299s-11.848,3.803-24.708,3.803
	c-12.484,0-25.087-1.854-25.295-2.086C14.644,12.739,14.851,14.652,14.851,14.652z"/>
<path style="opacity:0.1;fill:#12100B;" d="M15.176,12.266c0.839,0.015,14.954,2.153,26.354,1.881
	c5.294-0.125,18.949-1.54,23.91-3.787c0.36-0.164,0.569,0.909,0.136,1.128c-3.867,1.951-15.295,3.803-25.474,4.001
	c-1.718,0.033-24.43-1.857-24.897-2.234C14.737,12.879,15.176,12.266,15.176,12.266z"/>
<path style="opacity:0.2;fill:#12100B;" d="M47.975,10.077c-0.633,0.936-0.347,4.143,0,4.965c0.347,0.822,0.152,2.081,0.669,2.268
	c0.517,0.187,1.978,0.513,2.344,0c0.366-0.513-0.039-0.511,0-1.398C51.027,15.025,47.975,10.077,47.975,10.077z"/>
<path style="opacity:0.2;fill:#12100B;" d="M25.68,9.384c-0.807,0.791-1.164,3.991-0.988,4.866c0.176,0.875-0.265,2.069,0.205,2.355
	c0.469,0.286,1.836,0.896,2.297,0.466c0.461-0.429,0.064-0.508,0.279-1.37C27.687,14.84,25.68,9.384,25.68,9.384z"/>
<path style="opacity:0.2;fill:#12100B;" d="M15.997,7.952c-0.675-0.965,18.788-1.706,27.376-1.849
	c8.588-0.143,20.996,0.152,21.741,0.386c0.746,0.233-11.239,3.724-24.815,3.588C26.726,9.941,17.116,9.554,15.997,7.952z"/>
<path style="fill:none;stroke:#000000;stroke-miterlimit:10;" d="M15.064,13.206c-0.044,0.487,11.113,1.718,22.856,2.053
	c12.963,0.37,26.634-2.417,27.521-3.965c0.131-0.228-0.001-1.594,0-2.588c0.002-0.995,0.139-2.129,0-2.216
	c-0.77-0.482-12.087-0.764-25.261-0.282C28.215,6.644,15.984,6.559,15.309,8.285c-0.111,0.285,0.022,1.306,0,2.337
	C15.287,11.652,15.11,12.692,15.064,13.206z"/>
<path style="fill:none;stroke:#000000;stroke-miterlimit:10;" d="M15.064,8.634c0.459,0.141,11.124,1.36,22.669,1.469
	C49.052,10.21,61.103,8.774,65.44,6.489"/>
<path style="fill:none;stroke:#000000;stroke-miterlimit:10;" d="M15.064,12.44C10.726,26.62,13.844,58.21,14,62.25
	c0.136,3.504,0.049,8.752,0.5,8.875c4.909,1.338,22.23,1.615,22.301,0.167c0.135-2.751,0.764-9.676,0.652-11.333
	c-0.097-1.452,0.098-6.125,0.281-7.927c0.136-1.339,0.437-3.784,0.531-5.136c0.098-1.404,1.474-3.57,1.66-4.071
	c0.187-0.5,2.204,5.407,3.202,14.179c0.611,5.368,0.57,13.966,1.289,14.497c2.492,1.842,19.979,1.091,22.808,0.057
	c0.598-0.219,0.325-2.473,0.534-7.373c0.183-4.292-0.053-16.617-0.352-29.457c-0.302-12.991-0.323-19.468-1.966-23.997"/>
<path style="fill:none;stroke:#000000;stroke-miterlimit:10;" d="M39.926,42.824c-2.938-4.43-1.727-2.285-2.473-6.203
	c-0.746-3.918-0.279-19.523-0.652-21.33"/>
<path style="fill:none;stroke:#000000;stroke-miterlimit:10;" d="M58.59,13.566c0.063,1.638,0,7.476,1.253,9.668
	c1.438,2.516,4.823,2.333,7.156,2.333"/>
<path style="fill:none;stroke:#000000;stroke-miterlimit:10;" d="M36.801,15.292c-0.089-3.031-0.047-3.492,0-5.214"/>
<path style="fill:#FFFFFF;" d="M50.572,15.726c-0.568,0.052-1.606,0.314-1.616,0.11c-0.008-0.202-0.338-5.739-0.312-5.928
	c0.027-0.189,1.608-0.467,1.698-0.214C50.433,9.947,50.572,15.726,50.572,15.726z"/>
<path style="fill:#FFFFFF;" d="M27.053,15.49c-0.569-0.045-1.48,0.08-1.455-0.121c0.025-0.201,0.479-5.325,0.536-5.506
	c0.058-0.182,1.61-0.265,1.656,0C27.836,10.127,27.053,15.49,27.053,15.49z"/>
<path style="fill:none;stroke:#000000;stroke-miterlimit:10;" d="M48.644,9.748c0.075-0.167,1.387-0.195,1.551-0.136
	c0.163,0.059,0.657,4.777,0.657,6.206c0,0.338-1.626,0.313-1.626,0.094C49.226,15.125,48.535,9.987,48.644,9.748z"/>
<path style="fill:none;stroke:#000000;stroke-miterlimit:10;" d="M26.134,9.662c0.119-0.248,1.757-0.06,1.696,0.103
	c-0.452,1.202-0.619,4.627-0.545,6.147c0.014,0.282-1.682,0.014-1.726-0.228C25.419,14.909,25.597,10.78,26.134,9.662z"/>
<path style="fill:#FFFFFF;stroke:#000000;stroke-width:0.624;stroke-miterlimit:10;" d="M42.365,12.696
	c0.002,0.108-0.083,0.194-0.191,0.195l-2.107,0.018c-0.106,0-0.192-0.085-0.194-0.192l0,0c-0.001-0.108,0.085-0.194,0.193-0.195
	l2.108-0.019C42.277,12.503,42.365,12.589,42.365,12.696L42.365,12.696z"/>
<circle style="fill:#FFFFFF;stroke:#000000;stroke-width:0.624;stroke-miterlimit:10;" cx="39.873" cy="12.639" r="1.15"/>
<circle cx="39.667" cy="12.352" r="0.167"/>
<circle cx="40.179" cy="12.434" r="0.167"/>
<circle cx="40.102" cy="12.956" r="0.167"/>
<circle cx="39.58" cy="12.874" r="0.167"/>
<path style="fill:none;stroke:#000000;stroke-miterlimit:10;" d="M17.023,13.693c-0.368,2.648-0.7,7.932-1.397,10.274
	c-0.438,1.47-0.707,1.327-2.298,1.601"/>
<rect style="fill:none;" width="80" height="80"/>
<path style="fill:none;stroke:#000000;stroke-miterlimit:10;" d="M42.698,15.472c-0.021,3.974,0.371,16.763,0,17.872
	c-0.368,1.109-1.686,4.367-5.197,3.258"/>
<g>
</g>
<g>
</g>
<g>
</g>
<g>
</g>
<g>
</g>
<g>
</g>
<g>
</g>
<g>
</g>
<g>
</g>
<g>
</g>
<g>
</g>
<g>
</g>
<g>
</g>
<g>
</g>
<g>
</g>
</svg>
