<svg id="Layer_9" data-name="Layer 9" xmlns="http://www.w3.org/2000/svg" viewBox="0 0 379.83 510.08"><defs><style>.cls-1,.cls-2,.cls-3{fill:none;stroke:#000;}.cls-1,.cls-2{stroke-miterlimit:10;}.cls-1,.cls-3{stroke-width:4px;}.cls-2{stroke-width:2px;}.cls-3{stroke-linejoin:round;}</style></defs><title>icon</title><path class="cls-1" d="M6.39,463.91l-.67-35.47s-3.15-3.11-3.35-10c-.83-29.48,0-110.87,0-141.22,0-37.48,32.8-186.72,44.17-200.78,7.73-9.54,57.7-28,89-38.91"/><path class="cls-1" d="M323.92,463.91l-.67-38.82s-3-4.51-3.34-13.38c-1.28-30-6.31-112.1-8.7-140.81A220.63,220.63,0,0,0,298.7,214s-1.83,52.88.17,85.68S306,461.36,306,461.36s-34.92,33.34-53.66,40-62.24,6.69-62.24,6.69h-.3s-43.5,0-62.24-6.69-53.66-40-53.66-40,3.93-126.49,5.94-159.28S80,214,80,214A254.49,254.49,0,0,0,68.63,270.9c-2.39,28.71-7.42,110.82-8.7,140.81-.38,8.87-3.35,13.38-3.35,13.38l-.67,38.82"/><path class="cls-1" d="M246.25,38.17c31.39,11,79.48,28.89,87,38.23,11.38,14.06,44.17,163.3,44.17,200.78,0,30.35.84,111.74,0,141.22-.19,6.93-3.34,10-3.34,10l-.67,35.47"/><path class="cls-1" d="M146.27,10.92S152.51,2,189.1,2s46,8.92,46,8.92"/><path class="cls-2" d="M223.55,32.84a104.9,104.9,0,0,0-34.9-6.19,94.33,94.33,0,0,0-31.47,5.46"/><path class="cls-1" d="M158.75,77.13c6.85-13.92,16.14-34.7,25.58-36.17-9-1.79-19.44-4-27.14-8.85-6.89-4.36-11.56-10.87-10.92-21.19-5,3.8-10.73,26.57-10.73,26.57C139.11,54.6,148.45,62.47,158.75,77.13Z"/><path class="cls-1" d="M223.19,77.13c-6.85-13.92-16.14-34.7-25.58-36.17,17-3.39,39.4-8.17,38.06-30,5.77,2.81,10.73,26.57,10.73,26.57C242.83,54.6,233.49,62.47,223.19,77.13Z"/><path class="cls-3" d="M324,464.25c-1-6.09,49.52-.67,49.52-.67S325.3,472.28,324,464.25Z"/><path class="cls-3" d="M56.23,464.25c1-6.09-49.52-.67-49.52-.67S54.89,472.28,56.23,464.25Z"/><circle class="cls-2" cx="189.55" cy="49.09" r="3.99"/><circle class="cls-2" cx="189.55" cy="120.09" r="3.99"/><circle class="cls-2" cx="189.55" cy="189.96" r="3.99"/><circle class="cls-2" cx="189.55" cy="259.83" r="3.99"/><circle class="cls-2" cx="189.55" cy="329.7" r="3.99"/><circle class="cls-2" cx="189.55" cy="399.57" r="3.99"/><circle class="cls-2" cx="189.55" cy="469.52" r="3.99"/><path class="cls-2" d="M56.25,80C69.73,68,104.17,56.55,137.7,45.11"/><path class="cls-2" d="M242.49,45.11C276,56.55,310.46,68,323.94,80"/><path class="cls-2" d="M193.53,41h-4c-6.36,0-8.91,8.43-7.88,18a196.56,196.56,0,0,0,31.63-1.34"/><line class="cls-2" x1="181.45" y1="59.17" x2="181.45" y2="508.08"/><path class="cls-2" d="M181.45,59.17a48.23,48.23,0,0,1-12.81-1.5"/><path d="M80,214c1.33-12.67,2.1-25.37,2.62-38.08q.43-9.52.5-19.06a187.84,187.84,0,0,0-.54-19,120.32,120.32,0,0,0-3-18.71,82.51,82.51,0,0,0-6.42-17.76,59.31,59.31,0,0,0-4.93-8.06c-1.88-2.53-3.87-5-6-7.36a45.53,45.53,0,0,0-7-6.38c-.64-.47-1.32-.87-2-1.3s-1.39-.76-2.12-1.06a8.55,8.55,0,0,0-4.61-.85,8.64,8.64,0,0,1,4.7.63,20.79,20.79,0,0,1,4.26,2.22,46.12,46.12,0,0,1,7.33,6.19A67.16,67.16,0,0,1,74.34,100.8a80.77,80.77,0,0,1,6.91,18,123.37,123.37,0,0,1,3.18,19c1.2,12.78.6,25.58-.06,38.3A316.47,316.47,0,0,1,80,214Z"/><path d="M298.87,214a298.82,298.82,0,0,1-5.1-38.07c-.78-12.78-1.46-25.65.05-38.49a107.22,107.22,0,0,1,3.87-18.93,82.74,82.74,0,0,1,7.72-17.71A78.27,78.27,0,0,1,317.12,85.5a46.14,46.14,0,0,1,7.36-6.23c.65-.46,1.37-.84,2.06-1.25a19.87,19.87,0,0,1,2.21-1,8.79,8.79,0,0,1,4.71-.63,8.61,8.61,0,0,0-4.62.86,22.31,22.31,0,0,0-2.13,1.07c-.66.43-1.35.83-2,1.31a45.43,45.43,0,0,0-7,6.41,84.55,84.55,0,0,0-11.15,15.41A86.37,86.37,0,0,0,299.32,119a106.42,106.42,0,0,0-3.65,18.65,149.18,149.18,0,0,0-.74,19c0,6.38.24,12.76.59,19.13Q296.52,195,298.87,214Z"/><path class="cls-2" d="M5.72,428.44c20.16-2.54,42.47-6.67,50.19,0"/><path class="cls-2" d="M323.62,428.44c11.19-6.22,30.51-3.48,50.5,0"/></svg>