<?xml version="1.0" encoding="iso-8859-1"?>
<!-- Generator: Adobe Illustrator 16.0.4, SVG Export Plug-In . SVG Version: 6.00 Build 0)  -->
<!DOCTYPE svg PUBLIC "-//W3C//DTD SVG 1.1//EN" "http://www.w3.org/Graphics/SVG/1.1/DTD/svg11.dtd">
<svg version="1.1" id="Layer_1" xmlns="http://www.w3.org/2000/svg" xmlns:xlink="http://www.w3.org/1999/xlink" x="0px" y="0px"
	 width="80px" height="80px" viewBox="0 0 80 80" style="enable-background:new 0 0 80 80;" xml:space="preserve">
<rect style="fill:none;" width="80" height="80"/>
<path style="opacity:0.35;" d="M34.936,10.681l-11.66,5.252c0,0,0.591,14.683-1.334,17.963c0.974,15.964-0.785,38.217-0.785,38.217
	s3.158,5.041,20.62,5.041c17.462,0,20.006-5.041,20.006-5.041s-1.775-11.347-2.04-16.85c-0.014-0.339,6.884,13.562,8.883,18.786
	c0.061,0.162,5.535-2.458,10.918-5.687c-0.767-1.842-1.231-2.456-1.231-2.456l-7.38,3.84c0,0-10.619-21.539-14.15-30.642
	c-7.044-8.99-9.106-10.954-8.927-12.611c-0.642-1.143,0.79-15.17,0.79-15.17L34.936,10.681z"/>
<path style="opacity:0.35;" d="M9.856,69.292c0.328,0.302,1.404,2.759,1.404,2.759s6.932-3.818,8.921-5.837
	c0.902-0.917-5.538-15.516-5.538-15.516l5.687-8.909l-1.976-2.54l-6.326,10.833l5.229,14.286l-4.769,4.149L9.856,69.292z"/>
<path style="fill:#939598;stroke:#000000;stroke-width:0.9769;stroke-miterlimit:10;" d="M56.364,12.823l-0.053,0.062
	c0,0,2.924,3.066,4.658,6.184c1.964,3.533,4.357,10.476,4.357,10.476s8.152,20.946,8.59,22.052c0.437,1.106,2.617,8.864,2.839,9.809
	c0.215,0.943,2.106,4.037,2.106,4.037l-8.511,4.537l-2.038-4.215c0,0-1.706-3.876-3.101-6.745c-1.936-3.982-1.709-2.39-7.86-18.892
	l-1.71-8.876L55.44,18.027l0.366-4.94l0.153-0.202"/>
<path style="fill:#939598;stroke:#000000;stroke-width:0.9769;stroke-miterlimit:10;" d="M11.978,50.249l2.997,9.727l2.325,4.072
	c0,0-2.568,4.019-7.272,5.52C5.42,62.06,4.644,59.349,4.304,58.087C3.965,56.829,4.838,36.29,5.42,32.512
	c0,0,13.775-19.853,14.503-20.179c0.414-0.186,0.842-0.216,1.762-0.653c0.922-0.436-0.797,16.036-0.797,16.036l-1.116,8.574
	l-0.761,0.797L11.978,50.249z"/>
<path style="fill:none;stroke:#000000;stroke-width:0.9769;stroke-miterlimit:10;" d="M7.962,66.202
	c3.044-1.591,7.559-5.588,7.559-5.588"/>
<line style="fill:none;stroke:#000000;stroke-width:0.9769;stroke-miterlimit:10;" x1="69.134" y1="65.542" x2="76.756" y2="61.406"/>
<path style="fill:#FFFFFF;stroke:#000000;stroke-width:0.9769;stroke-miterlimit:10;" d="M31.488,7.236l-11.662,5.252
	c0,0,0.591,22.258-1.333,25.54c0.973,15.966-0.787,30.641-0.787,30.641s3.158,5.04,20.622,5.04c17.462,0,20.006-5.04,20.006-5.04
	s-2.595-10.26-1.211-29.792c-1.938-10.924-1.215-22.938-0.862-26.219c-0.643-1.143-11.066-4.779-11.066-4.779L31.488,7.236z"/>
<path style="fill:#FFFFFF;stroke:#000000;stroke-width:0.9769;stroke-miterlimit:10;" d="M38.021,14.059l-8.105,2.063
	c0,0-1.518-3.77-0.933-8.086l1.303-3.854c1.925-1.922,8.009-1.538,8.722-1.538c0.714,0,5.131-0.059,6.213,1.508
	c1.083,1.564,1.534,4.453,1.534,4.453s-0.396,7.63-1.181,7.518C43.684,15.853,38.021,14.059,38.021,14.059z"/>
<path style="fill:none;stroke:#000000;stroke-width:0.9769;stroke-miterlimit:10;" d="M38.021,14.059c0,0-5.424-4.1-7.734-9.877"/>
<path style="fill:none;stroke:#000000;stroke-width:0.9769;stroke-miterlimit:10;" d="M38.021,14.059
	c4.664-3.445,7.05-10.091,7.05-10.091"/>
<g>
</g>
<g>
</g>
<g>
</g>
<g>
</g>
<g>
</g>
<g>
</g>
<g>
</g>
<g>
</g>
<g>
</g>
<g>
</g>
<g>
</g>
<g>
</g>
<g>
</g>
<g>
</g>
<g>
</g>
</svg>
