<?xml version="1.0" encoding="iso-8859-1"?>
<!-- Generator: Adobe Illustrator 16.0.4, SVG Export Plug-In . SVG Version: 6.00 Build 0)  -->
<!DOCTYPE svg PUBLIC "-//W3C//DTD SVG 1.1//EN" "http://www.w3.org/Graphics/SVG/1.1/DTD/svg11.dtd">
<svg version="1.1" id="Layer_1" xmlns="http://www.w3.org/2000/svg" xmlns:xlink="http://www.w3.org/1999/xlink" x="0px" y="0px"
	 width="80px" height="80px" viewBox="0 0 80 80" style="enable-background:new 0 0 80 80;" xml:space="preserve">
<path style="fill:#FFFFFF;" d="M58.604,13.135h0.05c-0.651-1.161-11.254-4.859-11.254-4.859l-13.94-0.653
	c0,0-11.371,4.874-11.857,5.34l0.085,0c-2.119,2.177-11.204,10.554-11.204,10.554l2.867,16.318l8.682-7.992
	c4.6,27.7-0.318,38.251-0.318,38.251s2.891,5.126,18.873,5.126c15.983,0,18.312-5.126,18.312-5.126
	c0-5.623-6.65-14.656-1.939-37.534c5.283,4.286,8.702,6.561,8.702,6.383l3.909-15.66C66.163,20.082,60.254,14.649,58.604,13.135z
	 M21.751,12.963v0.208l-0.009-0.208H21.751z"/>
<path style="fill:none;stroke:#000000;stroke-width:0.7873;stroke-miterlimit:10;" d="M29.887,23.655
	c0.087-1.726-0.27-6.408-0.864-7.853"/>
<path style="fill:none;stroke:#000000;stroke-width:0.7873;stroke-miterlimit:10;" d="M50.799,24.186
	c-0.086-1.725,0.271-6.408,0.865-7.852"/>
<line style="fill:#D1D3D4;" x1="23.84" y1="38.624" x2="23.205" y2="35.186"/>
<path style="opacity:0.35;" d="M25.801,72.405l-0.931,1.073c0,0,2.89,5.126,18.873,5.126c15.982,0,18.805-7.013,18.805-7.013
	s-2.912-7.435-4.764-19.396c-0.836-5.403-1.432-14.776-1.526-15.85c-1.353,9.119-1.325,18.102-1.152,16.415
	c-0.62-1.161,3.436,16.678,3.436,16.678s-1.637,4.782-13.698,5.164c-12.062,0.384-16.887-0.955-16.887-0.955"/>
<path style="fill:#FFFFFF;stroke:#000000;stroke-width:0.7873;stroke-miterlimit:10;" d="M58.825,40.953"/>
<path style="fill:#FFFFFF;stroke:#000000;stroke-width:0.7873;stroke-miterlimit:10;" d="M58.653,13.016
	c-0.651-1.161-11.254-4.859-11.254-4.859l-13.94-0.653c0,0-11.371,4.874-11.857,5.34"/>
<path style="fill:none;stroke:#000000;stroke-width:0.7873;stroke-miterlimit:10;" d="M22.009,31.587
	c4.64,27.804-0.296,38.389-0.296,38.389s2.891,5.125,18.873,5.125c15.983,0,18.312-5.125,18.312-5.125
	c0-5.655-6.733-14.755-1.862-37.925"/>
<path style="fill:#FFFFFF;stroke:#000000;stroke-width:0.7873;stroke-miterlimit:10;" d="M30.964,8.817l1.275-4.421
	c1.957-1.953,8.146-1.562,8.869-1.562s5.804,0.094,6.318,1.533c0.529,1.487,0.903,2.864,1.375,4.51
	C43.386,7.524,36.38,7.583,30.964,8.817z"/>
<path style="fill:none;stroke:#000000;stroke-width:0.7873;stroke-miterlimit:10;" d="M57.5,17.686
	c-12.062-4.403-25.516-4.403-34.795-0.232"/>
<path style="fill:none;stroke:#000000;stroke-width:0.7873;stroke-miterlimit:10;" d="M10.483,23.399c0,0,9.24-8.52,11.258-10.611
	c0,0,2.357,13.039,0.713,18.547l-9.104,8.382"/>
<path style="fill:none;stroke:#000000;stroke-width:0.7873;stroke-miterlimit:10;" d="M69.569,23.165
	C65.582,19.418,58.162,12.61,58.162,12.61s-2.062,10.372-1.249,19.795c5.31,4.31,8.747,6.599,8.747,6.42"/>
<rect style="fill:none;" width="80" height="80"/>
<g>
</g>
<g>
</g>
<g>
</g>
<g>
</g>
<g>
</g>
<g>
</g>
<g>
</g>
<g>
</g>
<g>
</g>
<g>
</g>
<g>
</g>
<g>
</g>
<g>
</g>
<g>
</g>
<g>
</g>
</svg>
