<?xml version="1.0" encoding="iso-8859-1"?>
<!-- Generator: Adobe Illustrator 16.0.4, SVG Export Plug-In . SVG Version: 6.00 Build 0)  -->
<!DOCTYPE svg PUBLIC "-//W3C//DTD SVG 1.1//EN" "http://www.w3.org/Graphics/SVG/1.1/DTD/svg11.dtd">
<svg version="1.1" id="Layer_1" xmlns="http://www.w3.org/2000/svg" xmlns:xlink="http://www.w3.org/1999/xlink" x="0px" y="0px"
	 width="80.164px" height="80.165px" viewBox="0 0 80.164 80.165" style="enable-background:new 0 0 80.164 80.165;"
	 xml:space="preserve">
<g>
	<path style="opacity:0.35;" d="M66.455,23.038c0,0-0.551-8.149-0.589-10.075c-0.039-1.926-0.316-5.424-0.512-6.249
		c-0.197-0.826-0.343-2.832-0.027-4.88l-54.533-0.08c-0.134,2.865-0.19,5.543,0.027,7.194c0.34,2.573-0.364,11.312-0.606,12.695
		c-0.244,1.384-0.972,5.291-3.155,11.555c-0.216,0.617-1.36,5.486-1.652,7.549c-0.29,2.064-1.479,5.171-1.796,6.796
		c-0.315,1.627-1.723,7.938-1.942,9.127c-0.218,1.189-0.945,4.346-0.557,4.807c0.101,0.119,1.392,0.633,3.558,1.324
		c0.183,0.057-0.282,1.215-0.089,1.275c6.372,1.984,19.854,4.102,32.586,4.102c12.488,0,26.135-1.16,32.703-2.469
		c0.176-0.035-0.227-1.043-0.059-1.078c2.453-0.498,3.612-0.807,3.691-0.873c0.289-0.244,0.367-0.367,0.263-0.84
		c-0.104-0.471-0.079-1.414-0.079-2.934s-0.523-5.162-0.863-6.656c-0.341-1.492-1.861-9.17-1.861-9.17S66.848,23.012,66.455,23.038z
		"/>
	<path style="fill:#FFFFFF;" d="M69.108,20.917c0,0-0.551-8.151-0.59-10.077c-0.038-1.926-0.314-5.424-0.511-6.249
		s-0.343-1.709-0.067-2.889l-54.533-0.08c-0.095,1.997-0.151,3.552,0.067,5.204c0.341,2.573-0.364,11.312-0.606,12.695
		c-0.243,1.384-0.972,5.292-3.155,11.554c-0.216,0.617-1.359,5.486-1.652,7.551c-0.291,2.062-1.48,5.169-1.796,6.796
		c-0.315,1.625-1.724,7.936-1.941,9.127c-0.22,1.189-0.946,4.344-0.559,4.805c0.102,0.121,1.392,0.633,3.56,1.324
		c0.182,0.059-0.283,1.217-0.089,1.277c6.372,1.984,19.852,4.102,32.585,4.102c12.487,0,26.135-1.16,32.702-2.471
		c0.178-0.035-0.225-1.043-0.058-1.076c2.453-0.5,3.612-0.807,3.692-0.875c0.288-0.244,0.367-0.367,0.262-0.838
		s-0.079-1.416-0.079-2.936s-0.524-5.162-0.864-6.654c-0.34-1.494-1.86-9.172-1.86-9.172S69.501,20.89,69.108,20.917z"/>
	<rect style="fill:none;" width="80.164" height="80.165"/>
	<path style="fill:none;stroke:#000000;stroke-width:0.624;stroke-miterlimit:10;" d="M13.407,1.623
		c-0.095,1.997-0.151,3.552,0.067,5.204c0.341,2.573-0.364,11.312-0.606,12.695c-0.243,1.384-0.972,5.292-3.155,11.554
		c-0.216,0.617-1.359,5.486-1.652,7.551c-0.291,2.062-1.48,5.169-1.796,6.796c-0.315,1.625-1.724,7.936-1.941,9.127
		c-0.22,1.189-0.946,4.344-0.559,4.805c0.102,0.121,1.392,0.633,3.56,1.324c0.182,0.059-0.283,1.217-0.089,1.277
		c6.372,1.984,19.852,4.102,32.585,4.102c12.487,0,26.135-1.16,32.702-2.471c0.178-0.035-0.225-1.043-0.058-1.076
		c2.453-0.5,3.612-0.807,3.692-0.875c0.288-0.244,0.367-0.367,0.262-0.838s-0.079-1.416-0.079-2.936s-0.524-5.162-0.864-6.654
		c-0.34-1.494-1.86-9.172-1.86-9.172l-4.507-21.119c0,0-0.551-8.151-0.59-10.077c-0.038-1.926-0.314-5.424-0.511-6.249
		s-0.343-1.709-0.067-2.889"/>
	<polygon style="fill:#808080;" points="72.215,62.26 68.462,33.25 73.753,61.905 	"/>
	
		<line style="fill:none;stroke:#000000;stroke-width:0.624;stroke-miterlimit:10;" x1="68.617" y1="33.405" x2="72.404" y2="62.522"/>
	<polygon style="fill:#808080;" points="7.347,60.358 12.168,31.671 5.808,60.004 	"/>
	
		<line style="fill:none;stroke:#000000;stroke-width:0.624;stroke-miterlimit:10;" x1="12.252" y1="31.504" x2="7.324" y2="60.622"/>
</g>
<g>
</g>
<g>
</g>
<g>
</g>
<g>
</g>
<g>
</g>
<g>
</g>
<g>
</g>
<g>
</g>
<g>
</g>
<g>
</g>
<g>
</g>
<g>
</g>
<g>
</g>
<g>
</g>
<g>
</g>
</svg>
