<?xml version="1.0" encoding="iso-8859-1"?>
<!-- Generator: Adobe Illustrator 16.0.4, SVG Export Plug-In . SVG Version: 6.00 Build 0)  -->
<!DOCTYPE svg PUBLIC "-//W3C//DTD SVG 1.1//EN" "http://www.w3.org/Graphics/SVG/1.1/DTD/svg11.dtd">
<svg version="1.1" id="Layer_1" xmlns="http://www.w3.org/2000/svg" xmlns:xlink="http://www.w3.org/1999/xlink" x="0px" y="0px"
	 width="80.165px" height="80.164px" viewBox="0 0 80.165 80.164" style="enable-background:new 0 0 80.165 80.164;"
	 xml:space="preserve">
<g>
	<path style="opacity:0.35;" d="M66.476,21.672c0,0-0.55-8.148-0.589-10.075s-0.315-5.424-0.512-6.249
		c-0.139-0.584-0.237-2.039-0.176-3.645H10.73c-0.063,2.44-0.062,4.568,0.111,5.879c0.34,2.572-0.364,11.312-0.607,12.695
		c-0.242,1.384-0.97,5.291-3.154,11.555c-0.216,0.617-1.36,5.485-1.65,7.549c-0.293,2.063-1.481,5.171-1.797,6.797
		c-0.316,1.626-1.724,7.938-1.941,9.127c-0.22,1.189-0.947,4.345-0.559,4.806c0.387,0.462,16.85,6.702,36.055,6.702l0.053-1.469
		c19.521,0,35.995-2.707,36.284-2.951c0.288-0.246,0.367-0.367,0.262-0.839c-0.104-0.472-0.079-1.416-0.079-2.937
		c0-1.519-0.522-5.161-0.864-6.654c-0.34-1.493-1.859-9.171-1.859-9.171s0.759-0.079,1.073-0.21s0.289,0.367,0.289,0.367
		s0,0,0.052,0.262c0.053,0.263,0.419-0.314,0.419-0.314s0,0,0.289-0.314C73.393,42.268,66.843,21.647,66.476,21.672z"/>
	<path style="fill:#FFFFFF;" d="M69.129,19.551c0,0-0.55-8.15-0.589-10.076s-0.315-5.424-0.511-6.25
		c-0.141-0.583-0.238-0.916-0.176-1.74H13.383C13.32,3.144,13.322,4.15,13.495,5.46c0.341,2.572-0.364,11.312-0.606,12.694
		c-0.243,1.385-0.971,5.292-3.156,11.555c-0.215,0.617-1.359,5.486-1.65,7.55s-1.48,5.171-1.797,6.797
		c-0.315,1.626-1.723,7.938-1.941,9.126c-0.219,1.19-0.947,4.346-0.558,4.807c0.388,0.461,16.85,6.701,36.055,6.701l0.052-1.468
		c19.522,0,35.997-2.707,36.285-2.952c0.289-0.245,0.367-0.366,0.262-0.838c-0.104-0.473-0.078-1.416-0.078-2.936
		s-0.523-5.162-0.864-6.656c-0.341-1.492-1.86-9.171-1.86-9.171S69.496,19.525,69.129,19.551z"/>
	<path style="fill:none;stroke:#000000;stroke-width:0.624;stroke-miterlimit:10;" d="M13.383,1.484
		C13.32,3.144,13.322,4.15,13.495,5.46c0.341,2.572-0.364,11.312-0.606,12.694c-0.243,1.385-0.971,5.292-3.156,11.555
		c-0.215,0.617-1.359,5.486-1.65,7.55s-1.48,5.171-1.797,6.797c-0.315,1.626-1.723,7.938-1.941,9.126
		c-0.219,1.19-0.947,4.346-0.558,4.807c0.388,0.461,16.85,6.701,36.055,6.701l0.052-1.468c19.522,0,35.997-2.707,36.285-2.952
		c0.289-0.245,0.367-0.366,0.262-0.838c-0.104-0.473-0.078-1.416-0.078-2.936s-0.523-5.162-0.864-6.656
		c-0.341-1.492-1.727-7.695-1.727-7.695l-4.642-22.594c0,0-0.55-8.15-0.589-10.076s-0.315-5.424-0.511-6.25
		c-0.141-0.583-0.238-0.916-0.176-1.74"/>
	<rect style="fill:none;" width="80.165" height="80.164"/>
	<polygon style="fill:#808080;" points="39.893,63.222 40.09,34.194 42.311,63.208 	"/>
	
		<line style="fill:none;stroke:#000000;stroke-width:0.624;stroke-miterlimit:10;" x1="40.09" y1="34.194" x2="39.893" y2="63.222"/>
</g>
<g>
</g>
<g>
</g>
<g>
</g>
<g>
</g>
<g>
</g>
<g>
</g>
<g>
</g>
<g>
</g>
<g>
</g>
<g>
</g>
<g>
</g>
<g>
</g>
<g>
</g>
<g>
</g>
<g>
</g>
</svg>
