<svg id="Layer_1" data-name="Layer 1" xmlns="http://www.w3.org/2000/svg" viewBox="0 0 350 350"><defs><style>.cls-1,.cls-6{fill:#fff;}.cls-1,.cls-2,.cls-3,.cls-4,.cls-5{stroke:#000;stroke-miterlimit:10;}.cls-1,.cls-2,.cls-3,.cls-4{stroke-width:0.5px;}.cls-3,.cls-4,.cls-5{fill:none;stroke-linecap:round;}.cls-3{stroke-dasharray:7;}.cls-4,.cls-5{stroke-dasharray:8;}</style></defs><path class="cls-1" d="M189.62,63.48c-6.29-6.29-16.18-6.29-18.87-6.29s-12.58,0-18.88,6.29-5.39,9-5.39,9l2.7,1.79a15.29,15.29,0,0,1,6.29-3.59,65.76,65.76,0,0,1,30.56,0,15.38,15.38,0,0,1,6.29,3.59L195,72.47S195.91,69.77,189.62,63.48Z"/><path class="cls-2" d="M192.32,74.68a.42.42,0,0,1-.3-.12,15,15,0,0,0-6.09-3.48,65.26,65.26,0,0,0-30.36,0,15.21,15.21,0,0,0-6.1,3.48.41.41,0,0,1-.52,0l-2.7-1.79a.38.38,0,0,1-.16-.22c-.1-.3-.8-3.12,5.49-9.42,4.25-4.25,10.7-6.41,19.17-6.41s14.91,2.16,19.17,6.41c6.29,6.3,5.59,9.12,5.49,9.42a.5.5,0,0,1-.16.22l-2.7,1.79A.39.39,0,0,1,192.32,74.68Zm-21.57-6.23a71.6,71.6,0,0,1,15.38,1.81,15.54,15.54,0,0,1,6.23,3.47l2.27-1.51c.05-.57-.08-3.22-5.3-8.44-4.1-4.1-10.35-6.17-18.58-6.17s-14.49,2.07-18.58,6.17c-5.21,5.21-5.35,7.85-5.3,8.44l2.26,1.51a15.68,15.68,0,0,1,6.24-3.47A71.44,71.44,0,0,1,170.75,68.45Zm24.26,4h0Z"/><path class="cls-2" d="M100.6,281.39a21.92,21.92,0,0,1-9.17-1.84.44.44,0,0,1-.23-.29c-2.64-14.08-.07-98.52,1.79-128.63s9.82-64.44,9.9-64.78a.45.45,0,0,1,.2-.27.44.44,0,0,1,.34,0l.18,0c1,.17,2.47.42,9,11.83,4.11,6.78,6.58,18.57,7.34,35,.56,12.24-.09,22.62-.1,22.73L112.7,277.41a.39.39,0,0,1-.21.34C112.23,277.89,106,281.39,100.6,281.39ZM92,278.89a22.17,22.17,0,0,0,8.61,1.67c4.69,0,10.18-2.84,11.28-3.43l7.18-122c0-.42,2.52-41.37-7.13-57.28-6-10.35-7.58-11.24-8.32-11.41-.89,3.92-8,35.84-9.78,64.24C92,180.61,89.42,264.25,92,278.89Z"/><path class="cls-1" d="M119.72,166.09l-.33-10.87S122,113.91,112.2,97.7c-7.15-12.43-8.18-11.42-9-11.68L151,69.22c-6.08,4.21,24.16,116.62,24.16,120.15v42.24c0,16.18-3.76,65.16-29.82,64.26s-36.74-22.66-36.74-22.66,4.85-30,12-75.22C122.05,188.84,120.56,175.94,119.72,166.09Z"/><path class="cls-2" d="M146,296.3h-.71c-26-.9-37-22.67-37.1-22.89a.43.43,0,0,1,0-.25c0-.3,4.93-30.5,12-75.22,1.26-8,.3-18.63-.55-28-.11-1.3-.23-2.57-.33-3.79v0L119,155.23c0-.45,2.53-41.4-7.13-57.31-6.37-11.08-7.78-11.32-8.45-11.44l-.31-.07a.4.4,0,0,1-.28-.39.41.41,0,0,1,.28-.4l47.73-16.79a.42.42,0,0,1,.51.2.42.42,0,0,1-.14.54c-1,.69-1.7,6.53,5,37.75,4.33,20.21,10.16,43.81,14.42,61.05,3.25,13.16,4.94,20.08,4.94,21v42.24c0,4.46-.45,44-16,59A19,19,0,0,1,146,296.3Zm-37-23.15c.89,1.7,11.79,21.46,36.31,22.3a18.16,18.16,0,0,0,13.61-5.4c5.83-5.64,10.19-15.5,12.93-29.32a159.24,159.24,0,0,0,2.86-29.12V189.37c0-.86-2.18-9.66-4.93-20.8-4.25-17.24-10.09-40.85-14.42-61.08C149.66,81,149.25,72.66,150,70L104.49,86c1.16.72,3.24,3.07,8.08,11.48,9.78,16.13,7.35,56.06,7.24,57.76l.32,10.81c.11,1.22.22,2.48.34,3.77.85,9.45,1.82,20.16.53,28.23C114.14,241.24,109.35,270.89,109,273.15Z"/><path class="cls-1" d="M135.65,85.05l4.76,5.59L152,85.38c-1.44-10.1-1.26-19.65,3.12-24.36C155.19,59.79,140.9,73.19,135.65,85.05Z"/><path class="cls-2" d="M140.41,91.06a.42.42,0,0,1-.32-.15l-4.76-5.59a.41.41,0,0,1-.06-.44c4.94-11.17,18.49-24.7,19.88-24.34a.47.47,0,0,1,.35.51.38.38,0,0,1-.11.25c-3.7,4-4.71,12.07-3,24a.42.42,0,0,1-.24.44L140.59,91A.39.39,0,0,1,140.41,91.06ZM136.14,85l4.39,5.15,11-5c-1.44-10.32-.84-17.82,1.79-22.36C149.37,66.3,140.23,75.93,136.14,85Z"/><path class="cls-1" d="M175.2,194.36C173.69,186,148.63,130.64,133,94l8.58-3.92L152,85.38c4.35,25.42,13.36,63.49,23.23,103.92Z"/><path class="cls-2" d="M175.2,194.78a.44.44,0,0,1-.42-.35c-1.06-5.93-14.39-36.39-27.27-65.86-5.15-11.76-10.47-23.93-14.94-34.37a.42.42,0,0,1,.21-.54l19-8.67a.44.44,0,0,1,.37,0,.41.41,0,0,1,.21.3c4.43,25.83,13.78,65.2,23.22,103.9a.29.29,0,0,1,0,.09v5.06a.42.42,0,0,1-.39.42ZM133.5,94.25c4.44,10.35,9.69,22.36,14.77,34,11.94,27.29,23.29,53.24,26.51,63.06v-1.93C165.4,150.93,156.11,111.83,151.65,86Z"/><path class="cls-2" d="M240.85,281.39c-5.44,0-11.63-3.5-11.89-3.64l-.2-.12v-.22l-7.19-122.23c-.11-1.69-2.54-41.63,7.25-57.77,6.56-11.4,8.05-11.65,9-11.82l.18,0,.44-.14.1.44c.08.34,8,34.55,9.9,64.78s4.43,114.55,1.79,128.63l0,.2-.18.09A22.05,22.05,0,0,1,240.85,281.39Zm-11.28-4.26c1.1.59,6.59,3.43,11.28,3.43a22.17,22.17,0,0,0,8.61-1.67c2.57-14.64,0-98.28-1.84-128.21-1.76-28.4-8.89-60.32-9.78-64.24-.74.17-2.36,1.06-8.31,11.4-9.66,15.92-7.16,56.87-7.13,57.28Z"/><path class="cls-1" d="M221.65,166.09l.33-10.87s-2.65-41.31,7.19-57.52c7.15-12.43,8.18-11.42,9-11.68l-47.73-16.8c6.08,4.21-24.17,116.62-24.17,120.15v42.24c0,16.18,3.77,65.16,29.83,64.26s36.74-22.66,36.74-22.66-4.85-30-12-75.22C219.32,188.84,220.81,175.94,221.65,166.09Z"/><path class="cls-2" d="M195.38,296.3a19,19,0,0,1-13.5-5.65c-15.59-15.07-16-54.58-16-59V189.37c0-.92,1.69-7.84,4.94-21,4.26-17.24,10.09-40.84,14.42-61.05,6.69-31.22,6-37.06,5-37.75a.42.42,0,0,1-.14-.54.41.41,0,0,1,.51-.2l47.73,16.79a.41.41,0,0,1,.28.4.4.4,0,0,1-.29.39l-.3.07c-.67.12-2.08.36-8.45,11.43-9.66,15.92-7.16,56.87-7.13,57.28l-.33,10.91v0c-.1,1.22-.22,2.49-.33,3.79-.85,9.39-1.81,20.05-.55,28,7.11,44.72,12,74.92,12,75.22a.44.44,0,0,1,0,.25c-.1.22-11.08,22-37.09,22.89ZM191.29,70c2.27,8.13-8.89,54.85-19.69,98.6-2.75,11.14-4.93,19.94-4.93,20.8v42.24a159.85,159.85,0,0,0,2.85,29.12c2.75,13.82,7.11,23.68,12.94,29.32a18.13,18.13,0,0,0,13.61,5.4c24.52-.84,35.42-20.6,36.31-22.3-.36-2.26-5.15-31.91-12-75.09-1.29-8.07-.32-18.78.53-28.23.12-1.29.23-2.55.34-3.77l.32-10.85c-.11-1.66-2.54-41.59,7.25-57.73,4.83-8.4,6.91-10.75,8.06-11.47Zm30.36,96.12h0Z"/><path class="cls-1" d="M205.8,85.05,201,90.64l-11.56-5.26c1.45-10.1,1.27-19.65-3.11-24.36C186.26,59.79,200.55,73.19,205.8,85.05Z"/><path class="cls-2" d="M201,91.06a.33.33,0,0,1-.17,0l-11.56-5.26a.42.42,0,0,1-.24-.44c1.71-11.95.7-20-3-24a.44.44,0,0,1-.11-.25.47.47,0,0,1,.35-.51c1.37-.37,14.94,13.17,19.88,24.34a.41.41,0,0,1-.06.44l-4.76,5.59A.41.41,0,0,1,201,91.06Zm-11.1-5.94,11,5L205.31,85c-4.09-9-13.23-18.68-17.15-22.22C190.78,67.3,191.38,74.8,189.94,85.12Z"/><path class="cls-2" d="M177.19,194.87H172.9a1.06,1.06,0,0,0-1-.74,1.08,1.08,0,1,0,0,2.15,1.06,1.06,0,0,0,1-.74h4.29a.34.34,0,1,0,0-.67Z"/><path class="cls-2" d="M171.89,196.57a1.37,1.37,0,1,1,0-2.74,1.35,1.35,0,0,1,1.2.74h4.1a.63.63,0,1,1,0,1.26h-4.1A1.35,1.35,0,0,1,171.89,196.57Zm0-2.15a.78.78,0,0,0-.78.78.79.79,0,0,0,.78.79.78.78,0,0,0,.73-.54.29.29,0,0,1,.28-.2h4.29v-.09H172.9a.29.29,0,0,1-.28-.2A.78.78,0,0,0,171.89,194.42Z"/><path class="cls-2" d="M177.19,221.47H172.9a1.06,1.06,0,0,0-1-.74,1.08,1.08,0,0,0,0,2.16,1.07,1.07,0,0,0,1-.74h4.29a.35.35,0,0,0,.34-.34A.34.34,0,0,0,177.19,221.47Z"/><path class="cls-2" d="M171.89,223.18a1.37,1.37,0,1,1,0-2.74,1.35,1.35,0,0,1,1.2.74h4.1a.63.63,0,0,1,0,1.26h-4.1A1.35,1.35,0,0,1,171.89,223.18Zm0-2.15a.78.78,0,0,0,0,1.56.77.77,0,0,0,.73-.54.29.29,0,0,1,.28-.2h4.29v-.09H172.9a.3.3,0,0,1-.28-.19A.77.77,0,0,0,171.89,221Z"/><circle class="cls-2" cx="171.89" cy="195.2" r="2.79"/><path class="cls-2" d="M171.89,198.41a3.21,3.21,0,1,1,3.21-3.21A3.21,3.21,0,0,1,171.89,198.41Zm0-5.58a2.37,2.37,0,1,0,2.37,2.37A2.37,2.37,0,0,0,171.89,192.83Z"/><path class="cls-1" d="M166.25,194.36C167.76,186,192.83,130.64,208.5,94l-8.59-3.92-10.43-4.74c-4.35,25.42-13.36,63.49-23.23,103.92Z"/><path class="cls-2" d="M166.25,194.78h0a.42.42,0,0,1-.38-.42V189.3a.28.28,0,0,1,0-.09c9.44-38.7,18.79-78.06,23.22-103.9a.4.4,0,0,1,.22-.3.44.44,0,0,1,.37,0l19,8.67a.41.41,0,0,1,.21.54c-4.47,10.45-9.79,22.61-14.94,34.38-12.88,29.46-26.21,59.92-27.27,65.85A.43.43,0,0,1,166.25,194.78Zm.42-5.42v1.93c3.22-9.82,14.57-35.76,26.5-63,5.09-11.62,10.34-23.64,14.78-34L189.8,86C185.34,111.84,176.05,150.93,166.67,189.36Z"/><line class="cls-3" x1="113.06" y1="257.08" x2="165.98" y2="257.08"/><line class="cls-4" x1="171.11" y1="257.08" x2="228.39" y2="257.08"/><line class="cls-5" x1="121.94" y1="200.93" x2="165.98" y2="200.93"/><line class="cls-3" x1="170.81" y1="200.93" x2="219.48" y2="200.93"/><line class="cls-5" x1="120.83" y1="159.65" x2="158.49" y2="159.65"/><line class="cls-5" x1="182.27" y1="159.65" x2="219.81" y2="159.65"/><line class="cls-5" x1="104.49" y1="91.06" x2="100.09" y2="278.98"/><polygon class="cls-1" points="309.4 39.11 31.95 316.57 309.4 318.12 309.4 39.11"/><path class="cls-2" d="M309.81,317H30.94L309.81,38.11ZM33,316.15H309v-276Z"/><path class="cls-2" d="M240.06,235.32a37.9,37.9,0,0,1-9.27-1.14.41.41,0,0,1-.31-.5.42.42,0,0,1,.51-.31,37.28,37.28,0,1,0-7.42-2.72.42.42,0,0,1-.37.75,38.15,38.15,0,1,1,16.86,3.92Z"/><path class="cls-2" d="M213.46,245.78a.43.43,0,0,1-.36-.2.42.42,0,0,1,.08-.53,35.44,35.44,0,0,0,7.57-9.33,34.36,34.36,0,0,0,2.24-4.85.42.42,0,0,1,.54-.24.41.41,0,0,1,.24.53,34.91,34.91,0,0,1-2.29,5,36.06,36.06,0,0,1-6.07,8,46.9,46.9,0,0,0,15.17-10.62.42.42,0,0,1,.59,0,.41.41,0,0,1,0,.59,47.34,47.34,0,0,1-5.2,4.71,48.19,48.19,0,0,1-12.38,7A.4.4,0,0,1,213.46,245.78Z"/><path class="cls-2" d="M171.27,279.53a26.61,26.61,0,1,1,22.41-12.26.41.41,0,0,1-.57.12.42.42,0,0,1-.13-.57,25.81,25.81,0,1,0-3.69,4.53.42.42,0,0,1,.58.6A26.46,26.46,0,0,1,171.27,279.53Z"/><path class="cls-2" d="M198.94,273.4a35.34,35.34,0,0,1-4.24-.25,36.33,36.33,0,0,1-5.15-1,.42.42,0,0,1,.22-.81,34.49,34.49,0,0,0,13.2,1,26.67,26.67,0,0,1-6.44-2.63,25.93,25.93,0,0,1-3.4-2.29.42.42,0,0,1,.52-.66,25,25,0,0,0,3.29,2.23,26.49,26.49,0,0,0,8.4,3,.42.42,0,0,1,.35.41.43.43,0,0,1-.35.41A36.26,36.26,0,0,1,198.94,273.4Z"/><rect class="cls-2" x="239.65" y="189.02" width="0.83" height="15.33"/><rect class="cls-2" x="232.2" y="196.27" width="15.33" height="0.83"/><rect class="cls-2" x="163.19" y="252.87" width="15.33" height="0.83"/><line class="cls-1" x1="31.94" y1="316.57" x2="308.98" y2="40.12"/><rect class="cls-6" x="173.61" y="166.43" width="24.68" height="321.49" transform="translate(513.13 141.23) rotate(90)"/><rect class="cls-6" x="303.86" y="32" width="45.99" height="287.33"/></svg>