<svg id="Layer_1" data-name="Layer 1" xmlns="http://www.w3.org/2000/svg" viewBox="0 0 350 350"><defs><style>.cls-1{fill:#3c5663;}.cls-1,.cls-2,.cls-3{stroke:#000;stroke-miterlimit:10;stroke-width:0.5px;}.cls-3{fill:#fff;}</style></defs><path class="cls-1" d="M237.34,264.23H234.8a.62.62,0,0,0-.6-.44.64.64,0,0,0,0,1.27.62.62,0,0,0,.6-.44h2.54a.19.19,0,0,0,.2-.19A.2.2,0,0,0,237.34,264.23Z"/><path class="cls-2" d="M234.2,265.21a.79.79,0,1,1,.7-1.13h2.44a.35.35,0,0,1,.34.35.34.34,0,0,1-.34.34H234.9A.77.77,0,0,1,234.2,265.21Zm0-1.27a.49.49,0,0,0,0,1,.49.49,0,0,0,.46-.34.15.15,0,0,1,.14-.1h2.54a.05.05,0,0,0,0-.05.06.06,0,0,0,0-.06H234.8a.15.15,0,0,1-.14-.1A.48.48,0,0,0,234.2,263.94Z"/><circle class="cls-2" cx="234.2" cy="264.43" r="1.65"/><path class="cls-2" d="M234.21,266.18a1.76,1.76,0,1,1,1.75-1.75A1.76,1.76,0,0,1,234.21,266.18Zm0-3.3a1.55,1.55,0,1,0,1.54,1.55A1.54,1.54,0,0,0,234.21,262.88Z"/><path class="cls-1" d="M237.34,268.94H234.8a.62.62,0,0,0-.6-.43.63.63,0,0,0-.63.63.64.64,0,0,0,.63.64.63.63,0,0,0,.6-.44h2.54a.2.2,0,0,0,0-.4Z"/><path class="cls-2" d="M234.2,269.92a.78.78,0,1,1,.7-1.12h2.44a.34.34,0,0,1,.34.34.35.35,0,0,1-.34.35H234.9A.78.78,0,0,1,234.2,269.92Zm0-1.27a.49.49,0,1,0,.46.64.15.15,0,0,1,.14-.1h2.54a.05.05,0,0,0,0-.1H234.8a.15.15,0,0,1-.14-.1A.48.48,0,0,0,234.2,268.65Z"/><circle class="cls-2" cx="234.2" cy="269.14" r="1.65"/><path class="cls-2" d="M234.21,270.89a1.75,1.75,0,1,1,1.75-1.75A1.75,1.75,0,0,1,234.21,270.89Zm0-3.29a1.55,1.55,0,1,0,1.54,1.54A1.54,1.54,0,0,0,234.21,267.6Z"/><path class="cls-1" d="M237.34,273.66H234.8a.63.63,0,0,0-.6-.44.64.64,0,0,0-.63.64.63.63,0,0,0,.63.63.62.62,0,0,0,.6-.43h2.54a.2.2,0,0,0,0-.4Z"/><path class="cls-2" d="M234.2,274.64a.78.78,0,0,1-.78-.78.78.78,0,0,1,1.48-.35h2.44a.35.35,0,0,1,.34.35.34.34,0,0,1-.34.34H234.9A.77.77,0,0,1,234.2,274.64Zm0-1.27a.49.49,0,0,0,0,1,.49.49,0,0,0,.46-.34.15.15,0,0,1,.14-.1h2.54a0,0,0,0,0,0-.05.06.06,0,0,0,0-.06H234.8a.15.15,0,0,1-.14-.1A.48.48,0,0,0,234.2,273.37Z"/><circle class="cls-2" cx="234.2" cy="273.86" r="1.65"/><path class="cls-2" d="M234.21,275.61a1.76,1.76,0,1,1,1.75-1.75A1.76,1.76,0,0,1,234.21,275.61Zm0-3.3a1.55,1.55,0,1,0,1.54,1.55A1.55,1.55,0,0,0,234.21,272.31Z"/><path class="cls-1" d="M237.34,278.37H234.8a.62.62,0,0,0-.6-.43.63.63,0,0,0-.63.63.64.64,0,0,0,.63.64.63.63,0,0,0,.6-.44h2.54a.2.2,0,1,0,0-.4Z"/><path class="cls-2" d="M234.2,279.36a.79.79,0,0,1-.78-.79.78.78,0,0,1,1.48-.34h2.44a.34.34,0,0,1,.34.34.35.35,0,0,1-.34.35H234.9A.79.79,0,0,1,234.2,279.36Zm0-1.28a.49.49,0,1,0,.46.65.15.15,0,0,1,.14-.1h2.54a.06.06,0,0,0,0-.06,0,0,0,0,0,0-.05H234.8a.15.15,0,0,1-.14-.1A.49.49,0,0,0,234.2,278.08Z"/><circle class="cls-2" cx="234.2" cy="278.57" r="1.65"/><path class="cls-2" d="M234.21,280.33a1.76,1.76,0,1,1,1.75-1.76A1.76,1.76,0,0,1,234.21,280.33Zm0-3.3a1.55,1.55,0,1,0,1.54,1.54A1.54,1.54,0,0,0,234.21,277Z"/><path class="cls-1" d="M82.74,264.23h2.54a.61.61,0,0,1,.59-.44.64.64,0,1,1,0,1.27.61.61,0,0,1-.59-.44H82.74a.19.19,0,0,1-.2-.19A.2.2,0,0,1,82.74,264.23Z"/><path class="cls-2" d="M85.87,265.21a.77.77,0,0,1-.69-.44H82.74a.34.34,0,0,1-.34-.34.35.35,0,0,1,.34-.35h2.44a.77.77,0,0,1,.69-.44.79.79,0,1,1,0,1.57Zm-3.13-.84a.06.06,0,0,0,0,.06.05.05,0,0,0,0,.05h2.54a.15.15,0,0,1,.14.1.48.48,0,0,0,.45.34.49.49,0,1,0,0-1,.47.47,0,0,0-.45.33.15.15,0,0,1-.14.1Z"/><circle class="cls-2" cx="85.87" cy="264.43" r="1.65"/><path class="cls-2" d="M85.87,266.18a1.76,1.76,0,1,1,1.76-1.75A1.76,1.76,0,0,1,85.87,266.18Zm0-3.3a1.55,1.55,0,1,0,1.55,1.55A1.54,1.54,0,0,0,85.87,262.88Z"/><path class="cls-1" d="M82.74,268.94h2.54a.62.62,0,0,1,.59-.43.63.63,0,0,1,.64.63.64.64,0,0,1-.64.64.62.62,0,0,1-.59-.44H82.74a.2.2,0,0,1,0-.4Z"/><path class="cls-2" d="M85.87,269.92a.78.78,0,0,1-.69-.43H82.74a.35.35,0,0,1-.34-.35.34.34,0,0,1,.34-.34h2.44a.77.77,0,0,1,.69-.44.78.78,0,1,1,0,1.56Zm-3.13-.83a.05.05,0,0,0,0,.1h2.54a.15.15,0,0,1,.14.1.47.47,0,0,0,.45.34.49.49,0,1,0,0-1,.48.48,0,0,0-.45.34.15.15,0,0,1-.14.1Z"/><circle class="cls-2" cx="85.87" cy="269.14" r="1.65"/><path class="cls-2" d="M85.87,270.89a1.75,1.75,0,1,1,1.76-1.75A1.75,1.75,0,0,1,85.87,270.89Zm0-3.29a1.55,1.55,0,1,0,1.55,1.54A1.54,1.54,0,0,0,85.87,267.6Z"/><path class="cls-1" d="M82.74,273.66h2.54a.62.62,0,0,1,.59-.44.64.64,0,0,1,.64.64.63.63,0,0,1-.64.63.62.62,0,0,1-.59-.43H82.74a.2.2,0,0,1,0-.4Z"/><path class="cls-2" d="M85.87,274.64a.77.77,0,0,1-.69-.44H82.74a.34.34,0,0,1-.34-.34.35.35,0,0,1,.34-.35h2.44a.78.78,0,1,1,.69,1.13Zm-3.13-.84a.06.06,0,0,0,0,.06,0,0,0,0,0,0,.05h2.54a.15.15,0,0,1,.14.1.48.48,0,0,0,.45.34.49.49,0,1,0,0-1,.47.47,0,0,0-.45.33.15.15,0,0,1-.14.1Z"/><circle class="cls-2" cx="85.87" cy="273.86" r="1.65"/><path class="cls-2" d="M85.87,275.61a1.76,1.76,0,1,1,1.76-1.75A1.76,1.76,0,0,1,85.87,275.61Zm0-3.3a1.55,1.55,0,1,0,1.55,1.55A1.55,1.55,0,0,0,85.87,272.31Z"/><path class="cls-1" d="M82.74,278.37h2.54a.62.62,0,0,1,.59-.43.63.63,0,0,1,.64.63.64.64,0,0,1-.64.64.62.62,0,0,1-.59-.44H82.74a.2.2,0,1,1,0-.4Z"/><path class="cls-2" d="M85.87,279.36a.79.79,0,0,1-.69-.44H82.74a.35.35,0,0,1-.34-.35.34.34,0,0,1,.34-.34h2.44a.77.77,0,0,1,.69-.44.78.78,0,0,1,.79.78A.79.79,0,0,1,85.87,279.36Zm-3.13-.84a0,0,0,0,0,0,.05.06.06,0,0,0,0,.06h2.54a.15.15,0,0,1,.14.1.47.47,0,0,0,.45.33.49.49,0,1,0,0-1,.48.48,0,0,0-.45.34.15.15,0,0,1-.14.1Z"/><circle class="cls-2" cx="85.87" cy="278.57" r="1.65"/><path class="cls-2" d="M85.87,280.33a1.76,1.76,0,1,1,1.76-1.76A1.76,1.76,0,0,1,85.87,280.33Zm0-3.3a1.55,1.55,0,1,0,1.55,1.54A1.54,1.54,0,0,0,85.87,277Z"/><path class="cls-3" d="M178.85,69.92c-6.29-6.29-16.18-6.29-18.88-6.29s-12.58,0-18.87,6.29-5.39,9-5.39,9l2.69,1.8a15.33,15.33,0,0,1,6.3-3.6,65.71,65.71,0,0,1,30.55,0,15.26,15.26,0,0,1,6.29,3.6l2.7-1.8S185.14,76.21,178.85,69.92Z"/><path class="cls-2" d="M181.54,81.12a.42.42,0,0,1-.29-.12,15.13,15.13,0,0,0-6.1-3.48,65.22,65.22,0,0,0-30.35,0A15.13,15.13,0,0,0,138.7,81a.41.41,0,0,1-.53,0l-2.69-1.79a.46.46,0,0,1-.17-.22c-.1-.3-.8-3.12,5.49-9.42,4.26-4.25,10.71-6.41,19.17-6.41s14.92,2.16,19.17,6.41c6.3,6.3,5.6,9.12,5.5,9.42a.46.46,0,0,1-.17.22l-2.69,1.79A.4.4,0,0,1,181.54,81.12ZM160,74.89a71.44,71.44,0,0,1,15.38,1.81,15.53,15.53,0,0,1,6.24,3.47l2.27-1.51c0-.57-.08-3.21-5.31-8.44-4.09-4.1-10.34-6.17-18.58-6.17s-14.48,2.07-18.57,6.17c-5.21,5.21-5.36,7.86-5.31,8.44l2.27,1.51a15.54,15.54,0,0,1,6.23-3.47A71.6,71.6,0,0,1,160,74.89Zm24.27,4h0Z"/><path class="cls-2" d="M89.83,287.84A21.91,21.91,0,0,1,80.65,286a.39.39,0,0,1-.22-.29c-2.64-14.08-.08-98.52,1.79-128.63S92,92.64,92.12,92.29a.41.41,0,0,1,.53-.3l.19,0c1,.17,2.47.42,9,11.83,4.11,6.78,6.58,18.57,7.34,35,.56,12.24-.08,22.63-.09,22.73l-7.19,122.23a.43.43,0,0,1-.21.34C101.46,284.34,95.27,287.84,89.83,287.84Zm-8.62-2.51A22.24,22.24,0,0,0,89.83,287c4.69,0,10.18-2.84,11.28-3.43l7.17-122c0-.42,2.52-41.37-7.13-57.28-6-10.35-7.57-11.24-8.31-11.41-.89,3.92-8,35.84-9.78,64.25C81.2,187.05,78.65,270.7,81.21,285.33Z"/><path class="cls-3" d="M108.94,172.53l-.32-10.87s2.64-41.31-7.19-57.52c-7.15-12.43-8.18-11.42-9-11.68l47.73-16.8c-6.08,4.21,24.17,116.62,24.17,120.15v42.24c0,16.18-3.76,65.16-29.83,64.26s-36.73-22.65-36.73-22.65,4.85-30,12-75.23C111.27,195.28,109.78,182.38,108.94,172.53Z"/><path class="cls-2" d="M135.21,302.74h-.71c-26-.89-37-22.67-37.1-22.89a.44.44,0,0,1,0-.25c0-.3,4.93-30.5,12-75.22,1.27-8,.31-18.62-.54-28-.12-1.3-.23-2.57-.34-3.79v0l-.32-10.87c0-.45,2.52-41.4-7.13-57.31C94.7,93.28,93.29,93,92.61,92.92a1.46,1.46,0,0,1-.3-.07.41.41,0,0,1-.29-.39.42.42,0,0,1,.28-.4L140,75.27a.41.41,0,0,1,.51.2.42.42,0,0,1-.13.54c-1,.7-1.71,6.53,5,37.75,4.34,20.21,10.16,43.81,14.42,61.05,3.25,13.17,4.95,20.08,4.95,21v42.24c0,4.46-.45,44-16,59A18.93,18.93,0,0,1,135.21,302.74Zm-37-23.15c.9,1.7,11.79,21.46,36.32,22.3a18.12,18.12,0,0,0,13.6-5.4c5.84-5.64,10.19-15.5,12.94-29.32a158.91,158.91,0,0,0,2.85-29.12V195.81c0-.86-2.17-9.66-4.92-20.8-4.26-17.24-10.09-40.85-14.42-61.08-5.69-26.54-6.1-34.83-5.32-37.5l-45.54,16c1.16.72,3.24,3.08,8.07,11.48,9.78,16.13,7.35,56.06,7.25,57.76l.32,10.81c.1,1.22.22,2.48.33,3.77.86,9.45,1.82,20.16.54,28.23C103.37,247.68,98.58,277.33,98.21,279.59Z"/><path class="cls-3" d="M124.88,91.49l4.76,5.59,11.56-5.26c-1.45-10.1-1.27-19.65,3.11-24.36C144.42,66.23,130.12,79.63,124.88,91.49Z"/><path class="cls-2" d="M129.64,97.5a.41.41,0,0,1-.32-.15l-4.76-5.59a.41.41,0,0,1-.06-.44C129.44,80.15,143,66.62,144.38,67a.47.47,0,0,1,.35.51.44.44,0,0,1-.11.25c-3.71,4-4.72,12.07-3,24a.42.42,0,0,1-.24.44l-11.56,5.26A.33.33,0,0,1,129.64,97.5Zm-4.27-6.08,4.38,5.15,11-5c-1.45-10.33-.85-17.83,1.78-22.37C138.59,72.74,129.46,82.37,125.37,91.42Z"/><path class="cls-3" d="M164.42,200.8c-1.5-8.37-26.57-63.71-42.24-100.32l8.59-3.91,10.43-4.75c4.35,25.42,13.35,63.49,23.22,103.93Z"/><path class="cls-2" d="M164.42,201.22a.42.42,0,0,1-.41-.34c-1.07-5.94-14.39-36.4-27.28-65.87-5.14-11.76-10.46-23.93-14.93-34.37a.41.41,0,0,1,.21-.54l19-8.66a.42.42,0,0,1,.59.31c4.42,25.83,13.77,65.2,23.22,103.9a.31.31,0,0,1,0,.1v5.05a.42.42,0,0,1-.38.42ZM122.73,100.69c4.43,10.35,9.69,22.36,14.77,34,11.93,27.28,23.28,53.23,26.5,63V195.8c-9.38-38.43-18.66-77.52-23.13-103.38Z"/><path class="cls-2" d="M230.08,287.84c-5.44,0-11.63-3.5-11.9-3.65l-.19-.12,0-.22-7.19-122.23c-.1-1.69-2.53-41.63,7.25-57.76,6.56-11.41,8.05-11.66,9-11.83l.18,0,.43-.14.11.44c.08.35,8,34.55,9.89,64.78s4.43,114.55,1.79,128.63l0,.2-.19.09A21.83,21.83,0,0,1,230.08,287.84Zm-11.28-4.27c1.1.59,6.58,3.43,11.28,3.43a22.22,22.22,0,0,0,8.61-1.67c2.56-14.64,0-98.28-1.84-128.2-1.76-28.41-8.89-60.33-9.79-64.25-.73.17-2.35,1.06-8.3,11.4-9.66,15.92-7.17,56.87-7.14,57.29Z"/><path class="cls-3" d="M210.88,172.53l.32-10.87s-2.64-41.31,7.19-57.52c7.15-12.43,8.18-11.42,9-11.68l-47.73-16.8c6.08,4.21-24.17,116.62-24.17,120.15v42.24c0,16.18,3.76,65.16,29.83,64.26S222,279.66,222,279.66s-4.85-30-12-75.23C208.55,195.28,210,182.38,210.88,172.53Z"/><path class="cls-2" d="M184.61,302.74a18.93,18.93,0,0,1-13.5-5.65c-15.6-15.06-16.05-54.58-16.05-59V195.81c0-.92,1.7-7.83,4.95-21,4.26-17.24,10.08-40.84,14.42-61,6.69-31.22,6-37.05,5-37.75a.42.42,0,0,1-.13-.54.41.41,0,0,1,.51-.2l47.73,16.79a.42.42,0,0,1,.28.4.41.41,0,0,1-.29.39,1.46,1.46,0,0,1-.3.07c-.68.12-2.09.36-8.45,11.43-9.66,15.92-7.17,56.87-7.14,57.28l-.32,10.91v0c-.11,1.22-.22,2.49-.34,3.79-.85,9.4-1.81,20.05-.54,28,7.11,44.72,12,74.92,12,75.22a.44.44,0,0,1,0,.25c-.11.22-11.08,22-37.1,22.89ZM180.52,76.41c2.27,8.13-8.89,54.85-19.7,98.6-2.75,11.14-4.92,19.94-4.92,20.8v42.24a158.91,158.91,0,0,0,2.85,29.12c2.75,13.82,7.1,23.68,12.94,29.32a18.11,18.11,0,0,0,13.6,5.4c24.53-.84,35.42-20.6,36.32-22.3-.37-2.26-5.16-31.91-12-75.09-1.28-8.07-.32-18.78.54-28.23.11-1.29.23-2.55.33-3.77l.32-10.85c-.1-1.66-2.53-41.59,7.25-57.73,4.83-8.4,6.92-10.75,8.07-11.47Zm30.36,96.12h0Z"/><path class="cls-2" d="M120.4,234.24c-5.4,0-14.3-4.32-14.73-4.54l-.29-.14,2.51-12.26,20,6.15,0,.33c0,.34-.55,8.23-5.24,10.1A6.2,6.2,0,0,1,120.4,234.24Zm-14.07-5.15c1.86.88,12.12,5.56,16,4,3.69-1.47,4.54-7.56,4.69-9l-18.52-5.68Z"/><path class="cls-3" d="M195,91.49l-4.77,5.59-11.55-5.26c1.44-10.1,1.26-19.65-3.12-24.36C175.48,66.23,189.78,79.63,195,91.49Z"/><path class="cls-2" d="M190.26,97.5a.38.38,0,0,1-.17,0L178.53,92.2a.45.45,0,0,1-.24-.44c1.71-12,.7-20-3-24a.34.34,0,0,1-.11-.25.46.46,0,0,1,.35-.51c1.36-.37,14.94,13.17,19.88,24.34a.42.42,0,0,1-.07.44l-4.76,5.59A.41.41,0,0,1,190.26,97.5Zm-11.09-5.93,11,5,4.39-5.15c-4.09-9-13.23-18.68-17.16-22.22C180,73.74,180.61,81.24,179.17,91.57Z"/><path class="cls-2" d="M199.42,234.24a6.2,6.2,0,0,1-2.26-.36c-4.7-1.88-4.76-9.93-4.76-10.27a.41.41,0,0,1,.3-.4L212,217.29a.41.41,0,0,1,.34,0,.42.42,0,0,1,.2.29l1.86,11.64a.41.41,0,0,1-.23.44C213.72,229.92,204.82,234.24,199.42,234.24Zm-6.17-10.33c.06,1.47.52,7.71,4.22,9.19,3.9,1.56,14.21-3.15,16-4l-1.75-10.85Z"/><path class="cls-2" d="M166.42,201.31h-4.3a1.05,1.05,0,0,0-1-.74,1.08,1.08,0,1,0,0,2.15,1.05,1.05,0,0,0,1-.74h4.3a.34.34,0,0,0,0-.67Z"/><path class="cls-2" d="M161.12,203a1.37,1.37,0,1,1,0-2.74,1.35,1.35,0,0,1,1.2.74h4.1a.64.64,0,0,1,.63.63.63.63,0,0,1-.63.63h-4.1A1.35,1.35,0,0,1,161.12,203Zm0-2.15a.79.79,0,1,0,.73,1,.29.29,0,0,1,.27-.2h4.3v-.09h-4.3a.29.29,0,0,1-.27-.2A.78.78,0,0,0,161.12,200.86Z"/><path class="cls-2" d="M166.42,227.91h-4.3a1.07,1.07,0,0,0-1-.74,1.08,1.08,0,0,0,0,2.16,1.07,1.07,0,0,0,1-.74h4.3a.34.34,0,0,0,0-.68Z"/><path class="cls-2" d="M161.12,229.62a1.37,1.37,0,0,1,0-2.74,1.35,1.35,0,0,1,1.2.74h4.1a.63.63,0,0,1,0,1.26h-4.1A1.35,1.35,0,0,1,161.12,229.62Zm0-2.15a.78.78,0,1,0,0,1.56.77.77,0,0,0,.73-.54.29.29,0,0,1,.27-.2h4.3v-.08h-4.3a.29.29,0,0,1-.27-.2A.77.77,0,0,0,161.12,227.47Z"/><circle class="cls-2" cx="161.12" cy="201.64" r="2.79"/><path class="cls-2" d="M161.12,204.85a3.21,3.21,0,1,1,3.2-3.21A3.21,3.21,0,0,1,161.12,204.85Zm0-5.58a2.37,2.37,0,1,0,2.37,2.37A2.38,2.38,0,0,0,161.12,199.27Z"/><path class="cls-2" d="M182.44,138.76a.42.42,0,0,1-.42-.42v-7.19a.42.42,0,0,1,.42-.42c10.93,0,23.29-1.83,24.19-2.87a.42.42,0,0,1,.39-.39.41.41,0,0,1,.44.37.28.28,0,0,1,0,.13v6.44a.38.38,0,0,1-.1.27C204.91,137.46,191,138.76,182.44,138.76Zm.42-7.19v6.35c9.67,0,21.53-1.54,23.77-3.68v-5.43C203.5,130.24,191.44,131.52,182.86,131.57Zm24.19,2.84Z"/><path class="cls-3" d="M155.48,200.8c1.5-8.37,26.57-63.71,42.24-100.32l-8.59-3.91-10.42-4.75c-4.36,25.42-13.36,63.49-23.23,103.93Z"/><path class="cls-2" d="M155.48,201.22h0a.42.42,0,0,1-.38-.42v-5.05s0-.07,0-.1c9.45-38.7,18.8-78.06,23.23-103.9a.41.41,0,0,1,.21-.3.4.4,0,0,1,.37,0l19,8.66a.42.42,0,0,1,.21.54c-4.47,10.45-9.8,22.61-14.94,34.38-12.89,29.46-26.21,59.92-27.28,65.86A.41.41,0,0,1,155.48,201.22Zm.42-5.42v1.93c3.22-9.82,14.57-35.76,26.5-63,5.08-11.63,10.34-23.64,14.78-34L179,92.42C174.56,118.28,165.28,157.37,155.9,195.8Z"/><path class="cls-2" d="M254.33,80A16.37,16.37,0,1,1,270.7,63.63,16.38,16.38,0,0,1,254.33,80Zm0-31.91a15.54,15.54,0,1,0,15.53,15.54A15.56,15.56,0,0,0,254.33,48.09Z"/><path class="cls-2" d="M253.23,68.75a.44.44,0,0,1-.3-.12L247.4,63.1a.43.43,0,0,1,0-.6.42.42,0,0,1,.59,0l5.24,5.24,9.11-9.11a.42.42,0,0,1,.59,0,.41.41,0,0,1,0,.59l-9.4,9.41A.44.44,0,0,1,253.23,68.75Z"/></svg>