<svg id="Layer_1" data-name="Layer 1" xmlns="http://www.w3.org/2000/svg" viewBox="0 0 350 350"><defs><style>.cls-1,.cls-2{stroke:#231f20;stroke-miterlimit:10;}.cls-2{fill:#fff;}.cls-3{fill:#231f20;}</style></defs><path class="cls-1" d="M216.5,267.63H153.33A24.68,24.68,0,0,1,128.68,243V59.79a24.67,24.67,0,0,1,24.65-24.64H216.5a24.66,24.66,0,0,1,24.64,24.64V243A24.67,24.67,0,0,1,216.5,267.63ZM153.33,36A23.86,23.86,0,0,0,129.5,59.79V243a23.87,23.87,0,0,0,23.83,23.84H216.5A23.87,23.87,0,0,0,240.33,243V59.79A23.86,23.86,0,0,0,216.5,36Z"/><path class="cls-1" d="M231.68,237.75H139.07a2.11,2.11,0,0,1-2.11-2.11V57.07A2.11,2.11,0,0,1,139.07,55h92.61a2.12,2.12,0,0,1,2.11,2.11V235.64A2.12,2.12,0,0,1,231.68,237.75Zm-92.61-182a1.3,1.3,0,0,0-1.3,1.29V235.64a1.3,1.3,0,0,0,1.3,1.29h92.61a1.29,1.29,0,0,0,1.29-1.29V57.07a1.29,1.29,0,0,0-1.29-1.29Z"/><path class="cls-2" d="M82.36,260.09a207.05,207.05,0,0,1,17-18.23c10.76-10.37,24.94-2.62,26.51-2.23s60,31.39,60,31.39a19.26,19.26,0,0,1,1.18,16.34q8.13-9.44,16.27-18.85s9.85-8.27-2.62-29-26.65-53.62-26.65-53.62a18.51,18.51,0,0,0-13.25-2.08,17.11,17.11,0,0,0-6,2.82,18.3,18.3,0,0,1,9.19-3.27,18.64,18.64,0,0,1,9.92,2.49c16.19,8.72,82.22,36.49,82.22,36.49l15-23.11L194.4,164s-11.69-5.51-19.36,2.62-20.28,19.95-20.28,19.95a17.6,17.6,0,0,0-2.1,14.71c2.62,8.13,31,60.64,34.91,74.55s-5.77,17.85-15.49,15.49-53-27-61.16-29.93-29.4-12.34-31,5.78c0,7.87,2.89,20.21,21,47.25,7.62-8.14,20.48-19.69,20.48-19.69l-19.48-36.49a33,33,0,0,0-9.52-1.64c-3.77-.07-5.54.58-6.41,1A12.09,12.09,0,0,0,82.36,260.09Z"/><path class="cls-1" d="M100.36,314.85h0a.39.39,0,0,1-.31-.18C81.35,286.8,79,274.66,79,267.19c.39-4.52,2-7.7,4.84-9.48,6.53-4.14,17.83.05,24.58,2.56l2.1.76c3.41,1.22,12.72,6.1,23.49,11.75,15,7.88,32,16.8,37.64,18.17s10.66.48,13.42-2.38c2.6-2.7,3.14-7.05,1.57-12.6-2.31-8.19-13.33-30.22-22.19-47.92-6.24-12.48-11.63-23.26-12.71-26.62a18.15,18.15,0,0,1,2.14-15.05l.06-.07.34-.31c2.17-2.05,13.08-12.37,19.93-19.63,7.79-8.25,19.71-2.77,19.83-2.71l76.65,35.17a.44.44,0,0,1,.22.26.45.45,0,0,1-.05.34l-15,23.1a.42.42,0,0,1-.52.15c-.78-.36-78.54-35.82-82.12-36.46a26.56,26.56,0,0,1-2.7-.73c-4.38-1.32-11-3.31-15.94,1.3l-.12.11h0a17.39,17.39,0,0,0-2,14.28c1.07,3.3,6.44,14,12.67,26.5,8.87,17.73,19.91,39.8,22.25,48.07,2.09,7.38.19,11.35-1.77,13.39-3,3.07-8.27,4.05-14.21,2.6-5.72-1.39-22.77-10.34-37.82-18.23-10.74-5.64-20-10.52-23.38-11.71l-2.11-.77c-1.76-.65-3.84-1.42-6.06-2.13,2.5,5.83,19,35.35,19.16,35.66a.41.41,0,0,1-.08.5c-.13.12-12.94,11.63-20.45,19.67A.42.42,0,0,1,100.36,314.85Zm-9.55-58.08a12.15,12.15,0,0,0-6.58,1.63c-2.6,1.64-4.1,4.61-4.47,8.83,0,7.27,2.36,19.17,20.65,46.56,7-7.41,18.13-17.51,19.91-19.12-1.89-3.39-17.83-32-19.29-36.08A36.81,36.81,0,0,0,90.81,256.77Zm71.49-73.66a29.46,29.46,0,0,1,8.44,1.6c1,.31,1.93.58,2.61.71,3.61.64,75.79,33.53,82,36.37l14.52-22.41-76.23-35c-.11-.06-11.51-5.29-18.89,2.53-5.27,5.59-12.93,13-17.18,17A12.81,12.81,0,0,1,162.3,183.11Z"/><path class="cls-1" d="M186.46,287.76a.4.4,0,0,1-.31-.67l16.28-18.85c.14-.13,9.45-8.37-2.67-28.55-12.34-20.55-26.52-53.34-26.67-53.67a.4.4,0,0,1,.22-.53.4.4,0,0,1,.53.21c.15.33,14.31,33.07,26.62,53.57,12.51,20.82,2.95,29.2,2.54,29.55l-16.23,18.8A.38.38,0,0,1,186.46,287.76Z"/><path class="cls-1" d="M185.29,271.43a.32.32,0,0,1-.19-.05C165,260.72,126.61,240.44,125.2,240c-.21-.06-.56-.2-1.08-.41-3.89-1.6-15.72-6.45-25.05,2.54a210.07,210.07,0,0,0-17,18.19.41.41,0,0,1-.57.06.4.4,0,0,1-.07-.57,212.63,212.63,0,0,1,17-18.27c9.71-9.36,21.92-4.35,25.93-2.71a10.1,10.1,0,0,0,1,.38c1.57.39,54.1,28.25,60.08,31.42a.41.41,0,0,1-.19.77Z"/><path class="cls-1" d="M246,218.14a.38.38,0,0,1-.22-.07.42.42,0,0,1-.12-.57l15-22.66a.41.41,0,0,1,.57-.11.4.4,0,0,1,.11.56l-15,22.67A.44.44,0,0,1,246,218.14Z"/><path class="cls-1" d="M219.59,206.44a.43.43,0,0,1-.24-.08.41.41,0,0,1-.09-.57l16.29-22.27a.4.4,0,0,1,.56-.09.4.4,0,0,1,.09.57l-16.28,22.27A.4.4,0,0,1,219.59,206.44Z"/><path class="cls-1" d="M241.53,200.77a.42.42,0,0,1-.24-.07.41.41,0,0,1-.1-.57l7.45-10.6a.41.41,0,0,1,.57-.09.4.4,0,0,1,.1.56l-7.45,10.6A.42.42,0,0,1,241.53,200.77Z"/><path class="cls-1" d="M193.17,194.62a.39.39,0,0,1-.26-.1.41.41,0,0,1,0-.57l18.35-21.63a.41.41,0,1,1,.63.53l-18.36,21.63A.41.41,0,0,1,193.17,194.62Z"/><path class="cls-1" d="M215.2,188.56a.45.45,0,0,1-.27-.1.41.41,0,0,1,0-.58l8.5-10a.41.41,0,1,1,.63.53l-8.51,10A.4.4,0,0,1,215.2,188.56Z"/><path class="cls-1" d="M171,185.46a.41.41,0,0,1-.29-.69l21.73-21.6a.4.4,0,1,1,.57.57l-21.73,21.61A.43.43,0,0,1,171,185.46Z"/><path class="cls-1" d="M194.14,176.39a.43.43,0,0,1-.28-.11.41.41,0,0,1,0-.57l7.21-8.07a.41.41,0,0,1,.61.54l-7.21,8.07A.41.41,0,0,1,194.14,176.39Z"/><path class="cls-1" d="M155.41,209.33a.43.43,0,0,1-.36-.21.42.42,0,0,1,.15-.56l22.57-13a.41.41,0,0,1,.56.15.42.42,0,0,1-.15.56l-22.57,13A.36.36,0,0,1,155.41,209.33Z"/><path class="cls-1" d="M166.08,230.9a.41.41,0,0,1-.35-.2.42.42,0,0,1,.14-.56L188,217a.4.4,0,0,1,.56.14.41.41,0,0,1-.14.56l-22.1,13.11A.39.39,0,0,1,166.08,230.9Z"/><path class="cls-1" d="M176,251a.41.41,0,0,1-.22-.76l22.33-14.11a.41.41,0,1,1,.44.69l-22.33,14.11A.47.47,0,0,1,176,251Z"/><path class="cls-1" d="M186.59,275a.39.39,0,0,1-.32-.16.4.4,0,0,1,.07-.57l19.82-15.57a.41.41,0,0,1,.5.64l-19.82,15.57A.38.38,0,0,1,186.59,275Z"/><path class="cls-1" d="M161.66,287.76a.39.39,0,0,1-.23-.07.41.41,0,0,1-.11-.56l14.36-21.25a.41.41,0,0,1,.57-.11.42.42,0,0,1,.11.57L162,287.58A.41.41,0,0,1,161.66,287.76Z"/><path class="cls-1" d="M136.49,275a.49.49,0,0,1-.25-.08.42.42,0,0,1-.07-.58l16.12-20.82a.42.42,0,0,1,.58-.07.41.41,0,0,1,.07.57l-16.12,20.82A.39.39,0,0,1,136.49,275Z"/><path class="cls-1" d="M115.45,264.11a.41.41,0,0,1-.32-.67l16.79-20.6a.41.41,0,0,1,.63.51L115.76,264A.39.39,0,0,1,115.45,264.11Z"/><path class="cls-1" d="M92.19,256.83a.4.4,0,0,1-.27-.11.4.4,0,0,1,0-.57c17.58-19.36,17.87-19.36,18.11-19.36a.4.4,0,0,1,.18.77c-.82.66-11,11.77-17.69,19.14A.43.43,0,0,1,92.19,256.83Z"/><path class="cls-1" d="M80,273.94a.41.41,0,0,1-.34-.18.42.42,0,0,1,.12-.57l21.65-14.53a.41.41,0,0,1,.45.68L80.21,273.87A.39.39,0,0,1,80,273.94Z"/><path class="cls-1" d="M87.29,292.89a.44.44,0,0,1-.33-.16.42.42,0,0,1,.09-.58l22.59-16.6a.41.41,0,1,1,.48.66l-22.58,16.6A.39.39,0,0,1,87.29,292.89Z"/><path class="cls-1" d="M97,309.69a.39.39,0,0,1-.3-.13.41.41,0,0,1,0-.58L118,289.88a.4.4,0,0,1,.57,0,.41.41,0,0,1,0,.58l-21.32,19.1A.39.39,0,0,1,97,309.69Z"/><path class="cls-1" d="M105.18,290a.39.39,0,0,1-.32-.16.4.4,0,0,1,.07-.57l9-6.91a.41.41,0,0,1,.58.07.42.42,0,0,1-.08.58l-9,6.91A.39.39,0,0,1,105.18,290Z"/><path class="cls-1" d="M97,273.05a.42.42,0,0,1-.34-.17.41.41,0,0,1,.11-.57l8.57-5.86a.41.41,0,0,1,.57.11.39.39,0,0,1-.11.56L97.2,273A.39.39,0,0,1,97,273.05Z"/><path class="cls-1" d="M114.93,245.75a.38.38,0,0,1-.25-.09.4.4,0,0,1-.07-.57l5.8-7.42a.41.41,0,1,1,.64.5l-5.8,7.42A.42.42,0,0,1,114.93,245.75Z"/><path class="cls-1" d="M136.49,255.5a.43.43,0,0,1-.26-.09.42.42,0,0,1,0-.58l5.71-6.81a.41.41,0,0,1,.57-.05.4.4,0,0,1,0,.58l-5.7,6.81A.43.43,0,0,1,136.49,255.5Z"/><path class="cls-1" d="M158,268.35a.36.36,0,0,1-.22-.07.41.41,0,0,1-.12-.56l5.65-8.41a.41.41,0,0,1,.56-.11.41.41,0,0,1,.11.57l-5.64,8.4A.41.41,0,0,1,158,268.35Z"/><path class="cls-1" d="M194.78,252.75a.4.4,0,0,1-.34-.19.4.4,0,0,1,.12-.56c3.27-2.08,8.25-5.25,8.57-5.51a.41.41,0,0,1,.51.64c-.46.37-7.81,5-8.64,5.55A.38.38,0,0,1,194.78,252.75Z"/><path class="cls-1" d="M184.68,231.52a.41.41,0,0,1-.35-.2.42.42,0,0,1,.15-.56l8.13-4.7a.42.42,0,0,1,.56.15.42.42,0,0,1-.15.56l-8.13,4.7A.41.41,0,0,1,184.68,231.52Z"/><path class="cls-1" d="M173.47,210.67a.41.41,0,0,1-.19-.77l9-4.72a.41.41,0,0,1,.55.17.42.42,0,0,1-.17.56l-9,4.71A.45.45,0,0,1,173.47,210.67Z"/><path class="cls-3" d="M161.12,145.5a2.69,2.69,0,0,1-1.05,2.3,5.17,5.17,0,0,1-3.14.79,10.56,10.56,0,0,1-1.83-.14,7,7,0,0,1-1.41-.43v-2.21a10,10,0,0,0,1.68.59,6.7,6.7,0,0,0,1.65.24c1,0,1.45-.29,1.45-.85a.69.69,0,0,0-.19-.51,2.92,2.92,0,0,0-.67-.45,13.58,13.58,0,0,0-1.26-.58,7.8,7.8,0,0,1-1.66-.88,2.43,2.43,0,0,1-.78-.93,3.1,3.1,0,0,1-.24-1.29,2.33,2.33,0,0,1,1-2,4.89,4.89,0,0,1,2.87-.72,8.11,8.11,0,0,1,3.45.78l-.81,1.93c-.49-.21-.95-.38-1.37-.52a4.53,4.53,0,0,0-1.31-.2c-.79,0-1.19.21-1.19.64a.75.75,0,0,0,.38.62,10.64,10.64,0,0,0,1.68.79,8.17,8.17,0,0,1,1.68.86,2.51,2.51,0,0,1,.79.94A2.84,2.84,0,0,1,161.12,145.5Z"/><path class="cls-3" d="M162.79,136.06c0-.87.49-1.31,1.46-1.31s1.46.44,1.46,1.31a1.24,1.24,0,0,1-.37,1,1.52,1.52,0,0,1-1.09.35C163.28,137.38,162.79,136.94,162.79,136.06Zm2.79,12.36h-2.67V138.6h2.67Z"/><path class="cls-3" d="M175.23,148.42h-7.76v-1.58l4.55-6.19h-4.27V138.6h7.32v1.74l-4.43,6h4.59Z"/><path class="cls-3" d="M181.16,148.59a5,5,0,0,1-3.71-1.31,4.93,4.93,0,0,1-1.33-3.7,5.47,5.47,0,0,1,1.23-3.82,5,5,0,0,1,6.66-.16,4.5,4.5,0,0,1,1.16,3.28v1.3h-6.34a2.59,2.59,0,0,0,.68,1.78,2.36,2.36,0,0,0,1.77.64,7.59,7.59,0,0,0,1.68-.18,8.66,8.66,0,0,0,1.65-.59v2.07a6.34,6.34,0,0,1-1.5.52A9.05,9.05,0,0,1,181.16,148.59Zm-.38-8.27a1.68,1.68,0,0,0-1.33.54,2.53,2.53,0,0,0-.56,1.53h3.76a2.19,2.19,0,0,0-.52-1.53A1.74,1.74,0,0,0,180.78,140.32Z"/><path class="cls-3" d="M187,140.51a1.47,1.47,0,0,1,.39-1.11,1.57,1.57,0,0,1,1.15-.38,1.59,1.59,0,0,1,1.13.38,1.71,1.71,0,0,1,0,2.21,1.54,1.54,0,0,1-1.12.39,1.62,1.62,0,0,1-1.14-.38A1.47,1.47,0,0,1,187,140.51Zm0,6.05a1.5,1.5,0,0,1,.39-1.12,1.61,1.61,0,0,1,1.15-.38,1.55,1.55,0,0,1,1.13.39,1.47,1.47,0,0,1,.4,1.11,1.51,1.51,0,0,1-.4,1.09,1.53,1.53,0,0,1-1.13.4,1.58,1.58,0,0,1-1.14-.39A1.46,1.46,0,0,1,187,146.56Z"/><path class="cls-3" d="M205.33,148.64c-1,0-2.36-.43-2.36-1.68a4.74,4.74,0,0,1,.41-1.62l1.21-3.2a5.66,5.66,0,0,0,.51-1.73.74.74,0,0,0-.84-.8c-.82,0-1.66.93-2.4,2.08l-2.2,6.73h-2.38l2.22-6.65a5.93,5.93,0,0,0,.35-1.36.76.76,0,0,0-.84-.8c-1,0-2,1.32-2.67,2.47l-2.07,6.34h-2.38l2.25-6.65a12.5,12.5,0,0,0,.52-1.87c0-.41-.13-.53-.45-.53-.93,0-1.54,1-2.22,2.77l-.41-.14c.74-1.81,1.46-3.12,3-3.12a1.83,1.83,0,0,1,2.06,1.9l.08,0a3.8,3.8,0,0,1,2.85-1.92,2.2,2.2,0,0,1,2.36,1.92H202a3.91,3.91,0,0,1,2.88-1.92,2.35,2.35,0,0,1,2.34,2.27,5.78,5.78,0,0,1-.42,1.54l-1.19,3.1a8,8,0,0,0-.53,1.77c0,.49.21.57.6.57.9,0,1.58-1,2.25-2.71l.39.12C207.56,147.37,206.81,148.64,205.33,148.64Z"/><path class="cls-3" d="M216.88,140.37c0,2-2.38,3.25-5.21,3.66a11.19,11.19,0,0,0-.29,2.19c0,1.19.29,1.81,1.21,1.81,1.54,0,2.61-1.23,3.43-2.75l.37.18c-1.25,2.38-2.69,3.25-4.1,3.25a3.06,3.06,0,0,1-3.37-3.29c0-2.34,2.24-6.54,6.05-6.54C216,138.88,216.88,139.41,216.88,140.37Zm-5.13,3.23c2.44-.48,3.2-2.08,3.24-3.1,0-.84-.16-1.21-.61-1.21C213.37,139.29,212.29,141.44,211.75,143.6Z"/></svg>