<?xml version="1.0" encoding="iso-8859-1"?>
<!-- Generator: Adobe Illustrator 16.0.4, SVG Export Plug-In . SVG Version: 6.00 Build 0)  -->
<!DOCTYPE svg PUBLIC "-//W3C//DTD SVG 1.1//EN" "http://www.w3.org/Graphics/SVG/1.1/DTD/svg11.dtd">
<svg version="1.1" id="Layer_1" xmlns="http://www.w3.org/2000/svg" xmlns:xlink="http://www.w3.org/1999/xlink" x="0px" y="0px"
	 width="80.087px" height="80.088px" viewBox="0 0 80.087 80.088" style="enable-background:new 0 0 80.087 80.088;"
	 xml:space="preserve">
<g>
	<path style="opacity:0.35;" d="M63.644,68.918c-0.078-0.457-3.982-34.736-4.152-36.729c-0.078-0.921-0.143-4.703-0.131-5.293
		c0.092-4.649-0.105-6.115-0.171-6.954s-0.312-3.878-0.394-4.598c-0.183-1.637-0.824-2.685-1.007-3.078
		c-0.185-0.394-0.525-0.223-0.577-0.302c-0.184-1.021-4.895-2.218-7.807-3.131c-1.562-0.488-2.666-0.956-2.726-1.021
		c-4.043-4.541-5.649-4.395-9.784-4.605L36.895,3.2c-0.708,0-4.27,0.366-5.991,1.496c-0.509,0.335-0.849,0.789-1.216,1.089
		c-1.089,0.891-1.407,1.605-1.965,2.008c-0.534,0.385-1.118,0.622-2.106,0.891c-0.99,0.269-2.052,1.004-2.561,1.075
		c-0.509,0.07-1.807,0.306-2.205,0.636c-0.566,0.467-1.4,0.509-1.881,0.75c-0.481,0.24-0.58,0.522-0.764,0.58
		c-0.185,0.057-0.297-0.141-0.523,0.198s-1.274,2.654-1.866,5.613c-0.311,1.556-0.806,8.045-0.946,8.852
		c-0.143,0.807-2.999,18.443-2.985,18.92c0.015,0.495,0.074,1.522,0.085,2.037c0.014,0.691,5.388,16.557,5.388,16.755
		s-0.028,0.806,0.269,1.102c0.297,0.298,0.75,0.482,0.905,0.652c0.155,0.169,0.155,0.169,0.155,0.169s0.197,0.312,0.227,0.17
		c0.027-0.141,0.027-0.141,0.027-0.141s-0.014-0.27,0.156-0.198c0.17,0.07,0.58,0.112,0.58,0.112s-0.82,4.143-1.004,4.949
		c-0.185,0.807-0.467,2.771-0.467,3.592s0.014,1.329-0.042,1.584c-0.057,0.254-0.015,0.32,0.141,0.452s3.521,2.319,9.94,2.545
		c0.243,0.009,4.512,0.255,6.562-3.761c0.113-0.223,0.496-0.866,0.984-2.344c0.265,0.043,0.515,0.073,0.677,0.073
		c0.488,0,0.805,0.021,1.314,0.147c0.51,0.128,0.997,0.149,1.061-0.084c0.009-0.035,0.018-0.18,0.023-0.398
		c0.36,0.004,0.855,0.008,1.172,0.013c2.504,6.274,6.006,5.646,7.07,5.57c8.107-0.577,10.053-2.743,10.262-2.993
		c0.209-0.249-0.184-1.951-0.302-2.594c-0.118-0.642-0.877-4.047-1.048-4.925c-0.17-0.878-0.812-2.554-0.969-3.667
		c-0.158-1.114-0.774-3.741-0.891-4.074c-1.18-3.379-1.572-5.488-1.703-6.235c-0.132-0.746-0.512-5.462-0.328-6.851
		s-0.039-3.668-0.039-4.768c0-1.102,0.328-2.267,0.433-2.699s4.427,30.299,4.558,30.953s0.262,0.641,0.695,0.668
		c0.432,0.026,5.344-1.454,5.605-1.585S63.723,69.377,63.644,68.918z M22.702,45.759c-0.104,0.446-0.254,2.333-0.275,3.373
		c-0.021,1.039-0.318,5.437-0.318,5.437c-0.212-0.014-1.336-9.976-1.676-10.23c-0.338-0.255,1.803-6.173,1.866-7.021
		c0.064-0.848,0.213-0.316,0.255-0.084c0.044,0.233,0.085,1.124,0.148,1.74c0.063,0.614-0.063,1.251-0.17,2.184
		c-0.105,0.934,0.021,2.227,0.17,2.863C22.852,44.656,22.81,45.314,22.702,45.759z"/>
	<rect style="fill:none;" width="80.087" height="80.088"/>
	<path style="fill:#C6C6C6;stroke:#000000;stroke-width:0.624;stroke-miterlimit:10;" d="M41.073,71.369
		c0.063,0,1.93,0.022,1.93,0.022l-1.654-5.028L41.073,71.369z"/>
	<path style="fill:#DADADA;stroke:#000000;stroke-width:0.624;stroke-miterlimit:10;" d="M37.276,71.392
		c0.063,0.042,1.357,0.317,1.846,0.317c0.487,0,0.805,0.022,1.314,0.148c0.509,0.128,0.997,0.148,1.061-0.084
		c0.063-0.234,0.043-5.622,0.043-5.622l-1.337-4.941c0,0-1.229,0.382-1.209,0.446C39.016,61.72,37.276,71.392,37.276,71.392z"/>
	<path style="fill:#DADADA;" d="M32.116,6.113c0.048-0.135,1.838-0.989,1.95-0.961c0.114,0.027,11.539-0.792,13.15,0.876
		s-4.949,22.088-4.949,22.088s-2.432,10.688-2.602,11.085c-0.169,0.396-1.951-4.978-2.149-5.968
		C37.318,32.244,31.521,7.754,32.116,6.113z"/>
	<path style="fill:#FFFFFF;stroke:#000000;stroke-width:0.624;stroke-miterlimit:10;" d="M66.298,67.797
		c-0.078-0.459-3.982-34.738-4.151-36.729c-0.08-0.922-0.144-4.703-0.132-5.293c0.092-4.649-0.105-6.116-0.17-6.954
		c-0.066-0.839-0.314-3.879-0.394-4.598c-0.185-1.637-0.825-2.686-1.009-3.078c-0.184-0.394-0.523-0.223-0.576-0.302
		c-0.184-1.021-4.896-2.218-7.808-3.129c-1.562-0.49-2.665-0.957-2.724-1.023c-4.045-4.541-5.65-4.396-9.786-4.607l-0.001-0.005
		c-0.707,0-4.27,0.365-5.99,1.496c-0.51,0.334-0.85,0.788-1.217,1.088c-1.088,0.891-1.406,1.604-1.965,2.009
		c-0.533,0.385-1.116,0.622-2.107,0.89c-0.988,0.27-2.049,1.004-2.559,1.074c-0.51,0.072-1.807,0.308-2.206,0.638
		c-0.565,0.466-1.4,0.508-1.881,0.749c-0.48,0.24-0.579,0.523-0.764,0.579c-0.184,0.058-0.296-0.141-0.522,0.198
		c-0.227,0.339-1.275,2.655-1.867,5.613c-0.309,1.556-0.805,8.046-0.947,8.852c-0.141,0.807-2.998,18.443-2.982,18.92
		c0.014,0.495,0.073,1.522,0.084,2.036c0.014,0.693,5.388,16.559,5.388,16.756c0,0.199-0.029,0.807,0.269,1.104
		c0.296,0.297,0.749,0.48,0.904,0.65c0.156,0.17,0.156,0.17,0.156,0.17s0.197,0.311,0.226,0.17c0.028-0.143,0.028-0.143,0.028-0.143
		s-0.013-0.268,0.156-0.197c0.17,0.07,0.579,0.112,0.579,0.112s-0.82,4.144-1.003,4.95c-0.185,0.805-0.468,2.771-0.468,3.592
		c0,0.818,0.015,1.329-0.042,1.583s-0.014,0.319,0.142,0.453c0.155,0.132,3.521,2.318,9.94,2.545
		c0.244,0.009,4.511,0.254,6.561-3.763c0.193-0.377,1.16-1.965,2.107-6.786c0.045-0.233,0.496-3.023,0.75-4.63
		c0.23,1.311,1.203,5.062,1.474,6.07c2.472,9.2,6.771,8.409,7.972,8.324c8.106-0.576,10.051-2.744,10.261-2.992
		c0.21-0.249-0.183-1.952-0.3-2.594c-0.119-0.642-0.879-4.047-1.049-4.926c-0.171-0.877-0.812-2.554-0.969-3.667
		c-0.157-1.114-0.775-3.74-0.893-4.073c-1.179-3.38-1.57-5.49-1.702-6.235c-0.131-0.747-0.511-5.463-0.327-6.851
		c0.184-1.389-0.039-3.669-0.039-4.768c0-1.102,0.328-2.268,0.433-2.699c0.104-0.433,4.427,30.297,4.558,30.952
		s0.262,0.642,0.694,0.668s5.345-1.454,5.605-1.584C66.298,68.282,66.377,68.256,66.298,67.797z M25.356,44.638
		c-0.105,0.445-0.255,2.333-0.275,3.372c-0.021,1.04-0.318,5.437-0.318,5.437c-0.212-0.015-1.337-9.976-1.676-10.23
		c-0.34-0.254,1.803-6.173,1.866-7.021s0.212-0.318,0.255-0.084c0.043,0.232,0.084,1.123,0.148,1.738
		c0.063,0.616-0.064,1.253-0.17,2.186s0.021,2.227,0.17,2.863C25.505,43.534,25.463,44.192,25.356,44.638z M46.566,8.525
		c-0.19,0.89-2.46,9.777-2.821,11.177c-0.36,1.399-1.25,4.603-1.781,6.681c-1.223,4.793-1.901,8.246-2.309,10.506
		c-0.048-0.1-0.081-0.183-0.088-0.227c-0.028-0.191-0.99-5.6-2.262-10.393c-0.18-0.675-2.434-10.337-2.631-11.043
		c-0.199-0.707-1.823-7.41-1.866-7.82s-0.056-1.343-0.015-1.329c0.043,0.015,1.57-0.339,2.418-0.339
		c0.838,0,7.279-0.162,8.852-0.078c1.531,0.083,2.632,0.341,2.701,0.383C46.905,6.127,46.758,7.633,46.566,8.525z"/>
	<path style="fill:none;stroke:#000000;stroke-width:0.624;stroke-miterlimit:10;" d="M55.029,21.484l-0.36,2.404L47.825,24.1
		l-0.093-2.319c0,0,3.436-0.297,4.518-0.318C53.333,21.441,55.029,21.484,55.029,21.484z"/>
	<path style="fill:none;stroke:#000000;stroke-width:0.624;stroke-miterlimit:10;" d="M59.866,10.843c0,0,0.053,0.367-0.129,0.757
		c-3.713,7.995-4.512,26.653-4.512,26.653"/>
	<path style="fill:none;stroke:#9D9D9C;stroke-width:0.6239;stroke-miterlimit:10;" d="M49.932,53.482
		c-2.046-11.456,2.318-23.925,2.318-23.925"/>
	<path style="fill:none;stroke:#9D9D9C;stroke-width:0.6239;stroke-miterlimit:10;" d="M30.164,53.964
		c0-0.113,1.923-12.485,0.735-17.677c-0.41-1.789-1.047-5.881-1.074-6.701"/>
	<path style="fill:none;stroke:#E50742;stroke-width:0.624;stroke-miterlimit:10;" d="M46.778,7.246"/>
	<path style="fill:none;stroke:#000000;stroke-width:0.624;stroke-miterlimit:10;" d="M39.538,2.084c0,0,6.684,0,7.197,3.152
		c0.039,0.237,0.057,0.547,0.062,0.853L46.81,6.17c0.05,0.396-0.08,1.597-0.243,2.354c-0.19,0.89-2.46,9.777-2.821,11.177
		c-0.36,1.399-1.25,4.603-1.781,6.681c-1.733,6.795-2.375,10.902-2.693,12.727c-0.102,0.582-0.289,2.666-0.289,2.666
		c0.057-0.369,0.36-1.188,0.615-1.641c0.254-0.452,0.961-1.88,1.244-2.502s3.804-9.714,4.029-10.295
		c0.227-0.578,3.605-9.449,3.719-9.812c1.004-3.21,1.795-5.119,2.15-5.911c0.352-0.791,0.211-0.762,0.127-0.904
		c-0.085-0.141-0.75-0.707-0.75-0.707S50.64,9.72,50.95,9.592c0.311-0.127,0.354-0.254,0.24-0.678
		c-0.113-0.425-1.812-2.208-1.812-2.208c-0.402-0.457-1.774-1.941-3.116-2.939c-0.71-0.53-1.545-0.972-2.616-1.271
		c-0.689-0.193-1.49-0.271-2.406-0.331C40.712,2.13,40.157,2.065,39.538,2.084z"/>
	<path style="fill:#DADADA;stroke:#000000;stroke-width:0.624;stroke-miterlimit:10;" d="M20.053,62.598
		c0,0,2.332,1.845,4.102,0.023c2.203-2.267,1.054-3.848,1.043-3.863c-0.028-0.043-0.417-0.05-0.521-0.062
		c-0.112-0.011-0.845-0.07-1.551,0.101c-0.707,0.168-1.835,0.699-2.566,2.15C20.278,61.506,20.095,62.415,20.053,62.598z"/>
	<path style="fill:none;stroke:#000000;stroke-width:0.624;stroke-miterlimit:10;" d="M42.495,57.441c0,0-1.146,0.07-1.387,0.028
		s-0.664-0.099-0.679,0.298c-0.014,0.395,0.24,0.41,0.438,0.395c0.197-0.013,0.297-0.211,0.621-0.239
		c0.326-0.028,0.835-0.113,0.977-0.142C42.608,57.753,42.678,57.512,42.495,57.441z"/>
	<path style="fill:none;stroke:#000000;stroke-width:0.624;stroke-miterlimit:10;" d="M41.666,43.967c0,0-1.146-0.061-1.379-0.13
		c-0.234-0.069-0.649-0.175-0.709,0.218c-0.059,0.393,0.192,0.436,0.392,0.443c0.197,0.008,0.318-0.177,0.645-0.168
		s0.842-0.017,0.986-0.029C41.744,44.289,41.841,44.058,41.666,43.967z"/>
	<path style="fill:none;stroke:#9D9D9C;stroke-width:0.6239;stroke-miterlimit:10;" d="M39.553,5.686c0,0,0.057,10.41,0.086,11.966
		c0.027,1.555,0,9.644,0,11.058c0,1.1-0.062,7.097-0.021,8.118"/>
	<path style="fill:none;stroke:#000000;stroke-width:0.624;stroke-miterlimit:10;" d="M39.538,2.084c0,0-6.561,0.364-6.716,2.951
		c-0.155,2.588-0.011,2.386,0.032,2.619c0,0,0.551,2.323,0.636,2.662c0.085,0.34,2.132,8.824,2.206,9.131
		c0.074,0.308,1.845,7.615,2.078,8.506c0.234,0.891,1.432,6.574,1.527,7.146c0.096,0.573,0.346,1.853,0.346,1.853l-0.379,2.29
		c0,0-0.391-0.753-0.528-1.066c-0.977-2.227-2.886-6.682-3.055-7.105c-0.171-0.424-2.927-7.773-3.16-8.346
		s-3.531-10.128-3.765-10.86c-0.233-0.731-0.074-0.827,0.062-0.975c0.138-0.148,0.839-0.807,0.828-0.88
		c-0.011-0.074-0.764-0.403-0.891-0.466c-0.127-0.064-0.191-0.128-0.062-0.351c0.125-0.222,1.844-2.662,2.014-2.905
		c0,0,0.721-0.891,0.986-1.125c0.265-0.232,1.199-1.114,1.367-1.293C33.235,3.688,34.583,2.374,39.538,2.084z"/>
	<path style="fill:none;stroke:#000000;stroke-width:0.624;stroke-miterlimit:10;" d="M20.859,10.525c0,0,0.638,1.273,0.905,2.093
		c2.568,7.828,3.266,23.062,3.322,23.247"/>
	<path style="fill:none;stroke:#000000;stroke-width:0.624;stroke-miterlimit:10;" d="M20.008,62.846
		c-0.029-0.338,0.399-1.416,0.513-1.784c0.113-0.367,1.046-2.064,2.842-2.319c0.6-0.084,2.05-0.184,2.716,0.298
		c0.649,0.471,1.87,3.042-1.739,5.118c-0.818,0.471-1.541,0.637-1.994,0.607"/>
	<path style="fill:#FFFFFF;stroke:#000000;stroke-width:0.624;stroke-miterlimit:10;" d="M14.741,58.21"/>
	<path style="fill:#FFFFFF;stroke:#000000;stroke-width:0.624;stroke-miterlimit:10;" d="M38.981,41.775
		c-0.105,0.866-0.041,15.199,1.336,21.012"/>
	<path style="opacity:0.35;" d="M56.347,57.648c0,0-0.885,0.388-1.361,0.477c-0.477,0.09-1.729,0.157-2.22,0.254
		c-0.491,0.098-2.181,0.357-2.718-0.171s-0.775-4.036-0.775-4.036l6.896,2.963L56.347,57.648z"/>
	<path style="fill:#FFFFFF;stroke:#000000;stroke-width:0.624;stroke-miterlimit:10;" d="M49.267,53.978
		c0,0,0.185,2.106,0.382,2.843c0.198,0.735,0.429,1.776,2.715,1.399c1.202-0.198,1.499-0.226,2.079-0.255
		c0.58-0.028,1.753-0.324,1.951-0.424l-1.159-4.059C55.234,53.482,53.452,54.006,49.267,53.978z"/>
	<path style="fill:#575756;" d="M49.335,54.107v0.081c0,0,4.322,0.249,5.911-0.489l-0.014-0.068
		C55.232,53.631,54.394,54.155,49.335,54.107z"/>
	<path style="opacity:0.35;" d="M26.399,58.523c0.093,0.012,0.227,0.047,0.295,0.06c0.492,0.099,2.047,0.475,2.591-0.048
		c0.704-0.68,0.901-4.158,0.901-4.158l-4.454,1.914"/>
	<path style="fill:none;stroke:#000000;stroke-width:0.624;stroke-miterlimit:10;" d="M55.18,53.279c0,0-1.032,0.269-2.433,0.311
		c-1.398,0.043-3.506,0.141-3.506,0.141s-0.042,0.184-0.028,0.312c0.014,0.127,2.673,0.07,3.605,0.014
		c0.934-0.057,2.135-0.297,2.446-0.467C55.277,53.584,55.18,53.279,55.18,53.279z"/>
	<path style="fill:#FFFFFF;stroke:#000000;stroke-width:0.624;stroke-miterlimit:10;" d="M24.785,53.555l0.006-0.101
		c0,0,2.248,0.595,3.294,0.595c1.047,0,2.447,0.126,2.447,0.126c0.014,0.058-0.382,1.443-0.439,1.909
		c-0.057,0.467-0.227,2.589-1.909,2.49c-0.562-0.034-1.321-0.128-1.866-0.205"/>
	<path style="fill:#575756;" d="M30.483,54.334l-0.005,0.082c0,0-4.079-0.049-5.644-0.703l-0.052-0.127
		C24.783,53.586,25.431,54.104,30.483,54.334z"/>
	<path style="fill:none;stroke:#000000;stroke-width:0.624;stroke-miterlimit:10;" d="M24.784,53.045c0,0,1.484,0.618,3.266,0.73
		c1.059,0.068,2.485,0.064,2.588,0.223c0.05,0.078-0.12,0.305-0.12,0.305s-2.772-0.07-3.931-0.282
		c-0.913-0.167-1.74-0.415-1.74-0.415L24.784,53.045z"/>
	<path style="fill:none;stroke:#000000;stroke-width:0.624;stroke-miterlimit:10;" d="M24.718,53.184
		c0.016,0.042,2.316,6.896,2.09,7.828"/>
</g>
<g>
</g>
<g>
</g>
<g>
</g>
<g>
</g>
<g>
</g>
<g>
</g>
<g>
</g>
<g>
</g>
<g>
</g>
<g>
</g>
<g>
</g>
<g>
</g>
<g>
</g>
<g>
</g>
<g>
</g>
</svg>
