<?xml version="1.0" encoding="iso-8859-1"?>
<!-- Generator: Adobe Illustrator 16.0.4, SVG Export Plug-In . SVG Version: 6.00 Build 0)  -->
<!DOCTYPE svg PUBLIC "-//W3C//DTD SVG 1.1//EN" "http://www.w3.org/Graphics/SVG/1.1/DTD/svg11.dtd">
<svg version="1.1" id="Layer_1" xmlns="http://www.w3.org/2000/svg" xmlns:xlink="http://www.w3.org/1999/xlink" x="0px" y="0px"
	 width="80.071px" height="87.761px" viewBox="0 0 80.071 87.761" style="enable-background:new 0 0 80.071 87.761;"
	 xml:space="preserve">
<rect style="fill:none;" width="80.071" height="80.072"/>
<g>
	<path style="opacity:0.35;" d="M6.383,36.889c1.229,3.056,4.618,13.132,4.618,13.204c0,0.152-0.027,0.617,0.25,0.844
		s0.697,0.367,0.843,0.496c0.144,0.131,0.144,0.131,0.144,0.131s0.185,0.238,0.21,0.129c0.026-0.109,0.026-0.109,0.026-0.109
		s-0.012-0.203,0.146-0.15c0.157,0.055,0.54,0.086,0.54,0.086s-0.765,3.166-0.935,3.781c-0.171,0.617-0.435,2.119-0.435,2.744
		s0.014,1.014-0.04,1.209c-0.053,0.195-0.013,0.246,0.131,0.346c0.146,0.102,3.278,1.771,9.253,1.945
		c0.227,0.006,4.198,0.193,6.106-2.875c0.18-0.289,1.081-1.5,1.962-5.184c0.042-0.178,0.46-2.311,0.699-3.537
		c0.214,1.002,1.118,3.867,1.37,4.639c2.3,7.027,6.304,6.424,7.42,6.357c7.547-0.439,9.357-2.094,9.552-2.285
		c0.195-0.189-0.17-1.49-0.28-1.98c-0.109-0.492-0.817-3.092-0.977-3.762c-0.157-0.672-0.756-1.953-0.903-2.803
		c-0.144-0.85-0.72-2.857-0.827-3.113c-1.099-2.582-1.464-4.191-1.585-4.762c-0.123-0.57-0.477-4.173-0.305-5.235
		c0.171-1.061-0.038-2.802-0.038-3.641c0-0.841,0.305-1.731,0.401-2.062c0.099-0.33,4.124,23.145,4.245,23.645
		s0.244,0.49,0.646,0.51c0.403,0.02,4.976-1.111,5.22-1.211c0.242-0.098,0.316-0.119,0.242-0.469
		c-0.072-0.352-3.705-26.537-3.864-28.058c-0.073-0.704-0.133-3.592-0.123-4.042c0.085-3.552-0.097-4.673-0.159-5.313
		c-0.061-0.64-0.289-2.963-0.363-3.512c-0.172-1.251-0.771-2.051-0.94-2.351c-0.169-0.301-0.487-0.17-0.536-0.23
		c-0.171-0.78-4.557-1.695-7.267-2.391c-1.454-0.374-2.482-0.73-2.537-0.781c-3.764-3.468-5.26-3.357-9.108-3.519l0-0.003
		c-0.658,0-3.974,0.279-5.577,1.143c-0.475,0.255-0.791,0.603-1.131,0.832c-1.014,0.68-1.31,1.225-1.831,1.533
		c-0.495,0.294-1.039,0.476-1.96,0.681c-0.922,0.206-1.909,0.767-2.383,0.821c-0.474,0.055-1.681,0.234-2.054,0.486
		c-0.525,0.357-1.303,0.389-1.75,0.573s-0.987,0.334-1.198,0.595c-0.211,0.259-1.187,2.027-1.737,4.287
		c-0.29,1.188-2.58,12.587-3.249,17.683C5.903,35.369,6.383,36.889,6.383,36.889z M15.976,36.082
		c-0.098,0.341-0.237,1.784-0.256,2.577c-0.021,0.795-0.296,4.155-0.296,4.155c-0.198-0.012-1.245-7.621-1.56-7.814
		c-0.316-0.195,1.678-4.716,1.738-5.365c0.059-0.647,0.197-0.242,0.237-0.064c0.04,0.179,0.078,0.86,0.138,1.329
		c0.06,0.47-0.06,0.955-0.159,1.669c-0.098,0.713,0.021,1.701,0.159,2.187C16.113,35.242,16.075,35.743,15.976,36.082z"/>
	<path style="fill:#DADADA;" d="M24.537,5.866c0.046-0.104,1.713-0.757,1.818-0.735c0.105,0.022,10.739-0.605,12.241,0.67
		c1.5,1.275-4.607,16.871-4.607,16.871s-2.264,8.165-2.421,8.468c-0.159,0.303-1.816-3.802-2.001-4.557
		C29.382,25.826,23.986,7.118,24.537,5.866z"/>
	<path style="fill:#FFFFFF;" d="M8.654,36.097c1.229,3.056,4.617,13.13,4.617,13.205c0,0.152-0.026,0.617,0.25,0.844
		s0.697,0.367,0.843,0.496c0.144,0.129,0.144,0.129,0.144,0.129s0.184,0.24,0.21,0.131c0.026-0.109,0.026-0.109,0.026-0.109
		s-0.012-0.205,0.146-0.15c0.157,0.055,0.54,0.088,0.54,0.088s-0.764,3.164-0.935,3.779c-0.171,0.617-0.434,2.119-0.434,2.742
		c0,0.627,0.013,1.016-0.04,1.211s-0.013,0.246,0.131,0.346c0.146,0.102,3.278,1.771,9.253,1.945
		c0.227,0.008,4.198,0.193,6.106-2.875c0.179-0.287,1.08-1.5,1.962-5.184c0.042-0.178,0.46-2.309,0.699-3.535
		c0.214,0.998,1.118,3.865,1.37,4.635c2.3,7.029,6.304,6.424,7.421,6.359c7.547-0.439,9.356-2.096,9.552-2.287
		c0.194-0.188-0.171-1.488-0.28-1.979c-0.11-0.492-0.816-3.092-0.976-3.764s-0.757-1.951-0.903-2.801
		c-0.146-0.85-0.719-2.857-0.829-3.113c-1.096-2.58-1.463-4.191-1.584-4.764c-0.123-0.57-0.476-4.171-0.305-5.233
		c0.17-1.06-0.036-2.802-0.036-3.641c0-0.841,0.303-1.731,0.401-2.062c0.097-0.329,4.121,23.146,4.242,23.646
		c0.123,0.5,0.244,0.49,0.646,0.51c0.403,0.02,4.976-1.111,5.22-1.211c0.244-0.098,0.318-0.119,0.244-0.469
		c-0.073-0.352-3.707-26.537-3.865-28.058c-0.072-0.704-0.133-3.592-0.121-4.042c0.085-3.552-0.099-4.673-0.159-5.312
		c-0.061-0.641-0.292-2.963-0.365-3.512c-0.173-1.251-0.77-2.051-0.939-2.352c-0.171-0.3-0.486-0.17-0.536-0.23
		c-0.17-0.78-4.557-1.695-7.268-2.391c-1.452-0.374-2.482-0.73-2.536-0.781c-3.764-3.468-5.26-3.357-9.108-3.519l-0.001-0.004
		c-0.658,0-3.974,0.279-5.577,1.143c-0.475,0.255-0.79,0.603-1.131,0.832c-1.014,0.68-1.311,1.226-1.831,1.534
		c-0.496,0.294-1.039,0.475-1.96,0.681s-1.909,0.767-2.382,0.82c-0.475,0.055-1.681,0.234-2.054,0.486
		c-0.525,0.357-1.303,0.39-1.75,0.572c-0.448,0.184-0.54,0.4-0.711,0.443c-0.171,0.043-0.277-0.108-0.487,0.152
		c-0.211,0.259-1.187,2.028-1.738,4.288c-0.29,1.188-2.58,12.587-3.249,17.683C8.174,34.578,8.654,36.097,8.654,36.097z
		 M18.247,35.293c-0.098,0.34-0.237,1.781-0.256,2.575c-0.021,0.795-0.296,4.155-0.296,4.155c-0.198-0.012-1.245-7.621-1.56-7.815
		c-0.316-0.195,1.678-4.715,1.738-5.364c0.059-0.647,0.197-0.243,0.237-0.065c0.039,0.179,0.078,0.859,0.137,1.329
		c0.06,0.469-0.059,0.956-0.158,1.668c-0.098,0.713,0.021,1.701,0.158,2.187C18.384,34.45,18.346,34.952,18.247,35.293z
		 M37.99,7.708c-0.177,0.68-2.291,7.468-2.626,8.538s-1.166,3.516-1.659,5.104c-1.138,3.659-1.77,6.297-2.148,8.025
		c-0.044-0.077-0.077-0.14-0.082-0.173c-0.027-0.146-0.922-4.277-2.107-7.938c-0.167-0.516-2.265-7.896-2.448-8.437
		c-0.185-0.539-1.698-5.658-1.737-5.972c-0.041-0.312-0.053-1.026-0.014-1.015c0.04,0.011,1.461-0.259,2.251-0.259
		c0.78,0,6.775-0.123,8.239-0.059c1.424,0.063,2.449,0.26,2.514,0.292C38.305,5.877,38.167,7.027,37.99,7.708z"/>
	<path style="fill:none;stroke:#000000;stroke-width:0.624;stroke-miterlimit:10;" d="M8.654,36.097
		c1.229,3.056,4.617,13.13,4.617,13.205c0,0.152-0.026,0.617,0.25,0.844s0.697,0.367,0.843,0.496
		c0.144,0.129,0.144,0.129,0.144,0.129s0.184,0.24,0.21,0.131c0.026-0.109,0.026-0.109,0.026-0.109s-0.012-0.205,0.146-0.15
		c0.157,0.055,0.54,0.088,0.54,0.088s-0.764,3.164-0.935,3.779c-0.171,0.617-0.434,2.119-0.434,2.742
		c0,0.627,0.013,1.016-0.04,1.211s-0.013,0.246,0.131,0.346c0.146,0.102,3.278,1.771,9.253,1.945
		c0.227,0.008,4.198,0.193,6.106-2.875c0.179-0.287,1.08-1.5,1.962-5.184c0.042-0.178,0.46-2.309,0.699-3.535
		c0.214,0.998,1.118,3.865,1.37,4.635c2.3,7.029,6.304,6.424,7.421,6.359c7.547-0.439,9.356-2.096,9.552-2.287
		c0.194-0.188-0.171-1.488-0.28-1.979c-0.11-0.492-0.816-3.092-0.976-3.764s-0.757-1.951-0.903-2.801
		c-0.146-0.85-0.719-2.857-0.829-3.113c-1.096-2.58-1.463-4.191-1.584-4.764c-0.123-0.57-0.476-4.171-0.305-5.233
		c0.17-1.06-0.036-2.802-0.036-3.641c0-0.841,0.303-1.731,0.401-2.062c0.097-0.329,4.121,23.146,4.242,23.646
		c0.123,0.5,0.244,0.49,0.646,0.51c0.403,0.02,4.976-1.111,5.22-1.211c0.244-0.098,0.318-0.119,0.244-0.469
		c-0.073-0.352-3.707-26.537-3.865-28.058c-0.072-0.704-0.133-3.592-0.121-4.042c0.085-3.552-0.099-4.673-0.159-5.312
		c-0.061-0.641-0.292-2.963-0.365-3.512c-0.173-1.251-0.77-2.051-0.939-2.352c-0.171-0.3-0.486-0.17-0.536-0.23
		c-0.17-0.78-4.557-1.695-7.268-2.391c-1.452-0.374-2.482-0.73-2.536-0.781c-3.764-3.468-5.26-3.357-9.108-3.519l-0.001-0.004
		c-0.658,0-3.974,0.279-5.577,1.143c-0.475,0.255-0.79,0.603-1.131,0.832c-1.014,0.68-1.311,1.226-1.831,1.534
		c-0.496,0.294-1.039,0.475-1.96,0.681s-1.909,0.767-2.382,0.82c-0.475,0.055-1.681,0.234-2.054,0.486
		c-0.525,0.357-1.303,0.39-1.75,0.572c-0.448,0.184-0.54,0.4-0.711,0.443c-0.171,0.043-0.277-0.108-0.487,0.152
		c-0.211,0.259-1.187,2.028-1.738,4.288c-0.29,1.188-2.58,12.587-3.249,17.683C8.174,34.578,8.654,36.097,8.654,36.097z
		 M18.247,35.293c-0.098,0.34-0.237,1.781-0.256,2.575c-0.021,0.795-0.296,4.155-0.296,4.155c-0.198-0.012-1.245-7.621-1.56-7.815
		c-0.316-0.195,1.678-4.715,1.738-5.364c0.059-0.647,0.197-0.243,0.237-0.065c0.039,0.179,0.078,0.859,0.137,1.329
		c0.06,0.469-0.059,0.956-0.158,1.668c-0.098,0.713,0.021,1.701,0.158,2.187C18.384,34.45,18.346,34.952,18.247,35.293z
		 M37.99,7.708c-0.177,0.68-2.291,7.468-2.626,8.538s-1.166,3.516-1.659,5.104c-1.138,3.659-1.77,6.297-2.148,8.025
		c-0.044-0.077-0.077-0.14-0.082-0.173c-0.027-0.146-0.922-4.277-2.107-7.938c-0.167-0.516-2.265-7.896-2.448-8.437
		c-0.185-0.539-1.698-5.658-1.737-5.972c-0.041-0.312-0.053-1.026-0.014-1.015c0.04,0.011,1.461-0.259,2.251-0.259
		c0.78,0,6.775-0.123,8.239-0.059c1.424,0.063,2.449,0.26,2.514,0.292C38.305,5.877,38.167,7.027,37.99,7.708z"/>
	<path style="fill:#FFFFFF;stroke:#000000;stroke-width:0.624;stroke-miterlimit:10;" d="M45.866,17.607l-0.335,1.835l-6.37,0.162
		l-0.087-1.771c0,0,3.198-0.226,4.206-0.243C44.287,17.574,45.866,17.607,45.866,17.607z"/>
	<path style="fill:none;stroke:#9D9D9C;stroke-width:0.6239;stroke-miterlimit:10;" d="M41.122,42.052
		c-1.904-8.754,2.158-18.278,2.158-18.278"/>
	<path style="fill:none;stroke:#9D9D9C;stroke-width:0.6239;stroke-miterlimit:10;" d="M22.722,42.419
		c0-0.088,1.791-9.54,0.685-13.504c-0.382-1.368-0.974-4.494-1-5.12"/>
	<path style="fill:none;stroke:#E50742;stroke-width:0.624;stroke-miterlimit:10;" d="M38.188,6.729"/>
	<path style="fill:none;stroke:#000000;stroke-width:0.624;stroke-miterlimit:10;" d="M31.448,2.788c0,0,6.221,0,6.7,2.408
		c0.036,0.181,0.052,0.418,0.057,0.651l0.011,0.062c0.047,0.302-0.075,1.219-0.226,1.799c-0.177,0.68-2.291,7.468-2.626,8.538
		s-1.166,3.516-1.659,5.104c-1.613,5.189-2.21,8.328-2.507,9.72c-0.094,0.444-0.268,2.037-0.268,2.037
		c0.053-0.281,0.335-0.908,0.57-1.252c0.238-0.345,0.896-1.438,1.159-1.913c0.264-0.474,3.541-7.42,3.751-7.862
		c0.211-0.443,3.357-7.219,3.462-7.496c0.934-2.452,1.669-3.91,2.001-4.515c0.329-0.605,0.196-0.583,0.117-0.691
		c-0.078-0.108-0.696-0.54-0.696-0.54S41.78,8.62,42.07,8.523c0.29-0.097,0.33-0.194,0.224-0.519
		c-0.104-0.324-1.688-1.686-1.688-1.686c-0.373-0.349-1.651-1.483-2.899-2.246c-0.662-0.404-1.438-0.741-2.435-0.971
		c-0.643-0.146-1.389-0.206-2.241-0.251C32.541,2.823,32.022,2.774,31.448,2.788z"/>
	<path style="fill:none;stroke:#000000;stroke-width:0.624;stroke-miterlimit:10;" d="M34.198,45.075c0,0-1.065,0.055-1.289,0.021
		c-0.224-0.033-0.618-0.074-0.631,0.229c-0.014,0.301,0.223,0.312,0.408,0.301c0.184-0.012,0.276-0.164,0.58-0.184
		c0.302-0.021,0.775-0.086,0.907-0.109C34.306,45.312,34.37,45.13,34.198,45.075z"/>
	<path style="fill:none;stroke:#000000;stroke-width:0.624;stroke-miterlimit:10;" d="M33.429,34.78c0,0-1.067-0.046-1.285-0.099
		c-0.219-0.054-0.605-0.133-0.659,0.166c-0.055,0.299,0.18,0.332,0.363,0.339c0.185,0.006,0.297-0.136,0.601-0.128
		c0.304,0.007,0.783-0.013,0.917-0.023C33.5,35.026,33.591,34.85,33.429,34.78z"/>
	<path style="fill:none;stroke:#000000;stroke-width:0.624;stroke-miterlimit:10;" d="M31.448,2.788c0,0-6.107,0.278-6.251,2.255
		c-0.145,1.976-0.01,1.822,0.029,2c0,0,0.513,1.775,0.592,2.034c0.079,0.258,1.984,6.74,2.052,6.974
		c0.07,0.235,1.718,5.816,1.936,6.498c0.216,0.68,1.333,5.022,1.421,5.46c0.089,0.437,0.321,1.413,0.321,1.413l-0.353,1.75
		c0,0-0.363-0.576-0.491-0.815c-0.908-1.701-2.686-5.103-2.843-5.427c-0.158-0.325-2.724-5.938-2.941-6.376
		c-0.217-0.438-3.287-7.736-3.504-8.294c-0.217-0.56-0.069-0.632,0.06-0.745c0.128-0.115,0.779-0.616,0.769-0.672
		c-0.009-0.057-0.71-0.309-0.829-0.356c-0.119-0.049-0.178-0.098-0.06-0.268c0.119-0.17,1.717-2.034,1.876-2.22
		c0,0,0.671-0.681,0.918-0.859c0.247-0.178,1.115-0.851,1.273-0.988C25.581,4.013,26.835,3.008,31.448,2.788z"/>
	<path style="fill:none;stroke:#000000;stroke-width:0.624;stroke-miterlimit:10;" d="M14.062,9.235c0,0,0.593,0.974,0.842,1.598
		c2.39,5.98,3.041,17.618,3.093,17.757"/>
	<path style="fill:#FFFFFF;stroke:#000000;stroke-width:0.624;stroke-miterlimit:10;" d="M30.93,33.106
		c-0.1,0.661-0.039,11.611,1.244,16.053"/>
	<path style="opacity:0.35;" d="M47.093,45.231c0,0-0.823,0.297-1.266,0.365c-0.443,0.068-1.609,0.119-2.066,0.193
		c-0.458,0.074-2.031,0.273-2.528-0.131c-0.502-0.402-0.724-3.084-0.724-3.084l6.42,2.264L47.093,45.231z"/>
	<path style="fill:#FFFFFF;stroke:#000000;stroke-width:0.624;stroke-miterlimit:10;" d="M40.503,42.429c0,0,0.171,1.607,0.357,2.17
		c0.185,0.562,0.396,1.357,2.526,1.07c1.118-0.15,1.395-0.172,1.935-0.193c0.539-0.021,1.632-0.25,1.817-0.326l-1.081-3.098
		C46.058,42.052,44.401,42.45,40.503,42.429z"/>
	<path style="fill:#575756;" d="M40.566,42.526v0.064c0,0,4.025,0.189,5.503-0.375l-0.012-0.053
		C46.058,42.163,45.275,42.563,40.566,42.526z"/>
	<path style="opacity:0.35;" d="M19.217,45.899c0.087,0.01,0.211,0.039,0.275,0.049c0.458,0.072,1.907,0.361,2.412-0.039
		c0.656-0.518,0.84-3.176,0.84-3.176l-4.147,1.463"/>
	<path style="fill:#FFFFFF;stroke:#000000;stroke-width:0.624;stroke-miterlimit:10;" d="M46.007,41.894
		c0,0-0.958,0.207-2.263,0.238c-1.303,0.033-3.266,0.109-3.266,0.109s-0.039,0.139-0.025,0.238c0.012,0.096,2.488,0.053,3.357,0.01
		c0.869-0.045,1.985-0.227,2.275-0.357C46.1,42.128,46.007,41.894,46.007,41.894z"/>
	<path style="fill:#FFFFFF;stroke:#000000;stroke-width:0.624;stroke-miterlimit:10;" d="M17.715,42.104l0.005-0.076
		c0,0,2.093,0.455,3.067,0.455c0.974,0,2.276,0.096,2.276,0.096c0.014,0.043-0.354,1.102-0.407,1.457
		c-0.052,0.359-0.211,1.977-1.777,1.902c-0.523-0.025-1.232-0.098-1.738-0.156"/>
	<path style="fill:#575756;" d="M23.019,42.7l-0.004,0.064c0,0-3.797-0.037-5.253-0.537l-0.048-0.098
		C17.714,42.13,18.316,42.524,23.019,42.7z"/>
	<path style="fill:#FFFFFF;stroke:#000000;stroke-width:0.624;stroke-miterlimit:10;" d="M17.714,41.716
		c0,0,1.382,0.473,3.041,0.559c0.985,0.051,2.313,0.047,2.408,0.17c0.046,0.059-0.112,0.232-0.112,0.232s-2.58-0.055-3.659-0.215
		c-0.85-0.129-1.62-0.316-1.62-0.316L17.714,41.716z"/>
	<path style="opacity:0.35;" d="M19.552,47.153c0,0,0.619,4.664-4.382,4.842l0.323-1.324c0,0,1.205,0.059,2.746-1.018
		c0.548-0.385,1.007-0.816,1.193-1.254C19.706,47.753,19.552,47.153,19.552,47.153z"/>
	<path style="fill:#DADADA;stroke:#000000;stroke-width:0.624;stroke-miterlimit:10;" d="M13.31,49.013c0,0,2.17,1.408,3.817,0.02
		c2.05-1.732,0.982-2.939,0.971-2.953c-0.026-0.031-0.388-0.037-0.484-0.045c-0.105-0.01-0.787-0.055-1.444,0.076
		c-0.657,0.129-1.708,0.533-2.389,1.641C13.52,48.177,13.35,48.872,13.31,49.013z"/>
	<path style="fill:none;stroke:#000000;stroke-width:0.624;stroke-miterlimit:10;" d="M13.268,49.204
		c-0.026-0.26,0.372-1.084,0.477-1.365c0.105-0.281,0.974-1.576,2.646-1.77c0.557-0.064,1.909-0.141,2.528,0.227
		c0.604,0.357,1.742,2.322-1.62,3.91c-0.761,0.359-1.434,0.486-1.855,0.465"/>
	<path style="fill:none;stroke:#000000;stroke-width:0.624;stroke-miterlimit:10;" d="M17.653,41.821
		c0.013,0.033,2.156,5.268,1.946,5.98"/>
	<path style="fill:#FFFFFF;stroke:#000000;stroke-width:0.624;stroke-miterlimit:10;" d="M32.598,34.961
		c0,0.399-0.325,0.725-0.727,0.725l0,0c-0.402,0-0.726-0.326-0.726-0.725c0,0,0.036-0.688,0.507-0.688l0.219-0.041
		C32.273,34.233,32.598,34.56,32.598,34.961L32.598,34.961z"/>
	<path style="fill:#FFFFFF;stroke:#000000;stroke-width:0.624;stroke-miterlimit:10;" d="M32.644,34.869
		c0,0.401-0.325,0.727-0.727,0.727l0,0c-0.402,0-0.727-0.326-0.727-0.727l0,0c0-0.401,0.325-0.727,0.727-0.727l0,0
		C32.319,34.142,32.644,34.468,32.644,34.869L32.644,34.869z"/>
	<g>
		<path style="fill:#FFFFFF;stroke:#000000;stroke-width:0.624;stroke-miterlimit:10;" d="M31.725,34.855
			c0.03,0.024,0.033,0.07,0.007,0.1l0,0c-0.025,0.03-0.07,0.032-0.101,0.008l0,0c-0.029-0.026-0.033-0.072-0.007-0.102l0,0
			C31.65,34.831,31.694,34.829,31.725,34.855L31.725,34.855z"/>
		<path style="fill:#FFFFFF;stroke:#000000;stroke-width:0.624;stroke-miterlimit:10;" d="M31.952,34.608
			c0.029,0.025,0.033,0.071,0.007,0.1l0,0c-0.027,0.03-0.072,0.034-0.102,0.008l0,0c-0.029-0.025-0.033-0.07-0.007-0.101l0,0
			C31.877,34.586,31.921,34.583,31.952,34.608L31.952,34.608z"/>
		<path style="fill:#FFFFFF;stroke:#000000;stroke-width:0.624;stroke-miterlimit:10;" d="M31.964,35.063
			c0.03,0.025,0.034,0.07,0.008,0.101l0,0c-0.026,0.03-0.071,0.032-0.101,0.007l0,0c-0.029-0.026-0.034-0.072-0.007-0.102l0,0
			C31.889,35.041,31.935,35.037,31.964,35.063L31.964,35.063z"/>
		<path style="fill:#FFFFFF;stroke:#000000;stroke-width:0.624;stroke-miterlimit:10;" d="M32.184,34.81
			c0.029,0.026,0.033,0.07,0.007,0.1l0,0c-0.026,0.03-0.071,0.034-0.102,0.008l0,0c-0.03-0.025-0.033-0.07-0.007-0.101l0,0
			C32.109,34.788,32.154,34.784,32.184,34.81L32.184,34.81z"/>
	</g>
	<path style="fill:#FFFFFF;stroke:#000000;stroke-width:0.624;stroke-miterlimit:10;" d="M33.302,45.421
		c0,0.402-0.326,0.727-0.727,0.727l0,0c-0.401,0-0.727-0.324-0.727-0.727c0,0,0.037-0.686,0.508-0.686l0.219-0.041
		C32.977,44.694,33.302,45.022,33.302,45.421L33.302,45.421z"/>
	<path style="fill:#FFFFFF;stroke:#000000;stroke-width:0.624;stroke-miterlimit:10;" d="M33.349,45.333
		c0,0.398-0.326,0.725-0.727,0.725l0,0c-0.401,0-0.726-0.326-0.726-0.725l0,0c0-0.404,0.325-0.73,0.726-0.73l0,0
		C33.022,44.603,33.349,44.929,33.349,45.333L33.349,45.333z"/>
	<g>
		<path style="fill:#FFFFFF;stroke:#000000;stroke-width:0.624;stroke-miterlimit:10;" d="M32.429,45.315
			c0.029,0.025,0.032,0.072,0.006,0.102l0,0c-0.026,0.031-0.071,0.033-0.101,0.008l0,0c-0.029-0.027-0.034-0.072-0.007-0.1l0,0
			C32.354,45.294,32.399,45.29,32.429,45.315L32.429,45.315z"/>
		<path style="fill:#FFFFFF;stroke:#000000;stroke-width:0.624;stroke-miterlimit:10;" d="M32.655,45.069
			c0.03,0.025,0.033,0.072,0.008,0.102l0,0c-0.026,0.029-0.071,0.033-0.1,0.006l0,0c-0.031-0.025-0.034-0.07-0.008-0.1l0,0
			C32.581,45.046,32.625,45.044,32.655,45.069L32.655,45.069z"/>
		<path style="fill:#FFFFFF;stroke:#000000;stroke-width:0.624;stroke-miterlimit:10;" d="M32.669,45.524
			c0.029,0.027,0.032,0.07,0.007,0.102l0,0c-0.025,0.029-0.07,0.031-0.101,0.008l0,0c-0.03-0.027-0.033-0.072-0.008-0.104l0,0
			C32.593,45.501,32.639,45.499,32.669,45.524L32.669,45.524z"/>
		<path style="fill:#FFFFFF;stroke:#000000;stroke-width:0.624;stroke-miterlimit:10;" d="M32.888,45.271
			c0.029,0.027,0.033,0.07,0.008,0.102l0,0c-0.026,0.029-0.071,0.033-0.102,0.008l0,0c-0.03-0.027-0.033-0.072-0.007-0.102l0,0
			C32.813,45.249,32.858,45.245,32.888,45.271L32.888,45.271z"/>
	</g>
	
		<line style="fill:none;stroke:#9D9D9C;stroke-width:0.6239;stroke-miterlimit:10;" x1="31.476" y1="29.201" x2="31.476" y2="5.534"/>
	<path style="fill:none;stroke:#000000;stroke-width:0.624;stroke-miterlimit:10;" d="M48.788,9.479c0,0,0.049,0.28-0.12,0.578
		c-3.457,6.105-4.2,20.36-4.2,20.36"/>
</g>
<g>
	<path style="fill:#FFFFFF;" d="M24.975,65.615c1.516,1.502,9.704,5.064,11.092,5.58c1.148,0.43,1.108-1.246,1.902-2.068
		c0.41-0.428,1.274,1.824,2.081,2.195s9.958-4.24,12.003-5.264c0.448-0.227-0.762-10.885-0.587-11.973
		c0.168-1.086,1.622-8.645,1.527-9.074s-1.66-3.926-1.238-7.941c0.421-4.016,1.238-7.23,1.242-7.655
		c0.004-0.425-7.44-2.283-8.955-3.507c-1.513-1.224-4.755-0.721-5.738-0.726c-0.983-0.005-6.36-0.461-6.781,1.141
		c-0.422,1.603-7.871,2.221-7.761,3.851c0.028,0.424,1.333,4.557,1.297,8.011c-0.037,3.51-1.283,5.977-1.134,7.233
		c0.149,1.252,0.976,3.898,1.103,5.111c0.126,1.207,0.157,7.139,0.013,9.52C24.898,62.428,24.547,65.191,24.975,65.615z"/>
	<path style="opacity:0.2;fill:#12100B;" d="M24.975,65.615c1.516,1.502,9.704,5.064,11.092,5.58
		c1.148,0.43,1.108-1.246,1.902-2.068c0.41-0.428,1.274,1.824,2.081,2.195s9.958-4.24,12.003-5.264
		c0.448-0.227-0.762-10.885-0.587-11.973c0.168-1.086,1.622-8.645,1.527-9.074s-1.66-3.926-1.238-7.941
		c0.421-4.016,1.238-7.23,1.242-7.655c0.004-0.425-7.44-2.283-8.955-3.507c-1.513-1.224-4.755-0.721-5.738-0.726
		c-0.983-0.005-6.36-0.461-6.781,1.141c-0.422,1.603-7.871,2.221-7.761,3.851c0.028,0.424,1.333,4.557,1.297,8.011
		c-0.037,3.51-1.283,5.977-1.134,7.233c0.149,1.252,0.976,3.898,1.103,5.111c0.126,1.207,0.157,7.139,0.013,9.52
		C24.898,62.428,24.547,65.191,24.975,65.615z"/>
	<path style="fill:#FFFFFF;" d="M26.387,64.793c1.517,1.502,9.705,5.064,11.095,5.58c1.145,0.426,1.106-1.246,1.9-2.072
		c0.411-0.426,1.274,1.826,2.081,2.195c0.807,0.373,9.956-4.24,12.001-5.26c0.452-0.229-0.759-10.891-0.587-11.971
		c0.171-1.088,1.626-8.646,1.529-9.074c-0.096-0.43-1.66-3.929-1.237-7.944c0.422-4.017,1.237-7.23,1.241-7.656
		c0.004-0.425-7.442-2.283-8.953-3.506c-1.514-1.225-4.756-0.72-5.74-0.726c-0.982-0.006-6.359-0.461-6.781,1.141
		c-0.421,1.603-7.871,2.22-7.761,3.851c0.029,0.422,1.333,4.556,1.297,8.011c-0.037,3.508-1.283,5.976-1.133,7.23
		c0.149,1.258,0.976,3.902,1.103,5.111c0.126,1.211,0.157,7.141,0.013,9.523C26.31,61.604,25.959,64.371,26.387,64.793z"/>
	<path style="opacity:0.2;" d="M40.865,46.102c-0.186,0.434-0.719,0.619-1.191,0.414c-0.47-0.203-0.702-0.717-0.516-1.15
		c0.186-0.432,0.718-0.617,1.187-0.414C40.819,45.158,41.051,45.668,40.865,46.102z"/>
	<path style="opacity:0.2;" d="M40.854,51.344c-0.185,0.432-0.719,0.617-1.192,0.414c-0.469-0.201-0.701-0.717-0.515-1.146
		c0.187-0.434,0.719-0.617,1.188-0.416C40.809,50.398,41.04,50.912,40.854,51.344z"/>
	<path style="opacity:0.2;" d="M40.803,56.158c-0.185,0.432-0.717,0.617-1.19,0.414c-0.469-0.203-0.701-0.717-0.515-1.148
		c0.186-0.434,0.717-0.615,1.188-0.416C40.759,55.211,40.988,55.727,40.803,56.158z"/>
	<path style="opacity:0.2;" d="M40.693,60.885c-0.186,0.432-0.72,0.613-1.193,0.412c-0.469-0.201-0.7-0.717-0.515-1.148
		c0.186-0.434,0.719-0.617,1.187-0.416C40.647,59.936,40.879,60.449,40.693,60.885z"/>
	<path style="opacity:0.2;" d="M40.854,65.727c-0.185,0.43-0.719,0.619-1.192,0.414c-0.469-0.203-0.701-0.715-0.515-1.146
		c0.187-0.436,0.719-0.619,1.188-0.418C40.809,64.781,41.04,65.293,40.854,65.727z"/>
	<g>
		<circle style="fill:#FFFFFF;stroke:#000000;stroke-width:0.624;stroke-miterlimit:10;" cx="40.212" cy="45.584" r="0.735"/>
		<circle cx="40.082" cy="45.4" r="0.107"/>
		<circle cx="40.409" cy="45.453" r="0.107"/>
		<circle cx="40.359" cy="45.787" r="0.106"/>
		<path d="M40.132,45.736c0,0.059-0.045,0.105-0.104,0.105c-0.061,0-0.107-0.047-0.107-0.105c0-0.062,0.047-0.111,0.107-0.111
			C40.086,45.625,40.132,45.674,40.132,45.736z"/>
	</g>
	<g>
		<circle style="fill:#FFFFFF;stroke:#000000;stroke-width:0.624;stroke-miterlimit:10;" cx="40.188" cy="50.668" r="0.735"/>
		<circle cx="40.057" cy="50.484" r="0.107"/>
		<circle cx="40.384" cy="50.535" r="0.107"/>
		<circle cx="40.336" cy="50.869" r="0.106"/>
		<circle cx="40.001" cy="50.816" r="0.105"/>
	</g>
	<g>
		<path style="fill:#FFFFFF;stroke:#000000;stroke-width:0.624;stroke-miterlimit:10;" d="M40.867,55.48
			c0,0.406-0.329,0.738-0.737,0.738c-0.404,0-0.733-0.332-0.733-0.738s0.33-0.734,0.733-0.734
			C40.538,54.746,40.867,55.074,40.867,55.48z"/>
		<circle cx="40" cy="55.299" r="0.106"/>
		<circle cx="40.328" cy="55.352" r="0.107"/>
		<circle cx="40.278" cy="55.684" r="0.106"/>
		<circle cx="39.945" cy="55.631" r="0.106"/>
	</g>
	<g>
		<path style="fill:#FFFFFF;stroke:#000000;stroke-width:0.624;stroke-miterlimit:10;" d="M40.867,60.203
			c0,0.41-0.329,0.738-0.737,0.738c-0.404,0-0.733-0.328-0.733-0.738c0-0.404,0.33-0.732,0.733-0.732
			C40.538,59.471,40.867,59.799,40.867,60.203z"/>
		<circle cx="40" cy="60.023" r="0.106"/>
		<circle cx="40.328" cy="60.074" r="0.107"/>
		<circle cx="40.278" cy="60.408" r="0.106"/>
		<circle cx="39.945" cy="60.355" r="0.106"/>
	</g>
	<g>
		<path style="fill:#FFFFFF;stroke:#000000;stroke-width:0.624;stroke-miterlimit:10;" d="M40.956,64.926
			c0,0.404-0.328,0.736-0.736,0.736c-0.406,0-0.735-0.332-0.735-0.736c0-0.41,0.33-0.734,0.735-0.734
			C40.628,64.191,40.956,64.516,40.956,64.926z"/>
		<circle cx="40.09" cy="64.742" r="0.106"/>
		<circle cx="40.417" cy="64.793" r="0.107"/>
		<path d="M40.474,65.127c0,0.057-0.045,0.109-0.104,0.109c-0.061,0-0.108-0.053-0.108-0.109s0.047-0.105,0.108-0.105
			C40.429,65.021,40.474,65.07,40.474,65.127z"/>
		<circle cx="40.034" cy="65.076" r="0.106"/>
	</g>
	<path style="opacity:0.2;" d="M39.716,24.359c-2.989,0-4.525-0.18-5.75,0.478c-0.779,0.419-0.999,0.6-1.028,1.096
		c-0.028,0.496,0.125,10.777,6.588,15.864c0.76,0.602,7.735-8.662,6.529-15.812C45.776,24.316,42.035,24.359,39.716,24.359z"/>
	<path style="fill:none;stroke:#000000;stroke-width:0.624;stroke-miterlimit:10;" d="M39.716,24.359
		c-2.989,0-4.525-0.18-5.75,0.478c-0.779,0.419-0.999,0.6-1.028,1.096c-0.028,0.496,0.125,10.777,6.588,15.864
		c0.76,0.602,7.735-8.662,6.529-15.812C45.776,24.316,42.035,24.359,39.716,24.359z"/>
	<path style="fill:none;stroke:#000000;stroke-width:0.624;stroke-miterlimit:10;" d="M39.81,41.705
		c-0.388,0.438-1.101,0.891-1.101,2.094c0,1.998-0.683,19.381-0.082,21.885c0.603,2.506,2.146,4.771,2.809,4.852
		c0.651,0.074,7.414-3.367,11.842-5.014c0.96-0.355-1.021-9.484-0.292-13.049c0.37-1.789,0.476-2.752,0.521-3.34
		c0.041-0.586,0.956-4.006,0.898-4.941c-0.055-0.941-1.386-2.117-1.259-7.324c0.131-5.206,1.149-6.968,1.261-8.024
		c0.114-1.059-7.014-2.271-8.951-3.758"/>
	<path style="fill:none;stroke:#000000;stroke-width:0.624;stroke-miterlimit:10;" d="M39.381,67.684
		c-0.59,2.084-0.915,2.684-1.5,2.852c-0.504,0.141-7.31-3.551-11.304-5.43c-0.87-0.41,0.351-8.77,0.115-12.578
		c-0.113-1.816-0.247-2.625-0.287-3.211s-1.026-4.227-0.974-5.168c0.053-0.938,1.152-2.154,1.032-7.36
		c-0.121-5.207-1.185-6.38-1.29-7.438c-0.105-1.057,6.383-2.666,8.185-4.153"/>
	<path style="fill:none;stroke:#000000;stroke-width:0.624;stroke-miterlimit:10;" d="M29.17,60.061
		c0.345,0.172,3.524,1.43,5.092,1.486c0.698,0.031,0.226,0.867,0.011,0.875c-1.641,0.039-5.187-1.148-5.479-1.686
		C28.622,60.426,28.905,59.932,29.17,60.061z"/>
	<path style="fill:none;stroke:#000000;stroke-width:0.624;stroke-miterlimit:10;" d="M50.595,60.32
		c-0.343,0.135-3.474,1.068-4.949,0.969c-0.656-0.043-0.319,0.836-0.123,0.865c1.528,0.203,4.993-0.621,5.337-1.123
		C51.059,60.736,50.857,60.219,50.595,60.32z"/>
	<path style="opacity:0.2;fill:none;stroke:#000000;stroke-linecap:round;stroke-miterlimit:10;" d="M47.821,49.137
		c-0.292,1.25-0.729,10.516-0.397,11.992"/>
	<path style="opacity:0.2;fill:none;stroke:#000000;stroke-linecap:round;stroke-miterlimit:10;" d="M32.009,49.246
		c0.346,1.434,0.771,9.74,0.37,11.943"/>
	<path style="opacity:0.2;fill:none;stroke:#000000;stroke-width:0.624;stroke-miterlimit:10;" d="M39.308,24.357
		c-0.035,3.925,0.359,15.529,0.217,17.44"/>
	<path style="opacity:0.2;" d="M38.419,68.236c-0.46-0.711-0.975-1.605-1.174-3.215c-0.13-1.061,0.038-9.285,0.21-15.535
		c0.089-3.266,0.077-6.342,0.243-6.82c0.479-1.398,1.152-1.453,1.386-1.238c0.2,0.182,0.769,0.58,0.474,0.539
		c-0.983-0.139-1.053,5.605-0.992,7.41c0.049,1.432-0.655,14.674,0.411,17.471c0.182,0.48,0.348,1.973,0.107,1.973
		C38.843,68.82,38.532,68.408,38.419,68.236z"/>
</g>
<g>
	<path style="opacity:0.35;" d="M39.544,74.509c-0.708-3.59-1.186-6.312-1.164-9.482c0.03-4.67-0.188-9.061-0.439-11.064
		c-0.251-2.008,0.312-4.234,0.814-5.832c0.194-0.617,0.446-1.008,0.501-1.381c0.09-0.594-0.071-1.059,0.096-1.693
		c0.343-1.316,0.124-2.545,0.861-2.836c0,0,4.298-2.387,15.472-1.866c11.442,0.532,12.57,1.254,12.853,2.508
		s0.566,2.477,0.629,3.166c0.061,0.691,0.25,3.324,0.562,3.887c0.313,0.564,0.283,1.193,0.283,1.883s0.407,1.693,0.375,2.729
		c-0.03,1.035,0.282,7.084,0.439,8.215c0.157,1.127-0.035,13.625,0.058,15.1H57.168c-0.157-1.727-0.417-3.031-0.826-4.318
		c-0.405-1.283-2.255-4.514-2.255-4.514s-0.668,6.889-0.607,8.832H40.279"/>
	<path style="fill:#FFFFFF;" d="M42.332,77.841c-0.344-2.07-2.146-9.662-2.113-14.332c0.031-4.672-0.19-9.062-0.439-11.068
		c-0.251-2.006,0.313-4.232,0.814-5.83c0.194-0.617,0.444-1.008,0.502-1.381c0.089-0.594-0.072-1.059,0.094-1.691
		c0.346-1.318,0.125-2.55,0.863-2.839c0,0,4.297-2.385,15.471-1.865c11.442,0.533,12.571,1.253,12.854,2.507
		c0.281,1.256,0.565,2.479,0.628,3.168s0.25,3.322,0.562,3.889c0.316,0.564,0.284,1.191,0.284,1.881s0.407,1.693,0.375,2.729
		c-0.03,1.033,0.282,7.082,0.438,8.213c0.157,1.129-0.235,15.148-0.143,16.621h-13.13c-0.159-1.725-0.803-4.551-1.21-5.838
		c-0.407-1.285-2.259-4.514-2.259-4.514s-1.034,8.588-0.972,10.535L42.332,77.841z"/>
	<path style="fill:none;" d="M72.289,72.161c-0.093-1.473,0.533-9.812,0.376-10.941c-0.156-1.131-0.469-7.18-0.438-8.213
		c0.032-1.035-0.375-2.039-0.375-2.729s0.032-1.316-0.284-1.881c-0.312-0.566-0.5-3.199-0.562-3.889s-0.347-1.912-0.628-3.168
		c-0.282-1.254-1.411-1.975-12.854-2.507c-11.174-0.52-15.471,1.865-15.471,1.865c-0.738,0.29-0.518,1.521-0.863,2.839
		c-0.166,0.633-0.005,1.098-0.094,1.691c-0.058,0.373-0.308,0.764-0.502,1.381c-0.5,1.598-1.065,3.824-0.814,5.83
		c0.249,2.006,0.47,6.396,0.439,11.068c-0.033,4.67,2.005,13.51,2.351,15.58c0.196,1.178,0.912,5.133,1.56,8.672"/>
	<path style="fill:none;stroke:#000000;stroke-width:0.624;stroke-miterlimit:10;" d="M41.117,44.007c0,0,0.668,0.816,2.016,1.035
		c1.349,0.221,4.877,0.689,6.006,0.846c1.126,0.156,2.652,0.525,3.619,0.502c0.752-0.018,8.747-0.25,10.314-0.281
		c1.567-0.033,7.339,0,7.838-2.258l-0.533-2.51c0,0-0.405,1.381-3.354,1.695c-2.947,0.312-9.822,0.564-11.011,0.627
		c-1.186,0.062-3.285,0-4.258-0.096c-0.972-0.092-5.454-0.752-6.396-0.846c-0.73-0.072-3.08-0.125-3.55-1.326
		c-0.095-0.236-0.015-0.517-0.036-0.502c-0.074,0.055-0.195,0.323-0.266,0.799c-0.074,0.477-0.2,1.355-0.267,1.627
		C41.178,43.593,41.117,44.007,41.117,44.007z"/>
	<path style="fill:#FFFFFF;" d="M51.957,46.323c0,0-1.44-0.074-1.645-0.074c-0.203,0-0.799-0.674-0.782-1.426
		c0.014-0.754,0.793-1.266,1.592-1.254c0.718,0.01,1.591,0.07,2.059,0.086"/>
	<path style="fill:none;stroke:#000000;stroke-width:0.624;stroke-miterlimit:10;" d="M72.522,77.841
		c0.028-2.018-0.203-5.209-0.233-5.68c-0.093-1.473,0.533-9.812,0.376-10.941c-0.156-1.131-0.469-7.18-0.438-8.213
		c0.032-1.035-0.375-2.039-0.375-2.729s0.032-1.316-0.284-1.881c-0.312-0.566-0.5-3.199-0.562-3.889s-0.347-1.912-0.628-3.168
		c-0.282-1.254-1.411-1.975-12.854-2.507c-11.174-0.52-15.471,1.865-15.471,1.865c-0.738,0.29-0.518,1.521-0.863,2.839
		c-0.166,0.633-0.005,1.098-0.094,1.691c-0.058,0.373-0.308,0.764-0.502,1.381c-0.5,1.598-1.065,3.824-0.814,5.83
		c0.249,2.006,0.47,6.396,0.439,11.068c-0.028,4.014,1.473,11.102,2.113,14.332"/>
	<path style="fill:none;stroke:#000000;stroke-width:0.624;stroke-miterlimit:10;" d="M72.279,77.841"/>
	<path style="fill:none;stroke:#000000;stroke-width:0.624;stroke-miterlimit:10;" d="M52.584,46.39c0,0-2.067-0.141-2.271-0.141
		c-0.203,0-0.799-0.674-0.782-1.426c0.014-0.754,0.85-1.277,1.609-1.248c0.718,0.027,1.573,0.064,2.041,0.08"/>
	<path style="fill:#FFFFFF;stroke:#000000;stroke-width:0.624;stroke-miterlimit:10;" d="M47.433,42.991
		c0,0-0.099,1.344-0.176,1.916c-0.08,0.574-0.205,1.123-0.062,1.232c0.14,0.109,0.609,0.26,0.736,0.184
		c0.125-0.074-0.157-0.074-0.127-0.906c0.032-0.828,0.276-2.336,0.276-2.336L47.433,42.991z"/>
	<path style="fill:#FFFFFF;stroke:#000000;stroke-width:0.624;stroke-miterlimit:10;" d="M58.574,43.548v3.143
		c0,0,0.532,0.076,0.659,0c0.125-0.08-0.078-3.107,0-3.143C59.309,43.517,58.574,43.548,58.574,43.548z"/>
	<path style="fill:#FFFFFF;stroke:#000000;stroke-width:0.624;stroke-miterlimit:10;" d="M70.079,41.812
		c-0.017,0.016,0.549,1.568,0.644,3.096c0.002,0.049,0.296-0.225,0.296-0.225s0.051-0.738-0.108-1.662
		c-0.157-0.926-0.533-1.68-0.533-1.68S70.263,41.626,70.079,41.812z"/>
	<path style="fill:#DADADA;stroke:#000000;stroke-width:0.624;stroke-miterlimit:10;" d="M43.104,42.376
		c0,0,3.948-1.756,12.32-1.474c8.37,0.282,10.564,0.532,13.637,1.569c0,0,0.877-0.414,1.184-0.861
		c0.305-0.449-0.54-1.696-5.761-2.142c-5.218-0.446-10.794-0.635-12.064-0.541c-0.937,0.069-7.279,0.259-10.567,2.066
		C41.557,41.155,42.082,42.183,43.104,42.376z"/>
	<path style="fill:none;stroke:#000000;stroke-width:0.624;stroke-miterlimit:10;" d="M52.571,46.452c0,0-0.472,8.902,0.123,11.475
		c0.596,2.572,1.352,6.49,1.757,7.088c0.408,0.594,1.19,1.535,1.473,2.475"/>
	<path style="fill:none;stroke:#000000;stroke-width:0.624;stroke-miterlimit:10;" d="M54.732,47.454c0,0-0.031,7.703-0.093,8.771
		c-0.062,1.072-0.878,2.578-1.789,2.705"/>
	<path style="fill:none;stroke:#9D9D9C;stroke-width:0.6239;stroke-miterlimit:10;" d="M45.579,55.575c0,0-1.317,9.594-0.095,20.223
		c0.061,0.525,0.22,1.555,0.286,2.094"/>
	<path style="fill:none;stroke:#9D9D9C;stroke-width:0.6239;stroke-miterlimit:10;" d="M60.532,58.587c0,0,1.34,11.795,2.402,19.305
		"/>
	<path d="M52.505,45.11c-0.008,0.061-0.064,0.102-0.123,0.094l-1.163-0.174c-0.057-0.008-0.098-0.064-0.089-0.123l0,0
		c0.008-0.059,0.062-0.1,0.123-0.09l1.161,0.172C52.473,44.999,52.514,45.054,52.505,45.11L52.505,45.11z"/>
	<circle style="fill:#FFFFFF;stroke:#000000;stroke-width:0.624;stroke-miterlimit:10;" cx="51.158" cy="44.88" r="0.642"/>
	<circle cx="51.044" cy="44.72" r="0.094"/>
	<circle cx="51.33" cy="44.767" r="0.094"/>
	<circle cx="51.287" cy="45.056" r="0.093"/>
	<circle cx="50.996" cy="45.011" r="0.093"/>
	<polygon style="fill:none;stroke:#000000;stroke-width:0.624;stroke-miterlimit:10;" points="72.302,55.681 69.561,45.229 
		69.24,45.362 72.391,57.175 	"/>
	<path style="fill:none;stroke:#000000;stroke-width:0.624;stroke-miterlimit:10;" d="M59.393,76.923"/>
	<path style="fill:none;stroke:#000000;stroke-width:0.624;stroke-miterlimit:10;" d="M54.977,77.013
		c0.156-2.947,0.947-9.523,0.947-9.523s1.852,3.229,2.259,4.514c0.314,0.992,0.89,4.283,1.21,6.021"/>
	<path style="fill:none;stroke:#000000;stroke-width:0.624;stroke-miterlimit:10;" d="M54.952,78.024
		c-0.007-0.244,0.002-0.592,0.024-1.012"/>
</g>
<g>
</g>
<g>
</g>
<g>
</g>
<g>
</g>
<g>
</g>
<g>
</g>
<g>
</g>
<g>
</g>
<g>
</g>
<g>
</g>
<g>
</g>
<g>
</g>
<g>
</g>
<g>
</g>
<g>
</g>
</svg>
