<?xml version="1.0" encoding="iso-8859-1"?>
<!-- Generator: Adobe Illustrator 16.0.4, SVG Export Plug-In . SVG Version: 6.00 Build 0)  -->
<!DOCTYPE svg PUBLIC "-//W3C//DTD SVG 1.1//EN" "http://www.w3.org/Graphics/SVG/1.1/DTD/svg11.dtd">
<svg version="1.1" id="Layer_1" xmlns="http://www.w3.org/2000/svg" xmlns:xlink="http://www.w3.org/1999/xlink" x="0px" y="0px"
	 width="80.071px" height="80.072px" viewBox="0 0 80.071 80.072" style="enable-background:new 0 0 80.071 80.072;"
	 xml:space="preserve">
<path style="fill:#FFFFFF;" d="M17.299,68.495c2.378,2.354,15.214,7.938,17.392,8.748c1.797,0.668,1.736-1.957,2.98-3.248
	c0.643-0.668,1.998,2.861,3.262,3.443c1.264,0.582,15.609-6.648,18.814-8.252c0.709-0.354-1.189-17.066-0.92-18.768
	c0.27-1.703,2.549-13.553,2.398-14.225s-2.604-6.151-1.941-12.447c0.66-6.296,1.941-11.335,1.947-12.002S49.566,8.166,47.193,6.247
	c-2.371-1.919-7.456-1.129-8.997-1.138s-9.971-0.723-10.631,1.79s-12.339,3.481-12.167,6.037c0.044,0.663,2.09,7.142,2.034,12.559
	c-0.058,5.501-2.011,9.366-1.776,11.333s1.53,6.113,1.729,8.011c0.198,1.896,0.246,11.195,0.021,14.926S16.628,67.831,17.299,68.495
	z"/>
<path style="opacity:0.2;fill:#12100B;" d="M17.299,68.495c2.378,2.354,15.214,7.938,17.392,8.748
	c1.797,0.668,1.736-1.957,2.98-3.248c0.643-0.668,1.998,2.861,3.262,3.443c1.264,0.582,15.609-6.648,18.814-8.252
	c0.709-0.354-1.189-17.066-0.92-18.768c0.27-1.703,2.549-13.553,2.398-14.225s-2.604-6.151-1.941-12.447
	c0.66-6.296,1.941-11.335,1.947-12.002S49.566,8.166,47.193,6.247c-2.371-1.919-7.456-1.129-8.997-1.138s-9.971-0.723-10.631,1.79
	s-12.339,3.481-12.167,6.037c0.044,0.663,2.09,7.142,2.034,12.559c-0.058,5.501-2.011,9.366-1.776,11.333s1.53,6.113,1.729,8.011
	c0.198,1.896,0.246,11.195,0.021,14.926S16.628,67.831,17.299,68.495z"/>
<path style="fill:#FFFFFF;" d="M19.514,67.204c2.378,2.354,15.214,7.938,17.392,8.747c1.797,0.668,1.736-1.956,2.98-3.248
	c0.643-0.667,1.998,2.862,3.261,3.444s15.61-6.649,18.814-8.252c0.709-0.354-1.189-17.066-0.92-18.769s2.549-13.552,2.398-14.225
	s-2.603-6.151-1.941-12.447s1.942-11.335,1.948-12.002S51.78,6.874,49.408,4.955s-7.456-1.129-8.997-1.138S30.44,3.094,29.78,5.607
	s-12.339,3.481-12.167,6.037c0.044,0.663,2.09,7.142,2.034,12.559c-0.058,5.501-2.011,9.366-1.776,11.333s1.53,6.113,1.729,8.011
	s0.246,11.196,0.021,14.927S18.843,66.54,19.514,67.204z"/>
<path style="opacity:0.2;" d="M42.212,37.901c-0.291,0.676-1.127,0.967-1.869,0.648c-0.735-0.317-1.098-1.123-0.807-1.8
	c0.292-0.678,1.126-0.968,1.862-0.652C42.141,36.418,42.504,37.223,42.212,37.901z"/>
<path style="opacity:0.2;" d="M42.195,46.12c-0.291,0.676-1.127,0.967-1.869,0.648c-0.735-0.316-1.098-1.123-0.807-1.8
	c0.292-0.679,1.126-0.968,1.862-0.651C42.124,44.637,42.487,45.441,42.195,46.12z"/>
<path style="opacity:0.2;" d="M42.116,53.667c-0.291,0.676-1.127,0.967-1.869,0.648c-0.735-0.316-1.098-1.123-0.807-1.8
	c0.292-0.679,1.126-0.968,1.862-0.651C42.045,52.184,42.408,52.988,42.116,53.667z"/>
<path style="opacity:0.2;" d="M41.941,61.073c-0.291,0.676-1.127,0.967-1.869,0.648c-0.735-0.316-1.098-1.123-0.807-1.8
	c0.292-0.679,1.126-0.968,1.862-0.651C41.87,59.59,42.233,60.395,41.941,61.073z"/>
<path style="opacity:0.2;" d="M42.195,68.667c-0.291,0.676-1.127,0.967-1.869,0.648c-0.735-0.316-1.098-1.123-0.807-1.8
	c0.292-0.679,1.126-0.968,1.862-0.651C42.124,67.184,42.487,67.988,42.195,68.667z"/>
<g>
	<circle style="fill:#FFFFFF;stroke:#000000;stroke-width:0.624;stroke-miterlimit:10;" cx="41.189" cy="37.089" r="1.153"/>
	<circle cx="40.984" cy="36.801" r="0.167"/>
	<circle cx="41.497" cy="36.884" r="0.168"/>
	<circle cx="41.42" cy="37.407" r="0.166"/>
	<circle cx="40.896" cy="37.325" r="0.166"/>
</g>
<g>
	<circle style="fill:#FFFFFF;stroke:#000000;stroke-width:0.624;stroke-miterlimit:10;" cx="41.151" cy="45.058" r="1.153"/>
	<circle cx="40.946" cy="44.771" r="0.167"/>
	<circle cx="41.459" cy="44.853" r="0.168"/>
	<circle cx="41.382" cy="45.376" r="0.166"/>
	<circle cx="40.858" cy="45.294" r="0.166"/>
</g>
<g>
	<circle style="fill:#FFFFFF;stroke:#000000;stroke-width:0.624;stroke-miterlimit:10;" cx="41.062" cy="52.604" r="1.153"/>
	<circle cx="40.857" cy="52.317" r="0.167"/>
	<circle cx="41.37" cy="52.399" r="0.168"/>
	<circle cx="41.293" cy="52.923" r="0.166"/>
	<circle cx="40.77" cy="52.841" r="0.166"/>
</g>
<g>
	<circle style="fill:#FFFFFF;stroke:#000000;stroke-width:0.624;stroke-miterlimit:10;" cx="41.062" cy="60.011" r="1.153"/>
	<circle cx="40.857" cy="59.724" r="0.167"/>
	<circle cx="41.37" cy="59.806" r="0.168"/>
	<circle cx="41.293" cy="60.329" r="0.166"/>
	<circle cx="40.77" cy="60.247" r="0.166"/>
</g>
<g>
	<circle style="fill:#FFFFFF;stroke:#000000;stroke-width:0.624;stroke-miterlimit:10;" cx="41.202" cy="67.409" r="1.153"/>
	<circle cx="40.997" cy="67.122" r="0.167"/>
	<circle cx="41.51" cy="67.204" r="0.168"/>
	<circle cx="41.433" cy="67.728" r="0.166"/>
	<circle cx="40.909" cy="67.646" r="0.166"/>
</g>
<path style="opacity:0.2;" d="M40.411,3.817c-4.688,0-7.094-0.281-9.016,0.75c-1.222,0.656-1.567,0.94-1.612,1.718
	c-0.045,0.777,0.194,16.896,10.329,24.874c1.191,0.938,12.125-13.583,10.239-24.792C49.91,3.75,44.05,3.817,40.411,3.817z"/>
<path style="fill:none;stroke:#000000;stroke-miterlimit:10;" d="M40.411,3.817c-4.688,0-7.094-0.281-9.016,0.75
	c-1.222,0.656-1.567,0.94-1.612,1.718c-0.045,0.777,0.194,16.896,10.329,24.874c1.191,0.938,12.125-13.583,10.239-24.792
	C49.91,3.75,44.05,3.817,40.411,3.817z"/>
<path style="fill:none;stroke:#000000;stroke-miterlimit:10;" d="M40.557,31.013c-0.608,0.686-1.726,1.394-1.726,3.276
	c0,3.132-1.071,30.386-0.128,34.314c0.944,3.928,3.362,7.477,4.405,7.6c1.02,0.12,11.622-5.277,18.561-7.854
	c1.507-0.561-1.597-14.871-0.452-20.456c0.577-2.809,0.743-4.316,0.811-5.237c0.067-0.92,1.502-6.279,1.413-7.752
	c-0.088-1.473-2.176-3.314-1.974-11.476s1.799-10.923,1.977-12.58c0.178-1.657-10.995-3.56-14.035-5.892"/>
<path style="fill:none;stroke:#000000;stroke-miterlimit:10;" d="M39.886,71.734c-0.925,3.267-1.436,4.207-2.353,4.468
	c-0.79,0.226-11.459-5.564-17.72-8.51c-1.363-0.643,0.549-13.747,0.179-19.719c-0.176-2.847-0.387-4.111-0.449-5.032
	c-0.063-0.921-1.609-6.627-1.527-8.101c0.083-1.473,1.805-3.375,1.617-11.537c-0.188-8.162-1.855-10.003-2.021-11.66
	c-0.166-1.657,10.007-4.178,12.833-6.51"/>
<path style="fill:none;stroke:#000000;stroke-miterlimit:10;" d="M23.877,59.786c0.539,0.265,5.524,2.24,7.982,2.332
	c1.096,0.042,0.354,1.357,0.017,1.366c-2.57,0.064-8.129-1.801-8.589-2.64C23.018,60.354,23.462,59.581,23.877,59.786z"/>
<path style="fill:none;stroke:#000000;stroke-miterlimit:10;" d="M57.467,60.194c-0.537,0.209-5.45,1.671-7.759,1.517
	c-1.03-0.069-0.502,1.312-0.191,1.354c2.394,0.322,7.826-0.974,8.363-1.76C58.194,60.844,57.878,60.032,57.467,60.194z"/>
<path style="opacity:0.2;fill:none;stroke:#000000;stroke-linecap:round;stroke-miterlimit:10;" d="M53.12,42.661
	c-0.459,1.958-1.146,16.481-0.624,18.795"/>
<path style="opacity:0.2;fill:none;stroke:#000000;stroke-linecap:round;stroke-miterlimit:10;" d="M28.328,42.828
	c0.542,2.25,1.208,15.271,0.58,18.729"/>
<rect x="0.036" y="0.036" style="fill:none;" width="80" height="80"/>
<path style="opacity:0.2;fill:none;stroke:#000000;stroke-miterlimit:10;" d="M39.771,3.815c-0.053,6.152,0.562,24.344,0.341,27.344
	"/>
<path style="opacity:0.2;" d="M38.377,72.6c-0.722-1.113-1.528-2.517-1.841-5.04c-0.205-1.657,0.06-14.555,0.328-24.352
	c0.141-5.121,0.123-9.942,0.38-10.693c0.75-2.188,1.806-2.271,2.174-1.937c0.312,0.284,1.206,0.908,0.742,0.842
	c-1.541-0.219-1.651,8.783-1.554,11.613c0.078,2.248-1.028,23.003,0.643,27.388c0.286,0.751,0.544,3.094,0.169,3.094
	S38.555,72.873,38.377,72.6z"/>
<rect style="fill:none;" width="80.071" height="80.072"/>
<g>
</g>
<g>
</g>
<g>
</g>
<g>
</g>
<g>
</g>
<g>
</g>
<g>
</g>
<g>
</g>
<g>
</g>
<g>
</g>
<g>
</g>
<g>
</g>
<g>
</g>
<g>
</g>
<g>
</g>
</svg>
